<svg xmlns="http://www.w3.org/2000/svg" xmlns:xlink="http://www.w3.org/1999/xlink" viewBox="0 0 247.6 161.03"><defs><style>.cls-1,.cls-11,.cls-13,.cls-2{fill:none;}.cls-11,.cls-13,.cls-2{stroke-miterlimit:10;}.cls-2{stroke:url(#linear-gradient);}.cls-3{fill:#e1e1e1;}.cls-4{fill:#001a3a;}.cls-5{fill:url(#linear-gradient-2);}.cls-6{fill:url(#linear-gradient-3);}.cls-7{fill:url(#linear-gradient-4);}.cls-8{fill:url(#linear-gradient-5);}.cls-9{fill:url(#linear-gradient-6);}.cls-10{fill:#002047;}.cls-11{stroke:#e1e1e1;}.cls-12{fill:#a7a9ac;}.cls-13{stroke:#21409a;}.cls-14{isolation:isolate;}.cls-15{clip-path:url(#clip-path);}.cls-16{clip-path:url(#clip-path-2);}</style><linearGradient id="linear-gradient" x1="110.68" y1="107.79" x2="111.68" y2="107.79" gradientUnits="userSpaceOnUse"><stop offset="0" stop-color="#fafafa"/><stop offset="1" stop-color="#fafafa"/></linearGradient><linearGradient id="linear-gradient-2" x1="0.26" y1="104.92" x2="247.35" y2="104.92" xlink:href="#linear-gradient"/><linearGradient id="linear-gradient-3" x1="0.26" y1="37.32" x2="247.35" y2="37.32" xlink:href="#linear-gradient"/><linearGradient id="linear-gradient-4" x1="0.26" y1="60.55" x2="247.35" y2="60.55" xlink:href="#linear-gradient"/><linearGradient id="linear-gradient-5" x1="128.92" y1="113.22" x2="128.92" y2="113.22" gradientUnits="userSpaceOnUse"><stop offset="0.05" stop-color="#00377a"/><stop offset="1" stop-color="#0085e2"/></linearGradient><linearGradient id="linear-gradient-6" x1="0.26" y1="109.32" x2="247.35" y2="109.32" xlink:href="#linear-gradient"/><clipPath id="clip-path"><polygon class="cls-1" points="86.68 89.82 90.02 87.88 93.82 90.07 90.48 92.01 86.68 89.82"/></clipPath><clipPath id="clip-path-2"><polygon class="cls-1" points="173.7 60.89 170.36 62.83 166.56 60.64 169.9 58.7 173.7 60.89"/></clipPath></defs><title>Asset 21</title><g id="Layer_2" data-name="Layer 2"><g id="Layer_1-2" data-name="Layer 1"><line class="cls-2" x1="111.18" y1="97.95" x2="111.18" y2="117.62"/><path class="cls-3" d="M78.86,158.07l159.3-91.65a18.33,18.33,0,0,0,9.19-15.89V41.33l-169,97.21a21.2,21.2,0,0,1-21.21,0l-56.89-33v9.25A18.33,18.33,0,0,0,9.4,130.64L56.67,158A22.18,22.18,0,0,0,78.86,158.07Z"/><polyline class="cls-3" points="247.35 41.33 247.35 39.22 245.55 42.53"/><polygon class="cls-3" points="0.26 107.42 0.26 103.48 2.4 104.71 2.14 108.34 0.26 107.42"/><path class="cls-1" d="M57.39,138.52,2.05,106.61a3.58,3.58,0,0,1,0-6.2l172-98.93a11.08,11.08,0,0,1,11.08,0l60.39,34.84a3.58,3.58,0,0,1,0,6.2l-167,96A21.18,21.18,0,0,1,57.39,138.52Z"/><line class="cls-3" x1="9.4" y1="130.64" x2="56.67" y2="158.03"/><path class="cls-1" d="M57.39,152.19,2.05,120.28a3.58,3.58,0,0,1,0-6.2l172-98.93"/><path class="cls-4" d="M247.35,39.22v9.37l-1.8,1.18-167,96a21.18,21.18,0,0,1-21.17,0L2.05,113.85.26,112.74v-9.26"/><path class="cls-5" d="M2.06,100.41a3.58,3.58,0,0,0,0,6.2l55.34,31.92a21.18,21.18,0,0,0,21.17,0l50.36-29L57.6,68.46Z"/><path class="cls-6" d="M245.56,36.33,185.18,1.49a11.08,11.08,0,0,0-11.08,0l-55.71,32,71.32,41.13,55.85-32.11A3.58,3.58,0,0,0,245.56,36.33Z"/><polygon class="cls-7" points="189.71 54.21 189.71 81.89 245.55 49.77 247.35 48.59 247.35 39.22 189.71 54.21"/><line class="cls-8" x1="128.92" y1="109.6" x2="128.92" y2="116.84"/><path class="cls-9" d="M.26,103.48v9.26l1.79,1.11,55.34,31.92a21.18,21.18,0,0,0,21.17,0l50.36-29V70Z"/><polygon class="cls-10" points="57.6 68.47 128.92 109.6 189.71 74.64 118.39 33.51 57.6 68.47"/><path class="cls-11" d="M.26,105.5l1.79,1.11,55.34,31.92a21.18,21.18,0,0,0,21.17,0l50.36-29L57.6,68.46"/><polyline class="cls-11" points="118.39 33.51 189.71 74.64 247.35 41.33"/><line class="cls-11" x1="129.42" y1="109.6" x2="129.42" y2="119.78"/><line class="cls-11" x1="189.71" y1="74.64" x2="189.71" y2="84.89"/><path class="cls-3" d="M96.59,122.07a.15.15,0,0,0-.07-.12L90,118.27a.46.46,0,0,0-.46,0L82.4,122.4a.15.15,0,0,0-.07.13h0V123a.77.77,0,0,0,.38.66L88.63,127a.93.93,0,0,0,.93,0l6.65-3.83a.77.77,0,0,0,.38-.66v-.47Z"/><path class="cls-12" d="M89.56,127l6.65-3.83a.77.77,0,0,0,.38-.66v-.38l-7.06,4.06a.89.89,0,0,1-.89,0l-6.33-3.6V123a.77.77,0,0,0,.38.66L88.63,127A.93.93,0,0,0,89.56,127Z"/><polyline class="cls-3" points="96.59 122.16 96.59 122.07 96.52 122.21"/><polygon class="cls-3" points="82.32 122.7 82.32 122.53 82.41 122.58 82.4 122.74 82.32 122.7"/><path class="cls-3" d="M88.66,126.22l-6.26-3.55a.15.15,0,0,1,0-.26l7.18-4.13a.46.46,0,0,1,.46,0l6.47,3.67a.15.15,0,0,1,0,.26l-7,4A.88.88,0,0,1,88.66,126.22Z"/><path class="cls-3" d="M82.85,114.13a.15.15,0,0,0-.07-.12l-6.47-3.67a.46.46,0,0,0-.46,0l-7.18,4.13a.15.15,0,0,0-.07.13h0v.47a.77.77,0,0,0,.38.66l5.92,3.36a.93.93,0,0,0,.93,0l6.65-3.83a.77.77,0,0,0,.38-.66v-.47Z"/><path class="cls-12" d="M75.82,119.09l6.65-3.83a.77.77,0,0,0,.38-.66v-.38l-7.06,4.06a.89.89,0,0,1-.89,0l-6.33-3.6v.39a.77.77,0,0,0,.38.66l5.92,3.36A.93.93,0,0,0,75.82,119.09Z"/><polyline class="cls-3" points="82.85 114.22 82.85 114.13 82.78 114.27"/><polygon class="cls-3" points="68.58 114.76 68.58 114.59 68.67 114.64 68.66 114.8 68.58 114.76"/><path class="cls-3" d="M74.92,118.28l-6.26-3.55a.15.15,0,0,1,0-.26l7.18-4.13a.46.46,0,0,1,.46,0L82.78,114a.15.15,0,0,1,0,.26l-7,4A.88.88,0,0,1,74.92,118.28Z"/><path class="cls-3" d="M69.11,106.19a.15.15,0,0,0-.07-.12l-6.47-3.67a.46.46,0,0,0-.46,0l-7.18,4.13a.15.15,0,0,0-.07.13h0v.47a.77.77,0,0,0,.38.66l5.92,3.36a.93.93,0,0,0,.93,0l6.65-3.83a.77.77,0,0,0,.38-.66v-.47Z"/><path class="cls-12" d="M62.08,111.15l6.65-3.83a.77.77,0,0,0,.38-.66v-.38l-7.06,4.06a.89.89,0,0,1-.89,0l-6.33-3.6v.39a.77.77,0,0,0,.38.66l5.92,3.36A.93.93,0,0,0,62.08,111.15Z"/><polyline class="cls-3" points="69.11 106.28 69.11 106.19 69.04 106.33"/><polygon class="cls-3" points="54.85 106.82 54.85 106.65 54.94 106.71 54.92 106.86 54.85 106.82"/><path class="cls-3" d="M61.18,110.34l-6.26-3.55a.15.15,0,0,1,0-.26l7.18-4.13a.46.46,0,0,1,.46,0L69,106.07a.15.15,0,0,1,0,.26l-7,4A.88.88,0,0,1,61.18,110.34Z"/><path class="cls-3" d="M55.37,98.25a.15.15,0,0,0-.07-.12l-6.47-3.67a.46.46,0,0,0-.46,0l-7.18,4.13a.15.15,0,0,0-.07.13h0v.47a.77.77,0,0,0,.38.66l5.92,3.36a.93.93,0,0,0,.93,0L55,99.39a.77.77,0,0,0,.38-.66v-.47Z"/><path class="cls-12" d="M48.34,103.21,55,99.39a.77.77,0,0,0,.38-.66v-.38l-7.06,4.06a.89.89,0,0,1-.89,0l-6.33-3.6v.39a.77.77,0,0,0,.38.66l5.92,3.36A.93.93,0,0,0,48.34,103.21Z"/><polyline class="cls-3" points="55.38 98.34 55.38 98.25 55.3 98.39"/><polygon class="cls-3" points="41.11 98.88 41.11 98.72 41.2 98.77 41.19 98.92 41.11 98.88"/><path class="cls-3" d="M47.44,102.4l-6.26-3.55a.15.15,0,0,1,0-.26l7.18-4.13a.46.46,0,0,1,.46,0l6.47,3.67a.15.15,0,0,1,0,.26l-7,4A.88.88,0,0,1,47.44,102.4Z"/><path class="cls-3" d="M41.64,90.31a.15.15,0,0,0-.07-.12l-6.47-3.67a.46.46,0,0,0-.46,0l-7.18,4.13a.15.15,0,0,0-.07.13h0v.47a.77.77,0,0,0,.38.66l5.92,3.36a.93.93,0,0,0,.93,0l6.65-3.83a.77.77,0,0,0,.38-.66v-.47Z"/><path class="cls-12" d="M34.6,95.27l6.65-3.83a.77.77,0,0,0,.38-.66V90.4l-7.06,4.06a.89.89,0,0,1-.89,0l-6.33-3.6v.39a.77.77,0,0,0,.38.66l5.92,3.36A.93.93,0,0,0,34.6,95.27Z"/><polyline class="cls-3" points="41.64 90.4 41.64 90.31 41.56 90.45"/><polygon class="cls-3" points="27.37 90.94 27.37 90.78 27.46 90.83 27.45 90.98 27.37 90.94"/><path class="cls-3" d="M33.7,94.46l-6.26-3.55a.15.15,0,0,1,0-.26l7.18-4.13a.46.46,0,0,1,.46,0l6.47,3.67a.15.15,0,0,1,0,.26l-7,4A.88.88,0,0,1,33.7,94.46Z"/><polyline class="cls-11" points="26.27 86.02 97.59 127.16 97.59 147.34"/><path class="cls-3" d="M217.53,52.19a.15.15,0,0,0-.07-.12L211,48.4a.46.46,0,0,0-.46,0l-7.18,4.13a.15.15,0,0,0-.07.13h0v.47a.77.77,0,0,0,.38.66l5.92,3.36a.93.93,0,0,0,.93,0l6.65-3.83a.77.77,0,0,0,.38-.66v-.47Z"/><path class="cls-12" d="M210.49,57.15l6.65-3.83a.77.77,0,0,0,.38-.66v-.38l-7.06,4.06a.89.89,0,0,1-.89,0l-6.33-3.6v.39a.77.77,0,0,0,.38.66l5.92,3.36A.93.93,0,0,0,210.49,57.15Z"/><polyline class="cls-3" points="217.53 52.28 217.53 52.19 217.45 52.33"/><polygon class="cls-3" points="203.26 52.82 203.26 52.65 203.35 52.7 203.34 52.86 203.26 52.82"/><path class="cls-3" d="M209.6,56.34l-6.26-3.55a.15.15,0,0,1,0-.26l7.18-4.13a.46.46,0,0,1,.46,0l6.47,3.67a.15.15,0,0,1,0,.26l-7,4A.88.88,0,0,1,209.6,56.34Z"/><path class="cls-3" d="M203.79,44.25a.15.15,0,0,0-.07-.12l-6.47-3.67a.46.46,0,0,0-.46,0l-7.18,4.13a.15.15,0,0,0-.07.13h0v.47a.77.77,0,0,0,.38.66l5.92,3.36a.93.93,0,0,0,.93,0l6.65-3.83a.77.77,0,0,0,.38-.66v-.47Z"/><path class="cls-12" d="M196.75,49.21l6.65-3.83a.77.77,0,0,0,.38-.66v-.38l-7.06,4.06a.89.89,0,0,1-.89,0l-6.33-3.6v.39a.77.77,0,0,0,.38.66l5.92,3.36A.93.93,0,0,0,196.75,49.21Z"/><polyline class="cls-3" points="203.79 44.34 203.79 44.25 203.72 44.39"/><polygon class="cls-3" points="189.52 44.88 189.52 44.72 189.61 44.77 189.6 44.92 189.52 44.88"/><path class="cls-3" d="M195.86,48.4l-6.26-3.55a.15.15,0,0,1,0-.26l7.18-4.13a.46.46,0,0,1,.46,0l6.47,3.67a.15.15,0,0,1,0,.26l-7,4A.88.88,0,0,1,195.86,48.4Z"/><path class="cls-3" d="M190.05,36.31a.15.15,0,0,0-.07-.12l-6.47-3.67a.46.46,0,0,0-.46,0l-7.18,4.13a.15.15,0,0,0-.07.13h0v.47a.77.77,0,0,0,.38.66l5.92,3.36a.93.93,0,0,0,.93,0l6.65-3.83a.77.77,0,0,0,.38-.66v-.47Z"/><path class="cls-12" d="M183,41.27l6.65-3.83a.77.77,0,0,0,.38-.66V36.4L183,40.46a.89.89,0,0,1-.89,0l-6.33-3.6v.39a.77.77,0,0,0,.38.66l5.92,3.36A.93.93,0,0,0,183,41.27Z"/><polyline class="cls-3" points="190.05 36.4 190.05 36.31 189.98 36.45"/><polygon class="cls-3" points="175.78 36.94 175.78 36.78 175.87 36.83 175.86 36.98 175.78 36.94"/><path class="cls-3" d="M182.12,40.46l-6.26-3.55a.15.15,0,0,1,0-.26L183,32.52a.46.46,0,0,1,.46,0L190,36.19a.15.15,0,0,1,0,.26l-7,4A.88.88,0,0,1,182.12,40.46Z"/><path class="cls-3" d="M176.31,28.37a.15.15,0,0,0-.07-.12l-6.47-3.67a.46.46,0,0,0-.46,0l-7.18,4.13a.15.15,0,0,0-.07.13h0v.47a.77.77,0,0,0,.38.66l5.92,3.36a.93.93,0,0,0,.93,0l6.65-3.83a.77.77,0,0,0,.38-.66v-.47Z"/><path class="cls-12" d="M169.28,33.34l6.65-3.83a.77.77,0,0,0,.38-.66v-.38l-7.06,4.06a.89.89,0,0,1-.89,0L162,28.92v.39a.77.77,0,0,0,.38.66l5.92,3.36A.93.93,0,0,0,169.28,33.34Z"/><polyline class="cls-3" points="176.31 28.46 176.31 28.37 176.24 28.51"/><polygon class="cls-3" points="162.04 29 162.04 28.84 162.13 28.89 162.12 29.04 162.04 29"/><path class="cls-3" d="M168.38,32.52,162.12,29a.15.15,0,0,1,0-.26l7.18-4.13a.46.46,0,0,1,.46,0l6.47,3.67a.15.15,0,0,1,0,.26l-7,4A.88.88,0,0,1,168.38,32.52Z"/><path class="cls-3" d="M162.57,20.43a.15.15,0,0,0-.07-.12L156,16.64a.46.46,0,0,0-.46,0l-7.18,4.13a.15.15,0,0,0-.07.13h0v.47a.77.77,0,0,0,.38.66l5.92,3.36a.93.93,0,0,0,.93,0l6.65-3.83a.77.77,0,0,0,.38-.66v-.47Z"/><path class="cls-12" d="M155.54,25.4l6.65-3.83a.77.77,0,0,0,.38-.66v-.38l-7.06,4.06a.89.89,0,0,1-.89,0L148.31,21v.39a.77.77,0,0,0,.38.66l5.92,3.36A.93.93,0,0,0,155.54,25.4Z"/><polyline class="cls-3" points="162.57 20.52 162.57 20.43 162.5 20.57"/><polygon class="cls-3" points="148.31 21.06 148.31 20.9 148.4 20.95 148.38 21.1 148.31 21.06"/><path class="cls-3" d="M154.64,24.58,148.38,21a.15.15,0,0,1,0-.26l7.18-4.13a.46.46,0,0,1,.46,0l6.47,3.67a.15.15,0,0,1,0,.26l-7,4A.88.88,0,0,1,154.64,24.58Z"/><polyline class="cls-11" points="147.21 16.14 218.53 57.28 218.53 77.46"/><line class="cls-11" x1="90.02" y1="90.16" x2="64.37" y2="104.92"/><line class="cls-11" x1="193.83" y1="46.65" x2="170.13" y2="60.29"/><path class="cls-13" d="M107.22,80.83"/><path class="cls-13" d="M152.26,64.29"/><polygon class="cls-3" points="90.81 87.05 95.84 89.93 94.96 90.49 89.84 87.52 90.81 87.05"/><line class="cls-3" x1="163.84" y1="60.29" x2="167.33" y2="61.24"/><polyline class="cls-3" points="167.33 61.24 168.25 62.81 163.84 60.29"/><g class="cls-14"><g class="cls-15"><polyline class="cls-3" points="92.05 89.05 89.43 89.39 86.82 89.74 88.65 90.88 90.48 92.01 91.27 90.53 92.05 89.05"/></g></g><g class="cls-14"><g class="cls-16"><polyline class="cls-3" points="168.34 61.66 170.95 61.32 173.56 60.97 171.73 59.83 169.9 58.7 169.12 60.18 168.34 61.66"/></g></g><polygon class="cls-4" points="100.73 63.67 104.41 65.8 128.15 52 137.12 57.18 113.37 70.97 117.06 73.1 94.84 76.55 100.73 63.67"/><polygon class="cls-4" points="112.14 86.2 121.1 91.38 144.85 77.58 148.53 79.7 154.42 66.83 132.2 70.28 135.53 72.19 112.14 86.2"/></g></g></svg>