<svg xmlns="http://www.w3.org/2000/svg" xmlns:xlink="http://www.w3.org/1999/xlink" viewBox="0 0 419.87 261.91"><defs><style>.cls-1{fill:none;}.cls-2,.cls-4{fill:#e1e1e1;}.cls-3{fill:url(#linear-gradient);}.cls-4{stroke:#e1e1e1;stroke-miterlimit:10;stroke-width:0.82px;}.cls-5{fill:#e0cbcb;}.cls-6{fill:#0048f6;}.cls-7{fill:#006fe8;}.cls-8{fill:#0075f5;}.cls-9{isolation:isolate;}.cls-10{clip-path:url(#clip-path);}.cls-11{fill:#9ac6f6;}.cls-12{fill:#fff;}.cls-13{fill:#338ced;}.cls-14{clip-path:url(#clip-path-2);}.cls-15{clip-path:url(#clip-path-3);}.cls-16{clip-path:url(#clip-path-4);}.cls-17{fill:#f5f5f5;}.cls-18{fill:url(#linear-gradient-2);}.cls-19{fill:#faf2f8;}.cls-20{fill:#003269;}.cls-21{fill:url(#linear-gradient-3);}.cls-22{fill:url(#linear-gradient-4);}.cls-23{clip-path:url(#clip-path-5);}</style><linearGradient id="linear-gradient" y1="130.96" x2="419.87" y2="130.96" gradientUnits="userSpaceOnUse"><stop offset="0" stop-color="#fafafa"/><stop offset="1" stop-color="#fafafa"/></linearGradient><clipPath id="clip-path"><polygon class="cls-1" points="300.04 99.37 315.9 90.16 331.87 99.37 316.01 108.59 300.04 99.37"/></clipPath><clipPath id="clip-path-2"><polygon class="cls-1" points="168.3 183.72 185.46 173.75 202.73 183.72 185.57 193.69 168.3 183.72"/></clipPath><clipPath id="clip-path-3"><polygon class="cls-1" points="138.45 33.69 153.98 24.66 169.62 33.69 154.08 42.72 138.45 33.69"/></clipPath><clipPath id="clip-path-4"><polygon class="cls-1" points="145.95 32.24 151.51 29.01 162.11 35.13 156.55 38.36 145.95 32.24"/></clipPath><linearGradient id="linear-gradient-2" x1="347.51" y1="152.91" x2="347.51" y2="128.23" xlink:href="#linear-gradient"/><linearGradient id="linear-gradient-3" x1="57.74" y1="119.49" x2="57.74" y2="94.8" xlink:href="#linear-gradient"/><linearGradient id="linear-gradient-4" x1="198.65" y1="45.35" x2="198.65" y2="20.67" xlink:href="#linear-gradient"/><clipPath id="clip-path-5"><polygon class="cls-1" points="114.4 159.57 131.63 149.56 148.98 159.57 131.75 169.58 114.4 159.57"/></clipPath></defs><title>Asset 18</title><g id="Layer_2" data-name="Layer 2"><g id="Layer_1-2" data-name="Layer 1"><polygon class="cls-2" points="0 107.42 0 103.48 2.13 104.71 1.88 108.34 0 107.42"/><path class="cls-3" d="M419.86,140.13a3.54,3.54,0,0,0-1.77-2.91L184.91,1.49a11.08,11.08,0,0,0-11.08,0L1.8,100.41A3.54,3.54,0,0,0,0,103.48H0v11.3a18.33,18.33,0,0,0,9.14,15.86L229.2,258.92a22.18,22.18,0,0,0,22.18,0l159.3-91.65a18.33,18.33,0,0,0,9.19-15.89V140.13Z"/><path class="cls-2" d="M251.38,259l159.3-91.65a18.33,18.33,0,0,0,9.19-15.89v-9.21L251.13,239.45a21.2,21.2,0,0,1-21.21,0L0,105.53v9.25a18.33,18.33,0,0,0,9.14,15.86L229.2,258.92A22.18,22.18,0,0,0,251.38,259Z"/><path class="cls-4" d="M313.79,102.1a2.81,2.81,0,0,1-1.38-.34,1.07,1.07,0,0,1-.62-.9,1.06,1.06,0,0,1,.62-.89,3,3,0,0,1,2.74,0,1.07,1.07,0,0,1,.62.9,1.06,1.06,0,0,1-.62.89A2.78,2.78,0,0,1,313.79,102.1Zm0-2.1a2.42,2.42,0,0,0-1.18.28.73.73,0,0,0-.44.58.74.74,0,0,0,.45.59h0a2.64,2.64,0,0,0,2.38,0,.73.73,0,0,0,.44-.58.74.74,0,0,0-.45-.59A2.46,2.46,0,0,0,313.77,100Z"/><path class="cls-4" d="M256.72,120.83a3.36,3.36,0,0,1-1.65-.39l-23.59-13.62a3.23,3.23,0,0,0-2.91,0l-7.7,4.45a3.62,3.62,0,0,1-3.27,0l-15.69-9.06a1.26,1.26,0,0,1-.74-1.05,1.25,1.25,0,0,1,.73-1l7.62-4.4a.9.9,0,0,0,0-1.55L183.86,79.46a1.25,1.25,0,0,1,0-2.17l66-38.23.18.31L184,77.6a.9.9,0,0,0,0,1.55L209.7,93.83a1.25,1.25,0,0,1,0,2.17l-7.62,4.4a.91.91,0,0,0-.55.73.93.93,0,0,0,.56.74l15.69,9.06a3.23,3.23,0,0,0,2.91,0l7.7-4.45a3.62,3.62,0,0,1,3.27,0l23.59,13.62a3.23,3.23,0,0,0,2.91,0L284.34,105a3.62,3.62,0,0,1,3.27,0l7.85,4.53a3.23,3.23,0,0,0,2.91,0l14.08-8.13.18.31-14.08,8.13a3.62,3.62,0,0,1-3.27,0l-7.85-4.53a3.23,3.23,0,0,0-2.91,0l-26.18,15.11A3.32,3.32,0,0,1,256.72,120.83Z"/><path class="cls-4" d="M201.39,89.21a3.07,3.07,0,0,1-2.78,0,.85.85,0,0,1,0-1.6,3.07,3.07,0,0,1,2.78,0A.85.85,0,0,1,201.39,89.21Z"/><path class="cls-4" d="M102,87.6a3.07,3.07,0,0,1,2.78,0,.85.85,0,0,1,0,1.6,3.07,3.07,0,0,1-2.78,0A.85.85,0,0,1,102,87.6Z"/><rect class="cls-4" x="157.88" y="194.06" width="23.58" height="0.36" transform="translate(-74.57 111.38) rotate(-30.12)"/><rect class="cls-4" x="110.92" y="166.85" width="23.58" height="0.36" transform="translate(-67.25 84.14) rotate(-30.12)"/><rect class="cls-4" x="238" y="145.52" width="0.36" height="23.58" transform="translate(-18.54 282.09) rotate(-59.37)"/><path class="cls-4" d="M160.1,32.79a2.81,2.81,0,0,1-1.38-.34,1.07,1.07,0,0,1-.62-.9,1.06,1.06,0,0,1,.62-.89h0a3,3,0,0,1,2.74,0,1.08,1.08,0,0,1,.62.9,1.06,1.06,0,0,1-.62.89A2.78,2.78,0,0,1,160.1,32.79ZM158.89,31a.73.73,0,0,0-.44.58.74.74,0,0,0,.45.59,2.64,2.64,0,0,0,2.38,0,.73.73,0,0,0,.44-.58.74.74,0,0,0-.45-.59,2.64,2.64,0,0,0-2.38,0Z"/><path class="cls-4" d="M161.35,31l-.18-.31,15.43-8.91a.91.91,0,0,0,.55-.73.93.93,0,0,0-.56-.74l-6.07-3.51a1.26,1.26,0,0,1-.74-1.05,1.25,1.25,0,0,1,.73-1l4-2.3a.91.91,0,0,0,.55-.73.93.93,0,0,0-.56-.74l-9-5.22.18-.31,9,5.22a1.26,1.26,0,0,1,.74,1.05,1.25,1.25,0,0,1-.73,1l-4,2.3a.91.91,0,0,0-.55.73.93.93,0,0,0,.56.74L176.77,20a1.26,1.26,0,0,1,.74,1.05,1.25,1.25,0,0,1-.73,1Z"/><path class="cls-4" d="M290.7,195.28a2.81,2.81,0,0,1,1.38.34,1.07,1.07,0,0,1,.62.9,1.06,1.06,0,0,1-.62.89h0a3,3,0,0,1-2.74,0,1.08,1.08,0,0,1-.62-.9,1.06,1.06,0,0,1,.62-.89A2.78,2.78,0,0,1,290.7,195.28Zm1.21,1.82a.73.73,0,0,0,.44-.58.74.74,0,0,0-.45-.59,2.64,2.64,0,0,0-2.38,0,.73.73,0,0,0-.44.58.74.74,0,0,0,.45.59,2.64,2.64,0,0,0,2.38,0Z"/><path class="cls-4" d="M181.23,185.94a2.81,2.81,0,0,1,1.38.34,1.07,1.07,0,0,1,.62.9,1.06,1.06,0,0,1-.62.89h0a3,3,0,0,1-2.74,0,1.08,1.08,0,0,1-.62-.9,1.06,1.06,0,0,1,.62-.89A2.78,2.78,0,0,1,181.23,185.94Zm1.21,1.82a.73.73,0,0,0,.44-.58.74.74,0,0,0-.45-.59,2.64,2.64,0,0,0-2.38,0,.73.73,0,0,0-.44.58.74.74,0,0,0,.45.59,2.64,2.64,0,0,0,2.38,0Z"/><path class="cls-4" d="M288.91,197.16l.18.31-15.43,8.91a.91.91,0,0,0-.55.73.93.93,0,0,0,.56.74l6.07,3.51a1.26,1.26,0,0,1,.74,1.05,1.25,1.25,0,0,1-.73,1l-4,2.3a.91.91,0,0,0-.55.73.93.93,0,0,0,.56.74l9,5.22-.18.31-9-5.22a1.26,1.26,0,0,1-.74-1.05,1.25,1.25,0,0,1,.73-1l4-2.3a.91.91,0,0,0,.55-.73.93.93,0,0,0-.56-.74l-6.07-3.51a1.26,1.26,0,0,1-.74-1.05,1.25,1.25,0,0,1,.73-1Z"/><path class="cls-2" d="M127.74,165.86a.07.07,0,0,0,0-.06l-3.49-2a.22.22,0,0,0-.22,0l-3.48,2a.07.07,0,0,0,0,.06h0v.23a.37.37,0,0,0,.18.32l3.22,1.87a.45.45,0,0,0,.45,0l3.22-1.85a.37.37,0,0,0,.19-.32v-.23Z"/><path class="cls-2" d="M124.33,168.26l3.22-1.85a.37.37,0,0,0,.19-.32v-.19l-3.42,2a.43.43,0,0,1-.43,0l-3.42-2v.19a.37.37,0,0,0,.18.32l3.22,1.87A.45.45,0,0,0,124.33,168.26Z"/><polyline class="cls-2" points="127.74 165.9 127.74 165.86 127.7 165.92"/><polygon class="cls-2" points="120.47 165.92 120.47 165.84 120.52 165.87 120.51 165.94 120.47 165.92"/><path class="cls-2" d="M123.9,167.87l-3.39-2a.07.07,0,0,1,0-.13l3.48-2a.22.22,0,0,1,.22,0l3.49,2a.07.07,0,0,1,0,.13l-3.38,1.94A.43.43,0,0,1,123.9,167.87Z"/><polyline class="cls-2" points="169.6 151.82 169.6 151.78 169.57 151.85"/><polygon class="cls-2" points="162.34 151.84 162.34 151.76 162.38 151.79 162.38 151.86 162.34 151.84"/><path class="cls-2" d="M131.7,98.08a.23.23,0,0,0-.11-.19l-11.11-6.43a.71.71,0,0,0-.71,0l-11.08,6.37a.23.23,0,0,0-.12.2h0v.73a1.18,1.18,0,0,0,.59,1l10.27,6a1.43,1.43,0,0,0,1.43,0l10.26-5.9a1.18,1.18,0,0,0,.59-1v-.73Z"/><path class="cls-2" d="M120.85,105.73l10.26-5.9a1.18,1.18,0,0,0,.59-1v-.59l-10.88,6.26a1.37,1.37,0,0,1-1.37,0l-10.89-6.31v.6a1.18,1.18,0,0,0,.59,1l10.27,6A1.43,1.43,0,0,0,120.85,105.73Z"/><polyline class="cls-2" points="131.71 98.21 131.71 98.08 131.59 98.29"/><polygon class="cls-2" points="108.57 98.28 108.57 98.03 108.71 98.11 108.69 98.34 108.57 98.28"/><path class="cls-2" d="M119.47,104.47l-10.79-6.25a.23.23,0,0,1,0-.4l11.08-6.37a.71.71,0,0,1,.71,0l11.11,6.43a.23.23,0,0,1,0,.4l-10.76,6.19A1.36,1.36,0,0,1,119.47,104.47Z"/><path class="cls-2" d="M202.73,137.2a.23.23,0,0,0-.11-.19l-11.11-6.43a.71.71,0,0,0-.71,0L179.71,137a.23.23,0,0,0-.12.2h0v.73a1.18,1.18,0,0,0,.59,1l10.27,6a1.43,1.43,0,0,0,1.43,0l10.26-5.9a1.18,1.18,0,0,0,.59-1v-.73Z"/><path class="cls-2" d="M191.88,144.86l10.26-5.9a1.18,1.18,0,0,0,.59-1v-.59l-10.88,6.26a1.37,1.37,0,0,1-1.37,0l-10.89-6.31v.6a1.18,1.18,0,0,0,.59,1l10.27,6A1.43,1.43,0,0,0,191.88,144.86Z"/><polyline class="cls-2" points="202.73 137.34 202.73 137.2 202.62 137.41"/><polygon class="cls-2" points="179.6 137.4 179.6 137.15 179.73 137.23 179.72 137.46 179.6 137.4"/><path class="cls-2" d="M190.5,143.6l-10.79-6.25a.23.23,0,0,1,0-.4l11.08-6.37a.71.71,0,0,1,.71,0L202.62,137a.23.23,0,0,1,0,.4l-10.76,6.19A1.36,1.36,0,0,1,190.5,143.6Z"/><path class="cls-2" d="M249.13,170.79l10.26-5.9a1.18,1.18,0,0,0,.59-1v-.59l-10.88,6.26a1.37,1.37,0,0,1-1.37,0l-10.89-6.31v.6a1.18,1.18,0,0,0,.59,1l10.27,6A1.43,1.43,0,0,0,249.13,170.79Z"/><path class="cls-2" d="M247.74,169.54,237,163.29a.23.23,0,0,1,0-.4L248,156.52a.71.71,0,0,1,.71,0L259.87,163a.23.23,0,0,1,0,.4l-10.76,6.19A1.36,1.36,0,0,1,247.74,169.54Z"/><path class="cls-1" d="M229.92,239.41,1.79,106.61a3.58,3.58,0,0,1,0-6.2l172-98.93a11.08,11.08,0,0,1,11.08,0L418.09,137.22a3.58,3.58,0,0,1,0,6.2l-167,96A21.18,21.18,0,0,1,229.92,239.41Z"/><path class="cls-5" d="M272.75,115.82l0-6.87-141-.49v7.35c0,10.83,7.32,21,20.61,28.69,27.53,15.89,72.32,15.89,99.85,0,13.29-7.67,20.61-17.86,20.61-28.68"/><path class="cls-2" d="M202.22,69.75c-18.08,0-36.16,4-49.92,11.92-13.29,7.67-20.61,17.86-20.61,28.68s7.32,21,20.61,28.69c27.53,15.89,72.32,15.89,99.85,0,13.29-7.67,20.61-17.86,20.61-28.68s-7.32-21-20.61-28.68C238.38,73.73,220.3,69.75,202.22,69.75Z"/><polygon class="cls-6" points="219.85 80.22 219.84 92.62 190.12 109.89 187.22 99.19 219.85 80.22"/><polygon class="cls-6" points="192.28 102.11 192.28 114.5 161.75 119.24 161.75 106.85 192.28 102.11"/><polygon class="cls-6" points="235.52 123.57 230.46 120.65 230.47 108.26 235.53 111.18 243.62 93.48 243.61 105.88 235.52 123.57"/><polygon class="cls-6" points="230.46 120.65 197.84 139.61 197.84 127.22 230.47 108.26 230.46 120.65"/><polygon class="cls-7" points="197.84 127.22 197.84 139.61 185.52 132.5 185.53 120.11 197.84 127.22"/><polygon class="cls-8" points="213.1 98.23 213.09 110.62 214.8 111.6 217.66 100.86 213.1 98.23"/><polygon class="cls-8" points="169.85 89.16 174.9 92.07 207.53 73.11 219.85 80.22 187.22 99.19 192.28 102.11 161.76 106.85 169.85 89.16"/><polygon class="cls-8" points="185.53 120.11 197.84 127.22 230.47 108.26 235.53 111.18 243.62 93.48 213.1 98.23 217.66 100.86 185.53 120.11"/><path class="cls-6" d="M320,98.45l-1.54,3.41-5.89.9,2-3.12-2,3.12-2.38-5.68L320,98.45m-.85,3.82,1.54-3.41,1.46,5.15-8.89-.83,5.89-.9M308,96.08c-2.19,1.27-3.28,2.94-3.27,4.61s1.12,3.34,3.32,4.61c4.41,2.54,11.53,2.54,15.91,0,2.09-1.22,3.18-2.79,3.27-4.38s-1-3.5-3.31-4.83"/><polyline class="cls-6" points="327.2 100.56 327.2 99.43 326.6 99.78 326.9 100.56"/><polygon class="cls-6" points="304.71 99.16 304.7 100.64 305.26 100.81 305.64 99.88 304.71 99.16"/><g class="cls-9"><g class="cls-10"><path class="cls-7" d="M320,97.13l-1.54,3.41-5.89.9,2-3.12-2,3.12-2.38-5.68L320,97.13m-.85,3.82,1.54-3.41,1.46,5.15-8.89-.83,5.89-.9m4.71-6.18c-4.41-2.55-11.54-2.55-15.92,0s-4.35,6.67.06,9.22,11.53,2.54,15.91,0,4.36-6.67,0-9.22"/><polyline class="cls-11" points="320.03 97.13 310.21 95.77 314.64 98.33 320.03 97.13"/><polyline class="cls-12" points="314.64 98.33 310.21 95.77 312.6 101.45 314.64 98.33"/><polyline class="cls-11" points="320.72 97.53 319.18 100.95 322.19 102.68 320.72 97.53"/><path class="cls-12" d="M322.19,102.68l-3-1.73-5.89.9,8.89.83"/><polyline class="cls-13" points="320.03 97.13 314.64 98.33 318.49 100.55 320.03 97.13"/><polyline class="cls-11" points="318.49 100.55 314.64 98.33 312.6 101.45 318.49 100.55"/></g></g><polygon class="cls-6" points="173.34 184.7 173.34 183.72 173.71 183.72 173.53 184.6 173.34 184.7"/><polygon class="cls-6" points="197.69 184.74 197.69 183.5 197.16 183.72 197.57 184.74 197.69 184.74"/><path class="cls-6" d="M194.1,179.68c-4.77-2.75-12.48-2.75-17.22,0s-4.71,7.22.06,10,12.48,2.75,17.22,0,4.71-7.22-.06-10"/><g class="cls-9"><g class="cls-14"><path class="cls-7" d="M185.54,181.5c-1.37-.79-3.21.52-3.87.89l2.32,1.35c.66-.38,2.87-1.48,1.56-2.24h0m4.14,1.78c-1.5-.87-3.74.68-4.52,1.14l2.55,1.49c.79-.45,3.42-1.78,2-2.62h0m-1.53-1.62a4.23,4.23,0,0,1,3.71.21l.35.22c1.66,1.16.79,2.24-1.06,3.43l1.92,1.12-1.16.67-1.9-1.1-.94.53,1.91,1.11-1.16.67-1.93-1.12-.84.47-1.51.87-1.15-.94.84-.49c.33-.19.18-.38.05-.48l-3-1.77.12-.07-.13.07-2.17-1.26a1.31,1.31,0,0,0-1.18.09l-.84.49-1.24-.72,1.6-.92h0l.73-.43-1.9-1.11,1.16-.67,1.87,1.09.92-.54L179.35,180l1.16-.67,1.91,1.11c1.63-.79,3.28-1.2,4.78-.48l.29.15c.85.49,1,1,.67,1.56m5.94-2.93c-4.77-2.75-12.48-2.75-17.22,0s-4.71,7.22.06,10,12.48,2.75,17.22,0,4.71-7.22-.06-10"/><path class="cls-12" d="M184,183.74l-2.32-1.35c.66-.38,2.5-1.68,3.87-.89h0c1.31.76-.9,1.86-1.56,2.24m3.72,2.17-2.55-1.49c.79-.45,3-2,4.52-1.14h0c1.44.84-1.19,2.16-2,2.62m4.15-4a4.23,4.23,0,0,0-3.71-.21c.3-.53.18-1.07-.67-1.56l-.29-.15c-1.51-.72-3.15-.31-4.78.48l-1.91-1.11-1.16.67,1.86,1.08-.92.54-1.87-1.09-1.16.67,1.9,1.11-.73.43h0l-1.6.92,1.24.72.84-.49a1.31,1.31,0,0,1,1.18-.09l2.17,1.26.13-.07-.12.07,3,1.77c.13.1.27.29-.05.48l-.84.49,1.15.94,1.51-.87.84-.47,1.93,1.12,1.16-.67-1.91-1.11.94-.53,1.9,1.1,1.16-.67-1.92-1.12c1.84-1.19,2.72-2.27,1.06-3.43l-.35-.22"/></g></g><polygon class="cls-6" points="143.01 34.49 143.01 33.74 143.56 34.16 143.01 34.49"/><polygon class="cls-6" points="165.06 33.69 165.06 34.51 164.58 34.55 165.06 33.69"/><path class="cls-6" d="M161.8,30c-4.32-2.49-11.29-2.49-15.59,0s-4.27,6.53.05,9,11.3,2.49,15.59,0c2.14-1.24,3.2-2.87,3.2-4.49S164,31.23,161.8,30"/><g class="cls-9"><g class="cls-15"><path class="cls-7" d="M161.8,29.18c-4.32-2.49-11.29-2.49-15.59,0s-4.27,6.53.05,9,11.3,2.49,15.59,0,4.27-6.53-.05-9"/></g></g><g class="cls-9"><g class="cls-16"><path class="cls-12" d="M150.76,33c-.5-.29-.61-.58-.33-.88l1.94,1.12a2.39,2.39,0,0,1-1.61-.24m4.47,1a3.28,3.28,0,0,1,1,0,2.36,2.36,0,0,1,.9.32,1,1,0,0,1,.45.45c.07.17,0,.34-.18.52L155.24,34M158.5,33a4.77,4.77,0,0,0-1-.43,4,4,0,0,0-.9-.17,4.3,4.3,0,0,0-.88,0c-.29,0-.6.1-.92.17l-1.34.33-2.29-1.32a1.54,1.54,0,0,1,.84,0,3.9,3.9,0,0,1,.9.37l1.66-1-.17-.1a5.18,5.18,0,0,0-.88-.4,3.85,3.85,0,0,0-1.05-.2,4.75,4.75,0,0,0-1.21.09,6,6,0,0,0-1.38.48l-.83-.48-.77.45.83.48c-.64.47-1,.93-.93,1.39s.4.91,1.15,1.34a4.66,4.66,0,0,0,1.81.6,5.65,5.65,0,0,0,2.16-.21l.82-.23,2.45,1.41a1.69,1.69,0,0,1-.58.11,2.22,2.22,0,0,1-.55-.07,2.87,2.87,0,0,1-.52-.2l-.51-.27-1.66,1,.26.15a6.72,6.72,0,0,0,1,.47,4,4,0,0,0,1.1.24,4.09,4.09,0,0,0,1.25-.11,6.89,6.89,0,0,0,1.47-.55l1.05.61.77-.45-1.05-.61c.73-.5,1.12-1,1.14-1.44s-.4-.95-1.27-1.45"/></g></g><path class="cls-7" d="M304.5,176.4a12.92,12.92,0,0,1-11.69,0c-3.23-1.86-3.23-4.89,0-6.75a12.92,12.92,0,0,1,11.69,0C307.73,171.52,307.73,174.54,304.5,176.4Z"/><path class="cls-7" d="M303.17,175.4a9.65,9.65,0,0,1-8.74,0c-2.41-1.39-2.41-3.65,0-5a9.65,9.65,0,0,1,8.74,0C305.58,171.75,305.58,174,303.17,175.4Z"/><path class="cls-7" d="M315.75,195.16c-9.43,5.44-24.71,5.44-34.14,0s-9.43-14.27,0-19.71,24.71-5.44,34.14,0S325.18,189.72,315.75,195.16Z"/><path class="cls-2" d="M315.75,194.13c-9.43,5.44-24.71,5.44-34.14,0s-9.43-14.27,0-19.71,24.71-5.44,34.14,0S325.18,188.69,315.75,194.13Z"/><path class="cls-17" d="M275.44,173.91v8.78h0c0,3.44,2.25,6.88,6.8,9.51,9.08,5.24,23.8,5.24,32.89,0,4.51-2.6,6.76-6,6.79-9.42h0v-8.86Z"/><path class="cls-2" d="M315.11,182.88c-9.08,5.24-23.79,5.24-32.87,0s-9.08-13.74,0-19,23.79-5.24,32.87,0S324.19,177.64,315.11,182.88Z"/><path class="cls-7" d="M298.65,184.51a31.14,31.14,0,0,1-15.23-3.64c-4.08-2.36-6.33-5.49-6.33-8.83s2.25-6.48,6.33-8.83c8.4-4.85,22.06-4.85,30.46,0,4.08,2.36,6.33,5.49,6.33,8.83s-2.25,6.48-6.33,8.83l0-.06,0,.06A31.14,31.14,0,0,1,298.65,184.51Z"/><path class="cls-7" d="M298.65,159.71a31,31,0,0,0-15.15,3.62c-4,2.33-6.26,5.42-6.26,8.71s2.22,6.38,6.26,8.71c8.36,4.82,22,4.82,30.31,0,4-2.33,6.26-5.42,6.26-8.71s-2.22-6.38-6.26-8.71A31,31,0,0,0,298.65,159.71Z"/><path class="cls-6" d="M315.83,184.68c0,.13.09.18.2.12a.45.45,0,0,0,.2-.35c0-.13-.09-.18-.2-.12A.45.45,0,0,0,315.83,184.68Z"/><path class="cls-6" d="M314.29,185.58c0,.13.09.18.2.12a.45.45,0,0,0,.2-.35c0-.13-.09-.18-.2-.12A.45.45,0,0,0,314.29,185.58Z"/><path class="cls-6" d="M315.83,186.37c0,.13.09.18.2.12a.45.45,0,0,0,.2-.35c0-.13-.09-.18-.2-.12A.45.45,0,0,0,315.83,186.37Z"/><path class="cls-6" d="M314.29,187.27c0,.13.09.18.2.12a.45.45,0,0,0,.2-.35c0-.13-.09-.18-.2-.12A.45.45,0,0,0,314.29,187.27Z"/><path class="cls-12" d="M311.19,192.1l0,0a.65.65,0,0,0,.27-.52v-5.33c0-.2-.12-.29-.27-.21l0,0a.65.65,0,0,0-.27.52v5.33C310.92,192.1,311,192.19,311.19,192.1Z"/><path class="cls-6" d="M311.19,192.1l0,0a.65.65,0,0,0,.27-.52v-1.61c0-.2-.12-.29-.27-.21l0,0a.65.65,0,0,0-.27.52v1.61C310.92,192.1,311,192.19,311.19,192.1Z"/><path class="cls-2" d="M328.78,140.69v4.38l0,0a3.79,3.79,0,0,0,1.85,2.77l12.82,7.46a8,8,0,0,0,8,0L364.34,148a3.79,3.79,0,0,0,1.88-2.92h0v-4.38Z"/><path class="cls-18" d="M345,151.49l-15.18-8.76a2.18,2.18,0,0,1,0-3.78l13.9-8a7.49,7.49,0,0,1,7.49,0l13.84,8a2.31,2.31,0,0,1,0,4l-14.86,8.58A5.19,5.19,0,0,1,345,151.49Z"/><ellipse class="cls-2" cx="347.51" cy="140.69" rx="9.29" ry="4.53"/><polygon class="cls-7" points="347.49 141.45 340.46 137.39 340.46 134.91 347.49 138.97 347.49 141.45"/><polygon class="cls-6" points="354.51 137.39 347.49 141.45 347.49 138.97 354.51 134.91 354.51 137.39"/><polygon class="cls-8" points="354.51 134.91 347.49 138.97 340.46 134.91 347.49 130.86 354.51 134.91"/><polygon class="cls-19" points="354.51 132.44 347.49 136.49 340.46 132.44 347.49 128.38 354.51 132.44"/><polygon class="cls-7" points="347.49 136.49 340.46 132.44 340.46 129.96 347.49 134.01 347.49 136.49"/><polygon class="cls-6" points="354.51 132.44 347.49 136.49 347.49 134.01 354.51 129.96 354.51 132.44"/><polygon class="cls-8" points="354.51 129.96 347.49 134.01 340.46 129.96 347.49 125.9 354.51 129.96"/><rect class="cls-7" x="347.47" y="136.43" width="0.02" height="2.54"/><polygon class="cls-6" points="351.46 130.14 347.38 132.5 343.29 130.14 347.38 127.78 351.46 130.14"/><polygon class="cls-20" points="347.38 132.5 347.38 127.78 343.29 130.14 347.38 132.5"/><path class="cls-2" d="M39,107.27v4.38l0,0a3.79,3.79,0,0,0,1.85,2.77l12.82,7.46a8,8,0,0,0,8,0l12.82-7.36a3.79,3.79,0,0,0,1.88-2.92h0v-4.38Z"/><path class="cls-21" d="M55.27,118.07,40.09,109.3a2.18,2.18,0,0,1,0-3.78l13.9-8a7.49,7.49,0,0,1,7.49,0l13.84,8a2.31,2.31,0,0,1,0,4l-14.86,8.58A5.19,5.19,0,0,1,55.27,118.07Z"/><ellipse class="cls-2" cx="57.74" cy="107.27" rx="9.29" ry="4.53"/><polygon class="cls-7" points="57.71 108.03 50.69 103.97 50.69 101.49 57.71 105.55 57.71 108.03"/><polygon class="cls-6" points="64.74 103.97 57.71 108.03 57.71 105.55 64.74 101.49 64.74 103.97"/><polygon class="cls-8" points="64.74 101.49 57.71 105.55 50.69 101.49 57.71 97.44 64.74 101.49"/><polygon class="cls-19" points="64.74 99.02 57.71 103.07 50.69 99.02 57.71 94.96 64.74 99.02"/><polygon class="cls-7" points="57.71 103.07 50.69 99.01 50.69 96.53 57.71 100.59 57.71 103.07"/><polygon class="cls-6" points="64.74 99.01 57.71 103.07 57.71 100.59 64.74 96.53 64.74 99.01"/><polygon class="cls-8" points="64.74 96.53 57.71 100.59 50.69 96.53 57.71 92.48 64.74 96.53"/><rect class="cls-7" x="57.7" y="103.01" width="0.02" height="2.54"/><polygon class="cls-6" points="61.69 96.72 57.6 99.08 53.52 96.72 57.6 94.36 61.69 96.72"/><polygon class="cls-20" points="57.6 99.08 57.6 94.36 53.52 96.72 57.6 99.08"/><path class="cls-2" d="M179.93,33.14v4.38l0,0a3.79,3.79,0,0,0,1.85,2.77l12.82,7.46a8,8,0,0,0,8,0l12.82-7.36a3.79,3.79,0,0,0,1.88-2.92h0V33.14Z"/><path class="cls-22" d="M196.19,43.93,181,35.17a2.18,2.18,0,0,1,0-3.78l13.9-8a7.49,7.49,0,0,1,7.49,0l13.84,8a2.31,2.31,0,0,1,0,4l-14.86,8.58A5.19,5.19,0,0,1,196.19,43.93Z"/><ellipse class="cls-2" cx="198.65" cy="33.14" rx="9.29" ry="4.53"/><polygon class="cls-7" points="198.63 33.89 191.61 29.84 191.61 27.36 198.63 31.41 198.63 33.89"/><polygon class="cls-6" points="205.66 29.84 198.63 33.89 198.63 31.41 205.66 27.36 205.66 29.84"/><polygon class="cls-8" points="205.66 27.36 198.63 31.41 191.61 27.36 198.63 23.3 205.66 27.36"/><polygon class="cls-19" points="205.66 24.88 198.63 28.93 191.61 24.88 198.63 20.82 205.66 24.88"/><polygon class="cls-7" points="198.63 28.93 191.61 24.88 191.61 22.4 198.63 26.45 198.63 28.93"/><polygon class="cls-6" points="205.66 24.88 198.63 28.93 198.63 26.45 205.66 22.4 205.66 24.88"/><polygon class="cls-8" points="205.66 22.49 198.58 26.45 191.61 22.3 198.69 18.34 205.66 22.49"/><rect class="cls-7" x="198.62" y="28.87" width="0.02" height="2.54"/><polygon class="cls-6" points="202.61 22.58 198.52 24.94 194.44 22.58 198.52 20.22 202.61 22.58"/><polygon class="cls-20" points="198.52 24.94 198.52 20.22 194.44 22.58 198.52 24.94"/><polygon class="cls-6" points="119.47 160.76 119.47 159.38 120.59 159.38 119.47 160.76"/><polygon class="cls-6" points="143.91 160.96 143.91 159.63 143.47 160.02 143.91 160.96"/><path class="cls-6" d="M140.31,155.75c-4.79-2.77-12.53-2.77-17.29,0s-4.73,7.25.06,10,12.53,2.76,17.29,0,4.73-7.24-.06-10"/><g class="cls-9"><g class="cls-23"><path class="cls-7" d="M134,162.18l.09,0,.21-.2a2.77,2.77,0,0,1,.33-.23,2.07,2.07,0,0,1,.41-.16l.58-.16.6-.17a2.28,2.28,0,0,0,.47-.2,1.82,1.82,0,0,0,.48-.44,2.73,2.73,0,0,0,.39-.76l2,.41a3.35,3.35,0,0,1-1.48,1.61,3.65,3.65,0,0,1-.64.29l-.81.29-.85.32a4.83,4.83,0,0,0-.76.34,2.28,2.28,0,0,0-.57.44,7.39,7.39,0,0,0-.47.58l-1.78-.35a2.06,2.06,0,0,0,.07-1.36,1.91,1.91,0,0,0-.94-1.08,3.68,3.68,0,0,0-.85-.32l-1.45.85-1.18-.68,1-.55a9,9,0,0,1-2.68-.8,2.79,2.79,0,0,1-.82-.68,1.12,1.12,0,0,1-.23-.8,1.68,1.68,0,0,1,.4-.87,4.39,4.39,0,0,1,1.14-.89,6.34,6.34,0,0,1,3-.92,5.91,5.91,0,0,1,3.11.83l-1.88,1.09a5.65,5.65,0,0,0-.68-.33,3.29,3.29,0,0,0-.71-.19,2.19,2.19,0,0,0-.7,0,1.75,1.75,0,0,0-.65.23q-.67.39-.58.75a.94.94,0,0,0,.51.6,4.57,4.57,0,0,0,.6.25,6.36,6.36,0,0,0,1.06.28l1.21.24,2.39-1.39,1.18.68-2,1.17a3.06,3.06,0,0,1,.62.29,2.07,2.07,0,0,1,.85.81,2.2,2.2,0,0,1,.1,1.22m6.29-7.61c-4.79-2.77-12.53-2.77-17.29,0s-4.73,7.25.06,10,12.53,2.76,17.29,0,4.73-7.24-.06-10"/><path class="cls-12" d="M139.56,160.23l-2-.41a2.73,2.73,0,0,1-.39.76,1.82,1.82,0,0,1-.48.44,2.28,2.28,0,0,1-.47.2l-.6.17-.58.16a2.07,2.07,0,0,0-.41.16,2.77,2.77,0,0,0-.33.23l-.21.2-.09,0a2.2,2.2,0,0,0-.1-1.22,2.07,2.07,0,0,0-.85-.81,3.06,3.06,0,0,0-.62-.29l2-1.17-1.18-.68-2.39,1.39-1.21-.24a6.36,6.36,0,0,1-1.06-.28,4.57,4.57,0,0,1-.6-.25.94.94,0,0,1-.51-.6q-.1-.35.58-.75a1.75,1.75,0,0,1,.65-.23,2.19,2.19,0,0,1,.7,0,3.29,3.29,0,0,1,.71.19,5.65,5.65,0,0,1,.68.33l1.88-1.09a5.91,5.91,0,0,0-3.11-.83,6.34,6.34,0,0,0-3,.92,4.39,4.39,0,0,0-1.14.89,1.68,1.68,0,0,0-.4.87,1.12,1.12,0,0,0,.23.8,2.79,2.79,0,0,0,.82.68,9,9,0,0,0,2.68.8l-1,.55,1.18.68,1.45-.85a3.68,3.68,0,0,1,.85.32,1.91,1.91,0,0,1,.94,1.08,2.06,2.06,0,0,1-.07,1.36l1.78.35a7.39,7.39,0,0,1,.47-.58,2.28,2.28,0,0,1,.57-.44,4.83,4.83,0,0,1,.76-.34l.85-.32.81-.29a3.65,3.65,0,0,0,.64-.29,3.35,3.35,0,0,0,1.48-1.61"/></g></g><path class="cls-2" d="M419.87,142.21v-2.11a4.22,4.22,0,0,1-1.8,3.31"/><path class="cls-4" d="M119.51,97.36,93.85,82.68a.9.9,0,0,1,0-1.55l7.62-4.4a1.25,1.25,0,0,0,.73-1,1.26,1.26,0,0,0-.74-1.05L85.77,65.57a3.62,3.62,0,0,0-3.27,0L74.79,70a3.23,3.23,0,0,1-2.91,0l-8.59-5-.36.21,8.77,5.06a3.62,3.62,0,0,0,3.27,0l7.7-4.45a3.23,3.23,0,0,1,2.91,0l15.69,9.06a.93.93,0,0,1,.56.74.91.91,0,0,1-.55.73l-7.62,4.4a1.25,1.25,0,0,0,0,2.17l25.66,14.68a.9.9,0,0,1,0,1.55l-66,38.23.18.31,66-38.23a1.25,1.25,0,0,0,0-2.17Z"/><polygon class="cls-7" points="230.47 108.26 235.53 111.18 235.52 123.57 230.46 120.65 230.47 108.26"/></g></g></svg>