<?xml version="1.0" encoding="UTF-8"?>
<svg width="1680px" height="550px" viewBox="0 0 1680 550" version="1.1" xmlns="http://www.w3.org/2000/svg" xmlns:xlink="http://www.w3.org/1999/xlink">
    <!-- Generator: Sketch 53.2 (72643) - https://sketchapp.com -->
    <title>Group 3</title>
    <desc>Created with Sketch.</desc>
    <g id="RenProject" stroke="none" stroke-width="1" fill="none" fill-rule="evenodd">
        <g id="About" transform="translate(0.000000, -673.000000)">
            <g id="Group-3" transform="translate(-44.000000, 673.000000)">
                <g id="city-scape" opacity="0.5" transform="translate(44.000000, 0.000000)" fill-rule="nonzero">
                    <polygon id="Rectangle-path" fill="#F5F5F5" points="465.480944 0 468.529946 0 468.529946 37 465.480944 37"></polygon>
                    <path d="M1679.20488,390.260051 L1676.36517,389.453807 L1675.96761,381.724979 L1674.37738,381.724979 L1674.37738,378.472198 L1650.69421,378.472198 L1650.69421,382.1142 L1648.70641,382.1142 L1648.70641,305.38195 C1638.25722,303.803183 1627.7017,302.994667 1617.12885,302.963216 C1608.92354,303.253549 1600.74653,304.070817 1592.65056,305.409752 L1592.65056,322.090676 L1587.90825,322.090676 L1587.90825,344.331908 L1575.27155,344.331908 L1575.27155,348.807956 L1571.72191,348.807956 L1571.72191,352.060736 L1569.73412,352.060736 L1569.73412,356.11976 L1566.89441,356.11976 L1566.89441,368.713858 L1563.54355,368.713858 L1563.54355,329.791702 L1560.44827,329.791702 L1560.44827,315.696322 L1557.35299,315.696322 L1557.35299,312.499145 L1537.84419,300.655689 L1519.10211,312.888366 L1519.10211,315.66852 L1515.75126,315.66852 L1515.75126,317.670231 L1498.17346,317.670231 L1491.9545,208.465783 L1459.38304,209.272027 L1454.58393,321.97947 L1451.06269,325.59367 L1451.34666,329.402481 L1444.61655,330.375535 L1444.61655,334.045338 L1442.96952,334.323353 L1442.96952,344.887938 L1440.49898,345.165954 L1440.49898,386.479042 L1436.52339,386.479042 L1436.52339,390.565868 L1432.83176,390.565868 L1429.67969,383.504277 L1429.67969,382.225406 L1428.85617,382.086399 L1428.85617,379.306245 L1427.77708,379.445252 L1427.77708,382.225406 L1427.09555,382.364414 L1427.09555,384.060308 L1422.694,390.343456 L1420.36544,390.621471 L1420.36544,392.456373 L1418.17887,392.456373 L1418.17887,386.896065 L1412.69823,386.896065 L1412.69823,389.370402 L1409.85852,389.370402 L1409.85852,390.482464 L1408.49546,390.482464 L1408.49546,388.369547 L1406.70645,388.369547 L1406.70645,385.839607 L1404.77544,385.839607 L1404.77544,359.316938 L1402.58887,359.316938 L1402.58887,341.273738 L1400.54428,341.134731 L1399.57878,342.135586 L1399.29481,339.355432 L1398.18732,339.355432 L1395.03524,321.590248 L1391.20164,338.660393 L1389.41262,339.216424 L1386.40253,339.216424 L1386.40253,341.051326 L1385.43703,341.051326 L1385.43703,344.999145 L1384.07397,344.999145 L1384.07397,360.095381 L1379.70082,360.095381 L1379.70082,365.655689 L1375.58324,362.263901 L1375.58324,360.289991 L1374.07819,360.428999 L1373.79422,362.263901 L1368.73954,366.656544 L1368.73954,370.326347 L1367.63205,370.326347 L1367.63205,391.761334 L1365.01952,391.761334 L1365.01952,396.849016 L1362.94654,396.849016 L1362.94654,404.049615 L1361.72546,404.049615 L1361.72546,405.606501 L1360.90195,405.606501 L1360.90195,416.727117 L1353.63229,416.588109 L1352.12725,419.535073 L1347.61211,419.535073 L1347.61211,416.4213 L1343.7785,416.4213 L1343.49453,349.002566 L1336.50885,348.863559 L1336.50885,343.497861 L1334.66304,343.497861 L1334.66304,338.132164 L1331.82333,338.132164 L1331.82333,334.045338 L1325.66116,327.706587 L1311.83178,327.706587 L1312.22934,317.281009 L1300.87051,317.281009 L1301.15448,281.139008 L1258.55885,281.139008 L1258.55885,314.778871 L1237.06225,314.778871 L1237.06225,356.008554 L1213.2087,356.008554 L1213.2087,338.7716 L1189.63912,338.7716 L1189.63912,357.565441 L1173.45278,357.565441 L1173.45278,349.058169 L1165.21763,349.058169 L1165.21763,358.149273 L1146.67433,358.149273 L1146.67433,358.705304 L1103.68114,358.705304 L1103.68114,394.374679 L1090.16413,394.986313 L1090.16413,357.843456 L1070.28617,357.843456 L1070.28617,336.742087 L1064.89072,336.742087 L1064.89072,357.843456 L1048.98835,357.843456 L1048.98835,393.512831 L1033.08599,393.512831 L1033.08599,379.612062 L1002.7011,379.612062 L1002.7011,388.341745 L973.537297,388.341745 L973.537297,349.836612 L959.338754,349.836612 L959.338754,185.418306 L932.361522,185.418306 L932.361522,162.676647 L911.006913,162.676647 L911.006913,185.418306 L897.972651,185.418306 L897.972651,350.448246 L896.80837,350.448246 L896.80837,392.150556 L886.443434,392.150556 L886.443434,282.695894 L861.965146,282.695894 L861.965146,363.709581 L843.791011,363.709581 L843.791011,355.647134 L812.80979,355.647134 L812.80979,363.709581 L802.530045,363.709581 L802.530045,325.260051 L776.063961,325.260051 L776.063961,316.141146 L763.881611,316.141146 L763.881611,325.260051 L736.336438,325.260051 L736.336438,352.616766 L724.125691,352.616766 L724.125691,276.607357 L650.548841,276.607357 L650.548841,301.628743 L635.867548,301.628743 L635.867548,275.384089 L621.470225,275.384089 L621.470225,250.362703 L603.750444,232.958939 L583.872484,252.420017 L583.872484,264.374679 L572.79762,264.374679 L572.79762,305.965783 L566.152702,305.965783 L566.152702,261.483319 L553.970352,261.483319 L553.970352,255.255774 L564.477274,255.255774 L552.862866,243.829341 L519.666672,243.829341 L529.634049,253.615483 L529.634049,259.175791 L520.774159,259.175791 L516.826964,255.255774 L508.535015,247.109923 L508.535015,235.155261 L499.788712,226.425577 L499.788712,36.040633 L467.700005,30.4803251 L437.315123,21 L437.315123,21 L437.002755,21 L436.690387,21 L436.690387,21 L422.861006,21 L422.861006,242.856287 L418.970606,242.856287 L418.970606,258.091531 L412.325688,258.091531 L412.325688,276.579555 L397.928365,276.579555 L400.143338,262.428571 L395.713392,254.81095 L394.605906,236.322926 L386.853501,235.238666 L387.960988,223.284003 L384.610132,219.781009 L384.610132,210.106074 L379.0727,209.021814 L376.857727,217.723695 L358.030459,218.807956 L356.95137,205.88024 L318.217745,206.9645 L315.378036,203.878529 L287.804466,205.157399 L287.804466,274.661249 L279.228546,274.661249 L279.228546,267.043627 L270.255067,267.043627 L270.255067,259.648417 L256.766451,259.648417 L256.766451,267.043627 L247.764575,267.043627 L247.764575,274.438837 L241.006068,274.438837 L241.006068,353.450813 L202.811988,353.450813 L202.811988,381.02994 L200.142662,381.02994 L200.142662,389.759624 L170.978854,389.759624 L170.978854,351.087682 L153.77022,351.087682 L153.77022,338.715997 L117.961495,338.715997 L117.961495,351.810522 L94.1079427,351.810522 L94.1079427,393.290419 L41.0905833,393.290419 L41.0905833,406.384944 L0,406.384944 L0,454.426005 L0.908706749,458.457228 L0.908706749,476 L1672.13401,476 L1672.13401,456.844739 L1680,456.844739 L1680,391.399914 L1679.20488,390.260051 Z" id="Shape" fill="#EBEDF2"></path>
                    <polygon id="Shape" fill="#FFFFFF" points="455.317604 42 455.317604 86.1141526 482.51791 90 483.774955 47.1718113"></polygon>
                </g>
                <path d="M884,550 C1372.21972,550 1768,504.78076 1768,449 C1768,411.812827 1470,411.812827 874,449 C291.333333,411.812827 -1.13686838e-13,411.812827 -1.13686838e-13,449 C-1.13686838e-13,504.78076 395.780281,550 884,550 Z" id="Oval" fill="#F5F6F8"></path>
            </g>
        </g>
    </g>
</svg>