<?xml version="1.0" encoding="UTF-8"?>
<svg width="1102px" height="318px" viewBox="0 0 1102 318" version="1.1" xmlns="http://www.w3.org/2000/svg" xmlns:xlink="http://www.w3.org/1999/xlink">
    <!-- Generator: Sketch 51.2 (57519) - http://www.bohemiancoding.com/sketch -->
    <title>city-scape</title>
    <desc>Created with Sketch.</desc>
    <defs></defs>
    <g id="Page-1" stroke="none" stroke-width="1" fill="none" fill-rule="evenodd" opacity="0.5">
        <g id="1.1.-About" transform="translate(-578.000000, -1178.000000)" fill-rule="nonzero">
            <g id="city-scape" transform="translate(578.000000, 1178.000000)">
                <rect id="Rectangle-path" fill="#F5F5F5" x="306" y="0" width="2" height="25"></rect>
                <path d="M1103.47749,260.714408 L1101.6114,260.17573 L1101.35015,255.011854 L1100.30513,255.011854 L1100.30513,252.838568 L1084.74191,252.838568 L1084.74191,255.271905 L1083.43564,255.271905 L1083.43564,204.004644 C1076.56903,202.949819 1069.63254,202.409623 1062.68467,202.388611 C1057.29261,202.582591 1051.91915,203.128634 1046.59894,204.023219 L1046.59894,215.168276 L1043.48256,215.168276 L1043.48256,230.028351 L1035.17845,230.028351 L1035.17845,233.018942 L1032.84583,233.018942 L1032.84583,235.192228 L1031.53956,235.192228 L1031.53956,237.904192 L1029.67347,237.904192 L1029.67347,246.31871 L1027.47148,246.31871 L1027.47148,220.313577 L1025.43743,220.313577 L1025.43743,210.896004 L1023.40339,210.896004 L1023.40339,208.759868 L1010.58332,200.846878 L998.267102,209.019919 L998.267102,210.877429 L996.06511,210.877429 L996.06511,212.214836 L984.513987,212.214836 L980.427241,139.251864 L959.02314,139.790541 L955.869441,215.093975 L953.555484,217.508738 L953.742094,220.053526 L949.31945,220.703654 L949.31945,223.155566 L948.237116,223.341317 L948.237116,230.399853 L946.613614,230.585604 L946.613614,258.188195 L944.001082,258.188195 L944.001082,260.918734 L941.575159,260.918734 L939.503795,256.20066 L939.503795,255.346206 L938.962627,255.25333 L938.962627,253.395821 L938.253512,253.488696 L938.253512,255.346206 L937.805649,255.439081 L937.805649,256.572162 L934.913203,260.770133 L933.383006,260.955884 L933.383006,262.18184 L931.946113,262.18184 L931.946113,258.466821 L928.344551,258.466821 L928.344551,260.120005 L926.478457,260.120005 L926.478457,260.863009 L925.582732,260.863009 L925.582732,259.451301 L924.407093,259.451301 L924.407093,257.760968 L923.138148,257.760968 L923.138148,240.040328 L921.701256,240.040328 L921.701256,227.985091 L920.357668,227.892216 L919.723196,228.560919 L919.536587,226.70341 L918.80881,226.70341 L916.737445,214.833924 L914.218218,226.239032 L913.042579,226.610534 L911.064519,226.610534 L911.064519,227.83649 L910.430047,227.83649 L910.430047,230.474154 L909.534322,230.474154 L909.534322,240.56043 L906.660537,240.56043 L906.660537,244.275449 L903.9547,242.009288 L903.9547,240.690456 L902.96567,240.783331 L902.779061,242.009288 L899.457413,244.944153 L899.457413,247.396065 L898.729636,247.396065 L898.729636,261.717463 L897.012829,261.717463 L897.012829,265.116705 L895.650581,265.116705 L895.650581,269.927655 L894.84816,269.927655 L894.84816,270.96786 L894.306993,270.96786 L894.306993,278.397898 L889.529792,278.305023 L888.540762,280.273983 L885.573672,280.273983 L885.573672,278.193572 L883.054445,278.193572 L882.867835,233.148967 L878.277243,233.056092 L878.277243,229.471099 L877.064282,229.471099 L877.064282,225.886105 L875.198188,225.886105 L875.198188,223.155566 L871.148764,218.920445 L862.060885,218.920445 L862.322138,211.954784 L854.857761,211.954784 L855.04437,187.807161 L827.052957,187.807161 L827.052957,210.283026 L812.926624,210.283026 L812.926624,237.829891 L797.251433,237.829891 L797.251433,226.313333 L781.762851,226.313333 L781.762851,238.870097 L771.126113,238.870097 L771.126113,233.186118 L765.71444,233.186118 L765.71444,239.260174 L753.528845,239.260174 L753.528845,239.631675 L725.276179,239.631675 L725.276179,263.463522 L716.39357,263.872174 L716.39357,239.055847 L703.330911,239.055847 L703.330911,224.957351 L699.785332,224.957351 L699.785332,239.055847 L689.335204,239.055847 L689.335204,262.887694 L678.885076,262.887694 L678.885076,253.600147 L658.917868,253.600147 L658.917868,259.432726 L639.753081,259.432726 L639.753081,233.70622 L630.422609,233.70622 L630.422609,123.85311 L612.694714,123.85311 L612.694714,108.658683 L598.661686,108.658683 L598.661686,123.85311 L590.096313,123.85311 L590.096313,234.114872 L589.331215,234.114872 L589.331215,261.977514 L582.519971,261.977514 L582.519971,188.847366 L566.434239,188.847366 L566.434239,242.975192 L554.491236,242.975192 L554.491236,237.588415 L534.132148,237.588415 L534.132148,242.975192 L527.376887,242.975192 L527.376887,217.285836 L509.984889,217.285836 L509.984889,211.193205 L501.979345,211.193205 L501.979345,217.285836 L483.878231,217.285836 L483.878231,235.56373 L475.854025,235.56373 L475.854025,184.779421 L427.503524,184.779421 L427.503524,201.497006 L417.855817,201.497006 L417.855817,183.962117 L408.394719,183.962117 L408.394719,167.244531 L396.750292,155.616522 L383.687632,168.619088 L383.687632,176.606379 L376.409865,176.606379 L376.409865,204.394721 L372.043204,204.394721 L372.043204,174.674569 L364.03766,174.674569 L364.03766,170.513748 L370.942209,170.513748 L363.309883,162.879384 L341.495242,162.879384 L348.045233,169.417817 L348.045233,173.132836 L342.223019,173.132836 L339.629148,170.513748 L334.180152,165.071245 L334.180152,157.083955 L328.432582,151.251375 L328.432582,24.0491262 L307.345718,20.3341073 L287.378509,14 L287.173239,14 L286.967969,14 L277.88009,14 L277.88009,162.229256 L275.323541,162.229256 L275.323541,172.408408 L270.95688,172.408408 L270.95688,184.760846 L261.495783,184.760846 L262.951336,175.306122 L260.040229,170.216546 L259.312452,157.864109 L254.218015,157.13968 L254.945792,149.152389 L252.743801,146.811927 L252.743801,140.347794 L249.104917,139.623366 L247.649364,145.43737 L235.277159,146.161799 L234.568043,137.52438 L209.114518,138.248809 L207.248424,136.186973 L189.128649,137.041427 L189.128649,183.479164 L183.493044,183.479164 L183.493044,178.389588 L177.596187,178.389588 L177.596187,173.448613 L168.732239,173.448613 L168.732239,178.389588 L162.81672,178.389588 L162.81672,183.330563 L158.375416,183.330563 L158.375416,236.120983 L133.276449,236.120983 L133.276449,254.547476 L131.52232,254.547476 L131.52232,260.380056 L112.357533,260.380056 L112.357533,234.542099 L101.049002,234.542099 L101.049002,226.276182 L77.5175538,226.276182 L77.5175538,235.025052 L61.8423624,235.025052 L61.8423624,262.739093 L27.0023833,262.739093 L27.0023833,271.487963 L0,271.487963 L0,303.585727 L0.59715015,306.279115 L0.59715015,318 L1098.83092,318 L1098.83092,305.20176 L1104,305.20176 L1104,261.475987 L1103.47749,260.714408 Z" id="Shape" fill="#F5F5F5"></path>
                <polygon id="Shape" fill="#FFFFFF" points="299 28 299 57.4094351 317.160714 60 318 31.4478742"></polygon>
            </g>
        </g>
    </g>
</svg>