<?xml version="1.0" encoding="UTF-8"?>
<svg width="68px" height="74px" viewBox="0 0 68 74" version="1.1" xmlns="http://www.w3.org/2000/svg" xmlns:xlink="http://www.w3.org/1999/xlink">
    <!-- Generator: Sketch 51.2 (57519) - http://www.bohemiancoding.com/sketch -->
    <title>hidden order book</title>
    <desc>Created with Sketch.</desc>
    <defs></defs>
    <g id="Page-1" stroke="none" stroke-width="1" fill="none" fill-rule="evenodd">
        <g id="1.-Home-Copy-3" transform="translate(-142.000000, -1386.000000)">
            <g id="hidden-order-book" transform="translate(142.000000, 1386.000000)">
                <path d="M22.3662,31.6829 L9.3892,31.6829 L9.3892,32.7989 L22.3662,32.7989 L22.3662,44.1009 L9.3892,44.1009 L9.3892,45.2179 L22.3662,45.2179 L22.3662,68.3089 L5.8092,68.3089 C5.5022,68.3089 5.2512,68.0589 5.2512,67.7509 L5.2512,6.9159 C5.2512,6.6079 5.5022,6.3579 5.8092,6.3579 L8.2732,6.3579 L8.2732,19.2859 L13.8032,16.6289 L19.3352,19.2859 L19.3352,6.3579 L22.3662,6.3579 L22.3662,31.6829 Z" id="Fill-1" fill="#FFFFFF"></path>
                <path d="M58.2783,69.4251 L22.9283,69.4251 L22.9283,68.3091 L58.2783,68.3091 C58.5853,68.3091 58.8363,68.0591 58.8363,67.7511 L58.8363,6.9161 C58.8363,6.6081 58.5853,6.3581 58.2783,6.3581 L22.9283,6.3581 L22.9283,5.2421 L58.2783,5.2421 C59.2013,5.2421 59.9523,5.9931 59.9523,6.9161 L59.9523,67.7511 C59.9523,68.6741 59.2013,69.4251 58.2783,69.4251" id="Fill-3" fill="#58585B"></path>
                <polygon id="Fill-5" fill="#006FE8" points="8.836 13.6135 22.465 13.6135 22.465 12.4975 8.836 12.4975"></polygon>
                <polygon id="Fill-7" fill="#006FE8" points="8.836 18.0785 22.465 18.0785 22.465 16.9625 8.836 16.9625"></polygon>
                <polygon id="Fill-8" fill="#006FE8" points="8.836 22.5435 22.465 22.5435 22.465 21.4275 8.836 21.4275"></polygon>
                <polygon id="Fill-9" fill="#006FE8" points="8.836 65.1995 22.465 65.1995 22.465 64.0835 8.836 64.0835"></polygon>
                <polygon id="Fill-10" fill="#006FE8" points="14.815 27.0095 22.465 27.0095 22.465 25.8935 14.815 25.8935"></polygon>
                <polygon id="Fill-11" fill="#F5F5F5" points="18.7813 18.3987 13.8083 16.0097 8.8373 18.3987 8.8373 5.7997 18.7813 5.7997"></polygon>
                <path d="M65.5342,73.3323 L24.0462,73.3323 C23.4302,73.3323 22.9302,72.8323 22.9302,72.2163 L22.9302,2.4513 C22.9302,1.8343 23.4302,1.3343 24.0462,1.3343 L65.5342,1.3343 C66.1502,1.3343 66.6502,1.8343 66.6502,2.4513 L66.6502,72.2163 C66.6502,72.8323 66.1502,73.3323 65.5342,73.3323" id="Fill-12" fill="#F5F5F5"></path>
                <path d="M50.8359,46.7288 L36.5109,46.7288 C35.8949,46.7288 35.3949,46.2288 35.3949,45.6128 L35.3949,31.2878 C35.3949,30.6708 35.8949,30.1708 36.5109,30.1708 L50.8359,30.1708 C51.4529,30.1708 51.9519,30.6708 51.9519,31.2878 L51.9519,45.6128 C51.9519,46.2288 51.4529,46.7288 50.8359,46.7288" id="Fill-13" fill="#FFFFFF"></path>
                <path d="M35.9521,45.6126 L35.9521,31.2876 C35.9521,30.9796 36.2031,30.7296 36.5111,30.7296 L50.8361,30.7296 C51.1431,30.7296 51.3931,30.9796 51.3931,31.2876 L51.3931,45.6126 C51.3931,45.9206 51.1431,46.1706 50.8361,46.1706 L36.5111,46.1706 C36.2031,46.1706 35.9521,45.9206 35.9521,45.6126 Z M66.0921,72.2166 C66.0921,72.5236 65.8411,72.7746 65.5331,72.7746 L24.0461,72.7746 C23.7381,72.7746 23.4871,72.5236 23.4871,72.2166 L23.4871,45.2176 L34.8361,45.2176 L34.8361,45.6126 C34.8361,46.5356 35.5881,47.2866 36.5111,47.2866 L50.8361,47.2866 C51.7591,47.2866 52.5101,46.5356 52.5101,45.6126 L52.5101,31.2876 C52.5101,30.3636 51.7591,29.6126 50.8361,29.6126 L36.5111,29.6126 C35.5881,29.6126 34.8361,30.3636 34.8361,31.2876 L34.8361,31.6826 L23.4871,31.6826 L23.4871,2.4506 C23.4871,2.1436 23.7381,1.8926 24.0461,1.8926 L65.5331,1.8926 C65.8411,1.8926 66.0921,2.1436 66.0921,2.4506 L66.0921,72.2166 Z M23.4871,44.1016 L34.8361,44.1016 L34.8361,32.7996 L23.4871,32.7996 L23.4871,44.1016 Z M22.3711,31.6826 L9.3941,31.6826 L9.3941,32.7996 L22.3711,32.7996 L22.3711,44.1016 L9.3941,44.1016 L9.3941,45.2176 L22.3711,45.2176 L22.3711,68.3086 L5.8131,68.3086 C5.5061,68.3086 5.2561,68.0586 5.2561,67.7506 L5.2561,6.9166 C5.2561,6.6086 5.5061,6.3586 5.8131,6.3586 L8.2781,6.3586 L8.2781,19.2856 L13.8081,16.6296 L19.3401,19.2856 L19.3401,6.3586 L22.3711,6.3586 L22.3711,31.6826 Z M9.3941,6.3586 L18.2231,6.3586 L18.2231,17.5116 L13.8081,15.3906 L9.3941,17.5116 L9.3941,6.3586 Z M65.5331,0.7766 L24.0461,0.7766 C23.1221,0.7766 22.3711,1.5276 22.3711,2.4506 L22.3711,5.2416 L19.3401,5.2416 L8.2781,5.2416 L5.8131,5.2416 C4.8901,5.2416 4.1391,5.9926 4.1391,6.9166 L4.1391,67.7506 C4.1391,68.6746 4.8901,69.4246 5.8131,69.4246 L22.3711,69.4246 L22.3711,72.2166 C22.3711,73.1396 23.1221,73.8906 24.0461,73.8906 L65.5331,73.8906 C66.4571,73.8906 67.2081,73.1396 67.2081,72.2166 L67.2081,2.4506 C67.2081,1.5276 66.4571,0.7766 65.5331,0.7766 Z" id="Fill-14" fill="#58585B"></path>
                <polygon id="Fill-15" fill="#F5F5F5" points="0.558 34.3105 8.837 34.3105 8.837 30.1705 0.558 30.1705"></polygon>
                <path d="M1.116,33.7525 L8.278,33.7525 L8.278,30.7295 L1.116,30.7295 L1.116,33.7525 Z M0,34.8685 L9.395,34.8685 L9.395,29.6135 L0,29.6135 L0,34.8685 Z" id="Fill-16" fill="#006FE8"></path>
                <polygon id="Fill-17" fill="#F5F5F5" points="0.558 46.7285 8.837 46.7285 8.837 42.5895 0.558 42.5895"></polygon>
                <path d="M1.116,46.1705 L8.278,46.1705 L8.278,43.1475 L1.116,43.1475 L1.116,46.1705 Z M0,47.2865 L9.395,47.2865 L9.395,42.0315 L0,42.0315 L0,47.2865 Z" id="Fill-18" fill="#006FE8"></path>
                <path d="M47.8672,41.8967 L45.9812,40.0107 C46.1892,39.7047 46.3352,39.3547 46.4082,38.9777 L49.0752,38.9777 C48.9682,40.0827 48.5362,41.0837 47.8672,41.8967 Z M44.2022,43.8527 L44.2022,41.1847 C44.5782,41.1117 44.9292,40.9657 45.2342,40.7577 L47.1212,42.6437 C46.3072,43.3137 45.3062,43.7437 44.2022,43.8527 Z M43.6742,40.3007 C42.6512,40.3007 41.8232,39.4717 41.8232,38.4497 C41.8232,37.4277 42.6512,36.5997 43.6742,36.5997 C44.6952,36.5997 45.5232,37.4277 45.5232,38.4497 C45.5232,39.4717 44.6952,40.3007 43.6742,40.3007 Z M43.1452,43.8527 C42.0412,43.7447 41.0402,43.3137 40.2262,42.6437 L42.1122,40.7577 C42.4192,40.9657 42.7692,41.1117 43.1452,41.1847 L43.1452,43.8527 Z M38.2702,38.9777 L40.9392,38.9777 C41.0132,39.3547 41.1582,39.7047 41.3662,40.0107 L39.4802,41.8967 C38.8102,41.0847 38.3792,40.0827 38.2702,38.9777 Z M39.4802,35.0027 L41.3662,36.8887 C41.1582,37.1947 41.0132,37.5457 40.9392,37.9217 L38.2702,37.9217 C38.3792,36.8167 38.8102,35.8157 39.4802,35.0027 Z M43.1452,33.0477 L43.1452,35.7157 C42.7692,35.7887 42.4192,35.9347 42.1122,36.1427 L40.2262,34.2567 C41.0402,33.5867 42.0412,33.1557 43.1452,33.0477 Z M44.2022,33.0477 C45.3062,33.1557 46.3072,33.5867 47.1212,34.2567 L45.2342,36.1427 C44.9292,35.9347 44.5782,35.7887 44.2022,35.7157 L44.2022,33.0477 Z M49.0752,37.9217 L46.4082,37.9217 C46.3352,37.5457 46.1892,37.1947 45.9812,36.8887 L47.8672,35.0027 C48.5362,35.8157 48.9682,36.8167 49.0752,37.9217 Z M43.6742,31.9387 C40.0832,31.9387 37.1612,34.8587 37.1612,38.4497 C37.1612,42.0407 40.0832,44.9617 43.6742,44.9617 C47.2642,44.9617 50.1842,42.0407 50.1842,38.4497 C50.1842,34.8587 47.2642,31.9387 43.6742,31.9387 Z" id="Fill-19" fill="#006FE8"></path>
            </g>
        </g>
    </g>
</svg>