<?xml version="1.0" encoding="UTF-8"?>
<svg width="874px" height="613px" viewBox="0 0 874 613" version="1.1" xmlns="http://www.w3.org/2000/svg" xmlns:xlink="http://www.w3.org/1999/xlink">
    <!-- Generator: Sketch 53.2 (72643) - https://sketchapp.com -->
    <title>illustration: ecosystem</title>
    <desc>Created with Sketch.</desc>
    <defs>
        <rect id="path-1" x="0" y="0" width="307.042105" height="623.74893"></rect>
        <rect id="path-3" x="0" y="0" width="307.042105" height="623.74893"></rect>
        <linearGradient x1="50%" y1="100%" x2="50%" y2="-1.32667527e-14%" id="linearGradient-5">
            <stop stop-color="#DCDCDC" offset="0%"></stop>
            <stop stop-color="#6E6E6E" stop-opacity="0" offset="100%"></stop>
        </linearGradient>
        <linearGradient x1="49.993606%" y1="103.276141%" x2="49.993606%" y2="-7.58654954%" id="linearGradient-6">
            <stop stop-color="#FAFAFA" offset="0%"></stop>
            <stop stop-color="#FAFAFA" offset="100%"></stop>
        </linearGradient>
        <linearGradient x1="50%" y1="102.833182%" x2="50%" y2="0.441976428%" id="linearGradient-7">
            <stop stop-color="#DCDCDC" offset="0%"></stop>
            <stop stop-color="#6E6E6E" stop-opacity="0" offset="100%"></stop>
        </linearGradient>
        <linearGradient x1="50.002573%" y1="103.279798%" x2="50.002573%" y2="-7.60841757%" id="linearGradient-8">
            <stop stop-color="#FAFAFA" offset="0%"></stop>
            <stop stop-color="#FAFAFA" offset="100%"></stop>
        </linearGradient>
        <linearGradient x1="50%" y1="101.802422%" x2="50%" y2="7.31975784%" id="linearGradient-9">
            <stop stop-color="#DCDCDC" offset="0%"></stop>
            <stop stop-color="#6E6E6E" stop-opacity="0" offset="100%"></stop>
        </linearGradient>
        <linearGradient x1="49.993606%" y1="103.2768%" x2="49.993606%" y2="-7.60819667%" id="linearGradient-10">
            <stop stop-color="#FAFAFA" offset="0%"></stop>
            <stop stop-color="#FAFAFA" offset="100%"></stop>
        </linearGradient>
        <linearGradient x1="50%" y1="101.802422%" x2="50%" y2="7.31975784%" id="linearGradient-11">
            <stop stop-color="#DCDCDC" offset="0%"></stop>
            <stop stop-color="#6E6E6E" stop-opacity="0" offset="100%"></stop>
        </linearGradient>
        <linearGradient x1="49.993606%" y1="103.2768%" x2="49.993606%" y2="-7.60819667%" id="linearGradient-12">
            <stop stop-color="#FAFAFA" offset="0%"></stop>
            <stop stop-color="#FAFAFA" offset="100%"></stop>
        </linearGradient>
        <linearGradient x1="50%" y1="101.802422%" x2="50%" y2="7.31975784%" id="linearGradient-13">
            <stop stop-color="#DCDCDC" offset="0%"></stop>
            <stop stop-color="#6E6E6E" stop-opacity="0" offset="100%"></stop>
        </linearGradient>
        <linearGradient x1="50%" y1="101.802422%" x2="50%" y2="7.31975784%" id="linearGradient-14">
            <stop stop-color="#DCDCDC" offset="0%"></stop>
            <stop stop-color="#6E6E6E" stop-opacity="0" offset="100%"></stop>
        </linearGradient>
        <linearGradient x1="49.9726334%" y1="103.26464%" x2="49.9726334%" y2="-7.47795317%" id="linearGradient-15">
            <stop stop-color="#FAFAFA" offset="0%"></stop>
            <stop stop-color="#FAFAFA" offset="100%"></stop>
        </linearGradient>
    </defs>
    <g id="RenProject" stroke="none" stroke-width="1" fill="none" fill-rule="evenodd">
        <g id="home-copy" transform="translate(-806.000000, -101.000000)">
            <g id="Group-41" transform="translate(0.000000, 101.000000)">
                <g id="illustration:-ecosystem" transform="translate(671.000000, -248.000000)">
                    <g id="shadows" opacity="0.5" transform="translate(14.621053, 0.000000)">
                        <g id="Asset-11@large-Copy-2" transform="translate(677.244796, 156.191899) rotate(-300.000000) translate(-677.244796, -156.191899) translate(542.731112, 76.579916)"></g>
                        <g id="Asset-9@large-Copy" opacity="0.4" transform="translate(121.354737, 541.945792)" fill="#E1E1E1" fill-rule="nonzero">
                            <path d="M872.649465,304.152784 C869.434095,304.205745 866.259213,303.42646 863.429903,301.889814 C861.048747,300.790274 859.451951,298.474612 859.26314,295.847203 C859.459558,293.248257 861.033683,290.957329 863.38201,289.85274 C869.134818,286.86291 875.972537,286.86291 881.725345,289.85274 C884.106502,290.95228 885.703297,293.267943 885.892108,295.895351 C885.69569,298.494298 884.121566,300.785225 881.773239,301.889814 C878.975457,303.418532 875.833474,304.197839 872.649465,304.152784 L872.649465,304.152784 Z M872.505783,290.045333 C869.745549,289.989418 867.016952,290.644115 864.579355,291.947191 C862.973489,292.617641 861.855236,294.110424 861.657832,295.847203 C861.881596,297.599335 863.011326,299.101433 864.627249,299.795363 L864.627249,299.795363 C869.640308,302.347864 875.562835,302.347864 880.575893,299.795363 C882.18176,299.124913 883.300012,297.632131 883.497417,295.895351 C883.273653,294.14322 882.143923,292.641122 880.527999,291.947191 C878.055943,290.646532 875.295088,290.00029 872.505783,290.069408 L872.505783,290.045333 Z" id="Shape"></path>
                            <path d="M491.199084,430.012429 C487.370688,430.084941 483.587287,429.173426 480.207451,427.364273 L322.540974,335.882511 C316.421127,332.767897 309.191981,332.767897 303.072134,335.882511 L251.58627,365.758529 C244.714321,369.258966 236.594688,369.258966 229.722739,365.758529 L124.859206,304.778712 C122.061111,303.496292 120.179727,300.783778 119.950088,297.700913 C120.162039,294.664426 121.995597,291.982424 124.739471,290.695335 L175.698502,261.108208 C177.562385,260.036255 178.712436,258.042857 178.712436,255.884118 C178.712436,253.725378 177.562385,251.73198 175.698502,250.660028 L4.19070982,151.956021 C1.60003325,150.450186 0.00451327331,147.669985 0.00451327331,144.661555 C0.00451327331,141.653124 1.60003325,138.872923 4.19070982,137.367088 L239.469132,0 L240.666478,2.09445086 L5.36410856,139.630058 C3.51195682,140.705206 2.37100781,142.692004 2.37100781,144.842111 C2.37100781,146.992218 3.51195682,148.979016 5.36410856,150.054164 L176.871901,248.75817 C179.474283,250.260838 181.078875,253.047629 181.078875,256.064674 C181.078875,259.081718 179.474283,261.86851 176.871901,263.371178 L125.98471,292.789786 C124.014663,293.640939 122.633044,295.468517 122.34478,297.604616 C122.609616,299.812273 124.023902,301.711065 126.056551,302.587965 L230.920084,363.519633 C237.039932,366.634247 244.269077,366.634247 250.388925,363.519633 L301.874788,333.643615 C308.74766,330.147059 316.865448,330.147059 323.73832,333.643615 L481.404797,425.125377 C487.524644,428.239991 494.75379,428.239991 500.873637,425.125377 L675.829785,323.580621 C682.701735,320.080184 690.821367,320.080184 697.693317,323.580621 L750.137057,354.010344 C756.256904,357.124958 763.48605,357.124958 769.605897,354.010344 L863.741213,299.386103 L864.938559,301.480554 L770.803243,356.297388 C763.931293,359.797826 755.811661,359.797826 748.939711,356.297388 L696.495971,325.867666 C690.376124,322.753051 683.146978,322.753051 677.027131,325.867666 L502.070983,427.412421 C498.726481,429.195941 494.984188,430.090908 491.199084,430.012429 Z" id="Shape"></path>
                            <path d="M121.386903,217.582148 C115.54746,220.562953 108.643542,220.562953 102.804098,217.582148 C97.6555121,214.596954 97.6315652,209.75805 102.804098,206.79693 C108.643542,203.816126 115.54746,203.816126 121.386903,206.79693 C126.463649,209.782124 126.487596,214.596954 121.386903,217.582148 Z" id="Shape"></path>
                            <polygon id="Rectangle-path" transform="translate(137.313200, 197.375767) rotate(-30.270000) translate(-137.313200, -197.375767) " points="108.062045 196.172059 166.564354 196.172059 166.564354 198.579474 108.062045 198.579474"></polygon>
                        </g>
                        <g id="Group-18-Copy" opacity="0.4" transform="translate(640.402105, 284.230355)">
                            <mask id="mask-2" fill="white">
                                <use xlink:href="#path-1"></use>
                            </mask>
                            <g id="Rectangle-9"></g>
                            <g id="Asset-9@large" mask="url(#mask-2)" fill="#E1E1E1" fill-rule="nonzero">
                                <g transform="translate(36.552632, 13.146933)">
                                    <path d="M562.961766,492.274162 C558.574012,492.357173 554.237828,491.31368 550.364173,489.242578 L369.661446,384.515122 C362.647443,380.949541 354.362066,380.949541 347.348063,384.515122 L288.33973,418.716904 C280.463737,422.724172 271.157766,422.724172 263.281773,418.716904 L143.096895,348.907787 C139.889978,347.439685 137.73371,344.334424 137.470519,340.805189 C137.713438,337.329047 139.814893,334.258717 142.959666,332.785271 L201.364193,298.914207 C203.500403,297.687045 204.818484,295.405022 204.818484,292.933718 C204.818484,290.462413 203.500403,288.18039 201.364193,286.953229 L4.79783112,173.957816 C1.82863736,172.23395 4.19569846e-16,169.051202 0,165.607179 C-4.19569846e-16,162.163157 1.82863736,158.980409 4.79783112,157.256543 L274.452188,0 L275.824475,2.39770754 L6.14267218,159.847169 C4.01990724,161.077989 2.71225706,163.352456 2.71225706,165.813878 C2.71225706,168.2753 4.01990724,170.549768 6.14267218,171.780587 L202.709034,284.776 C205.691643,286.49624 207.530678,289.686533 207.530678,293.140417 C207.530678,296.594301 205.691643,299.784594 202.709034,301.504833 L144.386845,335.182978 C142.128958,336.157369 140.545475,338.249564 140.215093,340.69495 C140.518623,343.222255 142.139548,345.395974 144.469182,346.39984 L264.65406,416.153837 C271.668063,419.719418 279.953441,419.719418 286.967444,416.153837 L345.975776,381.952055 C353.852825,377.94923 363.156684,377.94923 371.033733,381.952055 L551.73646,486.679511 C558.750462,490.245092 567.03584,490.245092 574.049843,486.679511 L774.568391,370.432035 C782.444384,366.424768 791.750355,366.424768 799.626348,370.432035 L859.73251,405.267694 C866.746513,408.833275 875.03189,408.833275 882.045893,405.267694 L989.935082,342.734379 L991.307368,345.132087 L883.41818,407.88588 C875.542187,411.893148 866.236216,411.893148 858.360223,407.88588 L798.254061,373.050221 C791.240058,369.484641 782.95468,369.484641 775.940677,373.050221 L575.42213,489.297697 C571.588971,491.339454 567.299901,492.364004 562.961766,492.274162 Z" id="Shape"></path>
                                    <path d="M140.287629,248.683845 C133.462466,252.108714 125.393141,252.108714 118.567978,248.683845 C112.550291,245.253933 112.522302,239.694156 118.567978,236.291904 C125.393141,232.867035 133.462466,232.867035 140.287629,236.291904 C146.221349,239.721816 146.249338,245.253933 140.287629,248.683845 Z" id="Shape"></path>
                                    <polygon id="Rectangle-path" transform="translate(157.907368, 226.419401) rotate(-30.270000) translate(-157.907368, -226.419401) " points="124.278947 224.958631 191.535789 224.958631 191.535789 227.880171 124.278947 227.880171"></polygon>
                                </g>
                            </g>
                        </g>
                        <g id="Asset-10@large-Copy-2" opacity="0.4" transform="translate(925.512632, 368.955034)" fill="#E1E1E1" fill-rule="nonzero">
                            <path d="M13.3742756,183.951772 C10.1619199,184.003693 6.99016362,183.223857 4.16301244,181.687009 C1.78399909,180.586597 0.188640631,178.2691 0,175.639609 C0.196241044,173.038604 1.76894871,170.745861 4.11516172,169.640396 L4.11516172,169.640396 C9.86376496,166.65223 16.6933834,166.65223 22.4419866,169.640396 C24.821,170.740808 26.4163584,173.058305 26.604999,175.687796 C26.4255075,178.306538 24.8502537,180.621438 22.4898373,181.735195 C19.6897226,183.247361 16.551086,184.010564 13.3742756,183.951772 Z M5.31142967,171.736507 C3.7070087,172.407488 2.58976258,173.901454 2.39253589,175.639609 C2.6160982,177.39313 3.74481158,178.896418 5.35928038,179.590898 C10.3678268,182.145421 16.285023,182.145421 21.2935694,179.590898 C22.8979903,178.919917 24.0152365,177.425952 24.2124632,175.687796 C23.9969028,173.925282 22.8669344,172.411145 21.2457187,171.712414 C16.2371723,169.157891 10.3199761,169.157891 5.31142967,171.712414 L5.31142967,171.736507 Z" id="Shape"></path>
                            <path d="M21.7242258,172.170185 L20.5279579,170.074075 L123.574478,110.178317 C125.542753,109.326491 126.923128,107.497464 127.211133,105.359672 C126.946535,103.150266 125.533522,101.249969 123.502702,100.372375 L82.9731445,76.6887348 C80.177568,75.4052991 78.2978783,72.6906349 78.0684459,69.6053267 C78.2802061,66.5664335 80.1121139,63.8823064 82.8535177,62.5941983 L109.434591,47.1263479 C111.412149,46.2811664 112.802546,44.4509017 113.095171,42.3077029 C112.830574,40.0982963 111.41756,38.1979994 109.386741,37.3204054 L48.9991349,2.09611057 L50.2432536,0 L110.606934,35.1279219 C113.40251,36.4113576 115.2822,39.1260218 115.511633,42.21133 C115.299872,45.2502232 113.467965,47.9343503 110.726561,49.2224585 L84.0976364,64.6903088 C82.1200786,65.5354903 80.7296814,67.365755 80.4370565,69.5089538 C80.6402303,71.7955566 82.073788,73.7851555 84.1694124,74.6889972 L124.722896,98.2521711 C127.518472,99.5356068 129.398162,102.250271 129.627594,105.335579 C129.415834,108.374472 127.583926,111.0586 124.842522,112.346708 L21.7242258,172.170185 Z" id="Shape"></path>
                        </g>
                        <g id="Asset-11@large-Copy-7" opacity="0.4" transform="translate(521.971579, 336.818087)" fill="#E1E1E1" fill-rule="nonzero" stroke="#FDFDFD" stroke-width="2.918916">
                            <polygon id="Rectangle-path" transform="translate(119.161579, 70.847361) rotate(-30.120000) translate(-119.161579, -70.847361) " points="-16.0831579 68.6562054 254.406316 68.6562054 254.406316 73.0385164 -16.0831579 73.0385164"></polygon>
                        </g>
                        <g id="Asset-11@large-Copy-9" opacity="0.4" transform="translate(677.244796, 183.326676) rotate(-300.000000) translate(-677.244796, -183.326676) translate(542.731112, 103.714693)" fill="#E1E1E1" fill-rule="nonzero" stroke="#FDFDFD" stroke-width="1.459458">
                            <polygon id="Rectangle-path" transform="translate(134.637618, 80.048620) rotate(-30.120000) translate(-134.637618, -80.048620) " points="-18.1719484 77.5728891 287.447184 77.5728891 287.447184 82.5243501 -18.1719484 82.5243501"></polygon>
                        </g>
                    </g>
                    <g id="Asset-9@large" transform="translate(135.975789, 512.730385)" fill="#E1E1E1" fill-rule="nonzero">
                        <path d="M872.649465,304.152784 C869.434095,304.205745 866.259213,303.42646 863.429903,301.889814 C861.048747,300.790274 859.451951,298.474612 859.26314,295.847203 C859.459558,293.248257 861.033683,290.957329 863.38201,289.85274 C869.134818,286.86291 875.972537,286.86291 881.725345,289.85274 C884.106502,290.95228 885.703297,293.267943 885.892108,295.895351 C885.69569,298.494298 884.121566,300.785225 881.773239,301.889814 C878.975457,303.418532 875.833474,304.197839 872.649465,304.152784 L872.649465,304.152784 Z M872.505783,290.045333 C869.745549,289.989418 867.016952,290.644115 864.579355,291.947191 C862.973489,292.617641 861.855236,294.110424 861.657832,295.847203 C861.881596,297.599335 863.011326,299.101433 864.627249,299.795363 L864.627249,299.795363 C869.640308,302.347864 875.562835,302.347864 880.575893,299.795363 C882.18176,299.124913 883.300012,297.632131 883.497417,295.895351 C883.273653,294.14322 882.143923,292.641122 880.527999,291.947191 C878.055943,290.646532 875.295088,290.00029 872.505783,290.069408 L872.505783,290.045333 Z" id="Shape"></path>
                        <path d="M491.199084,430.012429 C487.370688,430.084941 483.587287,429.173426 480.207451,427.364273 L322.540974,335.882511 C316.421127,332.767897 309.191981,332.767897 303.072134,335.882511 L251.58627,365.758529 C244.714321,369.258966 236.594688,369.258966 229.722739,365.758529 L124.859206,304.778712 C122.061111,303.496292 120.179727,300.783778 119.950088,297.700913 C120.162039,294.664426 121.995597,291.982424 124.739471,290.695335 L175.698502,261.108208 C177.562385,260.036255 178.712436,258.042857 178.712436,255.884118 C178.712436,253.725378 177.562385,251.73198 175.698502,250.660028 L4.19070982,151.956021 C1.60003325,150.450186 0.00451327331,147.669985 0.00451327331,144.661555 C0.00451327331,141.653124 1.60003325,138.872923 4.19070982,137.367088 L239.469132,0 L240.666478,2.09445086 L5.36410856,139.630058 C3.51195682,140.705206 2.37100781,142.692004 2.37100781,144.842111 C2.37100781,146.992218 3.51195682,148.979016 5.36410856,150.054164 L176.871901,248.75817 C179.474283,250.260838 181.078875,253.047629 181.078875,256.064674 C181.078875,259.081718 179.474283,261.86851 176.871901,263.371178 L125.98471,292.789786 C124.014663,293.640939 122.633044,295.468517 122.34478,297.604616 C122.609616,299.812273 124.023902,301.711065 126.056551,302.587965 L230.920084,363.519633 C237.039932,366.634247 244.269077,366.634247 250.388925,363.519633 L301.874788,333.643615 C308.74766,330.147059 316.865448,330.147059 323.73832,333.643615 L481.404797,425.125377 C487.524644,428.239991 494.75379,428.239991 500.873637,425.125377 L675.829785,323.580621 C682.701735,320.080184 690.821367,320.080184 697.693317,323.580621 L750.137057,354.010344 C756.256904,357.124958 763.48605,357.124958 769.605897,354.010344 L863.741213,299.386103 L864.938559,301.480554 L770.803243,356.297388 C763.931293,359.797826 755.811661,359.797826 748.939711,356.297388 L696.495971,325.867666 C690.376124,322.753051 683.146978,322.753051 677.027131,325.867666 L502.070983,427.412421 C498.726481,429.195941 494.984188,430.090908 491.199084,430.012429 Z" id="Shape"></path>
                        <path d="M121.386903,217.582148 C115.54746,220.562953 108.643542,220.562953 102.804098,217.582148 C97.6555121,214.596954 97.6315652,209.75805 102.804098,206.79693 C108.643542,203.816126 115.54746,203.816126 121.386903,206.79693 C126.463649,209.782124 126.487596,214.596954 121.386903,217.582148 Z" id="Shape"></path>
                        <polygon id="Rectangle-path" transform="translate(137.313200, 197.375767) rotate(-30.270000) translate(-137.313200, -197.375767) " points="108.062045 196.172059 166.564354 196.172059 166.564354 198.579474 108.062045 198.579474"></polygon>
                    </g>
                    <g id="Group-18" transform="translate(655.023158, 255.634807)">
                        <mask id="mask-4" fill="white">
                            <use xlink:href="#path-3"></use>
                        </mask>
                        <g id="Rectangle-9"></g>
                        <g id="Asset-9@large" mask="url(#mask-4)" fill="#E1E1E1" fill-rule="nonzero">
                            <g transform="translate(36.552632, 13.146933)">
                                <path d="M562.961766,492.274162 C558.574012,492.357173 554.237828,491.31368 550.364173,489.242578 L369.661446,384.515122 C362.647443,380.949541 354.362066,380.949541 347.348063,384.515122 L288.33973,418.716904 C280.463737,422.724172 271.157766,422.724172 263.281773,418.716904 L143.096895,348.907787 C139.889978,347.439685 137.73371,344.334424 137.470519,340.805189 C137.713438,337.329047 139.814893,334.258717 142.959666,332.785271 L201.364193,298.914207 C203.500403,297.687045 204.818484,295.405022 204.818484,292.933718 C204.818484,290.462413 203.500403,288.18039 201.364193,286.953229 L4.79783112,173.957816 C1.82863736,172.23395 4.19569846e-16,169.051202 0,165.607179 C-4.19569846e-16,162.163157 1.82863736,158.980409 4.79783112,157.256543 L274.452188,0 L275.824475,2.39770754 L6.14267218,159.847169 C4.01990724,161.077989 2.71225706,163.352456 2.71225706,165.813878 C2.71225706,168.2753 4.01990724,170.549768 6.14267218,171.780587 L202.709034,284.776 C205.691643,286.49624 207.530678,289.686533 207.530678,293.140417 C207.530678,296.594301 205.691643,299.784594 202.709034,301.504833 L144.386845,335.182978 C142.128958,336.157369 140.545475,338.249564 140.215093,340.69495 C140.518623,343.222255 142.139548,345.395974 144.469182,346.39984 L264.65406,416.153837 C271.668063,419.719418 279.953441,419.719418 286.967444,416.153837 L345.975776,381.952055 C353.852825,377.94923 363.156684,377.94923 371.033733,381.952055 L551.73646,486.679511 C558.750462,490.245092 567.03584,490.245092 574.049843,486.679511 L774.568391,370.432035 C782.444384,366.424768 791.750355,366.424768 799.626348,370.432035 L859.73251,405.267694 C866.746513,408.833275 875.03189,408.833275 882.045893,405.267694 L989.935082,342.734379 L991.307368,345.132087 L883.41818,407.88588 C875.542187,411.893148 866.236216,411.893148 858.360223,407.88588 L798.254061,373.050221 C791.240058,369.484641 782.95468,369.484641 775.940677,373.050221 L575.42213,489.297697 C571.588971,491.339454 567.299901,492.364004 562.961766,492.274162 Z" id="Shape"></path>
                                <path d="M140.287629,248.683845 C133.462466,252.108714 125.393141,252.108714 118.567978,248.683845 C112.550291,245.253933 112.522302,239.694156 118.567978,236.291904 C125.393141,232.867035 133.462466,232.867035 140.287629,236.291904 C146.221349,239.721816 146.249338,245.253933 140.287629,248.683845 Z" id="Shape"></path>
                                <polygon id="Rectangle-path" transform="translate(157.907368, 226.419401) rotate(-30.270000) translate(-157.907368, -226.419401) " points="124.278947 224.958631 191.535789 224.958631 191.535789 227.880171 124.278947 227.880171"></polygon>
                            </g>
                        </g>
                    </g>
                    <g id="Asset-10@large" transform="translate(940.133684, 340.359486)" fill="#E1E1E1" fill-rule="nonzero">
                        <path d="M13.3742756,183.951772 C10.1619199,184.003693 6.99016362,183.223857 4.16301244,181.687009 C1.78399909,180.586597 0.188640631,178.2691 0,175.639609 C0.196241044,173.038604 1.76894871,170.745861 4.11516172,169.640396 L4.11516172,169.640396 C9.86376496,166.65223 16.6933834,166.65223 22.4419866,169.640396 C24.821,170.740808 26.4163584,173.058305 26.604999,175.687796 C26.4255075,178.306538 24.8502537,180.621438 22.4898373,181.735195 C19.6897226,183.247361 16.551086,184.010564 13.3742756,183.951772 Z M5.31142967,171.736507 C3.7070087,172.407488 2.58976258,173.901454 2.39253589,175.639609 C2.6160982,177.39313 3.74481158,178.896418 5.35928038,179.590898 C10.3678268,182.145421 16.285023,182.145421 21.2935694,179.590898 C22.8979903,178.919917 24.0152365,177.425952 24.2124632,175.687796 C23.9969028,173.925282 22.8669344,172.411145 21.2457187,171.712414 C16.2371723,169.157891 10.3199761,169.157891 5.31142967,171.712414 L5.31142967,171.736507 Z" id="Shape"></path>
                        <path d="M21.7242258,172.170185 L20.5279579,170.074075 L123.574478,110.178317 C125.542753,109.326491 126.923128,107.497464 127.211133,105.359672 C126.946535,103.150266 125.533522,101.249969 123.502702,100.372375 L82.9731445,76.6887348 C80.177568,75.4052991 78.2978783,72.6906349 78.0684459,69.6053267 C78.2802061,66.5664335 80.1121139,63.8823064 82.8535177,62.5941983 L109.434591,47.1263479 C111.412149,46.2811664 112.802546,44.4509017 113.095171,42.3077029 C112.830574,40.0982963 111.41756,38.1979994 109.386741,37.3204054 L48.9991349,2.09611057 L50.2432536,0 L110.606934,35.1279219 C113.40251,36.4113576 115.2822,39.1260218 115.511633,42.21133 C115.299872,45.2502232 113.467965,47.9343503 110.726561,49.2224585 L84.0976364,64.6903088 C82.1200786,65.5354903 80.7296814,67.365755 80.4370565,69.5089538 C80.6402303,71.7955566 82.073788,73.7851555 84.1694124,74.6889972 L124.722896,98.2521711 C127.518472,99.5356068 129.398162,102.250271 129.627594,105.335579 C129.415834,108.374472 127.583926,111.0586 124.842522,112.346708 L21.7242258,172.170185 Z" id="Shape"></path>
                    </g>
                    <g id="Asset-11@large" transform="translate(14.621053, 853.089872)" fill="#E1E1E1" fill-rule="nonzero" stroke="#FDFDFD" stroke-width="1.459458">
                        <polygon id="Rectangle-path" transform="translate(119.161579, 70.847361) rotate(-30.120000) translate(-119.161579, -70.847361) " points="-16.0831579 68.6562054 254.406316 68.6562054 254.406316 73.0385164 -16.0831579 73.0385164"></polygon>
                    </g>
                    <g id="lock-key" transform="translate(308.504211, 78.881598)" fill-rule="nonzero">
                        <rect id="Rectangle-path" fill="url(#linearGradient-5)" opacity="0.2" transform="translate(148.315085, 214.171189) rotate(180.000000) translate(-148.315085, -214.171189) " x="-1.42108547e-14" y="149.795829" width="296.63017" height="128.75072"></rect>
                        <path d="M0.159478586,112.754311 L0.159478586,147.386625 L0.425276229,147.563772 C1.64844912,156.748335 7.05181652,164.851052 15.0618665,169.512333 L116.454807,228.520128 C136.101487,239.949929 160.358975,240.017479 180.069043,228.697275 L281.479704,170.451215 C289.875137,165.630521 295.425336,157.053613 296.382092,147.422054 L296.523851,147.422054 L296.523851,112.754311 L0.159478586,112.754311 Z" id="Shape" fill="#E1E1E1"></path>
                        <path d="M128.805538,198.121636 L8.73588255,128.821579 C3.39604129,125.73938 0.106587398,120.043402 0.106587398,113.879197 C0.106587398,107.714992 3.39604129,102.019013 8.73588255,98.936815 L118.722947,35.4294772 C137.045591,24.8539412 159.620019,24.8539412 177.942662,35.4294772 L287.451291,98.6356644 C293.08956,101.897367 296.561493,107.916022 296.561493,114.428354 C296.561493,120.940685 293.08956,126.959341 287.451291,130.221043 L169.844694,198.121636 C157.147135,205.450464 141.503097,205.450464 128.805538,198.121636 Z" id="Shape" fill="url(#linearGradient-6)"></path>
                    </g>
                    <g id="exchange" transform="translate(859.717895, 203.047076)" fill-rule="nonzero">
                        <polygon id="Rectangle-path" fill="url(#linearGradient-7)" opacity="0.2" transform="translate(118.359822, 144.957925) rotate(180.000000) translate(-118.359822, -144.957925) " points="3.83514649e-14 82.507543 236.719643 82.507543 236.719643 207.408308 3.83514649e-14 207.408308"></polygon>
                        <path d="M0.197973417,76.5767383 L0.197973417,104.263263 L0.410087793,104.40481 C1.38621592,111.743581 5.69826281,118.217921 12.0905194,121.94244 L93.0050832,169.105784 C108.681183,178.242962 128.03938,178.302335 143.771124,169.261485 L224.699828,122.720947 C231.399632,118.869052 235.828855,112.015817 236.592374,104.319882 L236.705502,104.319882 L236.705502,76.5767383 L0.197973417,76.5767383 Z" id="Shape" fill="#E1E1E1"></path>
                        <path d="M102.875472,144.802224 L7.07047918,89.4150195 C2.80912804,86.9522405 0.184046602,82.4009645 0.184046602,77.4755595 C0.184046602,72.5501545 2.80912804,67.9988786 7.07047918,65.5360995 L94.7444211,14.834089 C109.366432,6.38388418 127.381493,6.38388418 142.003504,14.834089 L229.394627,65.3379342 C233.894131,67.944143 236.664837,72.7532488 236.664837,77.9568181 C236.664837,83.1603875 233.894131,87.9694933 229.394627,90.5757021 L135.611791,144.802224 C125.482358,150.652754 113.004905,150.652754 102.875472,144.802224 Z" id="Shape" fill="url(#linearGradient-8)"></path>
                        <ellipse id="Oval" fill="#E1E1E1" cx="118.430526" cy="76.5767383" rx="58.6708363" ry="28.6065782"></ellipse>
                        <polygon id="Shape" fill="#001833" points="146.0761 9.58270828 146.061959 26.2569038 106.08547 49.5130186 102.182565 35.1035695"></polygon>
                        <polygon id="Shape" fill="#001B3A" points="108.984366 39.0385664 108.984366 55.7269166 67.919023 62.1106705 67.919023 45.4223204"></polygon>
                        <polygon id="Shape" fill="#001B3A" points="160.344327 64.0073957 116.464933 89.5424115 116.464933 72.8540614 160.358468 47.3190455"></polygon>
                        <polygon id="Shape" fill="#001B3A" points="116.464933 72.8540614 116.464933 89.5424115 99.8917299 79.9597033 99.8917299 63.2713531"></polygon>
                        <polygon id="Shape" fill="#1987FF" points="136.997605 33.815495 136.983464 50.5038451 139.274299 51.8343837 143.134781 37.3683159"></polygon>
                        <polygon id="Shape" fill="#006FE8" points="78.807561 21.600019 85.6093619 25.5350159 129.502897 0 146.0761 9.58270828 102.182565 35.1035695 108.984366 39.0385664 67.933164 45.4223204"></polygon>
                        <polygon id="Shape" fill="#001833" points="99.8917299 63.2713531 116.464933 72.8540614 160.358468 47.3190455 167.17441 51.2540424 178.048807 27.431741 136.997605 33.815495 143.134781 37.3683159"></polygon>
                    </g>
                    <g id="shield" transform="translate(135.975789, 655.670471)" fill-rule="nonzero">
                        <g id="Group-28" transform="translate(0.000000, 85.742952)">
                            <rect id="Rectangle-path" fill="url(#linearGradient-9)" opacity="0.2" transform="translate(124.278947, 138.159881) rotate(180.000000) translate(-124.278947, -138.159881) " x="0" y="84.3009441" width="248.557895" height="107.717873"></rect>
                            <path d="M0,72.5924797 L0,101.28036 L0.222921879,101.427026 C1.248785,109.031223 5.78053628,115.739725 12.4984867,119.598951 L97.5357527,168.482747 C114.01057,177.950395 134.355092,178.011915 150.888389,168.64408 L235.940516,120.420281 C242.981684,116.429073 247.636581,109.327972 248.439003,101.353693 L248.557895,101.353693 L248.557895,72.5924797 L0,72.5924797 Z" id="Shape" fill="#E1E1E1"></path>
                            <path d="M107.905586,142.921501 L7.2350951,84.8460335 C2.75799024,82.2637214 6.28852613e-16,77.4915456 0,72.3270821 C-6.28852613e-16,67.1626185 2.75799024,62.3904427 7.2350951,59.8081306 L99.4519981,6.64525683 C114.814327,-2.21508561 133.741496,-2.21508561 149.103825,6.64525683 L240.919591,59.6003472 C245.646908,62.3330505 248.557895,67.3755701 248.557895,72.831699 C248.557895,78.2878278 245.646908,83.3303475 240.919591,86.0630507 L142.314213,142.921501 C131.668146,149.061703 118.551652,149.061703 107.905586,142.921501 L107.905586,142.921501 Z" id="Shape" fill="url(#linearGradient-10)"></path>
                            <ellipse id="Oval" fill="#E1E1E1" cx="124.278947" cy="72.5924797" rx="60.9670308" ry="30.4420076"></ellipse>
                        </g>
                        <g transform="translate(65.000000, 0.000000)" id="Shape">
                            <path d="M117.863341,10.8294774 L103.642228,2.09475459 L102.701678,1.49750859 L102.701678,1.49750859 C100.757422,0.476720269 98.484694,0.261962145 96.3811838,0.900262583 C90.8466071,2.59489147 85.1669433,3.78192006 79.4136654,4.44641074 C72.5753546,5.24973261 65.6556012,5.06111566 58.8720577,3.88649261 C55.6513207,3.31769854 52.3910934,4.65822136 50.5199755,7.32065714 C44.1155231,16.4083195 37.0620987,25.028308 29.4140379,33.114219 C21.511485,41.487792 12.8607032,49.1339194 3.5677294,55.9588787 C1.39243595,57.5330948 0.106207281,60.0438272 0.106506125,62.7152242 L0.106506125,100.938969 C0.106506125,120.125496 6.46462278,134.534056 17.4878665,141.999631 L17.4878665,141.999631 C18.215225,142.497336 18.9551242,142.957714 19.707564,143.380763 L32.3109313,151.107633 L32.3109313,147.374845 L35.0573368,147.598813 L49.6546697,148.233387 C52.2816509,148.35247 54.8140773,147.248018 56.5018722,145.247157 L72.5664628,126.097957 C93.8228884,100.528362 107.06583,67.3438807 107.06583,39.5719414 L107.06583,15.2714946 L117.863341,10.8294774 Z" fill="#001B3A"></path>
                            <path d="M86.8251978,134.944663 L70.7606072,154.093863 C69.0728123,156.094725 66.5403859,157.199177 63.9134047,157.080093 L49.3160718,156.445519 C27.8715363,155.512322 14.5157291,137.781582 14.5157291,109.860331 L14.5157291,71.5992585 C14.5154302,68.9278615 15.8016589,66.4171291 17.9769524,64.8429131 C27.2699261,58.0179537 35.920708,50.3718263 43.8232609,41.9982533 C51.4713216,33.9123423 58.524746,25.2923538 64.9291985,16.2046915 C66.7972052,13.5836643 70.017748,12.2619449 73.2060367,12.8078548 C79.9896337,13.9819493 86.9093094,14.1705641 93.7476444,13.367773 C99.5390106,12.7100574 105.256763,11.5229649 110.828029,9.82162479 C113.374287,9.06839952 116.129451,9.55072104 118.262155,11.1230496 C120.394859,12.6953782 121.655307,15.1735535 121.663162,17.8097901 L121.663162,48.4559758 C121.663162,76.227915 108.269733,109.412396 86.8251978,134.944663 Z" fill="#F5F5F5"></path>
                        </g>
                    </g>
                    <rect id="Rectangle-path" fill="url(#linearGradient-11)" fill-rule="nonzero" opacity="0.2" transform="translate(399.154737, 531.720399) rotate(180.000000) translate(-399.154737, -531.720399) " x="321.663158" y="498.122682" width="154.983158" height="67.1954351"></rect>
                    <path d="M321.663158,490.81883 L321.663158,508.714603 L321.802156,508.806095 C322.441812,513.549666 325.267492,517.734493 329.456332,520.141915 L382.479568,550.636092 C392.752101,556.542101 405.437509,556.580478 415.746506,550.736733 L468.779009,520.654268 C473.169384,518.164514 476.07185,513.73478 476.572183,508.760349 L476.646316,508.760349 L476.646316,490.81883 L321.663158,490.81883 Z" id="Shape" fill="#E1E1E1" fill-rule="nonzero"></path>
                    <path d="M388.945464,534.690744 L326.174452,498.462714 C323.382846,496.851843 321.663158,493.874914 321.663158,490.653273 C321.663158,487.431631 323.382846,484.454702 326.174452,482.843832 L383.674404,449.680325 C393.253268,444.153159 405.054914,444.153159 414.633778,449.680325 L471.883609,482.714214 C474.83123,484.418901 476.646316,487.564472 476.646316,490.968058 C476.646316,494.371643 474.83123,497.517214 471.883609,499.221901 L410.400255,534.690744 C403.76212,538.52106 395.5836,538.52106 388.945464,534.690744 L388.945464,534.690744 Z" id="Shape" fill="url(#linearGradient-12)" fill-rule="nonzero"></path>
                    <ellipse id="Oval" fill="#E1E1E1" fill-rule="nonzero" cx="399.154737" cy="490.81883" rx="38.0147368" ry="18.9900143"></ellipse>
                    <g id="Asset-19@large" transform="translate(321.663158, 444.947218)" fill-rule="nonzero">
                        <polygon id="Rectangle-path" fill="url(#linearGradient-11)" opacity="0.2" transform="translate(77.491579, 86.773181) rotate(180.000000) translate(-77.491579, -86.773181) " points="3.44131741e-14 53.1754636 154.983158 53.1754636 154.983158 120.370899 3.44131741e-14 120.370899"></polygon>
                        <path d="M0,45.871612 L0,63.7673851 L0.138998348,63.8588768 C0.778654175,68.6024473 3.60433439,72.7872743 7.79317404,75.1946962 L60.8164105,105.688874 C71.0889435,111.594883 83.7743515,111.63326 94.0833484,105.789515 L147.115851,75.7070497 C151.506226,73.2172961 154.408692,68.7875621 154.909025,63.8131309 L154.983158,63.8131309 L154.983158,45.871612 L0,45.871612 Z" id="Shape" fill="#E1E1E1"></path>
                        <path d="M67.2823064,89.7435254 L4.51129459,53.5154956 C1.71968803,51.9046247 3.921081e-16,48.927696 0,45.7060544 C-3.921081e-16,42.4844129 1.71968803,39.5074842 4.51129459,37.8966133 L62.0112459,4.73310631 C71.5901097,-0.794059687 83.3917566,-0.794059687 92.9706203,4.73310631 L150.220451,37.766996 C153.168072,39.4716823 154.983158,42.6172541 154.983158,46.0208393 C154.983158,49.4244244 153.168072,52.5699962 150.220451,54.2746825 L88.7370973,89.7435254 C82.0989619,93.5738415 73.9204418,93.5738415 67.2823064,89.7435254 L67.2823064,89.7435254 Z" id="Shape" fill="url(#linearGradient-12)"></path>
                        <ellipse id="Oval" fill="#E1E1E1" cx="77.4915789" cy="45.871612" rx="38.0147368" ry="18.9900143"></ellipse>
                    </g>
                    <polygon id="Rectangle-path" fill="url(#linearGradient-13)" fill-rule="nonzero" opacity="0.2" transform="translate(1037.363684, 825.335235) rotate(180.000000) translate(-1037.363684, -825.335235) " points="932.823158 780.051355 1141.90421 780.051355 1141.90421 870.619116 932.823158 870.619116"></polygon>
                    <g id="illustration-darkpool" transform="translate(932.823158, 660.268188)" fill-rule="nonzero">
                        <path d="M130.840412,72.8753944 C116.716199,81.0490357 93.8269594,81.0490357 79.7027461,72.8753944 C65.5785329,64.7017532 65.5785329,51.4227298 79.7027461,43.2239388 C93.8269594,35.0251479 116.716199,35.0502976 130.840412,43.2239388 C144.964625,51.3975801 144.964625,64.7017532 130.840412,72.8753944 Z" id="Shape" fill="#006FE8"></path>
                        <path d="M179.718253,153.203496 C138.593395,176.812339 71.934148,176.812339 30.8342748,153.203496 C-10.2655983,129.594654 -10.290583,91.2986255 30.8342748,67.6897828 C71.9591327,44.0809401 138.61838,44.0809401 179.718253,67.6897828 C220.818126,91.2986255 220.818126,129.594654 179.718253,153.203496 Z" id="Shape" fill="#001B3A"></path>
                        <path d="M179.718253,149.978777 C138.593395,173.58762 71.934148,173.58762 30.8342748,149.978777 C-10.2655983,126.369934 -10.290583,88.0739061 30.8342748,64.4650634 C71.9591327,40.8562207 138.61838,40.8562207 179.718253,64.4650634 C220.818126,88.0739061 220.818126,126.369934 179.718253,149.978777 Z" id="Shape" fill="#E1E1E1"></path>
                        <path d="M3.21439936,61.2696687 L3.21439936,99.5639207 L3.21439936,99.5639207 C3.21439936,114.512881 13.0240029,129.46184 32.8428966,140.92271 C72.4058016,163.694958 136.580078,163.694958 176.118022,140.997454 C195.76219,129.66116 205.596755,114.86169 205.721559,100.01239 L205.721559,100.01239 L205.721559,61.2696687 L3.21439936,61.2696687 Z" id="Shape" fill="#F5F5F5"></path>
                        <path d="M176.081114,102.088979 C136.573001,125.056498 72.4315913,125.056498 32.8735625,102.088979 C-6.68446625,79.1214596 -6.65950851,41.7803946 32.8735625,18.8380042 C72.4066335,-4.10438633 136.573001,-4.15464349 176.081114,18.8380042 C215.589227,41.8306518 215.614185,79.096331 176.081114,102.088979 Z" id="Shape" fill="#E1E1E1"></path>
                        <path d="M105.271579,108.0281 C81.1783385,108.0281 57.1101171,102.768421 38.7712331,92.2738729 C20.932728,82.0770424 11.2503978,68.4812684 11.2503978,54.0171512 C11.2503978,39.553034 21.0578227,25.9572601 38.7712331,15.7604296 C75.449001,-5.25347653 135.069138,-5.25347653 171.771925,15.7604296 C189.61043,25.9572601 199.29276,39.553034 199.29276,54.0171512 C199.29276,68.4812684 189.485335,82.0770424 171.771925,92.2738729 L171.621811,92.000965 L171.771925,92.2738729 C153.45806,102.768421 129.364819,108.0281 105.271579,108.0281 Z" id="Shape" fill="#006FE8"></path>
                        <path d="M104.467979,0 C80.5775449,0 56.6871108,5.29567964 38.4825002,15.8619409 C20.926273,26.0517321 11.2503978,39.5293623 11.2503978,54.0109128 C11.2503978,68.4924633 20.926273,81.9449954 38.4825002,92.2351786 C74.8667835,113.292407 134.168926,113.292407 170.453458,92.2351786 C187.909934,82.0202894 197.68556,68.4924633 197.68556,54.0862068 C197.68556,39.6799503 188.009685,26.0517321 170.453458,15.8619409 C152.248847,5.29567964 128.358413,0 104.467979,0 Z" id="Shape" fill="#979797"></path>
                    </g>
                    <rect id="Rectangle-path-Copy" fill="url(#linearGradient-14)" fill-rule="nonzero" opacity="0.2" transform="translate(831.937895, 255.634807) rotate(180.000000) translate(-831.937895, -255.634807) " x="798.309474" y="241.027104" width="67.2568421" height="29.2154066"></rect>
                    <g id="illustration-darknode-copy" transform="translate(798.309474, 210.350927)" fill-rule="nonzero">
                        <path d="M0.299919028,25.786366 L0.299919028,33.4228963 L0.299919028,33.4228963 C0.559397232,35.4959983 1.79427834,37.3256139 3.63014494,38.3570015 L26.2192964,51.363512 C30.5806741,53.8550824 35.954113,53.8550824 40.3154907,51.363512 L62.9046421,38.5313515 C64.7758732,37.4642241 66.010006,35.5675313 66.2172478,33.4403313 L66.2172478,33.4403313 L66.2172478,25.786366 L0.299919028,25.786366 Z" id="Shape" fill="#E1E1E1"></path>
                        <path d="M28.9680543,44.6161668 L2.22052551,29.3256712 C1.02849278,28.6476665 0.293604156,27.3909385 0.293604156,26.030456 C0.293604156,24.6699736 1.02849278,23.4132455 2.22052551,22.7352409 L26.7302834,8.71750035 C30.8136233,6.38476763 35.8445055,6.38476763 39.9278453,8.71750035 L64.3142615,22.6655009 C65.5727177,23.3851779 66.3478174,24.7142651 66.3478174,26.152501 C66.3478174,27.590737 65.5727177,28.9198241 64.3142615,29.6395012 L38.0953401,44.6161668 C35.2703776,46.2258709 31.7930168,46.2258709 28.9680543,44.6161668 Z" id="Shape" fill="url(#linearGradient-15)"></path>
                    </g>
                    <g id="darknode" transform="translate(850.945263, 435.309558)" fill-rule="nonzero">
                        <polygon id="Rectangle-path-Copy" fill="url(#linearGradient-14)" opacity="0.2" transform="translate(33.628421, 45.283880) rotate(180.000000) translate(-33.628421, -45.283880) " points="2.24010284e-14 30.6761769 67.2568421 30.6761769 67.2568421 59.8915835 2.24010284e-14 59.8915835"></polygon>
                        <g id="illustration-darknode">
                            <path d="M0.299919028,25.786366 L0.299919028,33.4228963 L0.299919028,33.4228963 C0.559397232,35.4959983 1.79427834,37.3256139 3.63014494,38.3570015 L26.2192964,51.363512 C30.5806741,53.8550824 35.954113,53.8550824 40.3154907,51.363512 L62.9046421,38.5313515 C64.7758732,37.4642241 66.010006,35.5675313 66.2172478,33.4403313 L66.2172478,33.4403313 L66.2172478,25.786366 L0.299919028,25.786366 Z" id="Shape" fill="#E1E1E1"></path>
                            <path d="M28.9680543,44.6161668 L2.22052551,29.3256712 C1.02849278,28.6476665 0.293604156,27.3909385 0.293604156,26.030456 C0.293604156,24.6699736 1.02849278,23.4132455 2.22052551,22.7352409 L26.7302834,8.71750035 C30.8136233,6.38476763 35.8445055,6.38476763 39.9278453,8.71750035 L64.3142615,22.6655009 C65.5727177,23.3851779 66.3478174,24.7142651 66.3478174,26.152501 C66.3478174,27.590737 65.5727177,28.9198241 64.3142615,29.6395012 L38.0953401,44.6161668 C35.2703776,46.2258709 31.7930168,46.2258709 28.9680543,44.6161668 Z" id="Shape" fill="url(#linearGradient-15)"></path>
                            <ellipse id="Oval" fill="#E1E1E1" cx="33.302634" cy="25.786366" rx="16.3692057" ry="7.89805531"></ellipse>
                            <polygon id="Shape" fill="#001B3A" points="33.2673935 27.1114261 20.897983 20.0328158 20.897983 15.7089356 33.2673935 22.7875459"></polygon>
                            <polygon id="Shape" fill="#979797" points="45.6544243 20.0328158 33.2673935 27.1114261 33.2673935 22.7875459 45.6544243 15.7089356"></polygon>
                            <polygon id="Shape" fill="#001B3A" points="45.6544243 15.7089356 33.2673935 22.7875459 20.897983 15.7089356 33.2673935 8.64776034"></polygon>
                            <polygon id="Shape" fill="#FAF2F8" points="45.6544243 11.4024905 33.2673935 18.4636657 20.897983 11.4024905 33.2673935 4.32388017"></polygon>
                            <polygon id="Shape" fill="#001B3A" points="33.2673935 18.4636657 20.897983 11.3850555 20.897983 7.07861028 33.2673935 14.1397856"></polygon>
                            <polygon id="Shape" fill="#979797" points="45.6544243 11.3850555 33.2673935 18.4636657 33.2673935 14.1397856 45.6544243 7.07861028"></polygon>
                            <polygon id="Shape" fill="#001B3A" points="45.6544243 7.23552529 33.1792923 14.1397856 20.897983 6.90426027 33.373115 0"></polygon>
                            <polygon id="Rectangle-path" fill="#006FE8" points="33.232153 18.3590557 33.4429909 18.3590557 33.4429909 22.7875459 33.232153 22.7875459"></polygon>
                            <polygon id="Shape" fill="#979797" points="40.2802502 7.39244029 33.0735709 11.5071005 25.8845117 7.39244029 33.0735709 3.27778013"></polygon>
                            <polygon id="Shape" fill="#58585B" points="33.0735709 11.5071005 33.0735709 3.27778013 25.8845117 7.39244029"></polygon>
                        </g>
                    </g>
                    <g id="illustration-rentoken" transform="translate(353.000000, 462.000000)" fill-rule="nonzero">
                        <polygon id="Shape" fill="#0048F6" points="0.798245614 27.8417647 0.798245614 25.1417647 3.32868421 25.1417647"></polygon>
                        <polyline id="Shape" fill="#0048F6" points="90.4731579 26.1661765 88.182193 28.7867647 89.7467544 28.7867647 90.4651754 28.5167647"></polyline>
                        <path d="M77.2382456,9.57705882 C59.6768421,-0.516176471 31.2752632,-0.508235294 13.825614,9.57705882 C-3.62403509,19.6623529 -3.53622807,36.0291176 14.0331579,46.1064706 C31.6025439,56.1838235 59.9961404,56.1917647 77.437807,46.1064706 C85.8672807,41.2305882 90.2097368,34.8935294 90.457193,28.5088235 C90.7285965,21.6714706 86.3142982,14.7785294 77.2382456,9.56911765" id="Shape" fill="#001B3A"></path>
                        <path d="M11.9736842,31.455 L21.0417544,11.7132353 L21.84,11.5941176 L23.3885965,11.3558824 L24.9212281,11.1176471 L19.3335088,23.2279412 L17.9844737,23.0294118 L16.467807,26.3091176 L15.1666667,26.1026471 L12.5324561,31.7647059 L11.9736842,31.4391176 M15.9649123,33.7102941 L26.4139474,10.8714706 L27.212193,10.7602941 L28.752807,10.5220588 L30.2854386,10.2838235 L24.745614,22.3941176 L23.3965789,22.1876471 L20.4590351,28.5405882 L19.1339474,28.3420588 L16.5236842,34.0120588 L15.9649123,33.6864706 M19.9561404,35.9576471 L31.8100877,10.0455882 L32.6083333,9.92647059 L34.1409649,9.68823529 L35.6895614,9.45794118 L30.1018421,21.5682353 L28.7368421,21.3538235 L24.3784211,30.8832353 L23.0373684,30.6767647 L20.4350877,36.3467647 L19.8763158,36.0211765 M23.8675439,38.2923529 L37.1902632,9.21176471 L37.9885088,9.09264706 L39.5291228,8.86235294 L41.0537719,8.61617647 L35.4660526,20.7344118 L34.1409649,20.5358824 L28.3536842,33.1305882 L27.0126316,32.9241176 L24.4103509,38.5941176 L23.835614,38.2685294 M27.8268421,40.5397059 L42.594386,8.37794118 L43.3926316,8.25882353 L44.9252632,8.02058824 L46.4658772,7.79029412 L40.8941228,19.8529412 L39.5610526,19.6464706 L32.305,35.4017647 L30.9639474,35.1952941 L28.3616667,40.8652941 L27.7949123,40.5397059 M31.7861404,42.8108824 L47.9585965,7.55205882 L48.7568421,7.43294118 L50.2894737,7.19470588 L51.8221053,6.95647059 L46.2982456,18.9794118 L44.957193,18.7729412 L36.2642982,37.6729412 L34.9312281,37.4664706 L32.3209649,43.1364706 L31.762193,42.8108824 M35.7534211,45.0820588 L53.3307895,6.71823529 L54.1290351,6.59911765 L55.2864912,6.42441176 L55.5658772,6.58323529 L56.6754386,7.23441176 L50.2415789,21.2505882 L48.9085088,21.0441176 L40.2235965,39.9520588 L38.8985088,39.7535294 L36.2882456,45.4235294 L35.7214912,45.0979412 M40.5987719,45.3758824 L57.8089474,7.87764706 L58.3677193,8.20323529 L59.5012281,8.85441176 L60.6666667,9.52941176 L54.1529825,23.6170588 L52.8119298,23.4105882 L44.1429825,42.2788235 L42.8178947,42.0882353 L41.3571053,45.2647059 L40.5987719,45.3758824 M45.9789474,44.5817647 L61.7762281,10.1567647 L62.335,10.4823529 L63.4685088,11.1335294 L64.6020175,11.7847059 L58.1202632,25.8961765 L56.7792105,25.6817647 L49.595,41.3894118 L48.2539474,41.1829412 L46.777193,44.415 L45.9789474,44.5341176 M51.3511404,43.74 L65.7195614,12.4597059 L66.2942982,12.7852941 L67.4198246,13.4285294 L68.5533333,14.0797059 L62.0715789,28.1673529 L60.7305263,27.9608824 L54.9432456,40.5635294 L53.602193,40.3570588 L52.1334211,43.5891176 L51.3351754,43.7082353 M56.7472807,42.8823529 L69.6868421,14.6991176 L70.245614,15.0247059 L71.3791228,15.6758824 L72.5046491,16.3191176 L66.0228947,30.4385294 L64.697807,30.24 L60.3234211,39.7058824 L58.9983333,39.5073529 L57.5215789,42.7394118 L56.7233333,42.8585294 M62.1114912,42.0247059 L73.6381579,16.9702941 L74.2049123,17.2958824 L75.3384211,17.9470588 L76.4719298,18.5982353 L69.982193,32.7097059 L68.6491228,32.5032353 L65.7195614,38.9117647 L64.3944737,38.6973529 L62.9017544,41.9214706 L62.1035088,42.0405882 M67.4916667,41.2464706 L77.6054386,19.2494118 L78.1642105,19.575 L79.2977193,20.2261765 L80.4312281,20.8773529 L73.9414912,34.9808824 L72.6403509,34.7744118 L71.1396491,38.07 L69.7985965,37.8555882 L68.3298246,41.0876471 L67.5315789,41.2067647 M77.2382456,7.56794118 C59.6768421,-2.52529412 31.2752632,-2.51735294 13.825614,7.56794118 C-3.62403509,17.6532353 -3.53622807,34.02 14.0331579,44.0973529 C31.6025439,54.1747059 59.9961404,54.1826471 77.437807,44.0973529 C94.8794737,34.0120588 94.8076316,17.6452941 77.2382456,7.56794118" id="Shape" fill="#001B3A"></path>
                        <polyline id="Shape" fill="#FFFFFF" points="24.8892982 11.1176471 23.3486842 11.3558824 21.8080702 11.5941176 21.0417544 11.7132353 11.9736842 31.455 12.5324561 31.7726471 15.1347368 26.1026471 16.467807 26.3091176 17.9844737 23.0294118 19.3175439 23.2279412 24.8892982 11.1176471"></polyline>
                        <polyline id="Shape" fill="#FFFFFF" points="35.6576316 9.45794118 34.1090351 9.68823529 32.5764035 9.92647059 31.8100877 10.0455882 19.8922807 35.9973529 20.4510526 36.3229412 23.0533333 30.6529412 24.394386 30.8594118 28.7448246 21.3538235 30.0938596 21.5682353 35.6576316 9.45794118"></polyline>
                        <polyline id="Shape" fill="#FFFFFF" points="41.0298246 8.61617647 39.5051754 8.86235294 37.9565789 9.09264706 37.1902632 9.21176471 23.8435965 38.2685294 24.4183333 38.6020588 27.0126316 32.9241176 28.3536842 33.1305882 34.1409649 20.5279412 35.4660526 20.7344118 41.0298246 8.61617647"></polyline>
                        <polyline id="Shape" fill="#FFFFFF" points="46.4179825 7.78235294 44.8773684 8.02058824 43.3447368 8.25882353 42.5704386 8.38588235 27.8028947 40.5476471 28.3696491 40.8732353 30.9719298 35.1952941 32.305 35.4017647 39.5610526 19.6067647 40.8941228 19.8132353 46.4179825 7.78235294"></polyline>
                        <polyline id="Shape" fill="#FFFFFF" points="51.7981579 6.95647059 50.2655263 7.19470588 48.7249123 7.43294118 47.9585965 7.55205882 31.762193 42.8188235 32.3209649 43.1364706 34.9312281 37.4744118 36.2642982 37.6729412 44.9492105 18.7729412 46.2822807 18.9794118 51.7981579 6.95647059"></polyline>
                        <polyline id="Shape" fill="#FFFFFF" points="56.6914035 7.23441176 55.5499123 6.58323529 55.2705263 6.42441176 54.1130702 6.59911765 53.3307895 6.71823529 35.7214912 45.09 36.2882456 45.4155882 38.8985088 39.7455882 40.2235965 39.9520588 48.9085088 21.0520588 50.2415789 21.2585294 56.6914035 7.23441176"></polyline>
                        <polyline id="Shape" fill="#FFFFFF" points="60.6427193 9.50558824 59.5092105 8.85441176 58.3677193 8.20323529 57.8089474 7.87764706 40.5987719 45.3679412 41.3571053 45.2488235 42.8178947 42.0723529 44.1429825 42.2788235 52.8199123 23.4105882 54.1529825 23.6170588 60.6427193 9.50558824"></polyline>
                        <polyline id="Shape" fill="#FFFFFF" points="64.6020175 11.7847059 63.4685088 11.1255882 62.335 10.4823529 61.7762281 10.1567647 45.9789474 44.5341176 46.7452632 44.415 48.2220175 41.1829412 49.5630702 41.3973529 56.7792105 25.6897059 58.1202632 25.8961765 64.6020175 11.7847059"></polyline>
                        <polyline id="Shape" fill="#FFFFFF" points="68.5533333 14.0479412 67.4198246 13.3967647 66.2942982 12.7535294 65.7275439 12.4279412 51.3511404 43.7082353 52.1414035 43.5891176 53.6101754 40.3491176 54.9432456 40.5635294 60.7305263 27.9608824 62.0715789 28.1673529 68.5533333 14.0479412"></polyline>
                        <polyline id="Shape" fill="#FFFFFF" points="72.5046491 16.3191176 71.3791228 15.6758824 70.2535965 15.0247059 69.6868421 14.7070588 56.7472807 42.8744118 57.5215789 42.7552941 58.9983333 39.5232353 60.3314035 39.7297059 64.697807 30.2320588 66.0228947 30.4385294 72.5046491 16.3191176"></polyline>
                        <polyline id="Shape" fill="#FFFFFF" points="76.4719298 18.5982353 75.3384211 17.9470588 74.2049123 17.2958824 73.6381579 16.9702941 62.1354386 42.0405882 62.9017544 41.9214706 64.3944737 38.6894118 65.7195614 38.8958824 68.6491228 32.5032353 69.982193 32.7097059 76.4719298 18.5982353"></polyline>
                        <polyline id="Shape" fill="#FFFFFF" points="80.4312281 20.8773529 79.3057018 20.2261765 78.1642105 19.5670588 77.6054386 19.2494118 67.5235965 41.2147059 68.2899123 41.0955882 69.7586842 37.8555882 71.0997368 38.07 72.6004386 34.7744118 73.9414912 34.9808824 80.4312281 20.8773529"></polyline>
                        <polyline id="Shape" fill="#FFFFFF" points="30.2614912 10.2838235 28.7288596 10.5220588 27.1962281 10.7602941 26.4139474 10.8714706 15.9329825 33.7261765 16.4917544 34.0438235 19.1020175 28.3817647 20.4271053 28.5802941 23.3646491 22.1876471 24.7136842 22.3941176 30.2614912 10.2838235"></polyline>
                    </g>
                </g>
            </g>
        </g>
    </g>
</svg>