<?xml version="1.0" encoding="utf-8"?>
<!-- Generator: Adobe Illustrator 21.0.2, SVG Export Plug-In . SVG Version: 6.00 Build 0)  -->
<svg version="1.1" id="Layer_1" xmlns="http://www.w3.org/2000/svg" xmlns:xlink="http://www.w3.org/1999/xlink" x="0px" y="0px"
	 viewBox="0 0 922 572" style="enable-background:new 0 0 922 572;" xml:space="preserve">
<style type="text/css">
	.st0{fill:#E1E1E1;}
	.st1{opacity:0.6;fill:#F3F3F3;}
	.st2{opacity:0.6;}
	.st3{fill:#F3F3F3;}
	.st4{opacity:0.2;fill:url(#Rectangle-path_1_);enable-background:new    ;}
	.st5{opacity:0.2;fill:url(#Rectangle-path_2_);enable-background:new    ;}
	.st6{fill:url(#Shape_3_);}
	.st7{fill:#006FE8;}
	.st8{fill:#0075F5;}
	.st9{fill:#003269;}
	.st10{fill:#0048F6;}
	.st11{opacity:0.2;fill:url(#Rectangle-path_7_);enable-background:new    ;}
	.st12{fill:url(#Shape_53_);}
	.st13{opacity:0.2;fill:url(#Rectangle-path_8_);enable-background:new    ;}
	.st14{fill:url(#Shape_54_);}
	.st15{fill:#E1E1E1;stroke:#E1E1E1;stroke-width:0.82;}
	.st16{fill:#F5F5F5;}
	.st17{fill:url(#Shape_85_);}
	.st18{fill:#FFFFFF;}
</style>
<title>Group 22</title>
<desc>Created with Sketch.</desc>
<g id="Rectangle-9">
</g>
<g id="Rectangle-9_1_">
</g>
<g>
	<path class="st0" d="M922,461.1l-82.1,47.6c-10.3,5.2-22.4,5.2-32.7,0L649,416.9l-2,3.5l158.2,92.1c11.5,5.9,25.2,5.9,36.7,0
		l80.1-46.5V461.1z"/>
	<path class="st1" d="M861.5,21.8L899.4,0h-8.6l-33.1,19c-0.1,0-0.1-0.1-0.2-0.1c-10.8-5.4-23.4-5.7-34.4-1l-79.2-46.2l-2.5,4.2
		l76.9,44.9c-7.1,5.8-6.2,13.8,2.8,18.9c0.1,0.1,0.2,0.1,0.3,0.2l-105.2,60.5c-5,2.9-8.1,8.3-8.1,14.1s3.1,11.2,8.1,14.1l98,56.6
		c3.8,1.6,6.5,5.2,7,9.3c-0.5,4.2-3.2,7.9-7.1,9.6l-202,117.2c-11.8,6-25.7,6-37.5,0l-47-27.2v5.6l44.7,25.9
		c13.2,6.7,28.9,6.7,42.1,0l202-117.3c5.4-2.5,9-7.7,9.5-13.6c-0.4-5.8-3.9-11-9.2-13.5l-98.1-56.9c-3.6-2.1-5.8-5.9-5.8-10.1
		c0-4.2,2.2-8,5.8-10.1l108-62.1c10.2,3.4,21.4,2.7,31.1-2.2C866.1,34.9,867.5,27.4,861.5,21.8z"/>
	<path class="st0" d="M840.3,119.4l-98.1-56.9c-3.6-2.1-5.8-5.9-5.8-10.1c0-4.2,2.2-8,5.8-10.1L815.9,0h-8.6l-67.3,38.7
		c-5,2.9-8.1,8.3-8.1,14.1s3.1,11.2,8.1,14.1l98,56.6c3.8,1.6,6.5,5.2,7,9.3c-0.5,4.2-3.2,7.9-7.1,9.6l-202,117.2
		c-11.8,6-25.7,6-37.5,0l-45.2-26.2v5.6l42.9,24.9c13.2,6.7,28.9,6.7,42.1,0l202-117.3c5.4-2.5,9-7.7,9.5-13.6
		C849.1,127,845.6,121.9,840.3,119.4z"/>
	
		<g id="Asset-10_x40_large-Copy-3" transform="translate(2141.322890, 1374.794174) scale(-1, 1) translate(-2141.322890, -1374.794174) translate(2049.183351, 1229.945386)" class="st2">
		<path id="Shape_4_" class="st3" d="M2160.4-659.6l2-3.5l-173.2-100.7c-3.3-1.4-5.6-4.5-6.1-8.1c0.4-3.7,2.8-6.9,6.2-8.4l68.1-39.8
			c4.7-2.2,7.9-6.7,8.2-11.9c-0.4-5.1-3.4-9.6-8-11.8l-44.7-26c-3.3-1.4-5.7-4.5-6.2-8.1c0.4-3.7,2.8-6.9,6.2-8.4l133.3-78.4
			l-2.1-3.5L2011-890c-4.7,2.2-7.9,6.7-8.2,11.9c0.4,5.1,3.4,9.6,8,11.8l44.7,26c3.3,1.4,5.7,4.5,6.2,8.1c-0.3,3.8-2.8,7.2-6.3,8.7
			l-68.1,39.6c-4.7,2.2-7.9,6.7-8.2,11.9c0.4,5.1,3.4,9.6,8,11.8L2160.4-659.6z"/>
	</g>
	
		<rect x="344.9" y="115" transform="matrix(0.5018 -0.865 0.865 0.5018 -121.9752 470.4096)" class="st1" width="4.9" height="452.1"/>
	<path id="Shape" class="st3" d="M634,474c5.4,0.1,10.7-1.2,15.5-3.8c4-1.8,6.7-5.7,7-10.2c-0.3-4.4-3-8.2-6.9-10.1
		c-9.7-5-21.2-5-30.8,0c-4,1.8-6.7,5.7-7,10.2c0.3,4.4,3,8.2,6.9,10.1C623.4,472.8,628.7,474.1,634,474z M634.3,450.3
		c4.6-0.1,9.2,1,13.3,3.2c2.7,1.1,4.6,3.6,4.9,6.6c-0.4,2.9-2.3,5.5-5,6.6c-8.4,4.3-18.4,4.3-26.8,0c-2.7-1.1-4.6-3.6-4.9-6.6
		c0.4-2.9,2.3-5.5,5-6.6C624.9,451.3,629.6,450.2,634.3,450.3L634.3,450.3z"/>
	<path id="Shape_5_" class="st0" d="M634,424.9c5.4,0.1,10.7-1.2,15.5-3.8c4-1.8,6.7-5.7,7-10.2c-0.3-4.4-3-8.2-6.9-10.1
		c-9.7-5-21.2-5-30.8,0c-4,1.8-6.7,5.7-7,10.2c0.3,4.4,3,8.2,6.9,10.1C623.4,423.7,628.7,425,634,424.9z M634.3,401.2
		c4.6-0.1,9.2,1,13.3,3.2c2.7,1.1,4.6,3.6,4.9,6.6c-0.4,2.9-2.3,5.5-5,6.6c-8.4,4.3-18.4,4.3-26.8,0c-2.7-1.1-4.6-3.6-4.9-6.6
		c0.4-2.9,2.3-5.5,5-6.6C624.9,402.2,629.6,401.1,634.3,401.2L634.3,401.2z"/>
	
		<g id="Asset-10_x40_large-Copy" transform="translate(2181.864287, 1337.782454) scale(-1, 1) translate(-2181.864287, -1337.782454) translate(2071.296840, 1181.885877)">
		<path id="Shape_8_" class="st0" d="M2233.4-639.8c5.4,0.1,10.7-1.2,15.5-3.8c4-1.8,6.7-5.7,7-10.2c-0.3-4.4-3-8.2-6.9-10.1
			c-9.7-5-21.1-5-30.8,0c-4,1.8-6.7,5.7-7,10.2c0.3,4.4,2.9,8.3,6.9,10.2C2222.8-641,2228-639.7,2233.4-639.8z M2246.9-660.4
			c2.7,1.1,4.6,3.6,4.9,6.6c-0.4,2.9-2.3,5.5-5,6.6c-8.4,4.3-18.4,4.3-26.8,0c-2.7-1.1-4.6-3.6-4.9-6.6c0.4-3,2.3-5.5,5-6.7
			C2228.6-664.7,2238.5-664.7,2246.9-660.4L2246.9-660.4z"/>
		<path id="Shape_9_" class="st0" d="M2219.4-659.6l2-3.5l-173.2-100.7c-3.3-1.4-5.6-4.5-6.1-8.1c0.4-3.7,2.8-6.9,6.2-8.4l68.1-39.8
			c4.7-2.2,7.9-6.7,8.2-11.9c-0.4-5.1-3.4-9.6-8-11.8l-44.7-26c-3.3-1.4-5.7-4.5-6.2-8.1c0.4-3.7,2.8-6.9,6.2-8.4l101.5-59.2
			l-2.1-3.5L2070-890c-4.7,2.2-7.9,6.7-8.2,11.9c0.4,5.1,3.4,9.6,8,11.8l44.7,26c3.3,1.4,5.7,4.5,6.2,8.1c-0.3,3.8-2.8,7.2-6.3,8.7
			l-68.1,39.6c-4.7,2.2-7.9,6.7-8.2,11.9c0.4,5.1,3.4,9.6,8,11.8L2219.4-659.6z"/>
	</g>
	
		<rect x="344.9" y="67" transform="matrix(0.5018 -0.865 0.865 0.5018 -80.3974 446.4884)" class="st0" width="4.9" height="452.1"/>
	
		<linearGradient id="Rectangle-path_1_" gradientUnits="userSpaceOnUse" x1="163.0361" y1="706.7589" x2="163.0361" y2="707.7037" gradientTransform="matrix(351.3588 0 0 152.214 -56748.832 -107200.3203)">
		<stop  offset="0" style="stop-color:#DCDCDC"/>
		<stop  offset="1" style="stop-color:#6E6E6E;stop-opacity:0"/>
	</linearGradient>
	<rect id="Rectangle-path_3_" x="359.6" y="381" class="st4" width="351.4" height="152.2"/>
	
		<linearGradient id="Rectangle-path_2_" gradientUnits="userSpaceOnUse" x1="162.6035" y1="707.5904" x2="162.6035" y2="708.5352" gradientTransform="matrix(181.822 0 0 78.5621 -29457.0781 -55417.207)">
		<stop  offset="0" style="stop-color:#DCDCDC"/>
		<stop  offset="1" style="stop-color:#6E6E6E;stop-opacity:0"/>
	</linearGradient>
	<rect id="Rectangle-path_4_" x="16.9" y="174" class="st5" width="181.8" height="78.6"/>
	<g id="lock" transform="translate(2127.809091, 1024.761769)">
		<g id="Group-17" transform="translate(0.000000, 29.460770)">
			<path id="Shape_10_" class="st0" d="M-1927.5-893.4v21.9c-0.7,6-4.2,11.2-9.3,14.2l-63.3,37.4c-12.2,7.2-27.3,7.2-39.5,0
				l-63.3-36.9c-5.2-3.1-8.7-8.5-9.3-14.6v-22H-1927.5z"/>
			
				<linearGradient id="Shape_3_" gradientUnits="userSpaceOnUse" x1="-1963.4283" y1="-349.5745" x2="-1963.4283" y2="-348.4671" gradientTransform="matrix(-185.0796 0 0 -111.6291 -365410.5625 -39854.918)">
				<stop  offset="0" style="stop-color:#FAFAFA"/>
				<stop  offset="1" style="stop-color:#FAFAFA"/>
			</linearGradient>
			<path id="Shape_11_" class="st6" d="M-2007.8-839.3l74.9-43.9c3.3-1.9,5.4-5.6,5.4-9.5s-2.1-7.5-5.4-9.5l-68.7-40.3
				c-11.4-6.7-25.5-6.7-37,0l-68.3,40.1c-3.5,2.1-5.7,5.9-5.7,10s2.2,8,5.7,10l73.5,43C-2025.4-834.7-2015.7-834.7-2007.8-839.3z"/>
		</g>
		<g id="illustration-lock" transform="translate(46.226979, 0.000000)">
			<path id="Shape_12_" class="st7" d="M-2036.1-877.1l-22.2-12.8c-2.6-1.7-4.2-4.5-4.4-7.5v-25.7l-7-12.1l8.3-4.8
				c1-0.5,2.2-0.4,3.1,0.3l34.4,19.8c2.6,1.7,4.2,4.6,4.4,7.7v39.6c0.1,1.1-0.4,2.2-1.3,2.8l-8.3,4.8L-2036.1-877.1z"/>
			<path id="Shape_13_" class="st7" d="M-2029.1-865l8.3-4.8c0.9-0.6,1.4-1.7,1.3-2.8v-39.6c0-1.6-0.5-3.1-1.3-4.4l-8.4,4.9
				L-2029.1-865z"/>
			<path id="Shape_14_" class="st0" d="M-2066.6-885.2l34.4,19.8c2.5,1.4,4.4,0.2,4.4-2.5v-39.7c-0.2-3.1-1.8-5.9-4.4-7.6
				l-34.4-19.8c-2.5-1.4-4.4-0.2-4.4,2.5v39.7C-2070.8-889.7-2069.2-886.9-2066.6-885.2z"/>
			<path id="Shape_15_" class="st8" d="M-2055.6-909.3c0.2,4.4,2.6,8.4,6.3,10.9c3.5,2,6.3,0.4,6.3-3.6c-0.2-4.4-2.6-8.4-6.3-10.9
				C-2052.8-914.9-2055.6-913.3-2055.6-909.3z"/>
			<polygon id="Shape_16_" class="st8" points="-2054,-890 -2044.8,-884.7 -2047.4,-900.9 -2051.2,-903.2 			"/>
			<path id="Shape_17_" class="st7" d="M-2054.2-908.4c0.2,3.4,2,6.5,4.9,8.3c2.7,1.5,4.9,0.3,4.9-2.8c-0.2-3.4-2-6.5-4.9-8.3
				C-2052.1-912.8-2054.2-911.5-2054.2-908.4z"/>
			<polygon id="Shape_18_" class="st7" points="-2051.7,-890.8 -2047.1,-888.2 -2048.3,-901.8 -2050.5,-903 			"/>
			<path id="Shape_19_" class="st9" d="M-2053.1-907.8c0.1,2.6,1.5,5,3.7,6.5c2.1,1.2,3.7,0.2,3.7-2.2c-0.1-2.6-1.5-5-3.7-6.5
				C-2051.5-911.2-2053.1-910.2-2053.1-907.8z"/>
			<path id="Shape_20_" class="st10" d="M-2031.8-918.1l-4.9-2.9v-6.1c-0.2-3.8-2.2-7.2-5.3-9.3l-6.2-3.6c-0.9-0.5-1.8-1.1-2.5-0.7
				c-0.7,0.4-0.6,1.4-0.6,2.5v6.1l-2.5,1.4l-4.9-2.9v-8.5c-0.1-1.8,0.6-3.6,2-4.7l2.9-1.7c1.7-0.7,3.7-0.4,5.2,0.6l11.5,6.7
				c4.5,3,7.4,7.9,7.7,13.3v8.5L-2031.8-918.1z"/>
			<path id="Shape_21_" class="st10" d="M-2115.6-877.1c0.6-1.3,1.4-2.5,2.5-3.5c0.9-0.8,1.9-1.5,3-2.1c9.2-4.7,20-4.7,29.1,0
				c2.4,1.2,4.3,3.2,5.5,5.7c0.5,1.3,0.7,2.8,0.3,4.1c-0.4,1.6-1.2,3-2.3,4.1l4.3,2.5l7.1,4.1l2.9,1.7l7.1,4.1l8.9,5.1l1.7,1
				l2.8,1.6c0.5,0.2,0.8,0.6,0.8,1.1s-0.3,0.9-0.8,1.1l-4.5,2.6c-1.2,0.6-2.6,0.6-3.8,0l-8.7-4.9l-3.9,2.2c-0.3,0.2-0.7,0.3-1.1,0.3
				c-0.7,0.1-1.5,0-2.1-0.3l-3.9-2.2c-0.3-0.2-0.6-0.5-0.7-0.8v-0.2c0.1-0.4,0.3-0.7,0.7-0.8l3.1-1.8l0.6-0.4h0.1l-2.9-1.7l-0.3,0.1
				l-0.5,0.3l-0.9,0.5l-2.2,1.3c-1,0.5-2.3,0.5-3.3,0l-3.8-2.2c-0.4-0.1-0.7-0.5-0.7-1s0.3-0.8,0.7-1l3-1.8l0.8-0.5l-4.5-2.6
				l-4.7-2.7c-7,2.1-14.6,1.9-21.5-0.7l-0.5-0.2c-0.8-0.3-1.7-0.7-2.5-1.2c-4-2.3-6-5.4-6-8.4
				C-2116.2-875.3-2116-876.2-2115.6-877.1z M-2103.1-870c4.8,2.4,10.4,2.4,15.2,0l0.5-0.3c2.7-1.8,3.3-4.3,1.8-6.5l-0.2-0.3
				c-0.6-0.7-1.3-1.2-2-1.6c-4.8-2.4-10.4-2.4-15.2,0c-0.8,0.4-1.5,1-2,1.6C-2107.1-874.8-2106.4-871.9-2103.1-870z"/>
			<path id="Shape_22_" class="st7" d="M-2049-848.7v5.5c0.7,0,1.3-0.1,1.9-0.5l4.6-2.6c0.5-0.2,0.8-0.6,0.8-1.1v-5.5
				c0,0.5-0.3,0.9-0.8,1.1l-4.5,2.6C-2047.6-848.9-2048.3-848.7-2049-848.7z"/>
			<path id="Shape_23_" class="st10" d="M-2081.3-860.9v5.5c0.1,0.4,0.3,0.7,0.7,0.8l3.9,2.2c0.7,0.3,1.4,0.5,2.1,0.3v-5.4l-2.3-1.2
				l-3-1.6L-2081.3-860.9z"/>
			<path id="Shape_24_" class="st7" d="M-2075.2-857.9v5.9c0.6,0,1.2-0.1,1.7-0.4l3.9-2.2v-5.4L-2075.2-857.9z"/>
			<path id="Shape_25_" class="st10" d="M-2071.1-855.1v5.5c0.1,0.4,0.3,0.7,0.7,0.8l3.9,2.2c0.7,0.3,1.4,0.5,2.1,0.3v-5.4l-2.3-1.2
				l-3-1.6L-2071.1-855.1z"/>
			<path id="Shape_26_" class="st7" d="M-2065.2-852.1v5.9c0.6,0,1.2-0.1,1.7-0.4l3.9-2.2v-5.4L-2065.2-852.1z"/>
			<path id="Shape_27_" class="st7" d="M-2078.9-875l1.5,0.9l2.3,1.3c0.1-0.3,0.2-0.5,0.2-0.8c0.2-1.4,0-6.2,0-6.2
				c0-0.8-0.2-1.7-0.4-2.5C-2076.4-879.8-2077.6-877.4-2078.9-875z"/>
			<path id="Shape_28_" class="st7" d="M-2085.9-869.3v5.5c-7,2.1-14.6,1.9-21.5-0.7v-5.5C-2100.5-867.4-2092.9-867.1-2085.9-869.3z
				"/>
			<path id="Shape_29_" class="st10" d="M-2116.1-879.8v5.5c0,3,2,6.1,6,8.4c0.8,0.4,1.6,0.8,2.5,1.2l0.5,0.2v-8.3l-5.7-7.7
				l-2.1-2.8C-2115.7-882.3-2116.1-881.1-2116.1-879.8z"/>
			<path id="Shape_30_" class="st8" d="M-2115.1-883.4c1.2-2,2.9-3.6,4.9-4.7c9.1-4.6,19.9-4.6,29.1,0c2.5,1.3,4.5,3.4,5.6,5.9
				c0.3,0.8,0.4,1.6,0.4,2.5c0,0.9-0.2,1.9-0.5,2.7c-0.5,1.1-1.1,2.1-1.9,2.9c-1,1.1-2.1,2-3.4,2.8c-1.6,0.9-3.2,1.6-4.9,2.1
				c-7,2.1-14.6,1.9-21.5-0.7c-1-0.4-1.9-0.8-2.9-1.4c-2.4-1.2-4.3-3.2-5.5-5.7c-0.4-0.9-0.5-1.8-0.5-2.7
				C-2116.2-881.1-2115.8-882.3-2115.1-883.4z M-2105.2-877.1c0.6,0.7,1.3,1.3,2.1,1.7c4.7,2.3,10.1,2.3,14.7,0l0.4-0.2
				c0.8-0.4,1.5-0.9,2.1-1.5c2-2.3,1.3-5.2-2-7.1c-4.8-2.4-10.4-2.4-15.2,0C-2106.4-882.2-2107.1-879.4-2105.2-877.1z"/>
			<path id="Shape_31_" class="st8" d="M-2042.5-851.8l-4.5,2.6c-1.2,0.6-2.6,0.6-3.8,0l-41.3-23.7l8.4-4.9l41.3,23.8
				c0.5,0.2,0.8,0.6,0.8,1.1S-2042-852-2042.5-851.8z"/>
			<path id="Shape_32_" class="st8" d="M-2051.3-858.9l-12.1,7c-1,0.5-2.2,0.5-3.2,0l-3.9-2.2c-0.4-0.1-0.7-0.5-0.7-0.9
				s0.3-0.8,0.7-0.9l12.1-7L-2051.3-858.9z"/>
			<path id="Shape_33_" class="st8" d="M-2061.3-864.7l-12.1,7c-1,0.5-2.3,0.5-3.3,0l-3.8-2.2c-0.4-0.1-0.7-0.5-0.7-1
				c0-0.4,0.3-0.8,0.7-1l12.1-7L-2061.3-864.7z"/>
		</g>
	</g>
	<g id="Asset-19_x40_large" transform="translate(2227.000000, 1446.000000)">
		
			<linearGradient id="Rectangle-path_7_" gradientUnits="userSpaceOnUse" x1="-2065.0981" y1="-737.0598" x2="-2065.0981" y2="-736.115" gradientTransform="matrix(102 0 0 44 208464 31514.8398)">
			<stop  offset="0" style="stop-color:#DCDCDC"/>
			<stop  offset="1" style="stop-color:#6E6E6E;stop-opacity:0"/>
		</linearGradient>
		<rect id="Rectangle-path_5_" x="-2227" y="-915" class="st11" width="102" height="44"/>
		<path id="Shape_34_" class="st0" d="M-2125-920v11.7l-0.1,0.1c-0.4,3.1-2.3,5.8-5,7.4l-34.9,19.9c-6.8,3.9-15.1,3.9-21.9,0.1
			l-34.9-19.7c-2.9-1.6-4.8-4.5-5.1-7.8h0V-920H-2125z"/>
		
			<linearGradient id="Shape_53_" gradientUnits="userSpaceOnUse" x1="-2061.9019" y1="-742.3559" x2="-2061.9019" y2="-741.247" gradientTransform="matrix(-102 0 0 -61 -212490 -46169.7109)">
			<stop  offset="0" style="stop-color:#FAFAFA"/>
			<stop  offset="1" style="stop-color:#FAFAFA"/>
		</linearGradient>
		<path id="Shape_35_" class="st12" d="M-2169.3-889.9l41.3-24c1.8-1.1,3-3,3-5.2s-1.1-4.1-3-5.2l-37.8-22c-6.3-3.7-14.1-3.7-20.4,0
			l-37.7,21.9c-1.9,1.1-3.1,3.2-3.1,5.5c0,2.3,1.2,4.3,3.1,5.5l40.5,23.5C-2179-887.4-2173.6-887.4-2169.3-889.9z"/>
		<ellipse id="Oval" class="st0" cx="-2176" cy="-919.5" rx="25" ry="12.5"/>
	</g>
	<g id="Asset-19_x40_large-Copy" transform="translate(1426.000000, 1041.000000)">
		
			<linearGradient id="Rectangle-path_8_" gradientUnits="userSpaceOnUse" x1="-1264.098" y1="-332.0598" x2="-1264.098" y2="-331.115" gradientTransform="matrix(102 0 0 44 128364 13694.8398)">
			<stop  offset="0" style="stop-color:#DCDCDC"/>
			<stop  offset="1" style="stop-color:#6E6E6E;stop-opacity:0"/>
		</linearGradient>
		<rect id="Rectangle-path_6_" x="-625" y="-915" class="st13" width="102" height="44"/>
		<path id="Shape_36_" class="st0" d="M-523-920v11.7l-0.1,0.1c-0.4,3.1-2.3,5.8-5,7.4l-34.9,19.9c-6.8,3.9-15.1,3.9-21.9,0.1
			l-34.9-19.7c-2.9-1.6-4.8-4.5-5.1-7.8h0V-920H-523z"/>
		
			<linearGradient id="Shape_54_" gradientUnits="userSpaceOnUse" x1="-1260.902" y1="-337.3559" x2="-1260.902" y2="-336.247" gradientTransform="matrix(-102 0 0 -61 -129186 -21464.7109)">
			<stop  offset="0" style="stop-color:#FAFAFA"/>
			<stop  offset="1" style="stop-color:#FAFAFA"/>
		</linearGradient>
		<path id="Shape_37_" class="st14" d="M-567.3-889.9l41.3-24c1.8-1.1,3-3,3-5.2s-1.1-4.1-3-5.2l-37.8-22c-6.3-3.7-14.1-3.7-20.4,0
			l-37.7,21.9c-1.9,1.1-3.1,3.2-3.1,5.5c0,2.3,1.2,4.3,3.1,5.5l40.5,23.5C-577-887.4-571.6-887.4-567.3-889.9z"/>
		<ellipse id="Oval_1_" class="st0" cx="-574" cy="-919.5" rx="25" ry="12.5"/>
	</g>
	<path id="Shape_38_" class="st15" d="M592.6,432c-3.5,0-7,0.8-10.1,2.3c-2.6,1.1-4.3,3.5-4.5,6.2c0.2,2.7,1.9,5,4.5,6.1
		c6.3,3,13.7,3,20,0c2.6-1.1,4.3-3.5,4.5-6.2c-0.2-2.7-1.9-5-4.5-6.1C599.4,432.8,596,432,592.6,432z M583.8,444.6
		c-1.7-0.7-3-2.2-3.2-4c0.2-1.8,1.5-3.4,3.3-4.1c5.5-2.6,11.9-2.6,17.3,0c1.7,0.7,3,2.2,3.2,4c-0.2,1.8-1.5,3.4-3.3,4.1
		C595.6,447.2,589.2,447.2,583.8,444.6z"/>
	<path id="Shape_39_" class="st7" d="M491.4,295.7c26.8,13.7,58.6,13.7,85.4,0c24.2-13.4,24.2-35.9,0.4-49.5
		c-26.8-13.7-58.6-13.7-85.4,0C468.1,259.9,468.1,282.3,491.4,295.7z"/>
	<path id="Shape_40_" class="st7" d="M502.8,287.5c19.8,10,43.3,10,63.1,0c17.4-10,17.4-26.2,0-36c-19.8-10-43.3-10-63.1,0
		C485.7,261.2,485.7,277.4,502.8,287.5z"/>
	<path id="Shape_41_" class="st7" d="M410.4,431.6c68.6,39.2,179.6,39.2,248.2,0s68.6-103.5,0-143s-179.6-39.5-248.2,0
		S341.9,392,410.4,431.6z"/>
	<path id="Shape_42_" class="st0" d="M410.4,423.4c68.6,39.4,179.6,39.4,248.2,0s68.6-103.4,0-142.9s-179.6-39.4-248.2,0
		S341.9,384,410.4,423.4z"/>
	<path id="Shape_43_" class="st16" d="M703,278v63.6c0,24.9-16.4,49.9-49.4,68.9c-66,38-173.1,38-239.2,0
		c-32.8-18.8-49.2-43.5-49.4-68.3V278H703z"/>
	<path id="Shape_44_" class="st0" d="M414.5,341.5c66,38,173,38,239,0s66-99.7,0-137.9s-173-38-239,0S348.5,303.4,414.5,341.5z"/>
	<path id="Shape_45_" class="st7" d="M534,354c38.6,0.8,76.8-8.3,110.9-26.4c29.7-17.1,46.1-39.8,46.1-64.1s-16.4-46.9-46.1-64.1
		c-61.2-35.2-160.6-35.2-221.8,0c-29.7,17.1-46.1,39.8-46.1,64.1s16.4,47,46.1,64.1v-0.4v0.4C457.2,345.6,495.4,354.7,534,354z"/>
	
		<linearGradient id="Shape_85_" gradientUnits="userSpaceOnUse" x1="163.5241" y1="705.6358" x2="164.5241" y2="705.6358" gradientTransform="matrix(-311 0 0 -179 51546 126572.3125)">
		<stop  offset="0" style="stop-color:#006FE8"/>
		<stop  offset="0.31" style="stop-color:#006BEA"/>
		<stop  offset="0.4982" style="stop-color:#005EEE"/>
		<stop  offset="1" style="stop-color:#0048F6"/>
		<stop  offset="1" style="stop-color:#0048F6"/>
	</linearGradient>
	<path id="Shape_46_" class="st17" d="M534.8,174c38.2-0.7,76,8.3,109.7,26.3c29,16.9,45.5,39.3,45.5,63.2s-15.8,46.3-45.5,63.2
		c-60.7,35-159.7,35-220.1,0c-29-16.9-45.5-39.3-45.5-63.2s16.5-46.3,45.7-63.2C458.6,182.3,496.5,173.3,534.8,174z"/>
	<path id="Shape_47_" class="st10" d="M409,355.9c0,1-0.7,1.4-1.5,0.9c-0.9-0.6-1.4-1.6-1.5-2.7c0-1,0.7-1.4,1.5-0.9
		C408.4,353.8,408.9,354.8,409,355.9z"/>
	<path id="Shape_48_" class="st10" d="M421,361.9c0,1-0.7,1.4-1.5,0.9c-0.9-0.6-1.4-1.6-1.5-2.7c0-1,0.7-1.4,1.5-0.9
		C420.4,359.8,420.9,360.8,421,361.9z"/>
	<path id="Shape_49_" class="st10" d="M409,367.9c0,1-0.7,1.4-1.5,0.9c-0.9-0.6-1.4-1.6-1.5-2.7c0-1,0.7-1.4,1.5-0.9
		C408.4,365.8,408.9,366.8,409,367.9z"/>
	<path id="Shape_50_" class="st10" d="M421,374.9c0,1-0.7,1.4-1.5,0.9c-0.9-0.6-1.4-1.6-1.5-2.7c0-1,0.7-1.4,1.5-0.9
		C420.4,372.8,420.9,373.8,421,374.9z"/>
	<path id="Shape_51_" class="st18" d="M443.5,408.8c-1.4-0.7-2.4-2.2-2.5-3.8v-38.2c0-1.4,0.8-2.1,1.9-1.5c1.2,0.9,1.9,2.2,1.9,3.7
		v38.2C445.4,408.8,444.5,409.4,443.5,408.8z"/>
	<path id="Shape_52_" class="st10" d="M443.5,407.8c-1.4-0.7-2.4-2.1-2.5-3.7v-11.4c0-1.4,0.8-2,1.9-1.5c1.2,0.8,1.9,2.2,1.9,3.6
		v11.3C445.4,407.8,444.5,408.4,443.5,407.8z"/>
	<g id="illustration-rentoken" transform="translate(353.000000, 462.000000)">
		<polygon id="Shape_6_" class="st10" points="-332.1,64.7 -332.1,62.8 -330.3,62.8 		"/>
		<polyline id="Shape_2_" class="st10" points="-269,63.5 -270.6,65.4 -269.5,65.4 -269,65.2 		"/>
		<path id="Shape_1_" class="st10" d="M-278.3,51.9c-12.4-7.1-32.4-7.1-44.6,0s-12.2,18.6,0.1,25.7s32.4,7.1,44.6,0
			c5.9-3.4,9-7.9,9.1-12.4C-268.8,60.4-271.9,55.5-278.3,51.9"/>
		<path id="Shape_55_" class="st7" d="M-324.2,67.3l6.3-13.9l0.6-0.1l1.1-0.1l1.1-0.1l-3.9,8.5l-0.8-0.2l-1.1,2.3l-0.9-0.1l-1.8,4
			L-324.2,67.3 M-321.4,68.8l7.3-16l0.6-0.1l1.1-0.1l1.1-0.1l-3.9,8.5l-0.9-0.1l-2,4.5l-0.9-0.1L-321,69L-321.4,68.8 M-318.6,70.4
			l8.3-18.3l0.6-0.1l1.1-0.1l1.1-0.1l-3.9,8.5l-1-0.1l-3.1,6.7l-0.8-0.1l-1.8,4L-318.6,70.4 M-315.8,72.1l9.4-20.5l0.6-0.1l1.1-0.1
			l1.1-0.1l-3.9,8.5l-0.9-0.1l-4.1,8.9l-0.9-0.2l-1.8,4L-315.8,72.1 M-313.1,73.6l10.4-22.6l0.6-0.1l1.1-0.2l1.1-0.1l-3.9,8.5
			l-0.9-0.1l-5.1,11.1l-0.8-0.2l-1.8,4L-313.1,73.6 M-310.3,75.2l11.4-24.8l0.6-0.1l1.1-0.1l1.1-0.2l-3.9,8.4l-0.9-0.1l-6.1,13.3
			l-0.9-0.1l-1.8,4L-310.3,75.2 M-307.5,76.8l12.3-27l0.6-0.1l0.8-0.1l0.2,0.1l0.8,0.5l-4.5,9.8l-1-0.2l-6.1,13.4l-0.9-0.1l-1.8,4
			L-307.5,76.8 M-304.1,77l12.1-26.4l0.4,0.2l0.8,0.5l0.8,0.5l-4.6,9.9l-0.9-0.1l-6.1,13.3l-0.9-0.1l-1.1,2.3H-304.1 M-300.3,76.5
			l11.1-24.2l0.4,0.2l0.8,0.5l0.8,0.5l-4.6,9.9l-0.9-0.1l-5.1,11l-0.9-0.1l-1.1,2.3L-300.3,76.5 M-296.5,75.9l10.1-22l0.4,0.2
			l0.8,0.4l0.8,0.5l-4.6,9.9l-1-0.1l-4.1,8.9l-0.9-0.1l-1.1,2.3L-296.5,75.9 M-292.8,75.3l9.1-19.8l0.4,0.2l0.8,0.5l0.8,0.4
			l-4.5,9.9l-0.9-0.1l-3.1,6.7l-0.9-0.1l-1.1,2.3L-292.8,75.3 M-289,74.7l8.1-17.6l0.4,0.2l0.8,0.5l0.8,0.5l-4.5,9.8l-0.9-0.1
			l-2,4.5l-0.9-0.1l-1.1,2.3L-289,74.7 M-285.2,74.1l7.1-15.5l0.4,0.2l0.8,0.5l0.8,0.5l-4.6,9.9l-0.9-0.1l-1.1,2.3l-0.9-0.1
			l-1.1,2.3L-285.2,74.1 M-278.3,50.5c-12.4-7.1-32.4-7.1-44.6,0s-12.2,18.6,0.1,25.7s32.4,7.1,44.6,0C-266,69-266,57.5-278.3,50.5"
			/>
		<polyline id="Shape_56_" class="st18" points="-315.1,52.9 -316.2,53.1 -317.3,53.3 -317.9,53.3 -324.2,67.3 -323.8,67.5 
			-322,63.5 -321,63.6 -320,61.3 -319.1,61.4 -315.1,52.9 		"/>
		<polyline id="Shape_57_" class="st18" points="-307.5,51.8 -308.7,51.9 -309.7,52.1 -310.3,52.1 -318.6,70.4 -318.2,70.6 
			-316.4,66.7 -315.5,66.8 -312.5,60.2 -311.5,60.3 -307.5,51.8 		"/>
		<polyline id="Shape_58_" class="st18" points="-303.8,51.2 -304.9,51.4 -305.9,51.5 -306.5,51.6 -315.9,72.1 -315.5,72.3 
			-313.6,68.3 -312.7,68.4 -308.7,59.5 -307.7,59.7 -303.8,51.2 		"/>
		<polyline id="Shape_59_" class="st18" points="-300,50.6 -301.1,50.7 -302.2,51 -302.7,51 -313.1,73.6 -312.7,73.9 -310.8,69.9 
			-309.9,70 -304.8,58.9 -303.9,59 -300,50.6 		"/>
		<polyline id="Shape_60_" class="st18" points="-296.2,50 -297.3,50.2 -298.4,50.3 -298.9,50.5 -310.3,75.2 -309.9,75.4 
			-308.1,71.5 -307.1,71.6 -301.1,58.3 -300.1,58.5 -296.2,50 		"/>
		<polyline id="Shape_61_" class="st18" points="-292.8,50.2 -293.6,49.8 -293.7,49.6 -294.6,49.8 -295.1,49.8 -307.5,76.8 
			-307.1,77 -305.3,73 -304.4,73.3 -298.2,60 -297.3,60.1 -292.8,50.2 		"/>
		<polyline id="Shape_62_" class="st18" points="-290,51.8 -290.8,51.4 -291.6,50.9 -292,50.7 -304.1,77 -303.5,76.9 -302.5,74.7 
			-301.6,74.9 -295.5,61.6 -294.5,61.7 -290,51.8 		"/>
		<polyline id="Shape_63_" class="st18" points="-287.2,53.4 -288,52.9 -288.8,52.5 -289.2,52.3 -300.3,76.4 -299.8,76.3 
			-298.7,74.1 -297.7,74.2 -292.7,63.2 -291.8,63.3 -287.2,53.4 		"/>
		<polyline id="Shape_64_" class="st18" points="-284.4,55 -285.2,54.5 -286,54.1 -286.4,53.8 -296.5,75.9 -296,75.8 -294.9,73.5 
			-294,73.7 -289.9,64.8 -289,64.9 -284.4,55 		"/>
		<polyline id="Shape_65_" class="st18" points="-281.6,56.6 -282.4,56.2 -283.2,55.7 -283.6,55.5 -292.8,75.3 -292.2,75.2 
			-291.1,72.9 -290.2,73 -287.1,66.4 -286.2,66.5 -281.6,56.6 		"/>
		<polyline id="Shape_66_" class="st18" points="-278.8,58.2 -279.7,57.7 -280.4,57.3 -280.9,57.1 -289,74.7 -288.4,74.6 
			-287.3,72.3 -286.4,72.5 -284.4,68 -283.4,68.1 -278.8,58.2 		"/>
		<polyline id="Shape_67_" class="st18" points="-276.1,59.8 -276.9,59.3 -277.6,58.9 -278.1,58.6 -285.2,74.1 -284.6,74 
			-283.5,71.8 -282.6,71.9 -281.6,69.6 -280.7,69.7 -276.1,59.8 		"/>
		<polyline id="Shape_68_" class="st18" points="-311.3,52.4 -312.5,52.5 -313.5,52.7 -314.1,52.8 -321.5,68.8 -321,69 -319.2,65.1 
			-318.3,65.2 -316.2,60.7 -315.3,60.9 -311.3,52.4 		"/>
	</g>
	<g id="illustration-rentoken_1_" transform="translate(353.000000, 462.000000)">
		<polygon id="Shape_84_" class="st10" points="466.1,-340.3 466.1,-342.2 467.9,-342.2 		"/>
		<polyline id="Shape_83_" class="st10" points="529.2,-341.5 527.6,-339.6 528.7,-339.6 529.2,-339.8 		"/>
		<path id="Shape_82_" class="st10" d="M519.9-353.1c-12.4-7.1-32.4-7.1-44.6,0c-12.2,7.1-12.2,18.6,0.1,25.7
			c12.3,7.1,32.4,7.1,44.6,0c5.9-3.4,9-7.9,9.1-12.4C529.4-344.6,526.3-349.5,519.9-353.1"/>
		<path id="Shape_81_" class="st7" d="M474-337.7l6.3-13.9l0.6-0.1l1.1-0.1l1.1-0.1l-3.9,8.5l-0.8-0.2l-1.1,2.3l-0.9-0.1l-1.8,4
			L474-337.7 M476.8-336.2l7.3-16l0.6-0.1l1.1-0.1l1.1-0.1l-3.9,8.5l-0.9-0.1l-2,4.5l-0.9-0.1l-1.9,3.9L476.8-336.2 M479.6-334.6
			l8.3-18.3l0.6-0.1l1.1-0.1l1.1-0.1l-3.9,8.5l-1-0.1l-3.1,6.7l-0.8-0.1l-1.8,4L479.6-334.6 M482.4-332.9l9.4-20.5l0.6-0.1l1.1-0.1
			l1.1-0.1l-3.9,8.5l-0.9-0.1l-4.1,8.9l-0.9-0.2l-1.8,4L482.4-332.9 M485.1-331.4l10.4-22.6l0.6-0.1l1.1-0.2l1.1-0.1l-3.9,8.5
			l-0.9-0.1l-5.1,11.1l-0.8-0.2l-1.8,4L485.1-331.4 M487.9-329.8l11.4-24.8l0.6-0.1l1.1-0.1l1.1-0.2l-3.9,8.4l-0.9-0.1l-6.1,13.3
			l-0.9-0.1l-1.8,4L487.9-329.8 M490.7-328.2l12.3-27l0.6-0.1l0.8-0.1l0.2,0.1l0.8,0.5l-4.5,9.8l-1-0.2l-6.1,13.4l-0.9-0.1l-1.8,4
			L490.7-328.2 M494.1-328l12.1-26.4l0.4,0.2l0.8,0.5l0.8,0.5l-4.6,9.9l-0.9-0.1l-6.1,13.3l-0.9-0.1l-1.1,2.3H494.1 M497.9-328.5
			l11.1-24.2l0.4,0.2l0.8,0.5l0.8,0.5l-4.6,9.9l-0.9-0.1l-5.1,11l-0.9-0.1l-1.1,2.3L497.9-328.5 M501.7-329.1l10.1-22l0.4,0.2
			l0.8,0.4l0.8,0.5l-4.6,9.9l-1-0.1l-4.1,8.9l-0.9-0.1l-1.1,2.3L501.7-329.1 M505.4-329.7l9.1-19.8l0.4,0.2l0.8,0.5l0.8,0.4
			l-4.5,9.9l-0.9-0.1L508-332l-0.9-0.1l-1.1,2.3L505.4-329.7 M509.2-330.3l8.1-17.6l0.4,0.2l0.8,0.5l0.8,0.5l-4.5,9.8l-0.9-0.1
			l-2,4.5l-0.9-0.1l-1.1,2.3L509.2-330.3 M513-330.9l7.1-15.5l0.4,0.2l0.8,0.5l0.8,0.5l-4.6,9.9l-0.9-0.1l-1.1,2.3l-0.9-0.1
			l-1.1,2.3L513-330.9 M519.9-354.5c-12.4-7.1-32.4-7.1-44.6,0c-12.2,7.1-12.2,18.6,0.1,25.7c12.3,7.1,32.4,7.1,44.6,0
			C532.2-336,532.2-347.5,519.9-354.5"/>
		<polyline id="Shape_80_" class="st18" points="483.1,-352.1 482,-351.9 480.9,-351.7 480.3,-351.7 474,-337.7 474.4,-337.5 
			476.2,-341.5 477.2,-341.4 478.2,-343.7 479.1,-343.6 483.1,-352.1 		"/>
		<polyline id="Shape_79_" class="st18" points="490.7,-353.2 489.5,-353.1 488.5,-352.9 487.9,-352.9 479.6,-334.6 480,-334.4 
			481.8,-338.3 482.7,-338.2 485.8,-344.8 486.7,-344.7 490.7,-353.2 		"/>
		<polyline id="Shape_78_" class="st18" points="494.4,-353.8 493.3,-353.6 492.3,-353.5 491.7,-353.4 482.3,-332.9 482.7,-332.7 
			484.6,-336.7 485.5,-336.6 489.5,-345.5 490.5,-345.3 494.4,-353.8 		"/>
		<polyline id="Shape_77_" class="st18" points="498.2,-354.4 497.1,-354.3 496,-354 495.5,-354 485.1,-331.4 485.5,-331.1 
			487.4,-335.1 488.3,-335 493.4,-346.1 494.3,-346 498.2,-354.4 		"/>
		<polyline id="Shape_76_" class="st18" points="502,-355 500.9,-354.8 499.8,-354.7 499.3,-354.5 487.9,-329.8 488.3,-329.6 
			490.1,-333.5 491.1,-333.4 497.1,-346.7 498.1,-346.5 502,-355 		"/>
		<polyline id="Shape_75_" class="st18" points="505.4,-354.8 504.6,-355.2 504.5,-355.4 503.6,-355.2 503.1,-355.2 490.7,-328.2 
			491.1,-328 492.9,-332 493.8,-331.7 500,-345 500.9,-344.9 505.4,-354.8 		"/>
		<polyline id="Shape_74_" class="st18" points="508.2,-353.2 507.4,-353.6 506.6,-354.1 506.2,-354.3 494.1,-328 494.7,-328.1 
			495.7,-330.3 496.6,-330.1 502.7,-343.4 503.7,-343.3 508.2,-353.2 		"/>
		<polyline id="Shape_73_" class="st18" points="511,-351.6 510.2,-352.1 509.4,-352.5 509,-352.7 497.9,-328.6 498.4,-328.7 
			499.5,-330.9 500.5,-330.8 505.5,-341.8 506.4,-341.7 511,-351.6 		"/>
		<polyline id="Shape_72_" class="st18" points="513.8,-350 513,-350.5 512.2,-350.9 511.8,-351.2 501.7,-329.1 502.2,-329.2 
			503.3,-331.5 504.2,-331.3 508.3,-340.2 509.2,-340.1 513.8,-350 		"/>
		<polyline id="Shape_71_" class="st18" points="516.6,-348.4 515.8,-348.8 515,-349.3 514.6,-349.5 505.4,-329.7 506,-329.8 
			507.1,-332.1 508,-332 511.1,-338.6 512,-338.5 516.6,-348.4 		"/>
		<polyline id="Shape_70_" class="st18" points="519.4,-346.8 518.5,-347.3 517.8,-347.7 517.3,-347.9 509.2,-330.3 509.8,-330.4 
			510.9,-332.7 511.8,-332.5 513.8,-337 514.8,-336.9 519.4,-346.8 		"/>
		<polyline id="Shape_69_" class="st18" points="522.1,-345.2 521.3,-345.7 520.6,-346.1 520.2,-346.4 513,-330.9 513.6,-331 
			514.7,-333.2 515.6,-333.1 516.6,-335.4 517.5,-335.3 522.1,-345.2 		"/>
		<polyline id="Shape_7_" class="st18" points="486.9,-352.6 485.8,-352.5 484.7,-352.3 484.1,-352.2 476.7,-336.2 477.2,-336 
			479,-339.9 479.9,-339.8 482,-344.3 482.9,-344.1 486.9,-352.6 		"/>
	</g>
	<path class="st3" d="M922,510.2l-82.1,47.6c-10.3,5.2-22.4,5.2-32.7,0L649,466l-2,3.5l158.2,92.1c11.5,5.9,25.2,5.9,36.7,0
		l80.1-46.5V510.2z"/>
</g>
</svg>
