<?xml version="1.0" encoding="utf-8"?>
<!-- Generator: Adobe Illustrator 21.0.2, SVG Export Plug-In . SVG Version: 6.00 Build 0)  -->
<svg version="1.1" id="Layer_1" xmlns="http://www.w3.org/2000/svg" xmlns:xlink="http://www.w3.org/1999/xlink" x="0px" y="0px"
	 viewBox="0 0 894 684" style="enable-background:new 0 0 894 684;" xml:space="preserve">
<style type="text/css">
	.st0{fill:#FFFFFF;}
	.st1{opacity:0.5;}
	.st2{opacity:0.4;}
	.st3{fill:#E1E1E1;}
	.st4{fill:#E1E1E1;stroke:#FDFDFD;stroke-width:1.4595;}
	.st5{opacity:0.2;fill:url(#Rectangle-path_3_);enable-background:new    ;}
	.st6{fill:url(#Shape_3_);}
	.st7{opacity:0.2;fill:url(#Rectangle-path_4_);enable-background:new    ;}
	.st8{fill:url(#Shape_10_);}
	.st9{fill:#1987FF;}
	.st10{fill:#006FE8;}
	.st11{opacity:0.2;fill:url(#Rectangle-path_15_);enable-background:new    ;}
	.st12{fill:url(#Shape_39_);}
	.st13{fill:#F5F5F5;}
	.st14{opacity:0.2;fill:url(#Rectangle-path_16_);enable-background:new    ;}
	.st15{fill:url(#Shape_40_);}
	.st16{opacity:0.2;fill:url(#Rectangle-path_17_);enable-background:new    ;}
	.st17{fill:url(#Shape_71_);}
	.st18{opacity:0.2;fill:url(#Rectangle-path_18_);enable-background:new    ;}
	.st19{opacity:0.2;fill:url(#Rectangle-path-Copy_2_);enable-background:new    ;}
	.st20{fill:url(#Shape_72_);}
	.st21{fill:#0048F6;}
	.st22{fill:#0075F5;}
	.st23{fill:#FAF2F8;}
	.st24{fill:#003269;}
</style>
<title>illustration: ecosystem</title>
<desc>Created with Sketch.</desc>
<g>
	<g>
		<rect id="path-3" x="540" y="8.6" class="st0" width="307" height="623.7"/>
	</g>
	<g>
		<rect id="path-1" x="540" y="37.2" class="st0" width="307" height="623.7"/>
	</g>
	<g id="home" transform="translate(-786.000000, -101.000000)">
		<g id="section:-header" transform="translate(0.000000, 100.000000)">
			<g id="illustration-header" transform="translate(0.000000, 1.000000)">
				<g id="illustration:-ecosystem" transform="translate(671.000000, -247.000000)">
					<g id="shadows" transform="translate(14.621053, 0.000000)" class="st1">
						
							<g id="Asset-11_x40_large-Copy-2" transform="translate(677.244796, 156.191899) rotate(-300.000000) translate(-677.244796, -156.191899) translate(542.731112, 76.579916)">
						</g>
						<g id="Asset-9_x40_large-Copy" transform="translate(121.354737, 541.945792)" class="st2">
							<path id="Shape" class="st3" d="M872.6,304.2c-3.2,0.1-6.4-0.7-9.2-2.3c-2.4-1.1-4-3.4-4.2-6c0.2-2.6,1.8-4.9,4.1-6
								c5.8-3,12.6-3,18.3,0c2.4,1.1,4,3.4,4.2,6c-0.2,2.6-1.8,4.9-4.1,6C879,303.4,875.8,304.2,872.6,304.2z M872.5,290
								c-2.8-0.1-5.5,0.6-7.9,1.9c-1.6,0.7-2.7,2.2-2.9,3.9c0.2,1.8,1.4,3.3,3,3.9c5,2.6,10.9,2.6,15.9,0c1.6-0.7,2.7-2.2,2.9-3.9
								c-0.2-1.8-1.4-3.3-3-3.9C878.1,290.6,875.3,290,872.5,290L872.5,290z"/>
							<path id="Shape_1_" class="st3" d="M491.2,430c-3.8,0.1-7.6-0.8-11-2.6l-157.7-91.5c-6.1-3.1-13.3-3.1-19.5,0l-51.5,29.9
								c-6.9,3.5-15,3.5-21.9,0l-104.9-61c-2.8-1.3-4.7-4-4.9-7.1c0.2-3,2-5.7,4.8-7l51-29.6c1.9-1.1,3-3.1,3-5.2
								c0-2.2-1.2-4.2-3-5.2L4.2,152c-2.6-1.5-4.2-4.3-4.2-7.3s1.6-5.8,4.2-7.3L239.5,0l1.2,2.1L5.4,139.6c-1.9,1.1-3,3.1-3,5.2
								c0,2.2,1.1,4.1,3,5.2l171.5,98.7c2.6,1.5,4.2,4.3,4.2,7.3c0,3-1.6,5.8-4.2,7.3L126,292.8c-2,0.9-3.4,2.7-3.6,4.8
								c0.3,2.2,1.7,4.1,3.7,5L231,363.5c6.1,3.1,13.3,3.1,19.5,0l51.5-29.9c6.9-3.5,15-3.5,21.9,0l157.7,91.5
								c6.1,3.1,13.3,3.1,19.5,0l175-101.5c6.9-3.5,15-3.5,21.9,0l52.4,30.4c6.1,3.1,13.3,3.1,19.5,0l94.1-54.6l1.2,2.1l-94.1,54.8
								c-6.9,3.5-15,3.5-21.9,0l-52.4-30.4c-6.1-3.1-13.3-3.1-19.5,0l-175,101.5C498.7,429.2,495,430.1,491.2,430z"/>
							<path id="Shape_2_" class="st3" d="M121.4,217.6c-5.8,3-12.7,3-18.6,0c-5.1-3-5.2-7.8,0-10.8c5.8-3,12.7-3,18.6,0
								C126.5,209.8,126.5,214.6,121.4,217.6z"/>
							
								<rect id="Rectangle-path" x="108.1" y="196.2" transform="matrix(0.8637 -0.5041 0.5041 0.8637 -80.7671 96.1551)" class="st3" width="58.5" height="2.4"/>
						</g>
						<g id="Group-18-Copy" transform="translate(640.402105, 284.230355)" class="st2">
							<g id="Rectangle-9">
							</g>
							<g id="Asset-9_x40_large">
								<g transform="translate(36.552632, 13.146933)">
									<path id="Shape_70_" class="st3" d="M369.7,384.5c-7-3.6-15.3-3.6-22.3,0l-59,34.2c-7.9,4-17.2,4-25.1,0l-120.2-69.8
										c-3.2-1.5-5.4-4.6-5.6-8.1c0.2-3.5,2.3-6.5,5.5-8l58.4-33.9c2.1-1.2,3.5-3.5,3.5-6s-1.3-4.8-3.5-6L4.8,174
										c-3-1.7-4.8-4.9-4.8-8.4c0-3.4,1.8-6.6,4.8-8.4L274.5,0l1.4,2.4L6.1,159.8c-2.1,1.2-3.4,3.5-3.4,6s1.3,4.7,3.4,6l196.6,113
										c3,1.7,4.8,4.9,4.8,8.4s-1.8,6.6-4.8,8.4l-58.3,33.7c-2.3,1-3.8,3.1-4.2,5.5c0.3,2.5,1.9,4.7,4.3,5.7l120.2,69.8
										c7,3.6,15.3,3.6,22.3,0l59-34.2c7.9-4,17.2-4,25.1,0"/>
									<path id="Shape_4_" class="st3" d="M140.3,248.7c-6.8,3.4-14.9,3.4-21.7,0c-6-3.4-6-9,0-12.4c6.8-3.4,14.9-3.4,21.7,0
										C146.2,239.7,146.2,245.3,140.3,248.7z"/>
									
										<rect id="Rectangle-path_1_" x="124.3" y="225" transform="matrix(0.8637 -0.5041 0.5041 0.8637 -92.5998 110.5013)" class="st3" width="67.3" height="2.9"/>
								</g>
							</g>
						</g>
						<g id="Asset-10_x40_large-Copy-2" transform="translate(925.512632, 368.955034)" class="st2">
							<path id="Shape_5_" class="st3" d="M13.4,184c-3.2,0.1-6.4-0.7-9.2-2.3c-2.4-1.1-4-3.4-4.2-6c0.2-2.6,1.8-4.9,4.1-6
								c5.7-3,12.6-3,18.3,0c2.4,1.1,4,3.4,4.2,6c-0.2,2.6-1.8,4.9-4.1,6C19.7,183.2,16.6,184,13.4,184z M5.3,171.7
								c-1.6,0.7-2.7,2.2-2.9,3.9c0.2,1.8,1.4,3.3,3,4c5,2.6,10.9,2.6,15.9,0c1.6-0.7,2.7-2.2,2.9-3.9c-0.2-1.8-1.3-3.3-3-4
								C16.2,169.2,10.3,169.2,5.3,171.7L5.3,171.7z"/>
							<path id="Shape_6_" class="st3" d="M21.7,172.2l-1.2-2.1l103-59.9c2-0.9,3.3-2.7,3.6-4.8c-0.3-2.2-1.7-4.1-3.7-5L83,76.7
								c-2.8-1.3-4.7-4-4.9-7.1c0.2-3,2-5.7,4.8-7l26.6-15.5c2-0.8,3.4-2.7,3.7-4.8c-0.3-2.2-1.7-4.1-3.7-5L49,2.1L50.2,0l60.4,35.1
								c2.8,1.3,4.7,4,4.9,7.1c-0.2,3-2,5.7-4.8,7L84.1,64.7c-2,0.8-3.4,2.7-3.7,4.8c0.2,2.3,1.6,4.3,3.7,5.2l40.6,23.6
								c2.8,1.3,4.7,4,4.9,7.1c-0.2,3-2,5.7-4.8,7L21.7,172.2z"/>
						</g>
						<g id="Asset-11_x40_large-Copy-5" transform="translate(0.000000, 881.685419)" class="st2">
							
								<rect id="Rectangle-path_2_" x="-16.1" y="68.7" transform="matrix(0.865 -0.5018 0.5018 0.865 -19.4873 69.3762)" class="st4" width="270.5" height="4.4"/>
						</g>
					</g>
					<g id="Asset-9_x40_large_1_" transform="translate(135.975789, 512.730385)">
						<path id="Shape_7_" class="st3" d="M872.6,304.2c-3.2,0.1-6.4-0.7-9.2-2.3c-2.4-1.1-4-3.4-4.2-6c0.2-2.6,1.8-4.9,4.1-6
							c5.8-3,12.6-3,18.3,0c2.4,1.1,4,3.4,4.2,6c-0.2,2.6-1.8,4.9-4.1,6C879,303.4,875.8,304.2,872.6,304.2z M872.5,290
							c-2.8-0.1-5.5,0.6-7.9,1.9c-1.6,0.7-2.7,2.2-2.9,3.9c0.2,1.8,1.4,3.3,3,3.9c5,2.6,10.9,2.6,15.9,0c1.6-0.7,2.7-2.2,2.9-3.9
							c-0.2-1.8-1.4-3.3-3-3.9C878.1,290.6,875.3,290,872.5,290L872.5,290z"/>
						<path id="Shape_8_" class="st3" d="M491.2,430c-3.8,0.1-7.6-0.8-11-2.6l-157.7-91.5c-6.1-3.1-13.3-3.1-19.5,0l-51.5,29.9
							c-6.9,3.5-15,3.5-21.9,0l-104.9-61c-2.8-1.3-4.7-4-4.9-7.1c0.2-3,2-5.7,4.8-7l51-29.6c1.9-1.1,3-3.1,3-5.2
							c0-2.2-1.2-4.2-3-5.2L4.2,152c-2.6-1.5-4.2-4.3-4.2-7.3s1.6-5.8,4.2-7.3L239.5,0l1.2,2.1L5.4,139.6c-1.9,1.1-3,3.1-3,5.2
							c0,2.2,1.1,4.1,3,5.2l171.5,98.7c2.6,1.5,4.2,4.3,4.2,7.3c0,3-1.6,5.8-4.2,7.3L126,292.8c-2,0.9-3.4,2.7-3.6,4.8
							c0.3,2.2,1.7,4.1,3.7,5L231,363.5c6.1,3.1,13.3,3.1,19.5,0l51.5-29.9c6.9-3.5,15-3.5,21.9,0l157.7,91.5
							c6.1,3.1,13.3,3.1,19.5,0l175-101.5c6.9-3.5,15-3.5,21.9,0l52.4,30.4c6.1,3.1,13.3,3.1,19.5,0l94.1-54.6l1.2,2.1l-94.1,54.8
							c-6.9,3.5-15,3.5-21.9,0l-52.4-30.4c-6.1-3.1-13.3-3.1-19.5,0l-175,101.5C498.7,429.2,495,430.1,491.2,430z"/>
						<path id="Shape_9_" class="st3" d="M121.4,217.6c-5.8,3-12.7,3-18.6,0c-5.1-3-5.2-7.8,0-10.8c5.8-3,12.7-3,18.6,0
							C126.5,209.8,126.5,214.6,121.4,217.6z"/>
						
							<rect id="Rectangle-path_5_" x="108.1" y="196.2" transform="matrix(0.8637 -0.5041 0.5041 0.8637 -80.7671 96.1551)" class="st3" width="58.5" height="2.4"/>
					</g>
					<g id="Group-18" transform="translate(655.023158, 255.634807)">
						<g id="Rectangle-9_1_">
						</g>
						<g id="Asset-9_x40_large_2_">
							<g transform="translate(36.552632, 13.146933)">
								<path id="Shape_69_" class="st3" d="M369.7,384.5c-7-3.6-15.3-3.6-22.3,0l-59,34.2c-7.9,4-17.2,4-25.1,0l-120.2-69.8
									c-3.2-1.5-5.4-4.6-5.6-8.1c0.2-3.5,2.3-6.5,5.5-8l58.4-33.9c2.1-1.2,3.5-3.5,3.5-6s-1.3-4.8-3.5-6L4.8,174
									c-3-1.7-4.8-4.9-4.8-8.4c0-3.4,1.8-6.6,4.8-8.4L274.5,0l1.4,2.4L6.1,159.8c-2.1,1.2-3.4,3.5-3.4,6s1.3,4.7,3.4,6l196.6,113
									c3,1.7,4.8,4.9,4.8,8.4s-1.8,6.6-4.8,8.4l-58.3,33.7c-2.3,1-3.8,3.1-4.2,5.5c0.3,2.5,1.9,4.7,4.3,5.7l120.2,69.8
									c7,3.6,15.3,3.6,22.3,0l59-34.2c7.9-4,17.2-4,25.1,0"/>
								<path id="Shape_11_" class="st3" d="M140.3,248.7c-6.8,3.4-14.9,3.4-21.7,0c-6-3.4-6-9,0-12.4c6.8-3.4,14.9-3.4,21.7,0
									C146.2,239.7,146.2,245.3,140.3,248.7z"/>
								
									<rect id="Rectangle-path_6_" x="124.3" y="225" transform="matrix(0.8637 -0.5041 0.5041 0.8637 -92.5998 110.5013)" class="st3" width="67.3" height="2.9"/>
							</g>
						</g>
					</g>
					<g id="Asset-10_x40_large" transform="translate(940.133684, 340.359486)">
						<path id="Shape_12_" class="st3" d="M13.4,184c-3.2,0.1-6.4-0.7-9.2-2.3c-2.4-1.1-4-3.4-4.2-6c0.2-2.6,1.8-4.9,4.1-6
							c5.7-3,12.6-3,18.3,0c2.4,1.1,4,3.4,4.2,6c-0.2,2.6-1.8,4.9-4.1,6C19.7,183.2,16.6,184,13.4,184z M5.3,171.7
							c-1.6,0.7-2.7,2.2-2.9,3.9c0.2,1.8,1.4,3.3,3,4c5,2.6,10.9,2.6,15.9,0c1.6-0.7,2.7-2.2,2.9-3.9c-0.2-1.8-1.3-3.3-3-4
							C16.2,169.2,10.3,169.2,5.3,171.7L5.3,171.7z"/>
						<path id="Shape_13_" class="st3" d="M21.7,172.2l-1.2-2.1l103-59.9c2-0.9,3.3-2.7,3.6-4.8c-0.3-2.2-1.7-4.1-3.7-5L83,76.7
							c-2.8-1.3-4.7-4-4.9-7.1c0.2-3,2-5.7,4.8-7l26.6-15.5c2-0.8,3.4-2.7,3.7-4.8c-0.3-2.2-1.7-4.1-3.7-5L49,2.1L50.2,0l60.4,35.1
							c2.8,1.3,4.7,4,4.9,7.1c-0.2,3-2,5.7-4.8,7L84.1,64.7c-2,0.8-3.4,2.7-3.7,4.8c0.2,2.3,1.6,4.3,3.7,5.2l40.6,23.6
							c2.8,1.3,4.7,4,4.9,7.1c-0.2,3-2,5.7-4.8,7L21.7,172.2z"/>
					</g>
					<g id="Asset-11_x40_large" transform="translate(14.621053, 853.089872)">
						
							<rect id="Rectangle-path_7_" x="-16.1" y="68.7" transform="matrix(0.865 -0.5018 0.5018 0.865 -19.4873 69.3762)" class="st4" width="270.5" height="4.4"/>
					</g>
					<g id="lock-key" transform="translate(308.504211, 78.881598)">
						
							<linearGradient id="Rectangle-path_3_" gradientUnits="userSpaceOnUse" x1="-87.5037" y1="-0.2273" x2="-87.5037" y2="-1.2277" gradientTransform="matrix(-296.6302 0 0 -128.7507 -25807.9531 120.532)">
							<stop  offset="0" style="stop-color:#DCDCDC"/>
							<stop  offset="1" style="stop-color:#6E6E6E;stop-opacity:0"/>
						</linearGradient>
						<rect id="Rectangle-path_8_" x="0" y="149.8" class="st5" width="296.6" height="128.8"/>
						<path id="Shape_14_" class="st3" d="M0.2,112.8v34.6l0.3,0.2c1.2,9.2,6.6,17.3,14.6,21.9l101.4,59
							c19.6,11.4,43.9,11.5,63.6,0.2l101.4-58.2c8.4-4.8,13.9-13.4,14.9-23h0.1v-34.7L0.2,112.8L0.2,112.8z"/>
						
							<linearGradient id="Shape_3_" gradientUnits="userSpaceOnUse" x1="-89.5137" y1="1.9299" x2="-89.5137" y2="0.8213" gradientTransform="matrix(296.4549 0 0 176.1204 26685.0879 -130.4849)">
							<stop  offset="0" style="stop-color:#FAFAFA"/>
							<stop  offset="1" style="stop-color:#FAFAFA"/>
						</linearGradient>
						<path id="Shape_15_" class="st6" d="M128.8,198.1L8.7,128.8c-5.3-3.1-8.6-8.8-8.6-14.9s3.3-11.9,8.6-15l110-63.5
							c18.3-10.6,40.9-10.6,59.2,0l109.5,63.2c5.6,3.3,9.1,9.3,9.1,15.8s-3.5,12.5-9.1,15.8l-117.6,67.9
							C157.1,205.5,141.5,205.5,128.8,198.1z"/>
					</g>
					<g id="exchange" transform="translate(859.717895, 203.047076)">
						
							<linearGradient id="Rectangle-path_4_" gradientUnits="userSpaceOnUse" x1="-1189.6768" y1="-0.2367" x2="-1189.6768" y2="-1.2606" gradientTransform="matrix(-236.7197 0 0 -124.9008 -281501.5625 49.4385)">
							<stop  offset="0" style="stop-color:#DCDCDC"/>
							<stop  offset="1" style="stop-color:#6E6E6E;stop-opacity:0"/>
						</linearGradient>
						<rect id="Rectangle-path_9_" x="0" y="82.5" class="st7" width="236.7" height="124.9"/>
						<path id="Shape_16_" class="st3" d="M0.2,76.6v27.7l0.2,0.1c1,7.3,5.3,13.8,11.7,17.5L93,169.1c15.7,9.1,35,9.2,50.8,0.2
							l80.9-46.5c6.7-3.9,11.1-10.7,11.9-18.4h0.1V76.6H0.2z"/>
						
							<linearGradient id="Shape_10_" gradientUnits="userSpaceOnUse" x1="-1192.1956" y1="2.1558" x2="-1192.1956" y2="1.0469" gradientTransform="matrix(236.4808 0 0 140.6937 282049.875 -149.5018)">
							<stop  offset="0" style="stop-color:#FAFAFA"/>
							<stop  offset="1" style="stop-color:#FAFAFA"/>
						</linearGradient>
						<path id="Shape_17_" class="st8" d="M102.9,144.8L7.1,89.4c-4.3-2.5-6.9-7-6.9-11.9S2.8,68,7.1,65.6l87.7-50.7
							c14.6-8.5,32.6-8.5,47.3,0l87.4,50.5c4.5,2.6,7.3,7.4,7.3,12.6s-2.8,10-7.3,12.6l-93.8,54.2
							C125.5,150.7,113,150.7,102.9,144.8z"/>
						<ellipse id="Oval" class="st3" cx="118.4" cy="76.6" rx="58.7" ry="28.6"/>
						<polygon id="Shape_18_" class="st9" points="146.1,9.6 146.1,26.3 106.1,49.5 102.2,35.1 						"/>
						<polygon id="Shape_19_" class="st9" points="109,39 109,55.7 67.9,62.1 67.9,45.4 						"/>
						<polygon id="Shape_20_" class="st9" points="160.3,64 116.5,89.5 116.5,72.9 160.4,47.3 						"/>
						<polygon id="Shape_21_" class="st9" points="116.5,72.9 116.5,89.5 99.9,80 99.9,63.3 						"/>
						<polygon id="Shape_22_" class="st9" points="137,33.8 137,50.5 139.3,51.8 143.1,37.4 						"/>
						<polygon id="Shape_23_" class="st10" points="78.8,21.6 85.6,25.5 129.5,0 146.1,9.6 102.2,35.1 109,39 67.9,45.4 						"/>
						<polygon id="Shape_24_" class="st10" points="99.9,63.3 116.5,72.9 160.4,47.3 167.2,51.3 178,27.4 137,33.8 143.1,37.4 
													"/>
					</g>
					<g id="shield" transform="translate(135.975789, 655.670471)">
						<g id="Group-28" transform="translate(0.000000, 85.742952)">
							
								<linearGradient id="Rectangle-path_15_" gradientUnits="userSpaceOnUse" x1="257.7473" y1="-0.4488" x2="257.7473" y2="-1.3936" gradientTransform="matrix(-248.5579 0 0 -107.7179 64189.418 34.0271)">
								<stop  offset="0" style="stop-color:#DCDCDC"/>
								<stop  offset="1" style="stop-color:#6E6E6E;stop-opacity:0"/>
							</linearGradient>
							<rect id="Rectangle-path_10_" x="0" y="84.3" class="st11" width="248.6" height="107.7"/>
							<path id="Shape_25_" class="st3" d="M0,72.6v28.7l0.2,0.1c1,7.6,5.6,14.3,12.3,18.2l85,48.9c16.5,9.5,36.8,9.5,53.4,0.2
								l85.1-48.2c7-4,11.7-11.1,12.5-19.1h0.1V72.6H0z"/>
							
								<linearGradient id="Shape_39_" gradientUnits="userSpaceOnUse" x1="255.3496" y1="2.1038" x2="255.3496" y2="0.9949" gradientTransform="matrix(248.5579 0 0 147.5267 -63344.8594 -158.0114)">
								<stop  offset="0" style="stop-color:#FAFAFA"/>
								<stop  offset="1" style="stop-color:#FAFAFA"/>
							</linearGradient>
							<path id="Shape_26_" class="st12" d="M107.9,142.9L7.2,84.8C2.8,82.3,0,77.5,0,72.3s2.8-9.9,7.2-12.5L99.5,6.6
								c15.4-8.9,34.3-8.9,49.7,0l91.8,53c4.7,2.7,7.6,7.8,7.6,13.2c0,5.5-2.9,10.5-7.6,13.2l-98.6,56.9
								C131.7,149.1,118.6,149.1,107.9,142.9z"/>
							<ellipse id="Oval_1_" class="st3" cx="124.3" cy="72.6" rx="61" ry="30.4"/>
						</g>
						<g id="Shape_27_" transform="translate(65.000000, 0.000000)">
							<path class="st10" d="M117.9,10.8l-14.2-8.7l-0.9-0.6c-1.9-1-4.2-1.2-6.3-0.6c-5.5,1.7-11.2,2.9-17,3.5
								C72.7,5.2,65.7,5,59,3.8c-3.2-0.6-6.5,0.8-8.4,3.4C44.1,16.4,37.1,25,29.4,33.1c-7.9,8.4-16.6,16-25.8,22.8
								c-2.2,1.6-3.5,4.1-3.5,6.8v38.2c0,19.2,6.4,33.6,17.4,41.1c0.7,0.5,1.5,1,2.2,1.4l12.6,7.7v-3.7l2.7,0.2l14.6,0.6
								c2.6,0.1,5.2-1,6.8-3l16.1-19.1C93.8,100.5,107,67.3,107,39.6V15.3L117.9,10.8z"/>
							<path class="st13" d="M86.8,134.9L70.7,154c-1.7,2-4.2,3.1-6.8,3l-14.6-0.6c-21.4-0.9-34.8-18.7-34.8-46.6V71.6
								c0-2.7,1.3-5.2,3.5-6.8C27.3,58,35.9,50.4,43.8,42c7.6-8.1,14.7-16.7,21.1-25.8c1.9-2.6,5.1-3.9,8.3-3.4
								c6.8,1.2,13.7,1.4,20.5,0.6c5.8-0.7,11.5-1.8,17.1-3.5c2.5-0.8,5.3-0.3,7.4,1.3s3.4,4.1,3.4,6.7v30.6
								C121.7,76.2,108.3,109.4,86.8,134.9z"/>
						</g>
					</g>
					
						<linearGradient id="Rectangle-path_16_" gradientUnits="userSpaceOnUse" x1="530.4224" y1="-1.3334" x2="530.4224" y2="-2.2782" gradientTransform="matrix(-154.9832 0 0 -67.1954 82605.7656 407.2792)">
						<stop  offset="0" style="stop-color:#DCDCDC"/>
						<stop  offset="1" style="stop-color:#6E6E6E;stop-opacity:0"/>
					</linearGradient>
					<rect id="Rectangle-path_11_" x="321.7" y="498.1" class="st14" width="155" height="67.2"/>
					<path id="Shape_28_" class="st3" d="M321.7,490.8v17.9l0.1,0.1c0.6,4.7,3.5,8.9,7.7,11.3l53,30.5c10.3,5.9,23,5.9,33.3,0.1
						l53-30.1c4.4-2.5,7.3-6.9,7.8-11.9h0.1v-17.9H321.7z"/>
					
						<linearGradient id="Shape_40_" gradientUnits="userSpaceOnUse" x1="526.5768" y1="2.7497" x2="526.5768" y2="1.6407" gradientTransform="matrix(154.9832 0 0 92.0285 -81211.4531 287.5378)">
						<stop  offset="0" style="stop-color:#FAFAFA"/>
						<stop  offset="1" style="stop-color:#FAFAFA"/>
					</linearGradient>
					<path id="Shape_29_" class="st15" d="M388.9,534.7l-62.8-36.2c-2.8-1.6-4.5-4.6-4.5-7.8c0-3.2,1.7-6.2,4.5-7.8l57.5-33.2
						c9.6-5.5,21.4-5.5,31,0l57.2,33c2.9,1.7,4.8,4.9,4.8,8.3s-1.8,6.5-4.8,8.3l-61.5,35.5C403.8,538.5,395.6,538.5,388.9,534.7z"/>
					<ellipse id="Oval_2_" class="st3" cx="399.2" cy="490.8" rx="38" ry="19"/>
					<g id="Asset-19_x40_large" transform="translate(321.663158, 444.947218)">
						
							<linearGradient id="Rectangle-path_17_" gradientUnits="userSpaceOnUse" x1="-112.9035" y1="-1.3334" x2="-112.9035" y2="-2.2782" gradientTransform="matrix(-154.9832 0 0 -67.1954 -17420.6523 -37.652)">
							<stop  offset="0" style="stop-color:#DCDCDC"/>
							<stop  offset="1" style="stop-color:#6E6E6E;stop-opacity:0"/>
						</linearGradient>
						<rect id="Rectangle-path_12_" x="0" y="53.2" class="st16" width="155" height="67.2"/>
						<path id="Shape_30_" class="st3" d="M0,45.9v17.9l0.1,0.1c0.6,4.7,3.5,8.9,7.7,11.3l53,30.5c10.3,5.9,23,5.9,33.3,0.1l53-30.1
							c4.4-2.5,7.3-6.9,7.8-11.9h0.1V45.9H0z"/>
						
							<linearGradient id="Shape_71_" gradientUnits="userSpaceOnUse" x1="-116.749" y1="2.7497" x2="-116.749" y2="1.6407" gradientTransform="matrix(154.9832 0 0 92.0285 18171.6348 -157.3946)">
							<stop  offset="0" style="stop-color:#FAFAFA"/>
							<stop  offset="1" style="stop-color:#FAFAFA"/>
						</linearGradient>
						<path id="Shape_31_" class="st17" d="M67.3,89.7L4.5,53.5C1.7,51.9,0,48.9,0,45.7s1.7-6.2,4.5-7.8L62,4.7
							c9.6-5.5,21.4-5.5,31,0l57.2,33c2.9,1.7,4.8,4.9,4.8,8.3c0,3.4-1.8,6.5-4.8,8.3L88.7,89.7C82.1,93.6,73.9,93.6,67.3,89.7z"/>
						<ellipse id="Oval_3_" class="st3" cx="77.5" cy="45.9" rx="38" ry="19"/>
					</g>
					
						<linearGradient id="Rectangle-path_18_" gradientUnits="userSpaceOnUse" x1="529.9253" y1="-0.7266" x2="529.9253" y2="-1.6714" gradientTransform="matrix(-209.0811 0 0 -90.5678 111834.7109 712.6664)">
						<stop  offset="0" style="stop-color:#DCDCDC"/>
						<stop  offset="1" style="stop-color:#6E6E6E;stop-opacity:0"/>
					</linearGradient>
					<rect id="Rectangle-path_13_" x="932.8" y="780.1" class="st18" width="209.1" height="90.6"/>
					<g id="illustration-darkpool" transform="translate(932.823158, 660.268188)">
						<path id="Shape_32_" class="st10" d="M130.8,72.9c-14.1,8.2-37,8.2-51.1,0s-14.1-21.5,0-29.7s37-8.2,51.1,0
							C145,51.4,145,64.7,130.8,72.9z"/>
						<path id="Shape_33_" class="st10" d="M179.7,153.2c-41.1,23.6-107.8,23.6-148.9,0s-41.1-61.9,0-85.5s107.8-23.6,148.9,0
							S220.8,129.6,179.7,153.2z"/>
						<path id="Shape_34_" class="st3" d="M179.7,150c-41.1,23.6-107.8,23.6-148.9,0s-41.1-61.9,0-85.5s107.8-23.6,148.9,0
							S220.8,126.4,179.7,150z"/>
						<path id="Shape_35_" class="st13" d="M3.2,61.3v38.3c0,14.9,9.8,29.9,29.6,41.4c39.6,22.8,103.7,22.8,143.3,0.1
							c19.6-11.3,29.5-26.1,29.6-41V61.3H3.2z"/>
						<path id="Shape_36_" class="st3" d="M176.1,102.1c-39.5,23-103.6,23-143.2,0s-39.5-60.3,0-83.3s103.7-23,143.2,0
							S215.6,79.1,176.1,102.1z"/>
						<path id="Shape_37_" class="st10" d="M105.3,108c-24.1,0-48.2-5.3-66.5-15.8C20.9,82.1,11.3,68.5,11.3,54s9.8-28,27.5-38.2
							c36.7-21,96.3-21,133,0C189.6,26,199.3,39.6,199.3,54s-9.8,28.1-27.5,38.3l-0.2-0.3l0.2,0.3C153.5,102.8,129.4,108,105.3,108z
							"/>
						<path id="Shape_38_" class="st10" d="M104.5,0c-23.9,0-47.8,5.3-66,15.9C20.9,26.1,11.3,39.5,11.3,54S21,81.9,38.5,92.2
							c36.4,21.1,95.7,21.1,132,0C188,82,197.7,68.5,197.7,54.1s-9.7-28-27.2-38.2C152.2,5.3,128.4,0,104.5,0z"/>
					</g>
					<g id="darknode" transform="translate(850.945263, 435.309558)">
						
							<linearGradient id="Rectangle-path-Copy_2_" gradientUnits="userSpaceOnUse" x1="-1168.9604" y1="-4.3901" x2="-1168.9604" y2="-5.3349" gradientTransform="matrix(-67.2568 0 0 -29.2154 -78586.8828 -98.1115)">
							<stop  offset="0" style="stop-color:#DCDCDC"/>
							<stop  offset="1" style="stop-color:#6E6E6E;stop-opacity:0"/>
						</linearGradient>
						<rect id="Rectangle-path-Copy_1_" x="0" y="30.7" class="st19" width="67.3" height="29.2"/>
						<g id="illustration-darknode">
							<path id="Shape_41_" class="st3" d="M0.3,25.8v7.6c0.3,2.1,1.5,3.9,3.3,4.9l22.6,13c4.4,2.5,9.7,2.5,14.1,0l22.6-12.8
								c1.9-1.1,3.1-3,3.3-5.1v-7.7L0.3,25.8L0.3,25.8z"/>
							
								<linearGradient id="Shape_72_" gradientUnits="userSpaceOnUse" x1="-1177.9023" y1="5.099" x2="-1177.9023" y2="3.9916" gradientTransform="matrix(66.0542 0 0 38.8555 77838.6953 -151.0372)">
								<stop  offset="0" style="stop-color:#FAFAFA"/>
								<stop  offset="1" style="stop-color:#FAFAFA"/>
							</linearGradient>
							<path id="Shape_42_" class="st20" d="M29,44.6L2.2,29.3C1,28.6,0.3,27.4,0.3,26s0.7-2.6,1.9-3.3l24.5-14
								c4.1-2.3,9.1-2.3,13.2,0l24.4,13.9c1.3,0.7,2,2,2,3.5c0,1.4-0.8,2.8-2,3.5l-26.2,15C35.3,46.2,31.8,46.2,29,44.6z"/>
							<ellipse id="Oval_4_" class="st3" cx="33.3" cy="25.8" rx="16.4" ry="7.9"/>
							<polygon id="Shape_43_" class="st10" points="33.3,27.1 20.9,20 20.9,15.7 33.3,22.8 							"/>
							<polygon id="Shape_44_" class="st21" points="45.7,20 33.3,27.1 33.3,22.8 45.7,15.7 							"/>
							<polygon id="Shape_45_" class="st22" points="45.7,15.7 33.3,22.8 20.9,15.7 33.3,8.6 							"/>
							<polygon id="Shape_46_" class="st23" points="45.7,11.4 33.3,18.5 20.9,11.4 33.3,4.3 							"/>
							<polygon id="Shape_47_" class="st10" points="33.3,18.5 20.9,11.4 20.9,7.1 33.3,14.1 							"/>
							<polygon id="Shape_48_" class="st21" points="45.7,11.4 33.3,18.5 33.3,14.1 45.7,7.1 							"/>
							<polygon id="Shape_49_" class="st22" points="45.7,7.2 33.2,14.1 20.9,6.9 33.4,0 							"/>
							<rect id="Rectangle-path_14_" x="33.2" y="18.4" class="st10" width="1" height="4.4"/>
							<polygon id="Shape_50_" class="st21" points="40.3,7.4 33.1,11.5 25.9,7.4 33.1,3.3 							"/>
							<polygon id="Shape_51_" class="st24" points="33.1,11.5 33.1,3.3 25.9,7.4 							"/>
						</g>
					</g>
					<g id="illustration-rentoken" transform="translate(353.000000, 462.000000)">
						<polygon id="Shape_52_" class="st21" points="0.8,27.8 0.8,25.1 3.3,25.1 						"/>
						<polyline id="Shape_53_" class="st21" points="90.5,26.2 88.2,28.8 89.7,28.8 90.5,28.5 						"/>
						<path id="Shape_54_" class="st21" d="M77.2,9.6c-17.6-10.1-46-10.1-63.4,0S-3.5,36,14,46.1s46,10.1,63.4,0
							c8.4-4.9,12.8-11.2,13-17.6C90.7,21.7,86.3,14.8,77.2,9.6"/>
						<path id="Shape_55_" class="st10" d="M12,31.5l9-19.8l0.8-0.1l1.5-0.2l1.5-0.2l-5.6,12.1L18,23l-1.5,3.3l-1.3-0.2l-2.6,5.7
							L12,31.5 M16,33.7l10.4-22.8l0.8-0.1l1.5-0.2l1.5-0.2l-5.5,12.1l-1.3-0.2l-2.9,6.4l-1.3-0.2L16.5,34L16,33.7 M20,36l11.8-26
							l0.8-0.1l1.5-0.2l1.5-0.2L30,21.6l-1.4-0.2l-4.4,9.5L23,30.7l-2.6,5.7L20,36 M23.9,38.3L37.2,9.2L38,9.1l1.5-0.2L41,8.7
							l-5.6,12.1l-1.3-0.2l-5.8,12.6L27,32.9l-2.6,5.7L23.9,38.3 M27.8,40.5L42.6,8.4l0.8-0.1L44.9,8l1.5-0.2l-5.6,12.1l-1.3-0.2
							l-7.3,15.8L31,35.2l-2.6,5.7L27.8,40.5 M31.8,42.8L48,7.6l0.8-0.1l1.5-0.2L51.8,7l-5.5,12L45,18.8l-8.7,18.9L35,37.5l-2.6,5.7
							L31.8,42.8 M35.8,45.1L53.3,6.7l0.8-0.1l1.2-0.2l0.3,0.2l1.1,0.7l-6.4,14L48.9,21l-8.7,19l-1.3-0.2l-2.6,5.7L35.8,45.1
							 M40.6,45.4L57.8,7.9l0.6,0.3l1.1,0.7l1.2,0.7l-6.5,14.1l-1.3-0.2l-8.7,18.9l-1.3-0.2l-1.5,3.2H40.6 M46,44.6l15.8-34.4
							l0.6,0.3l1.1,0.7l1.1,0.7L58.1,26l-1.3-0.2l-7.2,15.7l-1.3-0.2l-1.5,3.2L46,44.6 M51.4,43.7l14.4-31.3l0.6,0.3l1.1,0.6
							l1.1,0.7l-6.5,14.1L60.7,28l-5.8,12.6l-1.3-0.2l-1.5,3.2L51.4,43.7 M56.7,42.9l12.9-28.2l0.6,0.3l1.1,0.7l1.1,0.6L66,30.4
							l-1.3-0.2l-4.4,9.5L59,39.5l-1.5,3.2L56.7,42.9 M62.1,42l11.5-25l0.6,0.3l1.1,0.7l1.1,0.7l-6.4,14l-1.3-0.2l-2.9,6.4l-1.3-0.2
							L63,41.9L62.1,42 M67.5,41.2l10.1-22l0.6,0.3l1.1,0.7l1.1,0.7L73.9,35l-1.3-0.2l-1.5,3.3l-1.3-0.2l-1.5,3.2L67.5,41.2
							 M77.2,7.6c-17.6-10.1-46-10.1-63.4,0S-3.5,34,14,44.1s46,10.1,63.4,0S94.8,17.6,77.2,7.6"/>
						<polyline id="Shape_56_" class="st0" points="24.9,11.1 23.3,11.4 21.8,11.6 21,11.7 12,31.5 12.5,31.8 15.1,26.1 16.5,26.3 
							18,23 19.3,23.2 24.9,11.1 						"/>
						<polyline id="Shape_57_" class="st0" points="35.7,9.5 34.1,9.7 32.6,9.9 31.8,10 19.9,36 20.5,36.3 23.1,30.7 24.4,30.9 
							28.7,21.4 30.1,21.6 35.7,9.5 						"/>
						<polyline id="Shape_58_" class="st0" points="41,8.6 39.5,8.9 38,9.1 37.2,9.2 23.8,38.3 24.4,38.6 27,32.9 28.4,33.1 
							34.1,20.5 35.5,20.7 41,8.6 						"/>
						<polyline id="Shape_59_" class="st0" points="46.4,7.8 44.9,8 43.3,8.3 42.6,8.4 27.8,40.5 28.4,40.9 31,35.2 32.3,35.4 
							39.6,19.6 40.9,19.8 46.4,7.8 						"/>
						<polyline id="Shape_60_" class="st0" points="51.8,7 50.3,7.2 48.7,7.4 48,7.6 31.8,42.8 32.3,43.1 34.9,37.5 36.3,37.7 
							44.9,18.8 46.3,19 51.8,7 						"/>
						<polyline id="Shape_61_" class="st0" points="56.7,7.2 55.5,6.6 55.3,6.4 54.1,6.6 53.3,6.7 35.7,45.1 36.3,45.4 38.9,39.7 
							40.2,40 48.9,21.1 50.2,21.3 56.7,7.2 						"/>
						<polyline id="Shape_62_" class="st0" points="60.6,9.5 59.5,8.9 58.4,8.2 57.8,7.9 40.6,45.4 41.4,45.2 42.8,42.1 44.1,42.3 
							52.8,23.4 54.2,23.6 60.6,9.5 						"/>
						<polyline id="Shape_63_" class="st0" points="64.6,11.8 63.5,11.1 62.3,10.5 61.8,10.2 46,44.5 46.7,44.4 48.2,41.2 
							49.6,41.4 56.8,25.7 58.1,25.9 64.6,11.8 						"/>
						<polyline id="Shape_64_" class="st0" points="68.6,14 67.4,13.4 66.3,12.8 65.7,12.4 51.4,43.7 52.1,43.6 53.6,40.3 
							54.9,40.6 60.7,28 62.1,28.2 68.6,14 						"/>
						<polyline id="Shape_65_" class="st0" points="72.5,16.3 71.4,15.7 70.3,15 69.7,14.7 56.7,42.9 57.5,42.8 59,39.5 60.3,39.7 
							64.7,30.2 66,30.4 72.5,16.3 						"/>
						<polyline id="Shape_66_" class="st0" points="76.5,18.6 75.3,17.9 74.2,17.3 73.6,17 62.1,42 62.9,41.9 64.4,38.7 65.7,38.9 
							68.6,32.5 70,32.7 76.5,18.6 						"/>
						<polyline id="Shape_67_" class="st0" points="80.4,20.9 79.3,20.2 78.2,19.6 77.6,19.2 67.5,41.2 68.3,41.1 69.8,37.9 
							71.1,38.1 72.6,34.8 73.9,35 80.4,20.9 						"/>
						<polyline id="Shape_68_" class="st0" points="30.3,10.3 28.7,10.5 27.2,10.8 26.4,10.9 15.9,33.7 16.5,34 19.1,28.4 
							20.4,28.6 23.4,22.2 24.7,22.4 30.3,10.3 						"/>
					</g>
				</g>
			</g>
		</g>
	</g>
</g>
</svg>
