<?xml version="1.0" encoding="UTF-8"?>
<svg width="754px" height="893px" viewBox="0 0 754 893" version="1.1" xmlns="http://www.w3.org/2000/svg" xmlns:xlink="http://www.w3.org/1999/xlink">
    <!-- Generator: Sketch 52.6 (67491) - http://www.bohemiancoding.com/sketch -->
    <title>illustration-renex</title>
    <desc>Created with Sketch.</desc>
    <defs>
        <rect id="path-1" x="0" y="0" width="249.654255" height="507.518826"></rect>
        <linearGradient x1="50%" y1="101.802422%" x2="50%" y2="7.31975784%" id="linearGradient-3">
            <stop stop-color="#DCDCDC" offset="0%"></stop>
            <stop stop-color="#6E6E6E" stop-opacity="0" offset="100%"></stop>
        </linearGradient>
        <linearGradient x1="49.9726334%" y1="103.26464%" x2="49.9726334%" y2="-7.47795317%" id="linearGradient-4">
            <stop stop-color="#FAFAFA" offset="0%"></stop>
            <stop stop-color="#FAFAFA" offset="100%"></stop>
        </linearGradient>
        <path d="M0,0 C66.4258186,46.5323831 118.836749,71.0705474 157.23279,73.6144928 C195.628831,76.1584381 208.900268,86.5139937 197.047101,104.681159 L249.654255,507.518826 L0,507.518826 L0,0 Z" id="path-5"></path>
        <rect id="path-7" x="0" y="0" width="249.654255" height="392.227664"></rect>
        <linearGradient x1="-0.000180998386%" y1="50.0060298%" x2="100.000181%" y2="50.0060298%" id="linearGradient-9">
            <stop stop-color="#FAFAFA" offset="0%"></stop>
            <stop stop-color="#FAFAFA" offset="100%"></stop>
        </linearGradient>
        <linearGradient x1="0%" y1="50.02236%" x2="99.9766519%" y2="50.02236%" id="linearGradient-10">
            <stop stop-color="#006FE8" offset="0%"></stop>
            <stop stop-color="#006BEA" offset="31%"></stop>
            <stop stop-color="#005EEE" offset="65%"></stop>
            <stop stop-color="#0048F6" offset="100%"></stop>
            <stop stop-color="#0048F6" offset="100%"></stop>
        </linearGradient>
    </defs>
    <g id="renproject.com" stroke="none" stroke-width="1" fill="none" fill-rule="evenodd">
        <g id="home" transform="translate(-715.000000, -2018.000000)">
            <g id="section:renex" transform="translate(0.000000, 2003.000000)">
                <g id="illustration-renex" transform="translate(715.000000, 15.000000)">
                    <g id="Group-18-Copy" opacity="0.4" transform="translate(8.000000, 522.127536)">
                        <mask id="mask-2" fill="white">
                            <use xlink:href="#path-1"></use>
                        </mask>
                        <g id="Rectangle-9"></g>
                        <g id="Asset-9@large" mask="url(#mask-2)" fill="#E1E1E1" fill-rule="nonzero">
                            <g transform="translate(29.720745, 10.697118)" id="Shape">
                                <path d="M457.74113,400.543219 C454.173472,400.610762 450.647745,399.761715 447.498097,398.076544 L300.569699,312.864125 C294.866651,309.962959 288.129856,309.962959 282.426809,312.864125 L234.447457,340.692707 C228.04353,343.953256 220.476896,343.953256 214.072969,340.692707 L116.351302,283.891902 C113.743775,282.697368 111.990526,280.170745 111.776527,277.299152 C111.974043,274.470759 113.682724,271.972557 116.239722,270.773675 L163.728123,243.214184 C165.465064,242.215694 166.536789,240.358905 166.536789,238.348107 C166.536789,236.337308 165.465064,234.48052 163.728123,233.482029 L3.90109022,141.542313 C1.48685503,140.139675 3.41149946e-16,137.550004 0,134.747744 C-3.41149946e-16,131.945485 1.48685503,129.355814 3.90109022,127.953175 L223.155572,0 L224.271371,1.95091592 L4.99457313,130.061061 C3.26856457,131.062528 2.20532137,132.913169 2.20532137,134.915927 C2.20532137,136.918684 3.26856457,138.769325 4.99457313,139.770792 L164.821606,231.710508 C167.246749,233.110196 168.742059,235.706006 168.742059,238.516289 C168.742059,241.326572 167.246749,243.922382 164.821606,245.32207 L117.400153,272.72459 C115.564278,273.517412 114.276756,275.219745 114.008125,277.209455 C114.254924,279.265819 115.572888,281.034485 117.467101,281.851289 L215.188768,338.607245 C220.891815,341.508412 227.62861,341.508412 233.331658,338.607245 L281.31101,310.778663 C287.715796,307.521729 295.280712,307.521729 301.685498,310.778663 L448.613896,395.991082 C454.316943,398.892249 461.053738,398.892249 466.756785,395.991082 L629.797319,301.405297 C636.201246,298.144748 643.76788,298.144748 650.171807,301.405297 L699.043798,329.749638 C704.746846,332.650805 711.483641,332.650805 717.186688,329.749638 L804.910797,278.868854 L806.026596,280.81977 L718.302487,331.879949 C711.89856,335.140498 704.331926,335.140498 697.927999,331.879949 L649.056008,303.535607 C643.352961,300.634441 636.616165,300.634441 630.913118,303.535607 L467.872584,398.121393 C464.755864,399.782686 461.268445,400.61632 457.74113,400.543219 Z"></path>
                                <path d="M114.067104,202.343807 C108.517601,205.130481 101.956477,205.130481 96.4069738,202.343807 C91.5140255,199.553028 91.4912676,195.029267 96.4069738,192.260994 C101.956477,189.47432 108.517601,189.47432 114.067104,192.260994 C118.891778,195.051773 118.914536,199.553028 114.067104,202.343807 Z"></path>
                            </g>
                        </g>
                    </g>
                    <g id="darknode-copy" transform="translate(191.000000, 813.000000)" fill-rule="nonzero">
                        <rect id="Rectangle-path-Copy" fill="url(#linearGradient-3)" opacity="0.2" transform="translate(46.500000, 62.756098) rotate(180.000000) translate(-46.500000, -62.756098) " x="0" y="42.5121951" width="93" height="40.4878049"></rect>
                        <g id="illustration-darknode">
                            <path d="M0.414715719,35.735712 L0.414715719,46.3187018 C0.773511526,49.1916842 2.48105442,51.7272341 5.01961538,53.1565696 L36.2549666,71.1814792 C42.2857006,74.6343906 49.7158713,74.6343906 55.7466054,71.1814792 L86.9819565,53.3981904 C89.569418,51.9193252 91.2759262,49.2908174 91.5624916,46.3428639 L91.5624916,35.735712 L0.414715719,35.735712 Z" id="Shape" fill="#E1E1E1"></path>
                            <path d="M40.0558361,61.8307553 L3.07045151,40.6406137 C1.42215758,39.7010095 0.405983773,37.9593887 0.405983773,36.0739811 C0.405983773,34.1885736 1.42215758,32.4469528 3.07045151,31.5073485 L36.9615385,12.0810386 C42.6078132,8.84825017 49.5643105,8.84825017 55.2105853,12.0810386 L88.9311204,31.4107002 C90.6712619,32.4080556 91.743038,34.2499544 91.743038,36.2431157 C91.743038,38.2362769 90.6712619,40.0781757 88.9311204,41.0755311 L52.6766722,61.8307553 C48.7704301,64.0615436 43.9620783,64.0615436 40.0558361,61.8307553 Z" id="Shape" fill="url(#linearGradient-4)"></path>
                            <ellipse id="Oval" fill="#E1E1E1" cx="46.0495151" cy="35.735712" rx="22.6346656" ry="10.9454209"></ellipse>
                            <polygon id="Shape" fill="#006FE8" points="46.000786 37.5720299 28.8968729 27.7622266 28.8968729 21.7700315 46.000786 31.5798348"></polygon>
                            <polygon id="Shape" fill="#0048F6" points="63.1290635 27.7622266 46.000786 37.5720299 46.000786 31.5798348 63.1290635 21.7700315"></polygon>
                            <polygon id="Shape" fill="#0075F5" points="63.1290635 21.7700315 46.000786 31.5798348 28.8968729 21.7700315 46.000786 11.9843902"></polygon>
                            <polygon id="Shape" fill="#FAF2F8" points="63.1290635 15.8019984 46.000786 25.5876397 28.8968729 15.8019984 46.000786 5.99219512"></polygon>
                            <polygon id="Shape" fill="#006FE8" points="46.000786 25.5876397 28.8968729 15.7778363 28.8968729 9.8098033 46.000786 19.5954445"></polygon>
                            <polygon id="Shape" fill="#0048F6" points="63.1290635 15.7778363 46.000786 25.5876397 46.000786 19.5954445 63.1290635 9.8098033"></polygon>
                            <polygon id="Shape" fill="#0075F5" points="63.1290635 10.027262 45.8789632 19.5954445 28.8968729 9.56818253 46.1469732 0"></polygon>
                            <polygon id="Rectangle-path" fill="#006FE8" points="45.9520569 25.4426672 46.1957023 25.4426672 46.1957023 31.5798348 45.9520569 31.5798348"></polygon>
                            <polygon id="Shape" fill="#0048F6" points="55.6978763 10.2447207 45.7327759 15.9469709 35.7920401 10.2447207 45.7327759 4.5424705"></polygon>
                            <polygon id="Shape" fill="#003269" points="45.7327759 15.9469709 45.7327759 4.5424705 35.7920401 10.2447207"></polygon>
                        </g>
                    </g>
                    <g id="Group-18-Copy-3" opacity="0.4" transform="translate(599.816123, 393.808696) scale(-1, 1) translate(-599.816123, -393.808696) translate(474.974638, 139.872464)">
                        <mask id="mask-6" fill="white">
                            <use xlink:href="#path-5"></use>
                        </mask>
                        <g id="Rectangle-9"></g>
                        <g id="Asset-9@large" mask="url(#mask-6)" fill="#E1E1E1" fill-rule="nonzero">
                            <g transform="translate(29.720745, 10.697118)" id="Shape">
                                <path d="M457.74113,400.543219 C454.173472,400.610762 450.647745,399.761715 447.498097,398.076544 L300.569699,312.864125 C294.866651,309.962959 288.129856,309.962959 282.426809,312.864125 L234.447457,340.692707 C228.04353,343.953256 220.476896,343.953256 214.072969,340.692707 L116.351302,283.891902 C113.743775,282.697368 111.990526,280.170745 111.776527,277.299152 C111.974043,274.470759 113.682724,271.972557 116.239722,270.773675 L163.728123,243.214184 C165.465064,242.215694 166.536789,240.358905 166.536789,238.348107 C166.536789,236.337308 165.465064,234.48052 163.728123,233.482029 L3.90109022,141.542313 C1.48685503,140.139675 3.41149946e-16,137.550004 0,134.747744 C-3.41149946e-16,131.945485 1.48685503,129.355814 3.90109022,127.953175 L223.155572,0 L224.271371,1.95091592 L4.99457313,130.061061 C3.26856457,131.062528 2.20532137,132.913169 2.20532137,134.915927 C2.20532137,136.918684 3.26856457,138.769325 4.99457313,139.770792 L164.821606,231.710508 C167.246749,233.110196 168.742059,235.706006 168.742059,238.516289 C168.742059,241.326572 167.246749,243.922382 164.821606,245.32207 L117.400153,272.72459 C115.564278,273.517412 114.276756,275.219745 114.008125,277.209455 C114.254924,279.265819 115.572888,281.034485 117.467101,281.851289 L215.188768,338.607245 C220.891815,341.508412 227.62861,341.508412 233.331658,338.607245 L281.31101,310.778663 C287.715796,307.521729 295.280712,307.521729 301.685498,310.778663 L448.613896,395.991082 C454.316943,398.892249 461.053738,398.892249 466.756785,395.991082 L629.797319,301.405297 C636.201246,298.144748 643.76788,298.144748 650.171807,301.405297 L699.043798,329.749638 C704.746846,332.650805 711.483641,332.650805 717.186688,329.749638 L804.910797,278.868854 L806.026596,280.81977 L718.302487,331.879949 C711.89856,335.140498 704.331926,335.140498 697.927999,331.879949 L649.056008,303.535607 C643.352961,300.634441 636.616165,300.634441 630.913118,303.535607 L467.872584,398.121393 C464.755864,399.782686 461.268445,400.61632 457.74113,400.543219 Z"></path>
                                <path d="M114.067104,202.343807 C108.517601,205.130481 101.956477,205.130481 96.4069738,202.343807 C91.5140255,199.553028 91.4912676,195.029267 96.4069738,192.260994 C101.956477,189.47432 108.517601,189.47432 114.067104,192.260994 C118.891778,195.051773 118.914536,199.553028 114.067104,202.343807 Z"></path>
                            </g>
                        </g>
                    </g>
                    <g id="Group-18-Copy-2" opacity="0.4" transform="translate(198.100775, 295.047954) rotate(-180.000000) translate(-198.100775, -295.047954) translate(73.259289, 98.517519)">
                        <mask id="mask-8" fill="white">
                            <use xlink:href="#path-7"></use>
                        </mask>
                        <g id="Rectangle-9"></g>
                        <g id="Asset-9@large" mask="url(#mask-8)" fill="#E1E1E1" fill-rule="nonzero">
                            <g transform="translate(29.720745, -104.594044)">
                                <path d="M457.74113,400.543219 C454.173472,400.610762 450.647745,399.761715 447.498097,398.076544 L300.569699,312.864125 C294.866651,309.962959 288.129856,309.962959 282.426809,312.864125 L234.447457,340.692707 C228.04353,343.953256 220.476896,343.953256 214.072969,340.692707 L116.351302,283.891902 C113.743775,282.697368 111.990526,280.170745 111.776527,277.299152 C111.974043,274.470759 113.682724,271.972557 116.239722,270.773675 L163.728123,243.214184 C165.465064,242.215694 166.536789,240.358905 166.536789,238.348107 C166.536789,236.337308 165.465064,234.48052 163.728123,233.482029 L3.90109022,141.542313 C1.48685503,140.139675 3.41149946e-16,137.550004 0,134.747744 C-3.41149946e-16,131.945485 1.48685503,129.355814 3.90109022,127.953175 L223.155572,0 L224.271371,1.95091592 L4.99457313,130.061061 C3.26856457,131.062528 2.20532137,132.913169 2.20532137,134.915927 C2.20532137,136.918684 3.26856457,138.769325 4.99457313,139.770792 L164.821606,231.710508 C167.246749,233.110196 168.742059,235.706006 168.742059,238.516289 C168.742059,241.326572 167.246749,243.922382 164.821606,245.32207 L117.400153,272.72459 C115.564278,273.517412 114.276756,275.219745 114.008125,277.209455 C114.254924,279.265819 115.572888,281.034485 117.467101,281.851289 L215.188768,338.607245 C220.891815,341.508412 227.62861,341.508412 233.331658,338.607245 L281.31101,310.778663 C287.715796,307.521729 295.280712,307.521729 301.685498,310.778663 L448.613896,395.991082 C454.316943,398.892249 461.053738,398.892249 466.756785,395.991082 L629.797319,301.405297 C636.201246,298.144748 643.76788,298.144748 650.171807,301.405297 L699.043798,329.749638 C704.746846,332.650805 711.483641,332.650805 717.186688,329.749638 L804.910797,278.868854 L806.026596,280.81977 L718.302487,331.879949 C711.89856,335.140498 704.331926,335.140498 697.927999,331.879949 L649.056008,303.535607 C643.352961,300.634441 636.616165,300.634441 630.913118,303.535607 L467.872584,398.121393 C464.755864,399.782686 461.268445,400.61632 457.74113,400.543219 Z" id="Shape"></path>
                                <path d="M114.067104,202.343807 C108.517601,205.130481 101.956477,205.130481 96.4069738,202.343807 C91.5140255,199.553028 91.4912676,195.029267 96.4069738,192.260994 C101.956477,189.47432 108.517601,189.47432 114.067104,192.260994 C118.891778,195.051773 118.914536,199.553028 114.067104,202.343807 Z" id="Shape"></path>
                                <rect id="Rectangle-path" transform="translate(128.393617, 184.228145) rotate(-30.270000) translate(-128.393617, -184.228145) " x="101.050532" y="183.039577" width="54.6861702" height="2.37713736"></rect>
                            </g>
                        </g>
                    </g>
                    <g id="darknode-copy-3" transform="translate(8.000000, 198.000000)" fill-rule="nonzero">
                        <rect id="Rectangle-path-Copy" fill="url(#linearGradient-3)" opacity="0.2" transform="translate(46.500000, 62.756098) rotate(180.000000) translate(-46.500000, -62.756098) " x="0" y="42.5121951" width="93" height="40.4878049"></rect>
                        <g id="illustration-darknode">
                            <path d="M0.414715719,35.735712 L0.414715719,46.3187018 C0.773511526,49.1916842 2.48105442,51.7272341 5.01961538,53.1565696 L36.2549666,71.1814792 C42.2857006,74.6343906 49.7158713,74.6343906 55.7466054,71.1814792 L86.9819565,53.3981904 C89.569418,51.9193252 91.2759262,49.2908174 91.5624916,46.3428639 L91.5624916,35.735712 L0.414715719,35.735712 Z" id="Shape" fill="#E1E1E1"></path>
                            <path d="M40.0558361,61.8307553 L3.07045151,40.6406137 C1.42215758,39.7010095 0.405983773,37.9593887 0.405983773,36.0739811 C0.405983773,34.1885736 1.42215758,32.4469528 3.07045151,31.5073485 L36.9615385,12.0810386 C42.6078132,8.84825017 49.5643105,8.84825017 55.2105853,12.0810386 L88.9311204,31.4107002 C90.6712619,32.4080556 91.743038,34.2499544 91.743038,36.2431157 C91.743038,38.2362769 90.6712619,40.0781757 88.9311204,41.0755311 L52.6766722,61.8307553 C48.7704301,64.0615436 43.9620783,64.0615436 40.0558361,61.8307553 Z" id="Shape" fill="url(#linearGradient-4)"></path>
                            <ellipse id="Oval" fill="#E1E1E1" cx="46.0495151" cy="35.735712" rx="22.6346656" ry="10.9454209"></ellipse>
                            <polygon id="Shape" fill="#006FE8" points="46.000786 37.5720299 28.8968729 27.7622266 28.8968729 21.7700315 46.000786 31.5798348"></polygon>
                            <polygon id="Shape" fill="#0048F6" points="63.1290635 27.7622266 46.000786 37.5720299 46.000786 31.5798348 63.1290635 21.7700315"></polygon>
                            <polygon id="Shape" fill="#0075F5" points="63.1290635 21.7700315 46.000786 31.5798348 28.8968729 21.7700315 46.000786 11.9843902"></polygon>
                            <polygon id="Shape" fill="#FAF2F8" points="63.1290635 15.8019984 46.000786 25.5876397 28.8968729 15.8019984 46.000786 5.99219512"></polygon>
                            <polygon id="Shape" fill="#006FE8" points="46.000786 25.5876397 28.8968729 15.7778363 28.8968729 9.8098033 46.000786 19.5954445"></polygon>
                            <polygon id="Shape" fill="#0048F6" points="63.1290635 15.7778363 46.000786 25.5876397 46.000786 19.5954445 63.1290635 9.8098033"></polygon>
                            <polygon id="Shape" fill="#0075F5" points="63.1290635 10.027262 45.8789632 19.5954445 28.8968729 9.56818253 46.1469732 0"></polygon>
                            <polygon id="Rectangle-path" fill="#006FE8" points="45.9520569 25.4426672 46.1957023 25.4426672 46.1957023 31.5798348 45.9520569 31.5798348"></polygon>
                            <polygon id="Shape" fill="#0048F6" points="55.6978763 10.2447207 45.7327759 15.9469709 35.7920401 10.2447207 45.7327759 4.5424705"></polygon>
                            <polygon id="Shape" fill="#003269" points="45.7327759 15.9469709 45.7327759 4.5424705 35.7920401 10.2447207"></polygon>
                        </g>
                    </g>
                    <g id="darknode-copy-5" transform="translate(523.000000, 157.000000)" fill-rule="nonzero">
                        <rect id="Rectangle-path-Copy" fill="url(#linearGradient-3)" opacity="0.2" transform="translate(46.500000, 62.756098) rotate(180.000000) translate(-46.500000, -62.756098) " x="0" y="42.5121951" width="93" height="40.4878049"></rect>
                        <g id="illustration-darknode">
                            <path d="M0.414715719,35.735712 L0.414715719,46.3187018 C0.773511526,49.1916842 2.48105442,51.7272341 5.01961538,53.1565696 L36.2549666,71.1814792 C42.2857006,74.6343906 49.7158713,74.6343906 55.7466054,71.1814792 L86.9819565,53.3981904 C89.569418,51.9193252 91.2759262,49.2908174 91.5624916,46.3428639 L91.5624916,35.735712 L0.414715719,35.735712 Z" id="Shape" fill="#E1E1E1"></path>
                            <path d="M40.0558361,61.8307553 L3.07045151,40.6406137 C1.42215758,39.7010095 0.405983773,37.9593887 0.405983773,36.0739811 C0.405983773,34.1885736 1.42215758,32.4469528 3.07045151,31.5073485 L36.9615385,12.0810386 C42.6078132,8.84825017 49.5643105,8.84825017 55.2105853,12.0810386 L88.9311204,31.4107002 C90.6712619,32.4080556 91.743038,34.2499544 91.743038,36.2431157 C91.743038,38.2362769 90.6712619,40.0781757 88.9311204,41.0755311 L52.6766722,61.8307553 C48.7704301,64.0615436 43.9620783,64.0615436 40.0558361,61.8307553 Z" id="Shape" fill="url(#linearGradient-4)"></path>
                            <ellipse id="Oval" fill="#E1E1E1" cx="46.0495151" cy="35.735712" rx="22.6346656" ry="10.9454209"></ellipse>
                            <polygon id="Shape" fill="#006FE8" points="46.000786 37.5720299 28.8968729 27.7622266 28.8968729 21.7700315 46.000786 31.5798348"></polygon>
                            <polygon id="Shape" fill="#0048F6" points="63.1290635 27.7622266 46.000786 37.5720299 46.000786 31.5798348 63.1290635 21.7700315"></polygon>
                            <polygon id="Shape" fill="#0075F5" points="63.1290635 21.7700315 46.000786 31.5798348 28.8968729 21.7700315 46.000786 11.9843902"></polygon>
                            <polygon id="Shape" fill="#FAF2F8" points="63.1290635 15.8019984 46.000786 25.5876397 28.8968729 15.8019984 46.000786 5.99219512"></polygon>
                            <polygon id="Shape" fill="#006FE8" points="46.000786 25.5876397 28.8968729 15.7778363 28.8968729 9.8098033 46.000786 19.5954445"></polygon>
                            <polygon id="Shape" fill="#0048F6" points="63.1290635 15.7778363 46.000786 25.5876397 46.000786 19.5954445 63.1290635 9.8098033"></polygon>
                            <polygon id="Shape" fill="#0075F5" points="63.1290635 10.027262 45.8789632 19.5954445 28.8968729 9.56818253 46.1469732 0"></polygon>
                            <polygon id="Rectangle-path" fill="#006FE8" points="45.9520569 25.4426672 46.1957023 25.4426672 46.1957023 31.5798348 45.9520569 31.5798348"></polygon>
                            <polygon id="Shape" fill="#0048F6" points="55.6978763 10.2447207 45.7327759 15.9469709 35.7920401 10.2447207 45.7327759 4.5424705"></polygon>
                            <polygon id="Shape" fill="#003269" points="45.7327759 15.9469709 45.7327759 4.5424705 35.7920401 10.2447207"></polygon>
                        </g>
                    </g>
                    <g id="darknode-copy-4" transform="translate(661.000000, 0.000000)" fill-rule="nonzero">
                        <rect id="Rectangle-path-Copy" fill="url(#linearGradient-3)" opacity="0.2" transform="translate(46.500000, 62.756098) rotate(180.000000) translate(-46.500000, -62.756098) " x="0" y="42.5121951" width="93" height="40.4878049"></rect>
                        <g id="illustration-darknode">
                            <path d="M0.414715719,35.735712 L0.414715719,46.3187018 C0.773511526,49.1916842 2.48105442,51.7272341 5.01961538,53.1565696 L36.2549666,71.1814792 C42.2857006,74.6343906 49.7158713,74.6343906 55.7466054,71.1814792 L86.9819565,53.3981904 C89.569418,51.9193252 91.2759262,49.2908174 91.5624916,46.3428639 L91.5624916,35.735712 L0.414715719,35.735712 Z" id="Shape" fill="#E1E1E1"></path>
                            <path d="M40.0558361,61.8307553 L3.07045151,40.6406137 C1.42215758,39.7010095 0.405983773,37.9593887 0.405983773,36.0739811 C0.405983773,34.1885736 1.42215758,32.4469528 3.07045151,31.5073485 L36.9615385,12.0810386 C42.6078132,8.84825017 49.5643105,8.84825017 55.2105853,12.0810386 L88.9311204,31.4107002 C90.6712619,32.4080556 91.743038,34.2499544 91.743038,36.2431157 C91.743038,38.2362769 90.6712619,40.0781757 88.9311204,41.0755311 L52.6766722,61.8307553 C48.7704301,64.0615436 43.9620783,64.0615436 40.0558361,61.8307553 Z" id="Shape" fill="url(#linearGradient-4)"></path>
                            <ellipse id="Oval" fill="#E1E1E1" cx="46.0495151" cy="35.735712" rx="22.6346656" ry="10.9454209"></ellipse>
                            <polygon id="Shape" fill="#006FE8" points="46.000786 37.5720299 28.8968729 27.7622266 28.8968729 21.7700315 46.000786 31.5798348"></polygon>
                            <polygon id="Shape" fill="#0048F6" points="63.1290635 27.7622266 46.000786 37.5720299 46.000786 31.5798348 63.1290635 21.7700315"></polygon>
                            <polygon id="Shape" fill="#0075F5" points="63.1290635 21.7700315 46.000786 31.5798348 28.8968729 21.7700315 46.000786 11.9843902"></polygon>
                            <polygon id="Shape" fill="#FAF2F8" points="63.1290635 15.8019984 46.000786 25.5876397 28.8968729 15.8019984 46.000786 5.99219512"></polygon>
                            <polygon id="Shape" fill="#006FE8" points="46.000786 25.5876397 28.8968729 15.7778363 28.8968729 9.8098033 46.000786 19.5954445"></polygon>
                            <polygon id="Shape" fill="#0048F6" points="63.1290635 15.7778363 46.000786 25.5876397 46.000786 19.5954445 63.1290635 9.8098033"></polygon>
                            <polygon id="Shape" fill="#0075F5" points="63.1290635 10.027262 45.8789632 19.5954445 28.8968729 9.56818253 46.1469732 0"></polygon>
                            <polygon id="Rectangle-path" fill="#006FE8" points="45.9520569 25.4426672 46.1957023 25.4426672 46.1957023 31.5798348 45.9520569 31.5798348"></polygon>
                            <polygon id="Shape" fill="#0048F6" points="55.6978763 10.2447207 45.7327759 15.9469709 35.7920401 10.2447207 45.7327759 4.5424705"></polygon>
                            <polygon id="Shape" fill="#003269" points="45.7327759 15.9469709 45.7327759 4.5424705 35.7920401 10.2447207"></polygon>
                        </g>
                    </g>
                    <polygon id="Rectangle-path-Copy-6" stroke="#E1E1E1" stroke-width="3.21499991" fill="#E1E1E1" fill-rule="nonzero" transform="translate(581.896153, 638.764369) rotate(-150.000000) translate(-581.896153, -638.764369) " points="454.946474 636.70515 708.845832 636.70515 708.845832 640.823588 454.946474 640.823588"></polygon>
                    <polygon id="Rectangle-path-Copy-13" stroke="#E1E1E1" stroke-width="3.21499991" fill="#E1E1E1" fill-rule="nonzero" transform="translate(569.749413, 648.219441) rotate(-150.000000) translate(-569.749413, -648.219441) " points="442.799734 646.160222 696.699093 646.160222 696.699093 650.27866 442.799734 650.27866"></polygon>
                    <path d="M735.017915,740.385524 C708.607736,753.708356 677.383233,753.708356 650.973054,740.385524 C627.687429,727.04307 627.579124,705.415383 650.973054,692.18053 C677.383233,678.857698 708.607736,678.857698 735.017915,692.18053 C757.978624,705.522983 758.086929,727.04307 735.017915,740.385524 Z" id="Shape-Copy-4" fill="#E1E1E1" fill-rule="nonzero"></path>
                    <g id="Asset-16@large" transform="translate(0.000000, 321.000000)">
                        <polygon id="Shape" fill="#E1E1E1" fill-rule="nonzero" points="567.824 175.201064 567.824 165.995965 557.312 169.053659 562.56 175.201064"></polygon>
                        <polygon id="Shape" fill="#E1E1E1" fill-rule="nonzero" points="0 174.608736 0 165.019424 12.512 165.019424 1.712 177.410288"></polygon>
                        <path d="M298.24,355.957206 L553.12,209.23592 C562.217317,203.999758 567.824771,194.298796 567.824,183.797827 L567.824,169.053659 L297.824,324.723902 C287.32505,330.792649 274.38695,330.792649 263.888,324.723902 L0,169.74204 L0,184.550244 C-0.000122351336,195.017544 5.57232753,204.692384 14.624,209.94031 L262.752,355.90918 C273.723449,362.26688 287.251402,362.285188 298.24,355.957206 Z" id="Shape" fill="#E1E1E1" fill-rule="nonzero"></path>
                        <path d="M263.888,324.659867 L2.864,171.470998 C1.09232983,170.447067 0.00102774856,168.555376 0.00102774856,166.508248 C0.00102774856,164.461121 1.09232983,162.56943 2.864,161.545499 L278.064,3.1697561 C283.549062,0.00119847503 290.306938,0.00119847503 295.792,3.1697561 L564.96,161.065233 C566.73167,162.089164 567.822972,163.980855 567.822972,166.027982 C567.822972,168.07511 566.73167,169.966801 564.96,170.990732 L297.76,324.675876 C287.276227,330.721627 274.36606,330.715525 263.888,324.659867 Z" id="Shape" fill="url(#linearGradient-9)" fill-rule="nonzero"></path>
                        <path d="M467.6,148.802439 C466.734929,148.815302 465.881032,148.605843 465.12,148.194102 C464.485295,147.90179 464.057255,147.289966 464,146.593215 C464.04751,145.897665 464.470955,145.283635 465.104,144.992328 C466.649939,144.194664 468.486061,144.194664 470.032,144.992328 C470.666705,145.28464 471.094745,145.896464 471.152,146.593215 C471.10449,147.288765 470.681045,147.902795 470.048,148.194102 C469.2975,148.603208 468.454592,148.812674 467.6,148.802439 Z M467.6,145.024346 C466.858632,145.010935 466.126134,145.187273 465.472,145.53663 C465.044903,145.720059 464.746674,146.115888 464.688,146.577206 C464.747512,147.046844 465.052259,147.449333 465.488,147.633792 C466.837897,148.308082 468.426103,148.308082 469.776,147.633792 C470.203097,147.450362 470.501326,147.054533 470.56,146.593215 C470.500488,146.123577 470.195741,145.721088 469.76,145.53663 C469.081079,145.176571 468.32001,144.999994 467.552,145.024346 L467.6,145.024346 Z" id="Shape" stroke="#E1E1E1" stroke-width="1.472" fill="#E1E1E1" fill-rule="nonzero"></path>
                        <polygon id="Rectangle-path" stroke="#E1E1E1" stroke-width="1.472" fill="#E1E1E1" fill-rule="nonzero" transform="translate(226.626774, 249.717751) rotate(-30.120000) translate(-226.626774, -249.717751) " points="205.418774 248.917308 247.834774 248.917308 247.834774 249.557663 205.418774 249.557663"></polygon>
                        <path d="M203.68,260.672417 C204.545071,260.659554 205.398968,260.869012 206.16,261.280754 C206.794705,261.573066 207.222745,262.18489 207.28,262.881641 C207.229125,263.57601 206.806747,264.188492 206.176,264.482528 C204.630061,265.280192 202.793939,265.280192 201.248,264.482528 C200.613295,264.190216 200.185255,263.578392 200.128,262.881641 C200.178875,262.187271 200.601253,261.57479 201.232,261.280754 C201.9825,260.871648 202.825408,260.662182 203.68,260.672417 Z M205.856,263.874191 C206.283097,263.690761 206.581326,263.294932 206.64,262.833614 C206.580488,262.363976 206.275741,261.961487 205.84,261.777029 C204.490103,261.102738 202.901897,261.102738 201.552,261.777029 C201.124903,261.960458 200.826674,262.356287 200.768,262.817605 C200.827512,263.287243 201.132259,263.689732 201.568,263.874191 C202.917897,264.548481 204.506103,264.548481 205.856,263.874191 Z" id="Shape" stroke="#E1E1E1" stroke-width="1.472" fill="#E1E1E1" fill-rule="nonzero"></path>
                        <polyline id="Shape" fill="#0048F6" fill-rule="nonzero" points="473.632 141.902616 473.632 140.093614 472.656 140.653925 473.136 141.902616"></polyline>
                        <polygon id="Shape" fill="#0048F6" fill-rule="nonzero" points="451.248 143.503503 451.232 146.176984 452.24 146.481153 452.928 144.816231"></polygon>
                        <polygon id="Shape" fill="#0048F6" fill-rule="nonzero" points="189.488 258.431175 189.488 256.686208 190.16 256.686208 189.824 258.271086"></polygon>
                        <polygon id="Shape" fill="#0048F6" fill-rule="nonzero" points="233.296 258.51122 233.296 256.285987 232.352 256.686208 233.072 258.51122"></polygon>
                        <path d="M226.832,249.418182 C218.256,244.455432 204.432,244.455432 195.856,249.418182 C187.28,254.380931 187.376,262.417384 195.952,267.364124 C204.528,272.310865 218.352,272.326874 226.928,267.364124 C235.504,262.401375 235.408,254.364922 226.832,249.418182" id="Shape" fill="#0048F6" fill-rule="nonzero"></path>
                        <g id="Group" transform="translate(188.800000, 242.534368)" fill-rule="nonzero">
                            <path d="M22.64,10.1496231 C20.176,8.7248337 16.864,11.0781375 15.68,11.75051 L19.84,14.1838581 C21.024,13.4954767 25.008,11.5263858 22.64,10.1496231 M30.08,13.3513969 C27.376,11.75051 23.36,14.5840798 21.936,15.4005322 L26.528,18.0740133 C27.936,17.257561 32.672,14.8722395 30.08,13.3513969 M27.328,10.4377827 C29.4923915,9.53055506 31.9539267,9.67230468 34,10.8219956 L34.624,11.2222173 C37.616,13.3193792 36.032,15.2564523 32.72,17.3856319 L36.176,19.4027494 L34.08,20.6034146 L30.672,18.6183149 L28.976,19.578847 L32.416,21.5799557 L30.32,22.7806208 L26.896,20.8115299 L25.392,21.66 L22.672,23.2608869 L20.592,21.5639468 L22.112,20.683459 C22.704,20.3472727 22.432,20.0110865 22.208,19.81898 L16.736,16.6172062 L16.96,16.4891353 L16.72,16.6011973 L12.8,14.2959202 C12.1104614,14.0111545 11.3267926,14.0705563 10.688,14.4560089 L9.168,15.3364967 L6.944,14.0397783 L9.824,12.4388914 L11.136,11.6704656 L7.728,9.60532151 L9.824,8.40465632 L13.184,10.3577384 L14.784,9.38119734 L11.44,7.44412417 L13.536,6.24345898 L16.96,8.24456763 C19.888,6.83578714 22.848,6.08337029 25.568,7.38008869 L26.08,7.65223947 C27.68,8.53272727 27.824,9.49325942 27.28,10.4537916 M37.968,5.18687361 C29.392,0.224124169 15.568,0.224124169 6.992,5.18687361 C-1.584,10.1496231 -1.488,18.1860754 7.088,23.132816 C15.664,28.0795565 29.488,28.0955654 38.064,23.132816 C46.64,18.1700665 46.544,10.1336142 37.968,5.18687361" id="Shape" fill="#006FE8"></path>
                            <path d="M19.84,14.1838581 L15.68,11.75051 C16.864,11.0781375 20.176,8.7248337 22.64,10.1496231 C24.992,11.5263858 21.04,13.4954767 19.84,14.1838581 M26.544,18.0900222 L21.952,15.416541 C23.36,14.6000887 27.392,11.8145455 30.096,13.3674058 C32.688,14.8722395 27.952,17.257561 26.544,18.0900222 M34.016,10.8219956 C31.9699267,9.67230468 29.5083915,9.53055506 27.344,10.4377827 C27.888,9.47725055 27.664,8.5167184 26.144,7.6362306 L25.632,7.36407982 C22.928,6.06736142 19.952,6.81977827 17.024,8.22855876 L13.6,6.22745011 L11.504,7.4281153 L14.848,9.36518847 L13.248,10.3417295 L9.888,8.38864745 L7.792,9.58931264 L11.216,11.5904213 L9.904,12.358847 L7.024,13.9597339 L9.248,15.2564523 L10.768,14.3759645 C11.4067926,13.9905119 12.1904614,13.9311102 12.88,14.2158758 L16.784,16.4891353 L17.024,16.3770732 L16.8,16.5051441 L22.272,19.706918 C22.496,19.8830155 22.768,20.2192018 22.176,20.5713969 L20.656,21.4518847 L22.736,23.1488248 L25.456,21.5479379 L26.96,20.6994678 L30.432,22.7165854 L32.528,21.5159202 L29.088,19.5148115 L30.784,18.5542794 L34.192,20.5393792 L36.288,19.338714 L32.832,17.3215965 C36.144,15.176408 37.712,13.2393348 34.736,11.1581818 L34.112,10.7579601" id="Shape" fill="#FFFFFF"></path>
                        </g>
                        <path d="M465.2,147.585765 L439.856,162.217871 C438.206402,163.053726 436.257598,163.053726 434.608,162.217871 L420.496,154.069357 C418.645397,153.130876 416.458603,153.130876 414.608,154.069357 L380.8,173.600177 L380.8,174.336585 L414.96,154.59765 C416.609598,153.761795 418.558402,153.761795 420.208,154.59765 L434.32,162.746164 C436.170603,163.684645 438.357397,163.684645 440.208,162.746164 L465.52,148.08204 L465.2,147.585765 Z" id="Shape" stroke="#E1E1E1" stroke-width="1.472" fill="#E1E1E1" fill-rule="nonzero"></path>
                        <path d="M478.816,142.238803 L476.048,148.386208 L465.456,149.987095 L469.136,144.367982 L465.456,149.987095 L461.168,139.757428 L478.768,142.206785 M477.168,149.07459 L480,142.959202 L482.624,152.228337 L466.624,150.739512 L477.216,149.138625 M457.04,137.932417 C453.184,140.269712 451.2,143.279379 451.2,146.273038 C451.2,149.266696 453.216,152.276364 457.184,154.565632 C465.184,159.144169 477.984,159.144169 485.808,154.565632 C489.568,152.372417 491.536,149.538847 491.68,146.673259 C491.856,143.471486 489.856,140.365765 485.712,137.980443" id="Shape" fill="#0048F6" fill-rule="nonzero"></path>
                        <g id="Group" transform="translate(449.600000, 132.073171)" fill-rule="nonzero">
                            <path d="M29.216,7.79631929 L26.448,13.9437251 L15.856,15.544612 L19.536,9.92549889 L15.856,15.544612 L11.568,5.31494457 L29.168,7.76430155 M27.568,14.6321064 L30.4,8.5167184 L33.024,17.7858537 L17.024,16.2970288 L27.616,14.6961419 M36.08,3.48993348 C28.08,-1.0886031 15.28,-1.0886031 7.44,3.48993348 C-0.4,8.06847007 -0.4,15.4965854 7.536,20.075122 C15.472,24.6536585 28.336,24.6536585 36.16,20.075122 C43.984,15.4965854 44,8.06847007 36.08,3.48993348" id="Shape" fill="#006FE8"></path>
                            <polyline id="Shape" fill="#9AC6F6" points="29.216 7.78031042 11.552 5.33095344 19.52 9.94150776 29.216 7.78031042"></polyline>
                            <polyline id="Shape" fill="#FFFFFF" points="19.52 9.94150776 11.552 5.33095344 15.84 15.5606208 19.52 9.94150776"></polyline>
                            <polyline id="Shape" fill="#9AC6F6" points="30.464 8.5167184 27.68 14.6641242 33.088 17.7858537 30.464 8.5167184"></polyline>
                            <polyline id="Shape" fill="#FFFFFF" points="33.088 17.7858537 27.68 14.5840798 17.088 16.1849667 33.088 17.6737916"></polyline>
                            <polyline id="Shape" fill="#338CED" points="29.216 7.78031042 19.52 9.94150776 26.432 13.9277162 29.216 7.78031042"></polyline>
                            <polyline id="Shape" fill="#9AC6F6" points="26.432 13.9277162 19.52 9.94150776 15.84 15.5606208 26.432 13.9277162"></polyline>
                        </g>
                        <polygon id="Rectangle-path" stroke="#E1E1E1" stroke-width="1.472" fill="#E1E1E1" fill-rule="nonzero" transform="translate(385.607446, 232.232871) rotate(-59.370000) translate(-385.607446, -232.232871) " points="384.807446 211.013115 385.447446 211.013115 385.447446 253.452627 384.807446 253.452627"></polygon>
                        <path d="M398.672,252.13969 L417.136,241.5098 C417.796589,241.132016 418.205316,240.430079 418.208,239.66878 L418.208,238.596186 L398.624,249.802395 C397.861636,250.24279 396.922364,250.24279 396.16,249.802395 L376.575999,238.436098 L376.576,239.508692 C376.575381,240.266691 376.97757,240.967863 377.632,241.349712 L396.096,252.13969 C396.893017,252.600103 397.874983,252.600103 398.672,252.13969 Z" id="Shape" fill="#E0CBCB" fill-rule="nonzero"></path>
                        <path d="M396.176,249.898448 L376.768,238.692239 C376.639549,238.617818 376.560461,238.480554 376.560461,238.33204 C376.560461,238.183525 376.639549,238.046262 376.768,237.97184 L396.72,226.525499 C397.116033,226.296722 397.603967,226.296722 398,226.525499 L417.984,238.099911 C418.112451,238.174333 418.191539,238.311596 418.191539,238.460111 C418.191539,238.608625 418.112451,238.745889 417.984,238.82031 L398.64,250.026519 C397.855644,250.431367 396.914209,250.382434 396.176,249.898448 Z" id="Shape" fill="#E1E1E1" fill-rule="nonzero"></path>
                        <path d="M281.6,122.563902 C280.03105,123.35974 278.17695,123.35974 276.608,122.563902 C276.056015,122.296416 275.705424,121.73676 275.705424,121.123104 C275.705424,120.509448 276.056015,119.949792 276.608,119.682306 C278.17695,118.886468 280.03105,118.886468 281.6,119.682306 C282.151985,119.949792 282.502576,120.509448 282.502576,121.123104 C282.502576,121.73676 282.151985,122.296416 281.6,122.563902 Z" id="Shape" stroke="#E1E1E1" stroke-width="1.472" fill="#E1E1E1" fill-rule="nonzero"></path>
                        <polyline id="Shape" fill="#E1E1E1" fill-rule="nonzero" points="283.952 209.187894 283.952 208.931752 283.744 209.315965"></polyline>
                        <polygon id="Shape" fill="#E1E1E1" fill-rule="nonzero" points="242.336 209.299956 242.336 208.851707 242.576 208.995787 242.544 209.412018"></polygon>
                        <path d="M409.92,170.494457 L409.84,158.13561 L156.144,157.207095 L156.144,170.494457 C156.144,189.977251 169.312,208.323415 193.216,222.12306 C242.816,250.730909 323.312,250.730909 372.848,222.12306 C396.8,208.275388 409.92,189.945233 409.92,170.494457" id="Shape" fill="#E0CBCB" fill-rule="nonzero"></path>
                        <path d="M283.024,87.5364967 C250.496,87.5364967 217.984,94.6924612 193.216,108.988381 C169.312,122.804035 156.144,141.134191 156.144,160.616984 C156.144,180.099778 169.312,198.445942 193.216,212.245588 C242.816,240.853437 323.312,240.853437 372.848,212.245588 C396.8,198.445942 409.92,180.099778 409.92,160.632993 C409.92,141.166208 396.8,122.804035 372.8,108.988381 C348.08,94.6924612 315.552,87.5364967 283.024,87.5364967 Z" id="Shape" fill="#E1E1E1" fill-rule="nonzero"></path>
                        <polygon id="Shape" fill="#0048F6" fill-rule="nonzero" points="314.752 106.378936 314.736 128.695299 261.264 159.784523 256.048 140.509845"></polygon>
                        <polygon id="Shape" fill="#0048F6" fill-rule="nonzero" points="265.152 145.776763 265.152 168.077118 210.224 176.609845 210.224 154.30949"></polygon>
                        <polygon id="Shape" fill="#0048F6" fill-rule="nonzero" points="342.944 184.406164 333.84 179.155255 333.856 156.838891 342.96 162.105809 357.504 130.24816 357.488 152.548514"></polygon>
                        <polygon id="Shape" fill="#0048F6" fill-rule="nonzero" points="333.84 179.155255 275.136 213.270155 275.152 190.9698 333.856 156.838891"></polygon>
                        <polygon id="Shape" fill="#006FE8" fill-rule="nonzero" points="275.152 190.9698 275.136 213.270155 252.976 200.479069 252.992 178.162705"></polygon>
                        <polygon id="Shape" fill="#0075F5" fill-rule="nonzero" points="302.608 138.780887 302.592 161.097251 305.648 162.858226 310.816 143.535521"></polygon>
                        <polygon id="Shape" fill="#0075F5" fill-rule="nonzero" points="224.8 122.45184 233.888 127.718758 292.592 93.5718404 314.752 106.378936 256.048 140.509845 265.152 145.776763 210.24 154.30949"></polygon>
                        <polygon id="Shape" fill="#0075F5" fill-rule="nonzero" points="252.992 178.162705 275.152 190.9698 333.856 156.838891 342.96 162.105809 357.504 130.24816 302.608 138.780887 310.816 143.535521"></polygon>
                        <polygon id="Shape" fill="#006FE8" fill-rule="nonzero" points="333.856 156.838891 342.96 162.105809 342.944 184.406164 333.84 179.155255"></polygon>
                        <path d="M160.928,106.89122 C159.530276,107.601377 157.877724,107.601377 156.48,106.89122 C155.939842,106.697176 155.579565,106.184746 155.579565,105.61051 C155.579565,105.036274 155.939842,104.523844 156.48,104.3298 C157.877724,103.619643 159.530276,103.619643 160.928,104.3298 C161.468158,104.523844 161.828435,105.036274 161.828435,105.61051 C161.828435,106.184746 161.468158,106.697176 160.928,106.89122 Z" id="Shape" stroke="#E1E1E1" stroke-width="1.312" fill="#E1E1E1" fill-rule="nonzero"></path>
                        <path d="M188.576,105.802616 L176.256,112.862528 C174.791903,113.601655 173.064097,113.601655 171.6,112.862528 L146.496,98.4545455 C146.007692,98.2476195 145.666351,97.796311 145.6,97.2698891 C145.662354,96.7505098 145.998238,96.3044538 146.48,96.1012417 L158.672,89.0573392 C159.294671,88.7009248 159.678872,88.0381381 159.678872,87.3203769 C159.678872,86.6026158 159.294671,85.9398291 158.672,85.5834146 L146.816,78.7956541 L146.24,79.1318404 L158.4,86.0156541 C158.838694,86.2748114 159.10788,86.7466075 159.10788,87.2563415 C159.10788,87.7660754 158.838694,88.2378715 158.4,88.4970288 L146.208,95.5409313 C145.563331,95.8306131 145.119311,96.4391966 145.04,97.1418182 C145.098144,97.8764646 145.552075,98.5209127 146.224,98.8227494 L171.328,113.326785 C172.972635,114.159816 174.915365,114.159816 176.56,113.326785 L188.8,106.298891 C190.264097,105.559764 191.991903,105.559764 193.456,106.298891 L207.2,114.303326 L207.776,113.96714 L193.744,105.866652 C192.126879,105.034835 190.213213,105.011123 188.576,105.802616 Z" id="Shape" stroke="#E1E1E1" stroke-width="1.312" fill="#E1E1E1" fill-rule="nonzero"></path>
                        <polygon id="Rectangle-path" stroke="#E1E1E1" stroke-width="1.312" fill="#E1E1E1" fill-rule="nonzero" transform="translate(335.599954, 67.020246) rotate(-59.370000) translate(-335.599954, -67.020246) " points="334.799954 48.1457889 335.375954 48.1457889 335.375954 85.8947025 334.799954 85.8947025"></polygon>
                        <path d="M283.968,65.3321951 C284.738456,65.321321 285.498776,65.50875 286.176,65.8764967 C286.74535,66.1388436 287.125886,66.6915398 287.168,67.3172949 C287.123622,67.9383518 286.742873,68.4852143 286.176,68.7420843 C284.800014,69.4487934 283.167986,69.4487934 281.792,68.7420843 C281.224949,68.4770111 280.84548,67.9258629 280.8,67.301286 C280.844378,66.6802291 281.225127,66.1333667 281.792,65.8764967 C282.458954,65.512056 283.208105,65.3246643 283.968,65.3321951 Z M285.904,68.2458093 C286.287174,68.083818 286.555326,67.7301494 286.608,67.3172949 C286.554503,66.8961078 286.279822,66.5357714 285.888,66.3727716 C284.690665,65.767821 283.277335,65.767821 282.08,66.3727716 C281.696826,66.5347629 281.428674,66.8884316 281.376,67.301286 C281.429497,67.7224731 281.704178,68.0828096 282.096,68.2458093 C283.293335,68.8507599 284.706665,68.8507599 285.904,68.2458093 Z" id="Shape" stroke="#E1E1E1" stroke-width="1.312" fill="#E1E1E1" fill-rule="nonzero"></path>
                        <path d="M306.048,35.1074501 C300.169866,38.0909577 293.222134,38.0909577 287.344,35.1074501 C282.176,32.1298004 282.176,27.2791131 287.344,24.3014634 C293.222134,21.3179559 300.169866,21.3179559 306.048,24.3014634 C311.216,27.2791131 311.216,32.1298004 306.048,35.1074501 Z" id="Shape" fill="#006FE8" fill-rule="nonzero"></path>
                        <path d="M303.92,33.5065632 C299.525823,35.7396657 294.330177,35.7396657 289.936,33.5065632 C286.08,31.2813304 286.08,27.6633259 289.936,25.5021286 C294.330177,23.2690261 299.525823,23.2690261 303.92,25.5021286 C307.776,27.6633259 307.776,31.2172949 303.92,33.5065632 Z" id="Shape" fill="#006FE8" fill-rule="nonzero"></path>
                        <path d="M324.048,65.1400887 C308.96,73.8489135 284.512,73.8489135 269.424,65.1400887 C254.336,56.4312639 254.336,42.2954324 269.424,33.5866075 C284.512,24.8777827 308.96,24.8777827 324.048,33.5866075 C339.136,42.2954324 339.2,56.415255 324.048,65.1400887 Z" id="Shape" fill="#006FE8" fill-rule="nonzero"></path>
                        <path d="M324.048,63.4911752 C308.96,72.2 284.512,72.2 269.424,63.4911752 C254.336,54.7823503 254.336,40.6465188 269.424,31.937694 C284.512,23.2288692 308.96,23.2288692 324.048,31.937694 C339.136,40.6465188 339.2,54.7823503 324.048,63.4911752 Z" id="Shape" fill="#E1E1E1" fill-rule="nonzero"></path>
                        <path d="M259.552,31.1212417 L259.552,45.1770288 C259.552,50.6840798 263.152,56.1911308 270.432,60.4014634 C284.96,68.7901109 308.512,68.7901109 323.056,60.4014634 C330.272,56.2391574 333.872,50.7961419 333.92,45.3211086 L333.92,31.1212417 L259.552,31.1212417 Z" id="Shape" fill="#F5F5F5" fill-rule="nonzero"></path>
                        <path d="M323.024,45.4811973 C308.496,53.8698448 284.96,53.8698448 270.432,45.4811973 C255.904,37.0925499 255.904,23.4850111 270.432,15.0643459 C284.96,6.64368071 308.496,6.67569845 323.024,15.0643459 C337.552,23.4529933 337.6,37.0925499 323.024,45.4811973 Z" id="Shape" fill="#E1E1E1" fill-rule="nonzero"></path>
                        <path d="M296.688,48.090643 C288.201856,48.2566976 279.813997,46.2508715 272.32,42.2634146 C265.792,38.4853215 262.192,33.4745455 262.192,28.1275831 C262.192,22.7806208 265.792,17.7538359 272.32,13.9917517 C285.76,6.22745011 307.616,6.22745011 321.056,13.9917517 C327.584,17.7698448 331.184,22.7806208 331.184,28.1275831 C331.184,33.4745455 327.584,38.5013304 321.056,42.2634146 L321.056,42.1673614 L321.056,42.2634146 C313.562003,46.2508715 305.174144,48.2566976 296.688,48.090643 Z" id="Shape" fill="#006FE8" fill-rule="nonzero"></path>
                        <path d="M296.688,8.38864745 C288.246735,8.22470456 279.903357,10.2194088 272.448,14.1838581 C266.048,17.9139246 262.432,22.8606652 262.432,28.1275831 C262.432,33.3945011 265.984,38.3412417 272.448,42.0713082 C285.824,49.7875831 307.648,49.7875831 320.944,42.0713082 C327.344,38.3412417 330.96,33.3945011 330.96,28.1275831 C330.96,22.8606652 327.408,17.9139246 320.944,14.1838581 C313.483884,10.2167544 305.134659,8.22196885 296.688,8.38864745 Z" id="Shape" fill="url(#linearGradient-10)" fill-rule="nonzero"></path>
                        <path d="M324.176,48.3627938 C324.176,48.5709091 324.32,48.6509534 324.496,48.5549002 C324.684986,48.4290503 324.803582,48.2213916 324.816,47.9945898 C324.816,47.7864745 324.672,47.7064302 324.496,47.8024834 C324.307014,47.9283333 324.188418,48.1359919 324.176,48.3627938 Z" id="Shape" fill="#0048F6" fill-rule="nonzero"></path>
                        <path d="M321.696,49.803592 C321.696,50.0117073 321.84,50.0917517 322.016,49.9956984 C322.204986,49.8698486 322.323582,49.6621899 322.336,49.435388 C322.336,49.2272727 322.192,49.1472284 322.016,49.2432816 C321.827014,49.3691315 321.708418,49.5767902 321.696,49.803592 Z" id="Shape" fill="#0048F6" fill-rule="nonzero"></path>
                        <path d="M324.176,51.0682927 C324.176,51.276408 324.32,51.3564523 324.496,51.2603991 C324.684986,51.1345492 324.803582,50.9268905 324.816,50.7000887 C324.816,50.4919734 324.672,50.411929 324.496,50.5079823 C324.307014,50.6338321 324.188418,50.8414908 324.176,51.0682927 Z" id="Shape" fill="#0048F6" fill-rule="nonzero"></path>
                        <path d="M321.696,52.5090909 C321.696,52.7172062 321.84,52.7972506 322.016,52.7011973 C322.204986,52.5753475 322.323582,52.3676888 322.336,52.1408869 C322.336,51.9327716 322.192,51.8527273 322.016,51.9487805 C321.827014,52.0746304 321.708418,52.2822891 321.696,52.5090909 Z" id="Shape" fill="#0048F6" fill-rule="nonzero"></path>
                        <path d="M316.8,60.2413747 C317.067918,60.0482432 317.22825,59.7392852 317.232,59.4089135 L317.232,50.8441685 C317.232,50.5239911 317.04,50.3799113 316.8,50.5079823 C316.532082,50.7011138 316.37175,51.0100717 316.368,51.3404435 L316.368,59.8731707 C316.32,60.2413747 316.512,60.3854545 316.8,60.2413747 Z" id="Shape" fill="#FFFFFF" fill-rule="nonzero"></path>
                        <path d="M316.8,60.2413747 C317.067918,60.0482432 317.22825,59.7392852 317.232,59.4089135 L317.232,56.8314856 C317.232,56.5113082 317.04,56.3672284 316.8,56.4952993 C316.532082,56.6884309 316.37175,56.9973888 316.368,57.3277605 L316.368,59.9051885 C316.32,60.2413747 316.512,60.3854545 316.8,60.2413747 Z" id="Shape" fill="#0048F6" fill-rule="nonzero"></path>
                        <path d="M356.976,90.4501109 L373.392,81.004878 C373.965441,80.6737722 374.32364,80.0663183 374.336,79.4039911 L374.336,78.4594678 L356.928,88.48102 C356.249793,88.8728001 355.414207,88.8728001 354.736,88.48102 L337.312,78.3794235 L337.312,79.2439024 C337.32436,79.9062296 337.682559,80.5136835 338.256,80.8447894 L354.688,90.4501109 C355.39591,90.8590493 356.26809,90.8590493 356.976,90.4501109 Z" id="Shape" fill="#E0CBCB" fill-rule="nonzero"></path>
                        <path d="M354.768,88.48102 L337.504,78.4754767 C337.38886,78.4100536 337.317725,78.2877835 337.317725,78.1552993 C337.317725,78.0228152 337.38886,77.900545 337.504,77.835122 L355.2,67.6374723 C355.55148,67.4344329 355.98452,67.4344329 356.336,67.6374723 L374.112,77.9311752 C374.22714,77.9965982 374.298275,78.1188684 374.298275,78.2513525 C374.298275,78.3838367 374.22714,78.5061069 374.112,78.5715299 L356.896,88.48102 C356.235047,88.8517248 355.428953,88.8517248 354.768,88.48102 Z" id="Shape" fill="#E1E1E1" fill-rule="nonzero"></path>
                        <path d="M36.128,190.953792 L45.952,185.270643 C47.4160966,184.531515 49.1439034,184.531515 50.608,185.270643 L75.712,199.774678 C76.2003078,199.981604 76.5416493,200.432913 76.608,200.959335 C76.5456455,201.478714 76.2097621,201.92477 75.728,202.127982 L65.36,208.115299 L65.92,208.451486 L76,202.624257 C76.6446688,202.334575 77.0886887,201.725992 77.168,201.02337 C77.1128963,200.29232 76.6657041,199.648742 76,199.342439 L50.896,184.838404 C49.2513653,184.005372 47.3086347,184.005372 45.664,184.838404 L35.552,190.681641 L36.128,190.953792 Z" id="Shape" stroke="#E1E1E1" stroke-width="1.312" fill="#E1E1E1" fill-rule="nonzero"></path>
                        <path d="M65.408,208.467494 L65.408,239.81286" id="Shape" stroke="#E0CBCB" stroke-width="1.6"></path>
                        <path d="M35.568,191.161907 L35.568,222.507273" id="Shape" stroke="#E0CBCB" stroke-width="1.6"></path>
                    </g>
                </g>
            </g>
        </g>
    </g>
</svg>