<?xml version="1.0" encoding="UTF-8"?>
<svg width="44px" height="50px" viewBox="0 0 44 50" version="1.1" xmlns="http://www.w3.org/2000/svg" xmlns:xlink="http://www.w3.org/1999/xlink">
    <!-- Generator: Sketch 51.2 (57519) - http://www.bohemiancoding.com/sketch -->
    <title>icon</title>
    <desc>Created with Sketch.</desc>
    <defs></defs>
    <g id="Page-1" stroke="none" stroke-width="1" fill="none" fill-rule="evenodd">
        <g id="1.1.-Home-Copy-7" transform="translate(-121.000000, -26.000000)" fill="#FFFFFF">
            <g id="logo" transform="translate(121.000000, 26.000000)">
                <g id="icon">
                    <polygon id="Fill-1" points="21.9088716 0.300919105 0.000714505157 12.9537762 0.000714505157 13.5009191 6.2897889 9.88234768 6.80423261 10.7223477 10.4239157 8.63949053 10.9369304 9.47949053 24.3596243 1.72663339 23.3721782 1.14234768 22.3847321 0.593776248"></polygon>
                    <polygon id="Fill-2" points="0 20.8877762 0 21.4734905 6.2905034 17.8534905 6.8035181 18.6949191 17.3367531 12.6249191 17.8126136 13.4649191 31.2724617 5.71206196 30.2850156 5.12920482 29.2975695 4.57777625 28.821709 4.28634768"></polygon>
                    <polygon id="Fill-3" points="0 24.8734905 0 25.4577762 6.2905034 21.8006334 6.8035181 22.6792048 20.776381 14.5977762 21.2508124 15.4406334 34.7106605 7.68777625 33.7246434 7.13777625 32.7357683 6.5549191 32.2613368 6.26206196"></polygon>
                    <polygon id="Fill-4" points="0 28.8592048 0 29.4063477 6.2905034 25.7863477 6.8035181 26.6277762 24.3246136 16.5349191 24.799045 17.3777762 38.1502883 9.66206196 37.1614132 9.11349053 36.1739671 8.52777625 35.6995357 8.27349053"></polygon>
                    <polygon id="Fill-5" points="0 32.8449191 0 33.392062 6.2905034 29.7734905 6.8035181 30.6149191 27.7613834 18.512062 28.2372438 19.3892048 41.5870582 11.6734905 40.599612 11.0877762 39.6493202 10.5406334 39.1377345 10.2477762"></polygon>
                    <polygon id="Fill-6" points="0 36.8306334 0 37.3777762 6.2905034 33.7592048 6.8035181 34.5992048 27.7613834 22.4963477 28.2372438 23.3363477 43.8191723 14.3792048 43.8191723 13.2449191 43.8191723 12.9534905 43.087519 12.5134905 42.5759333 12.2206334"></polygon>
                    <polygon id="Fill-7" points="2.70654553 39.7923477 6.21905289 37.7809191 6.73063858 38.6223477 27.6527786 26.5194905 28.1643643 27.3966334 43.8191723 18.328062 43.8191723 17.1952048 43.8191723 16.0609191 43.8191723 15.5123477 2.2306851 39.4994905"></polygon>
                    <polyline id="Fill-8" points="27.6520641 30.5037762 28.1636498 31.3823477 43.8184578 22.3137762 43.8184578 21.1809191 43.8184578 20.0466334 43.8184578 19.498062 5.66959842 41.5109191 6.14545885 41.8023477 9.72941672 39.718062 10.2410024 40.5594905"></polyline>
                    <polygon id="Fill-9" points="9.58294316 43.778062 13.2040553 41.6937762 13.6799157 42.5709191 27.6527786 34.4894905 28.1643643 35.3309191 43.8191723 26.2994905 43.8191723 25.1666334 43.8191723 24.0323477 43.8191723 23.448062 9.10708273 43.4852048"></polygon>
                    <polygon id="Fill-10" points="13.0577246 45.752062 16.6416825 43.7034905 17.1175429 44.5449191 27.652207 38.4749191 28.1637927 39.3163477 43.8186007 30.2849191 43.8186007 29.152062 43.8186007 28.0177762 43.8186007 27.4334905 12.546139 45.4963477"></polygon>
                    <polygon id="Fill-11" points="15.9841949 47.4709191 16.4957806 47.7637762 20.0811674 45.6794905 20.5555989 46.5566334 27.6520641 42.4609191 28.1636498 43.3023477 43.8198868 34.2709191 43.8198868 33.138062 43.8198868 31.9666334 43.8198868 31.4194905"></polygon>
                    <polygon id="Fill-12" points="19.4588334 49.482062 19.9346939 49.7377762 23.5186517 47.6892048 24.0302374 48.5306334 27.6527786 46.4106334 28.1643643 47.2892048 43.8191723 38.2563477 43.8191723 37.0849191 43.8191723 35.952062 43.8191723 35.4049191"></polygon>
                    <polygon id="Fill-13" points="0 16.938062 0 17.4866334 6.2905034 13.868062 6.8035181 14.708062 13.8985543 10.6123477 14.3744147 11.4537762 27.8356919 3.7009191 26.8482458 3.15234768 25.8593706 2.56949053 25.3477849 2.27520482"></polygon>
                </g>
            </g>
        </g>
    </g>
</svg>