<?xml version="1.0" encoding="UTF-8"?>
<svg width="192px" height="60px" viewBox="0 0 192 60" version="1.1" xmlns="http://www.w3.org/2000/svg" xmlns:xlink="http://www.w3.org/1999/xlink">
    <!-- Generator: Sketch 53.1 (72631) - https://sketchapp.com -->
    <title>logo-renex</title>
    <desc>Created with Sketch.</desc>
    <g id="renproject.io" stroke="none" stroke-width="1" fill="none" fill-rule="evenodd">
        <g id="home" transform="translate(-141.000000, -2073.000000)" fill="#FFFFFF">
            <g id="section:renex" transform="translate(0.000000, 1930.000000)">
                <g id="logo-renex" transform="translate(141.000000, 143.000000)">
                    <path d="M101.199704,28.4636636 C100.210849,29.5756262 99.5882358,30.9707664 99.4184324,32.4561869 L110.710918,32.4561869 C110.289184,28.8505794 108.374733,27.0954393 104.978664,27.0954393 C103.586941,27.0012336 102.218525,27.4946916 101.199704,28.4580561 L101.199704,28.4636636 Z M113.13034,26.7814206 C114.872768,29.0244112 115.760629,32.1421682 115.760629,36.1346916 L99.3296462,36.1346916 C99.5011145,38.1926355 100.051034,39.7845981 100.994386,40.8561869 C102.032629,41.978243 103.510918,42.576 105.028051,42.4879626 C106.309346,42.5451589 107.574548,42.1834766 108.634987,41.4561869 C109.484005,40.7193645 110.152675,39.7941308 110.588837,38.7533832 L115.422132,38.7533832 C114.951565,40.7591776 113.884467,42.5709533 112.36456,43.9459065 C110.318594,45.6634766 107.72049,46.5645981 105.061901,46.480486 C101.793461,46.480486 99.2014613,45.4487103 97.2931145,43.4356262 C95.2565827,41.3328224 94.2355422,38.4561869 94.2355422,34.7664673 C94.2355422,31.4636636 95.1677965,28.716 97.1205364,26.4842243 C98.9911491,24.2075888 101.559843,23.1197383 104.851034,23.1197383 C108.463519,23.0917009 111.221438,24.2973084 113.13034,26.7814206 L113.13034,26.7814206 Z" id="Fill-1-Copy-2"></path>
                    <path d="M139.283348,32.1922991 L139.283348,45.8745421 L134.444504,45.8745421 L134.444504,32.619028 C134.444504,28.968 132.779764,27.1685607 129.450284,27.1685607 C128.275533,27.161271 127.146284,27.6250093 126.309475,28.4577196 C125.241267,29.5433271 124.61366,30.9934206 124.5504,32.5237009 L124.5504,45.8694953 L119.711556,45.8694953 L119.711556,23.6975327 L124.5504,23.6975327 L124.5504,26.2708037 C125.333938,25.2850093 126.318354,24.4797757 127.435949,23.9100561 C128.557429,23.3543551 129.793776,23.0762243 131.042886,23.096972 C136.508782,23.0919252 139.283348,26.096972 139.283348,32.1922991" id="Fill-3-Copy"></path>
                    <path d="M72.6937526,19.5308972 L80.5513249,19.5308972 C82.5046197,19.5308972 83.9917873,19.9626729 84.9906312,20.775757 C85.9411977,21.6953832 86.451163,22.9856636 86.3890127,24.3140748 C86.451163,25.642486 85.9411977,26.9327664 84.9906312,27.8523925 C83.9695908,28.6654766 82.4879723,29.0972523 80.5513249,29.0972523 L72.6937526,29.0972523 L72.6937526,19.5308972 Z M92.8260069,45.8804299 L84.1416139,33.1520187 C85.7514173,32.9170654 87.2774289,32.2783738 88.5809202,31.2953832 C90.450978,29.7533271 91.4276254,27.5215514 91.4276254,24.6000561 L91.4276254,24.3196822 L91.4276254,24.0393084 C91.4276254,21.1234206 90.450978,18.8916449 88.5809202,17.3439813 C86.7996486,15.9308972 84.3358335,15.2411776 81.2338682,15.2411776 L67.6995329,15.2411776 L67.6995329,45.8748224 L72.6937526,45.8748224 L72.6937526,33.3925794 L78.0042728,33.3925794 L86.483348,45.8804299 L92.8260069,45.8804299 Z" id="Fill-5-Copy"></path>
                    <polygon id="Fill-7-Copy" points="8.11843699 12.6168224 12.4856046 10.082243 13.0738127 11.1028037 29.1718474 1.72149533 27.9954312 1.03738318 26.8134659 0.342056075 26.2252578 -1.14575016e-12 5.549133e-05 15.3084112 5.549133e-05 15.9925234 7.5302289 11.5906542"></polygon>
                    <polygon id="Fill-10-Copy" points="8.11843699 22.2560187 20.7371653 14.8877944 21.3253734 15.9251776 37.4234081 6.53826168 36.2469919 5.84293458 35.0650266 5.15882243 34.4768185 4.82237383 5.54913287e-05 24.9363925 5.54913287e-05 25.6205047 7.5302289 21.2186355"></polygon>
                    <polygon id="Fill-13-Copy" points="8.11843699 27.0730654 24.8601711 17.3048411 25.4539283 18.3310093 41.5464139 8.9328785 40.3699977 8.25998131 39.1935815 7.56465421 38.5998243 7.22259813 5.54913308e-05 29.7422243 5.54913308e-05 30.4375514 7.5302289 26.0412897"></polygon>
                    <polygon id="Fill-16-Copy" points="8.11843699 31.884 29.1052578 19.6428785 29.699015 20.6690467 45.6749688 11.3494206 44.4985526 10.6540935 43.3165873 9.96998131 42.7283792 9.62792523 5.54913315e-05 34.5643738 5.54913315e-05 35.248486 7.5302289 30.8466168"></polygon>
                    <polygon id="Fill-19-Copy" points="8.11843699 36.6898318 33.2338127 22.0431028 33.8220208 23.080486 49.7979746 13.7496449 48.6215584 13.0711402 47.4451422 12.3758131 46.851385 12.033757 5.54913295e-05 39.3702056 5.54913295e-05 40.0543178 7.5302289 35.6636636"></polygon>
                    <polygon id="Fill-22-Copy" points="51.5683145 14.786972 50.9801064 14.4393084 0.000221965317 44.1925794 0.000221965317 44.8766916 7.53039538 40.4860374 8.11860347 41.5122056 33.2339792 26.8654766 33.8221873 27.8916449 52.4506266 17.0299626 52.4506266 15.6505234 52.4506266 15.3084673"></polygon>
                    <polygon id="Fill-24-Copy" points="3.22959538 47.7979626 7.45248555 45.3362804 8.04069364 46.3624486 33.1116763 31.7381495 33.6998844 32.7755327 52.4504046 21.8353458 52.4504046 20.4559065 52.4504046 19.0764673 52.4504046 18.3929159 2.65248555 47.4564673"></polygon>
                    <polyline id="Fill-26-Copy" points="33.1117318 36.5605794 33.6999399 37.5985234 52.4504601 26.6577757 52.4504601 25.2783364 52.4504601 23.8988972 52.4504601 23.214785 6.77554682 49.8620748 7.36930405 50.2035701 11.6532347 47.697028 12.2469919 48.7344112"></polyline>
                    <polygon id="Fill-28-Copy" points="11.4923653 52.6152336 15.7818451 50.1030841 16.3700532 51.1399065 33.1117873 41.3660748 33.6999954 42.4040187 52.4505156 31.463271 52.4505156 30.0838318 52.4505156 28.7156075 52.4505156 28.0258879 10.893059 52.2614019"></polygon>
                    <polygon id="Fill-30-Copy" points="15.6154266 55.0208972 19.9049064 52.5194019 20.4986636 53.5455701 33.1118428 46.1891215 33.7000509 47.214729 52.4505711 36.2745421 52.4505711 34.9068785 52.4505711 33.5274393 52.4505711 32.8427664 15.0272185 54.6788411"></polygon>
                    <polygon id="Fill-32-Copy" points="19.1557179 57.0842804 19.743926 57.4257757 24.044504 54.9197944 24.6216139 55.9571776 33.1117873 50.9945607 33.6999954 52.0319439 52.4505156 41.0911963 52.4505156 39.7123178 52.4505156 38.3328785 52.4505156 37.6487664"></polygon>
                    <polygon id="Fill-34-Copy" points="23.8668208 59.8431028 28.1563006 57.3253458 28.7445087 58.362729 33.1116763 55.8057196 33.6998844 56.8431028 52.4504046 45.9141308 52.4504046 44.5346916 52.4504046 43.1552523 52.4504046 42.4711402 23.2786127 59.5010467"></polygon>
                    <polygon id="Fill-37-Copy" points="33.3003468 4.12727103 32.1183815 3.44315888 30.9419653 2.75904673 30.3537572 2.4057757 -1.30917499e-12 20.1141869 -1.30917499e-12 20.7982991 7.53017341 16.4132523 8.1183815 17.4338131 16.6085549 12.4824112 17.2134104 13.5197944"></polygon>
                    <polygon id="Fill-40-Copy" points="165.101466 15.2412336 165.101466 19.5320748 148.202691 19.5320748 148.202691 28.0285234 164.083755 28.0285234 164.083755 32.3199252 148.202691 32.3199252 148.202691 41.5890841 165.825628 41.5890841 165.825628 45.880486 143.234553 45.880486 143.234553 15.2412336"></polygon>
                    <polygon id="Fill-42-Copy" points="176.108671 23.6937757 180.692809 30.4737757 185.238659 23.6937757 190.885457 23.6937757 183.327538 34.0793832 191.862104 45.8803178 186.173688 45.8803178 180.692809 37.6849907 175.173642 45.8803178 169.481896 45.8803178 178.019792 34.0793832 170.457988 23.6937757"></polygon>
                </g>
            </g>
        </g>
    </g>
</svg>