<?xml version="1.0" encoding="UTF-8"?>
<svg width="1680px" height="272px" viewBox="0 0 1680 272" version="1.1" xmlns="http://www.w3.org/2000/svg" xmlns:xlink="http://www.w3.org/1999/xlink">
    <!-- Generator: Sketch 53.2 (72643) - https://sketchapp.com -->
    <title>Group 8</title>
    <desc>Created with Sketch.</desc>
    <defs>
        <rect id="path-1" x="0" y="0" width="1680" height="272"></rect>
    </defs>
    <g id="RenProject" stroke="none" stroke-width="1" fill="none" fill-rule="evenodd">
        <g id="Progress-Overview---tab-" transform="translate(0.000000, -96.000000)">
            <g id="Group-8" transform="translate(0.000000, 96.000000)">
                <mask id="mask-2" fill="white">
                    <use xlink:href="#path-1"></use>
                </mask>
                <use id="header" fill="#001C3A" transform="translate(840.000000, 136.000000) scale(1, -1) translate(-840.000000, -136.000000) " xlink:href="#path-1"></use>
                <g id="Group-7" mask="url(#mask-2)" fill="#006FE8" stroke="#001B3A" stroke-width="4">
                    <g transform="translate(882.152467, 109.778212) rotate(-2.000000) translate(-882.152467, -109.778212) translate(-45.347533, -39.721788)">
                        <path d="M925.984471,48.6482655 C922.018426,48.6482655 918.560849,46.5078808 916.730367,43.2973039 C915.764279,41.7174962 915.204965,39.8319193 915.204965,37.7934578 C915.204965,36.111727 915.611739,34.5319193 916.323593,33.1049962 C918.001535,29.486727 921.713346,26.9896116 925.984471,26.9896116 C930.66237,26.9896116 934.679261,29.9963424 936.153816,34.1751885 C936.611437,35.2963424 936.814824,36.5194193 936.814824,37.7934578 C936.814824,40.2396116 936.001276,42.4819193 934.628415,44.2655732 C932.696239,46.9155732 929.487811,48.6482655 925.984471,48.6482655 M695.592868,199.902112 C691.326827,199.902112 687.665863,197.455958 685.886228,193.837689 C685.174373,192.410765 684.7676,190.779996 684.7676,189.098265 C684.7676,187.110765 685.326914,185.225189 686.293001,183.594419 C688.169246,180.383842 691.631908,178.243458 695.592868,178.243458 C699.51315,178.243458 702.970728,180.383842 704.852057,183.543458 C705.818144,185.174227 706.377458,187.110765 706.377458,189.098265 C706.377458,190.729035 705.9656,192.359804 705.309677,193.735765 C703.580888,197.404996 699.869077,199.902112 695.592868,199.902112 M528.769842,112.350189 C524.956338,112.350189 521.600454,110.362689 519.719125,107.355958 C518.600497,105.674227 517.939489,103.686727 517.939489,101.495381 C517.939489,99.9665347 518.24457,98.4886501 518.85473,97.1636501 C520.532672,93.3415347 524.346177,90.6915347 528.769842,90.6915347 C533.086729,90.6915347 536.803625,93.2396116 538.481567,96.8578808 C539.193421,98.2848039 539.549348,99.8136501 539.549348,101.495381 C539.549348,103.533842 538.990034,105.470381 538.023946,107.050189 C536.142617,110.209804 532.679955,112.350189 528.769842,112.350189 M361.890885,263.604035 C357.568913,263.604035 353.852017,261.055958 352.174076,257.386727 C351.467306,256.010765 351.106294,254.430958 351.106294,252.800189 C351.106294,250.761727 351.670693,248.825189 352.687627,247.194419 C354.568956,244.034804 357.975687,241.945381 361.890885,241.945381 C365.806083,241.945381 369.212814,243.983842 371.094143,247.092496 C372.111077,248.774227 372.716153,250.710765 372.716153,252.800189 C372.716153,254.379996 372.365311,255.908842 371.704303,257.284804 C370.026361,261.004996 366.263703,263.604035 361.890885,263.604035 M234.774068,199.902112 C230.960564,199.902112 227.599595,197.914612 225.672504,194.907881 C224.604723,193.22615 223.989477,191.187689 223.989477,189.098265 C223.989477,187.569419 224.350489,186.040573 224.96065,184.715573 C226.587745,180.893458 230.40125,178.243458 234.774068,178.243458 C239.09604,178.243458 242.757004,180.740573 244.485793,184.409804 C245.197647,185.836727 245.599336,187.416535 245.599336,189.098265 C245.599336,191.085765 245.045107,192.971342 244.079019,194.602112 C242.19769,197.761727 238.740113,199.902112 234.774068,199.902112 M115.640188,271.604996 C111.369062,271.604996 107.657251,269.107881 105.928463,265.43865 C105.216609,264.011727 104.809835,262.431919 104.809835,260.750189 C104.809835,258.762689 105.369149,256.877112 106.335237,255.246342 L106.386083,255.246342 C108.216565,252.086727 111.674143,249.946342 115.640188,249.946342 C119.504539,249.946342 122.911269,251.984804 124.792598,255.042496 C125.809533,256.724227 126.419694,258.660765 126.419694,260.750189 C126.419694,262.380958 126.063767,263.909804 125.402759,265.285765 C123.67397,269.005958 119.957075,271.604996 115.640188,271.604996 M946.984169,37.7934578 C946.984169,26.2251885 937.577525,16.7973039 925.984471,16.7973039 C915.560892,16.7973039 906.866102,24.4924962 905.289853,34.4809578 C858.866792,42.6348039 830.087545,78.0021116 802.167607,112.350189 C776.495095,143.895381 752.037819,173.911727 715.275636,181.912689 C712.377372,173.809804 704.64867,168.05115 695.592868,168.05115 C686.445542,168.05115 678.564299,174.01365 675.767729,182.269419 C646.124087,176.765573 629.192127,158.929035 611.395773,140.22615 C601.124734,129.473265 590.752002,118.465573 577.73524,110.209804 C569.543832,105.011727 560.345659,100.832881 549.515307,98.4886501 C548.040751,88.3473039 539.295114,80.499227 528.769842,80.499227 C517.685256,80.499227 508.583692,89.111727 507.820991,100.017496 C479.24513,110.41365 462.058937,141.602112 445.330364,171.975189 C427.534009,204.335765 410.500356,235.218458 381.314335,244.697304 C378.110991,237.104035 370.636522,231.753073 361.890885,231.753073 C353.043555,231.753073 345.467392,237.307881 342.411504,245.104996 C326.603257,240.569419 317.044072,230.275189 306.366259,218.859804 C298.73925,210.705958 290.603774,201.940573 279.468341,195.315573 C272.756573,191.289612 264.977024,187.977112 255.519533,186.040573 C254.044978,175.848265 245.299341,168.05115 234.774068,168.05115 C223.740329,168.05115 214.689611,176.66365 213.876064,187.569419 C197.091559,193.735765 186.113751,207.036727 175.435938,220.031919 C163.944578,233.893458 152.961685,247.245381 135.063637,252.800189 C131.860293,245.155958 124.385825,239.754035 115.640188,239.754035 C106.58947,239.754035 98.9116145,245.461727 95.9625043,253.51365 C81.9796545,250.303073 72.6747035,243.627112 62.9629787,236.696342 C48.6242017,226.453073 33.8278043,215.853073 4.3875495,215.853073 L4.3875495,226.045381 C30.5685291,226.045381 43.4378356,235.269419 57.0647584,245.003073 C67.5391841,252.494419 78.3186901,260.189612 94.8438763,263.756919 C96.3184314,273.949227 105.064068,281.797304 115.640188,281.797304 C126.419694,281.797304 135.317871,273.592496 136.482261,263.043458 C158.300591,256.724227 171.3682,240.875189 183.266334,226.504035 C190.435723,217.840573 197.091559,209.78865 205.07958,203.877112 C208.384617,201.430958 211.893041,199.341535 215.757392,197.812689 C219.06243,205.049227 226.328427,210.094419 234.774068,210.094419 C243.875632,210.094419 251.604335,204.335765 254.497514,196.232881 C275.60399,200.870381 286.993657,213.10115 298.942637,225.841535 C310.128917,237.817496 321.620277,250.150189 341.094574,255.348265 C342.365742,265.744419 351.213072,273.796342 361.890885,273.796342 C372.772085,273.796342 381.721108,265.489612 382.78889,254.940573 C416.80535,244.90115 435.771179,210.400189 454.228541,176.918458 C470.296106,147.768458 485.600971,119.994419 509.651473,110.209804 C512.95651,117.497304 520.278439,122.542496 528.769842,122.542496 C537.764628,122.542496 545.498415,116.783842 548.396679,108.731919 C572.803107,114.38865 588.057125,130.492496 604.022998,147.258842 C622.480359,166.675189 641.446188,186.60115 674.903335,192.512689 C676.525345,202.450189 685.220135,210.094419 695.592868,210.094419 C706.123225,210.094419 714.863777,202.246342 716.343417,192.104996 C757.275032,183.645381 784.071257,150.724227 810.053934,118.771342 C836.489147,86.2578808 863.748078,52.7761501 906.205094,44.724227 C909.052511,52.9290347 916.83206,58.8405732 925.984471,58.8405732 C933.504702,58.8405732 940.119861,54.8655732 943.831672,48.9030732 C949.208714,38.119143 946.714046,41.2078808 950.22247,44.724227 L962.38755,44.724227 C957.607957,39.9848039 951.763762,41.6665347 946.933323,38.9146116 C946.984169,38.5578808 946.984169,38.1501885 946.984169,37.7934578 Z" id="Fill-1" transform="translate(483.387550, 149.297304) rotate(2.000000) translate(-483.387550, -149.297304) "></path>
                        <path d="M1638.50638,198.267488 C1634.24128,198.267488 1630.58113,195.825957 1628.80188,192.214525 C1628.09019,190.790299 1627.6835,189.162611 1627.6835,187.484058 C1627.6835,185.500314 1628.24269,183.618301 1629.20857,181.990613 C1631.0844,178.786103 1634.5463,176.649764 1638.50638,176.649764 C1642.4258,176.649764 1645.88261,178.786103 1647.76352,181.939748 C1648.7294,183.567435 1649.28859,185.500314 1649.28859,187.484058 C1649.28859,189.111746 1648.87682,190.739433 1648.22104,192.112795 C1646.49264,195.775092 1642.78165,198.267488 1638.50638,198.267488 M1471.72019,110.881016 C1467.90753,110.881016 1464.55239,108.897272 1462.67147,105.896223 C1461.55309,104.21767 1460.89223,102.233926 1460.89223,100.046721 C1460.89223,98.520764 1461.19724,97.0456722 1461.80727,95.7231761 C1463.48484,91.9082836 1467.2975,89.2632914 1471.72019,89.2632914 C1476.03613,89.2632914 1479.7522,91.8065531 1481.42977,95.4179847 C1482.14147,96.8422113 1482.49732,98.3681683 1482.49732,100.046721 C1482.49732,102.08133 1481.93813,104.014209 1480.97225,105.591032 C1479.09134,108.744676 1475.62944,110.881016 1471.72019,110.881016 M1304.87809,261.849031 C1300.55707,261.849031 1296.84099,259.305769 1295.16342,255.643472 C1294.45681,254.270111 1294.09588,252.693289 1294.09588,251.065601 C1294.09588,249.030992 1294.66015,247.098113 1295.67686,245.470425 C1297.55777,242.316781 1300.96375,240.231306 1304.87809,240.231306 C1308.79242,240.231306 1312.1984,242.265916 1314.07931,245.368695 C1315.09602,247.047248 1315.70096,248.980126 1315.70096,251.065601 C1315.70096,252.642423 1315.3502,254.16838 1314.68934,255.541742 C1313.01177,259.254904 1309.24994,261.849031 1304.87809,261.849031 M1177.78934,198.267488 C1173.97668,198.267488 1170.61645,196.283744 1168.68978,193.282695 C1167.62224,191.604142 1167.00713,189.569533 1167.00713,187.484058 C1167.00713,185.958101 1167.36806,184.432144 1167.97809,183.109648 C1169.60482,179.294756 1173.41749,176.649764 1177.78934,176.649764 C1182.11036,176.649764 1185.77051,179.14216 1187.49892,182.804457 C1188.21062,184.228683 1188.61222,185.805506 1188.61222,187.484058 C1188.61222,189.467803 1188.05811,191.349816 1187.09223,192.977504 C1185.21132,196.131148 1181.75451,198.267488 1177.78934,198.267488 M1058.68176,269.834872 C1054.41158,269.834872 1050.70059,267.342476 1048.97218,263.680179 C1048.26049,262.255953 1047.8538,260.67913 1047.8538,259.000578 C1047.8538,257.016833 1048.41299,255.13482 1049.37887,253.507132 L1049.4297,253.507132 C1051.25978,250.353488 1054.7166,248.217148 1058.68176,248.217148 C1062.54526,248.217148 1065.95124,250.251757 1067.83215,253.303671 C1068.84886,254.982224 1069.45889,256.915103 1069.45889,259.000578 C1069.45889,260.628265 1069.10304,262.154222 1068.44218,263.527583 C1066.71377,267.240745 1062.9977,269.834872 1058.68176,269.834872 M1848.15706,33.1589382 C1801.74425,41.2973757 1772.97136,76.5978481 1745.05759,110.881016 C1719.39074,142.366596 1694.93887,172.326219 1658.1848,180.31206 C1655.28718,172.224488 1647.56018,166.476717 1638.50638,166.476717 C1629.36107,166.476717 1621.48157,172.427949 1618.68562,180.668117 C1589.04852,175.174672 1572.1203,157.37184 1554.32788,138.704299 C1544.05911,127.971735 1533.68867,116.984844 1520.67478,108.744676 C1512.48518,103.556422 1503.28904,99.385473 1492.46108,97.0456722 C1490.98685,86.9234906 1482.24314,79.0902446 1471.72019,79.0902446 C1460.63805,79.0902446 1451.5385,87.6864691 1450.77597,98.5716292 C1422.20642,108.948137 1405.02402,140.07766 1388.29914,170.39334 C1370.50671,202.692763 1353.47682,233.517095 1324.29725,242.978029 C1321.09461,235.399109 1313.62179,230.058259 1304.87809,230.058259 C1296.03271,230.058259 1288.45822,235.60257 1285.40301,243.384951 C1269.59825,238.857945 1260.04118,228.583168 1249.36572,217.189355 C1241.7404,209.050918 1233.60672,200.302097 1222.47374,193.689617 C1215.76346,189.671263 1207.98562,186.365023 1198.53022,184.432144 C1197.05599,174.259098 1188.31229,166.476717 1177.78934,166.476717 C1166.75804,166.476717 1157.70932,175.072941 1156.89595,185.958101 C1140.11515,192.112795 1129.13977,205.388621 1118.46431,218.359256 C1106.97549,232.194599 1095.99502,245.521291 1078.10093,251.065601 C1074.89829,243.435816 1067.42547,238.044101 1058.68176,238.044101 C1049.63305,238.044101 1041.95689,243.741007 1039.00843,251.777714 C1025.02866,248.573205 1015.72577,241.909859 1006.01619,234.992187 C991.680577,224.768275 976.887447,214.188306 947.453693,214.188306 L947.453693,224.361353 C973.628892,224.361353 986.495357,233.567961 1000.11927,243.28322 C1010.59138,250.76041 1021.36851,258.44106 1037.89005,262.001626 C1039.36428,272.174673 1048.10798,280.007919 1058.68176,280.007919 C1069.45889,280.007919 1078.3551,271.818617 1079.51924,261.289513 C1101.33275,254.982224 1114.39747,239.163136 1126.29298,224.81914 C1133.46078,216.17205 1140.11515,208.135343 1148.10141,202.234976 C1151.40571,199.793445 1154.91336,197.70797 1158.77686,196.182013 C1162.08117,203.404877 1169.34556,208.440535 1177.78934,208.440535 C1186.88889,208.440535 1194.61589,202.692763 1197.50843,194.605191 C1218.61024,199.233928 1229.9974,211.441584 1241.94374,224.157892 C1253.12755,236.111222 1264.61637,248.420609 1284.08637,253.608863 C1285.35725,263.985371 1294.20263,272.022077 1304.87809,272.022077 C1315.75688,272.022077 1324.70393,263.731044 1325.77148,253.201941 C1359.78042,243.18149 1378.74207,208.745726 1397.19535,175.327267 C1413.25937,146.232354 1428.56085,118.510801 1452.60604,108.744676 C1455.91035,116.018405 1463.23066,121.054063 1471.72019,121.054063 C1480.71299,121.054063 1488.44507,115.306291 1491.3427,107.269584 C1515.74373,112.915625 1530.99438,128.989039 1546.95673,145.723701 C1565.41002,165.103355 1584.37166,184.991662 1617.82142,190.892029 C1619.44307,200.81075 1628.13594,208.440535 1638.50638,208.440535 C1649.03441,208.440535 1657.77303,200.607289 1659.25235,190.485107 C1700.17492,182.041478 1726.96523,149.182537 1752.94217,117.290035 C1779.37155,84.838016 1806.62446,51.4195572 1849.0721,43.3828502 C1851.91889,51.5721529 1849.73296,23.1893523 1848.15706,33.1589382 Z" id="Fill-1-Copy" transform="translate(1398.953693, 155.507919) scale(-1, 1) rotate(2.000000) translate(-1398.953693, -155.507919) "></path>
                    </g>
                </g>
                <g id="Group-10" opacity="0.5" mask="url(#mask-2)">
                    <g transform="translate(-55.000000, -140.000000)">
                        <g id="Group-7-Copy-2" opacity="0.05" transform="translate(937.152467, 229.778212) rotate(-5.000000) translate(-937.152467, -229.778212) translate(9.652467, 80.278212)">
                            <path d="M925.984471,48.6482655 C922.018426,48.6482655 918.560849,46.5078808 916.730367,43.2973039 C915.764279,41.7174962 915.204965,39.8319193 915.204965,37.7934578 C915.204965,36.111727 915.611739,34.5319193 916.323593,33.1049962 C918.001535,29.486727 921.713346,26.9896116 925.984471,26.9896116 C930.66237,26.9896116 934.679261,29.9963424 936.153816,34.1751885 C936.611437,35.2963424 936.814824,36.5194193 936.814824,37.7934578 C936.814824,40.2396116 936.001276,42.4819193 934.628415,44.2655732 C932.696239,46.9155732 929.487811,48.6482655 925.984471,48.6482655 M695.592868,199.902112 C691.326827,199.902112 687.665863,197.455958 685.886228,193.837689 C685.174373,192.410765 684.7676,190.779996 684.7676,189.098265 C684.7676,187.110765 685.326914,185.225189 686.293001,183.594419 C688.169246,180.383842 691.631908,178.243458 695.592868,178.243458 C699.51315,178.243458 702.970728,180.383842 704.852057,183.543458 C705.818144,185.174227 706.377458,187.110765 706.377458,189.098265 C706.377458,190.729035 705.9656,192.359804 705.309677,193.735765 C703.580888,197.404996 699.869077,199.902112 695.592868,199.902112 M528.769842,112.350189 C524.956338,112.350189 521.600454,110.362689 519.719125,107.355958 C518.600497,105.674227 517.939489,103.686727 517.939489,101.495381 C517.939489,99.9665347 518.24457,98.4886501 518.85473,97.1636501 C520.532672,93.3415347 524.346177,90.6915347 528.769842,90.6915347 C533.086729,90.6915347 536.803625,93.2396116 538.481567,96.8578808 C539.193421,98.2848039 539.549348,99.8136501 539.549348,101.495381 C539.549348,103.533842 538.990034,105.470381 538.023946,107.050189 C536.142617,110.209804 532.679955,112.350189 528.769842,112.350189 M361.890885,263.604035 C357.568913,263.604035 353.852017,261.055958 352.174076,257.386727 C351.467306,256.010765 351.106294,254.430958 351.106294,252.800189 C351.106294,250.761727 351.670693,248.825189 352.687627,247.194419 C354.568956,244.034804 357.975687,241.945381 361.890885,241.945381 C365.806083,241.945381 369.212814,243.983842 371.094143,247.092496 C372.111077,248.774227 372.716153,250.710765 372.716153,252.800189 C372.716153,254.379996 372.365311,255.908842 371.704303,257.284804 C370.026361,261.004996 366.263703,263.604035 361.890885,263.604035 M234.774068,199.902112 C230.960564,199.902112 227.599595,197.914612 225.672504,194.907881 C224.604723,193.22615 223.989477,191.187689 223.989477,189.098265 C223.989477,187.569419 224.350489,186.040573 224.96065,184.715573 C226.587745,180.893458 230.40125,178.243458 234.774068,178.243458 C239.09604,178.243458 242.757004,180.740573 244.485793,184.409804 C245.197647,185.836727 245.599336,187.416535 245.599336,189.098265 C245.599336,191.085765 245.045107,192.971342 244.079019,194.602112 C242.19769,197.761727 238.740113,199.902112 234.774068,199.902112 M115.640188,271.604996 C111.369062,271.604996 107.657251,269.107881 105.928463,265.43865 C105.216609,264.011727 104.809835,262.431919 104.809835,260.750189 C104.809835,258.762689 105.369149,256.877112 106.335237,255.246342 L106.386083,255.246342 C108.216565,252.086727 111.674143,249.946342 115.640188,249.946342 C119.504539,249.946342 122.911269,251.984804 124.792598,255.042496 C125.809533,256.724227 126.419694,258.660765 126.419694,260.750189 C126.419694,262.380958 126.063767,263.909804 125.402759,265.285765 C123.67397,269.005958 119.957075,271.604996 115.640188,271.604996 M946.984169,37.7934578 C946.984169,26.2251885 937.577525,16.7973039 925.984471,16.7973039 C915.560892,16.7973039 906.866102,24.4924962 905.289853,34.4809578 C858.866792,42.6348039 830.087545,78.0021116 802.167607,112.350189 C776.495095,143.895381 752.037819,173.911727 715.275636,181.912689 C712.377372,173.809804 704.64867,168.05115 695.592868,168.05115 C686.445542,168.05115 678.564299,174.01365 675.767729,182.269419 C646.124087,176.765573 629.192127,158.929035 611.395773,140.22615 C601.124734,129.473265 590.752002,118.465573 577.73524,110.209804 C569.543832,105.011727 560.345659,100.832881 549.515307,98.4886501 C548.040751,88.3473039 539.295114,80.499227 528.769842,80.499227 C517.685256,80.499227 508.583692,89.111727 507.820991,100.017496 C479.24513,110.41365 462.058937,141.602112 445.330364,171.975189 C427.534009,204.335765 410.500356,235.218458 381.314335,244.697304 C378.110991,237.104035 370.636522,231.753073 361.890885,231.753073 C353.043555,231.753073 345.467392,237.307881 342.411504,245.104996 C326.603257,240.569419 317.044072,230.275189 306.366259,218.859804 C298.73925,210.705958 290.603774,201.940573 279.468341,195.315573 C272.756573,191.289612 264.977024,187.977112 255.519533,186.040573 C254.044978,175.848265 245.299341,168.05115 234.774068,168.05115 C223.740329,168.05115 214.689611,176.66365 213.876064,187.569419 C197.091559,193.735765 186.113751,207.036727 175.435938,220.031919 C163.944578,233.893458 152.961685,247.245381 135.063637,252.800189 C131.860293,245.155958 124.385825,239.754035 115.640188,239.754035 C106.58947,239.754035 98.9116145,245.461727 95.9625043,253.51365 C81.9796545,250.303073 72.6747035,243.627112 62.9629787,236.696342 C48.6242017,226.453073 33.8278043,215.853073 4.3875495,215.853073 L4.3875495,226.045381 C30.5685291,226.045381 43.4378356,235.269419 57.0647584,245.003073 C67.5391841,252.494419 78.3186901,260.189612 94.8438763,263.756919 C96.3184314,273.949227 105.064068,281.797304 115.640188,281.797304 C126.419694,281.797304 135.317871,273.592496 136.482261,263.043458 C158.300591,256.724227 171.3682,240.875189 183.266334,226.504035 C190.435723,217.840573 197.091559,209.78865 205.07958,203.877112 C208.384617,201.430958 211.893041,199.341535 215.757392,197.812689 C219.06243,205.049227 226.328427,210.094419 234.774068,210.094419 C243.875632,210.094419 251.604335,204.335765 254.497514,196.232881 C275.60399,200.870381 286.993657,213.10115 298.942637,225.841535 C310.128917,237.817496 321.620277,250.150189 341.094574,255.348265 C342.365742,265.744419 351.213072,273.796342 361.890885,273.796342 C372.772085,273.796342 381.721108,265.489612 382.78889,254.940573 C416.80535,244.90115 435.771179,210.400189 454.228541,176.918458 C470.296106,147.768458 485.600971,119.994419 509.651473,110.209804 C512.95651,117.497304 520.278439,122.542496 528.769842,122.542496 C537.764628,122.542496 545.498415,116.783842 548.396679,108.731919 C572.803107,114.38865 588.057125,130.492496 604.022998,147.258842 C622.480359,166.675189 641.446188,186.60115 674.903335,192.512689 C676.525345,202.450189 685.220135,210.094419 695.592868,210.094419 C706.123225,210.094419 714.863777,202.246342 716.343417,192.104996 C757.275032,183.645381 784.071257,150.724227 810.053934,118.771342 C836.489147,86.2578808 863.748078,52.7761501 906.205094,44.724227 C909.052511,52.9290347 916.83206,58.8405732 925.984471,58.8405732 C933.504702,58.8405732 940.119861,54.8655732 943.831672,48.9030732 C949.208714,38.119143 946.714046,41.2078808 950.22247,44.724227 L962.38755,44.724227 C957.607957,39.9848039 951.763762,41.6665347 946.933323,38.9146116 C946.984169,38.5578808 946.984169,38.1501885 946.984169,37.7934578 Z" id="Fill-1" stroke="#001B3A" stroke-width="4" fill="#006FE8" transform="translate(483.387550, 149.297304) rotate(2.000000) translate(-483.387550, -149.297304) "></path>
                            <path d="M1638.50638,198.267488 C1634.24128,198.267488 1630.58113,195.825957 1628.80188,192.214525 C1628.09019,190.790299 1627.6835,189.162611 1627.6835,187.484058 C1627.6835,185.500314 1628.24269,183.618301 1629.20857,181.990613 C1631.0844,178.786103 1634.5463,176.649764 1638.50638,176.649764 C1642.4258,176.649764 1645.88261,178.786103 1647.76352,181.939748 C1648.7294,183.567435 1649.28859,185.500314 1649.28859,187.484058 C1649.28859,189.111746 1648.87682,190.739433 1648.22104,192.112795 C1646.49264,195.775092 1642.78165,198.267488 1638.50638,198.267488 M1471.72019,110.881016 C1467.90753,110.881016 1464.55239,108.897272 1462.67147,105.896223 C1461.55309,104.21767 1460.89223,102.233926 1460.89223,100.046721 C1460.89223,98.520764 1461.19724,97.0456722 1461.80727,95.7231761 C1463.48484,91.9082836 1467.2975,89.2632914 1471.72019,89.2632914 C1476.03613,89.2632914 1479.7522,91.8065531 1481.42977,95.4179847 C1482.14147,96.8422113 1482.49732,98.3681683 1482.49732,100.046721 C1482.49732,102.08133 1481.93813,104.014209 1480.97225,105.591032 C1479.09134,108.744676 1475.62944,110.881016 1471.72019,110.881016 M1304.87809,261.849031 C1300.55707,261.849031 1296.84099,259.305769 1295.16342,255.643472 C1294.45681,254.270111 1294.09588,252.693289 1294.09588,251.065601 C1294.09588,249.030992 1294.66015,247.098113 1295.67686,245.470425 C1297.55777,242.316781 1300.96375,240.231306 1304.87809,240.231306 C1308.79242,240.231306 1312.1984,242.265916 1314.07931,245.368695 C1315.09602,247.047248 1315.70096,248.980126 1315.70096,251.065601 C1315.70096,252.642423 1315.3502,254.16838 1314.68934,255.541742 C1313.01177,259.254904 1309.24994,261.849031 1304.87809,261.849031 M1177.78934,198.267488 C1173.97668,198.267488 1170.61645,196.283744 1168.68978,193.282695 C1167.62224,191.604142 1167.00713,189.569533 1167.00713,187.484058 C1167.00713,185.958101 1167.36806,184.432144 1167.97809,183.109648 C1169.60482,179.294756 1173.41749,176.649764 1177.78934,176.649764 C1182.11036,176.649764 1185.77051,179.14216 1187.49892,182.804457 C1188.21062,184.228683 1188.61222,185.805506 1188.61222,187.484058 C1188.61222,189.467803 1188.05811,191.349816 1187.09223,192.977504 C1185.21132,196.131148 1181.75451,198.267488 1177.78934,198.267488 M1058.68176,269.834872 C1054.41158,269.834872 1050.70059,267.342476 1048.97218,263.680179 C1048.26049,262.255953 1047.8538,260.67913 1047.8538,259.000578 C1047.8538,257.016833 1048.41299,255.13482 1049.37887,253.507132 L1049.4297,253.507132 C1051.25978,250.353488 1054.7166,248.217148 1058.68176,248.217148 C1062.54526,248.217148 1065.95124,250.251757 1067.83215,253.303671 C1068.84886,254.982224 1069.45889,256.915103 1069.45889,259.000578 C1069.45889,260.628265 1069.10304,262.154222 1068.44218,263.527583 C1066.71377,267.240745 1062.9977,269.834872 1058.68176,269.834872 M1848.15706,33.1589382 C1801.74425,41.2973757 1772.97136,76.5978481 1745.05759,110.881016 C1719.39074,142.366596 1694.93887,172.326219 1658.1848,180.31206 C1655.28718,172.224488 1647.56018,166.476717 1638.50638,166.476717 C1629.36107,166.476717 1621.48157,172.427949 1618.68562,180.668117 C1589.04852,175.174672 1572.1203,157.37184 1554.32788,138.704299 C1544.05911,127.971735 1533.68867,116.984844 1520.67478,108.744676 C1512.48518,103.556422 1503.28904,99.385473 1492.46108,97.0456722 C1490.98685,86.9234906 1482.24314,79.0902446 1471.72019,79.0902446 C1460.63805,79.0902446 1451.5385,87.6864691 1450.77597,98.5716292 C1422.20642,108.948137 1405.02402,140.07766 1388.29914,170.39334 C1370.50671,202.692763 1353.47682,233.517095 1324.29725,242.978029 C1321.09461,235.399109 1313.62179,230.058259 1304.87809,230.058259 C1296.03271,230.058259 1288.45822,235.60257 1285.40301,243.384951 C1269.59825,238.857945 1260.04118,228.583168 1249.36572,217.189355 C1241.7404,209.050918 1233.60672,200.302097 1222.47374,193.689617 C1215.76346,189.671263 1207.98562,186.365023 1198.53022,184.432144 C1197.05599,174.259098 1188.31229,166.476717 1177.78934,166.476717 C1166.75804,166.476717 1157.70932,175.072941 1156.89595,185.958101 C1140.11515,192.112795 1129.13977,205.388621 1118.46431,218.359256 C1106.97549,232.194599 1095.99502,245.521291 1078.10093,251.065601 C1074.89829,243.435816 1067.42547,238.044101 1058.68176,238.044101 C1049.63305,238.044101 1041.95689,243.741007 1039.00843,251.777714 C1025.02866,248.573205 1015.72577,241.909859 1006.01619,234.992187 C991.680577,224.768275 976.887447,214.188306 947.453693,214.188306 L947.453693,224.361353 C973.628892,224.361353 986.495357,233.567961 1000.11927,243.28322 C1010.59138,250.76041 1021.36851,258.44106 1037.89005,262.001626 C1039.36428,272.174673 1048.10798,280.007919 1058.68176,280.007919 C1069.45889,280.007919 1078.3551,271.818617 1079.51924,261.289513 C1101.33275,254.982224 1114.39747,239.163136 1126.29298,224.81914 C1133.46078,216.17205 1140.11515,208.135343 1148.10141,202.234976 C1151.40571,199.793445 1154.91336,197.70797 1158.77686,196.182013 C1162.08117,203.404877 1169.34556,208.440535 1177.78934,208.440535 C1186.88889,208.440535 1194.61589,202.692763 1197.50843,194.605191 C1218.61024,199.233928 1229.9974,211.441584 1241.94374,224.157892 C1253.12755,236.111222 1264.61637,248.420609 1284.08637,253.608863 C1285.35725,263.985371 1294.20263,272.022077 1304.87809,272.022077 C1315.75688,272.022077 1324.70393,263.731044 1325.77148,253.201941 C1359.78042,243.18149 1378.74207,208.745726 1397.19535,175.327267 C1413.25937,146.232354 1428.56085,118.510801 1452.60604,108.744676 C1455.91035,116.018405 1463.23066,121.054063 1471.72019,121.054063 C1480.71299,121.054063 1488.44507,115.306291 1491.3427,107.269584 C1515.74373,112.915625 1530.99438,128.989039 1546.95673,145.723701 C1565.41002,165.103355 1584.37166,184.991662 1617.82142,190.892029 C1619.44307,200.81075 1628.13594,208.440535 1638.50638,208.440535 C1649.03441,208.440535 1657.77303,200.607289 1659.25235,190.485107 C1700.17492,182.041478 1726.96523,149.182537 1752.94217,117.290035 C1779.37155,84.838016 1806.62446,51.4195572 1849.0721,43.3828502 C1851.91889,51.5721529 1849.73296,23.1893523 1848.15706,33.1589382 Z" id="Fill-1-Copy" stroke="#001B3A" stroke-width="4" fill="#006FE8" transform="translate(1398.953693, 155.507919) scale(-1, 1) rotate(2.000000) translate(-1398.953693, -155.507919) "></path>
                        </g>
                        <g id="Group-7-Copy" opacity="0.100000001" transform="translate(937.152467, 292.778212) rotate(1.000000) translate(-937.152467, -292.778212) translate(9.652467, 143.278212)">
                            <path d="M925.984471,48.6482655 C922.018426,48.6482655 918.560849,46.5078808 916.730367,43.2973039 C915.764279,41.7174962 915.204965,39.8319193 915.204965,37.7934578 C915.204965,36.111727 915.611739,34.5319193 916.323593,33.1049962 C918.001535,29.486727 921.713346,26.9896116 925.984471,26.9896116 C930.66237,26.9896116 934.679261,29.9963424 936.153816,34.1751885 C936.611437,35.2963424 936.814824,36.5194193 936.814824,37.7934578 C936.814824,40.2396116 936.001276,42.4819193 934.628415,44.2655732 C932.696239,46.9155732 929.487811,48.6482655 925.984471,48.6482655 M695.592868,199.902112 C691.326827,199.902112 687.665863,197.455958 685.886228,193.837689 C685.174373,192.410765 684.7676,190.779996 684.7676,189.098265 C684.7676,187.110765 685.326914,185.225189 686.293001,183.594419 C688.169246,180.383842 691.631908,178.243458 695.592868,178.243458 C699.51315,178.243458 702.970728,180.383842 704.852057,183.543458 C705.818144,185.174227 706.377458,187.110765 706.377458,189.098265 C706.377458,190.729035 705.9656,192.359804 705.309677,193.735765 C703.580888,197.404996 699.869077,199.902112 695.592868,199.902112 M528.769842,112.350189 C524.956338,112.350189 521.600454,110.362689 519.719125,107.355958 C518.600497,105.674227 517.939489,103.686727 517.939489,101.495381 C517.939489,99.9665347 518.24457,98.4886501 518.85473,97.1636501 C520.532672,93.3415347 524.346177,90.6915347 528.769842,90.6915347 C533.086729,90.6915347 536.803625,93.2396116 538.481567,96.8578808 C539.193421,98.2848039 539.549348,99.8136501 539.549348,101.495381 C539.549348,103.533842 538.990034,105.470381 538.023946,107.050189 C536.142617,110.209804 532.679955,112.350189 528.769842,112.350189 M361.890885,263.604035 C357.568913,263.604035 353.852017,261.055958 352.174076,257.386727 C351.467306,256.010765 351.106294,254.430958 351.106294,252.800189 C351.106294,250.761727 351.670693,248.825189 352.687627,247.194419 C354.568956,244.034804 357.975687,241.945381 361.890885,241.945381 C365.806083,241.945381 369.212814,243.983842 371.094143,247.092496 C372.111077,248.774227 372.716153,250.710765 372.716153,252.800189 C372.716153,254.379996 372.365311,255.908842 371.704303,257.284804 C370.026361,261.004996 366.263703,263.604035 361.890885,263.604035 M234.774068,199.902112 C230.960564,199.902112 227.599595,197.914612 225.672504,194.907881 C224.604723,193.22615 223.989477,191.187689 223.989477,189.098265 C223.989477,187.569419 224.350489,186.040573 224.96065,184.715573 C226.587745,180.893458 230.40125,178.243458 234.774068,178.243458 C239.09604,178.243458 242.757004,180.740573 244.485793,184.409804 C245.197647,185.836727 245.599336,187.416535 245.599336,189.098265 C245.599336,191.085765 245.045107,192.971342 244.079019,194.602112 C242.19769,197.761727 238.740113,199.902112 234.774068,199.902112 M115.640188,271.604996 C111.369062,271.604996 107.657251,269.107881 105.928463,265.43865 C105.216609,264.011727 104.809835,262.431919 104.809835,260.750189 C104.809835,258.762689 105.369149,256.877112 106.335237,255.246342 L106.386083,255.246342 C108.216565,252.086727 111.674143,249.946342 115.640188,249.946342 C119.504539,249.946342 122.911269,251.984804 124.792598,255.042496 C125.809533,256.724227 126.419694,258.660765 126.419694,260.750189 C126.419694,262.380958 126.063767,263.909804 125.402759,265.285765 C123.67397,269.005958 119.957075,271.604996 115.640188,271.604996 M946.984169,37.7934578 C946.984169,26.2251885 937.577525,16.7973039 925.984471,16.7973039 C915.560892,16.7973039 906.866102,24.4924962 905.289853,34.4809578 C858.866792,42.6348039 830.087545,78.0021116 802.167607,112.350189 C776.495095,143.895381 752.037819,173.911727 715.275636,181.912689 C712.377372,173.809804 704.64867,168.05115 695.592868,168.05115 C686.445542,168.05115 678.564299,174.01365 675.767729,182.269419 C646.124087,176.765573 629.192127,158.929035 611.395773,140.22615 C601.124734,129.473265 590.752002,118.465573 577.73524,110.209804 C569.543832,105.011727 560.345659,100.832881 549.515307,98.4886501 C548.040751,88.3473039 539.295114,80.499227 528.769842,80.499227 C517.685256,80.499227 508.583692,89.111727 507.820991,100.017496 C479.24513,110.41365 462.058937,141.602112 445.330364,171.975189 C427.534009,204.335765 410.500356,235.218458 381.314335,244.697304 C378.110991,237.104035 370.636522,231.753073 361.890885,231.753073 C353.043555,231.753073 345.467392,237.307881 342.411504,245.104996 C326.603257,240.569419 317.044072,230.275189 306.366259,218.859804 C298.73925,210.705958 290.603774,201.940573 279.468341,195.315573 C272.756573,191.289612 264.977024,187.977112 255.519533,186.040573 C254.044978,175.848265 245.299341,168.05115 234.774068,168.05115 C223.740329,168.05115 214.689611,176.66365 213.876064,187.569419 C197.091559,193.735765 186.113751,207.036727 175.435938,220.031919 C163.944578,233.893458 152.961685,247.245381 135.063637,252.800189 C131.860293,245.155958 124.385825,239.754035 115.640188,239.754035 C106.58947,239.754035 98.9116145,245.461727 95.9625043,253.51365 C81.9796545,250.303073 72.6747035,243.627112 62.9629787,236.696342 C48.6242017,226.453073 33.8278043,215.853073 4.3875495,215.853073 L4.3875495,226.045381 C30.5685291,226.045381 43.4378356,235.269419 57.0647584,245.003073 C67.5391841,252.494419 78.3186901,260.189612 94.8438763,263.756919 C96.3184314,273.949227 105.064068,281.797304 115.640188,281.797304 C126.419694,281.797304 135.317871,273.592496 136.482261,263.043458 C158.300591,256.724227 171.3682,240.875189 183.266334,226.504035 C190.435723,217.840573 197.091559,209.78865 205.07958,203.877112 C208.384617,201.430958 211.893041,199.341535 215.757392,197.812689 C219.06243,205.049227 226.328427,210.094419 234.774068,210.094419 C243.875632,210.094419 251.604335,204.335765 254.497514,196.232881 C275.60399,200.870381 286.993657,213.10115 298.942637,225.841535 C310.128917,237.817496 321.620277,250.150189 341.094574,255.348265 C342.365742,265.744419 351.213072,273.796342 361.890885,273.796342 C372.772085,273.796342 381.721108,265.489612 382.78889,254.940573 C416.80535,244.90115 435.771179,210.400189 454.228541,176.918458 C470.296106,147.768458 485.600971,119.994419 509.651473,110.209804 C512.95651,117.497304 520.278439,122.542496 528.769842,122.542496 C537.764628,122.542496 545.498415,116.783842 548.396679,108.731919 C572.803107,114.38865 588.057125,130.492496 604.022998,147.258842 C622.480359,166.675189 641.446188,186.60115 674.903335,192.512689 C676.525345,202.450189 685.220135,210.094419 695.592868,210.094419 C706.123225,210.094419 714.863777,202.246342 716.343417,192.104996 C757.275032,183.645381 784.071257,150.724227 810.053934,118.771342 C836.489147,86.2578808 863.748078,52.7761501 906.205094,44.724227 C909.052511,52.9290347 916.83206,58.8405732 925.984471,58.8405732 C933.504702,58.8405732 940.119861,54.8655732 943.831672,48.9030732 C949.208714,38.119143 946.714046,41.2078808 950.22247,44.724227 L962.38755,44.724227 C957.607957,39.9848039 951.763762,41.6665347 946.933323,38.9146116 C946.984169,38.5578808 946.984169,38.1501885 946.984169,37.7934578 Z" id="Fill-1" stroke="#001B3A" stroke-width="4" fill="#006FE8" transform="translate(483.387550, 149.297304) rotate(2.000000) translate(-483.387550, -149.297304) "></path>
                            <path d="M1638.50638,198.267488 C1634.24128,198.267488 1630.58113,195.825957 1628.80188,192.214525 C1628.09019,190.790299 1627.6835,189.162611 1627.6835,187.484058 C1627.6835,185.500314 1628.24269,183.618301 1629.20857,181.990613 C1631.0844,178.786103 1634.5463,176.649764 1638.50638,176.649764 C1642.4258,176.649764 1645.88261,178.786103 1647.76352,181.939748 C1648.7294,183.567435 1649.28859,185.500314 1649.28859,187.484058 C1649.28859,189.111746 1648.87682,190.739433 1648.22104,192.112795 C1646.49264,195.775092 1642.78165,198.267488 1638.50638,198.267488 M1471.72019,110.881016 C1467.90753,110.881016 1464.55239,108.897272 1462.67147,105.896223 C1461.55309,104.21767 1460.89223,102.233926 1460.89223,100.046721 C1460.89223,98.520764 1461.19724,97.0456722 1461.80727,95.7231761 C1463.48484,91.9082836 1467.2975,89.2632914 1471.72019,89.2632914 C1476.03613,89.2632914 1479.7522,91.8065531 1481.42977,95.4179847 C1482.14147,96.8422113 1482.49732,98.3681683 1482.49732,100.046721 C1482.49732,102.08133 1481.93813,104.014209 1480.97225,105.591032 C1479.09134,108.744676 1475.62944,110.881016 1471.72019,110.881016 M1304.87809,261.849031 C1300.55707,261.849031 1296.84099,259.305769 1295.16342,255.643472 C1294.45681,254.270111 1294.09588,252.693289 1294.09588,251.065601 C1294.09588,249.030992 1294.66015,247.098113 1295.67686,245.470425 C1297.55777,242.316781 1300.96375,240.231306 1304.87809,240.231306 C1308.79242,240.231306 1312.1984,242.265916 1314.07931,245.368695 C1315.09602,247.047248 1315.70096,248.980126 1315.70096,251.065601 C1315.70096,252.642423 1315.3502,254.16838 1314.68934,255.541742 C1313.01177,259.254904 1309.24994,261.849031 1304.87809,261.849031 M1177.78934,198.267488 C1173.97668,198.267488 1170.61645,196.283744 1168.68978,193.282695 C1167.62224,191.604142 1167.00713,189.569533 1167.00713,187.484058 C1167.00713,185.958101 1167.36806,184.432144 1167.97809,183.109648 C1169.60482,179.294756 1173.41749,176.649764 1177.78934,176.649764 C1182.11036,176.649764 1185.77051,179.14216 1187.49892,182.804457 C1188.21062,184.228683 1188.61222,185.805506 1188.61222,187.484058 C1188.61222,189.467803 1188.05811,191.349816 1187.09223,192.977504 C1185.21132,196.131148 1181.75451,198.267488 1177.78934,198.267488 M1058.68176,269.834872 C1054.41158,269.834872 1050.70059,267.342476 1048.97218,263.680179 C1048.26049,262.255953 1047.8538,260.67913 1047.8538,259.000578 C1047.8538,257.016833 1048.41299,255.13482 1049.37887,253.507132 L1049.4297,253.507132 C1051.25978,250.353488 1054.7166,248.217148 1058.68176,248.217148 C1062.54526,248.217148 1065.95124,250.251757 1067.83215,253.303671 C1068.84886,254.982224 1069.45889,256.915103 1069.45889,259.000578 C1069.45889,260.628265 1069.10304,262.154222 1068.44218,263.527583 C1066.71377,267.240745 1062.9977,269.834872 1058.68176,269.834872 M1848.15706,33.1589382 C1801.74425,41.2973757 1772.97136,76.5978481 1745.05759,110.881016 C1719.39074,142.366596 1694.93887,172.326219 1658.1848,180.31206 C1655.28718,172.224488 1647.56018,166.476717 1638.50638,166.476717 C1629.36107,166.476717 1621.48157,172.427949 1618.68562,180.668117 C1589.04852,175.174672 1572.1203,157.37184 1554.32788,138.704299 C1544.05911,127.971735 1533.68867,116.984844 1520.67478,108.744676 C1512.48518,103.556422 1503.28904,99.385473 1492.46108,97.0456722 C1490.98685,86.9234906 1482.24314,79.0902446 1471.72019,79.0902446 C1460.63805,79.0902446 1451.5385,87.6864691 1450.77597,98.5716292 C1422.20642,108.948137 1405.02402,140.07766 1388.29914,170.39334 C1370.50671,202.692763 1353.47682,233.517095 1324.29725,242.978029 C1321.09461,235.399109 1313.62179,230.058259 1304.87809,230.058259 C1296.03271,230.058259 1288.45822,235.60257 1285.40301,243.384951 C1269.59825,238.857945 1260.04118,228.583168 1249.36572,217.189355 C1241.7404,209.050918 1233.60672,200.302097 1222.47374,193.689617 C1215.76346,189.671263 1207.98562,186.365023 1198.53022,184.432144 C1197.05599,174.259098 1188.31229,166.476717 1177.78934,166.476717 C1166.75804,166.476717 1157.70932,175.072941 1156.89595,185.958101 C1140.11515,192.112795 1129.13977,205.388621 1118.46431,218.359256 C1106.97549,232.194599 1095.99502,245.521291 1078.10093,251.065601 C1074.89829,243.435816 1067.42547,238.044101 1058.68176,238.044101 C1049.63305,238.044101 1041.95689,243.741007 1039.00843,251.777714 C1025.02866,248.573205 1015.72577,241.909859 1006.01619,234.992187 C991.680577,224.768275 976.887447,214.188306 947.453693,214.188306 L947.453693,224.361353 C973.628892,224.361353 986.495357,233.567961 1000.11927,243.28322 C1010.59138,250.76041 1021.36851,258.44106 1037.89005,262.001626 C1039.36428,272.174673 1048.10798,280.007919 1058.68176,280.007919 C1069.45889,280.007919 1078.3551,271.818617 1079.51924,261.289513 C1101.33275,254.982224 1114.39747,239.163136 1126.29298,224.81914 C1133.46078,216.17205 1140.11515,208.135343 1148.10141,202.234976 C1151.40571,199.793445 1154.91336,197.70797 1158.77686,196.182013 C1162.08117,203.404877 1169.34556,208.440535 1177.78934,208.440535 C1186.88889,208.440535 1194.61589,202.692763 1197.50843,194.605191 C1218.61024,199.233928 1229.9974,211.441584 1241.94374,224.157892 C1253.12755,236.111222 1264.61637,248.420609 1284.08637,253.608863 C1285.35725,263.985371 1294.20263,272.022077 1304.87809,272.022077 C1315.75688,272.022077 1324.70393,263.731044 1325.77148,253.201941 C1359.78042,243.18149 1378.74207,208.745726 1397.19535,175.327267 C1413.25937,146.232354 1428.56085,118.510801 1452.60604,108.744676 C1455.91035,116.018405 1463.23066,121.054063 1471.72019,121.054063 C1480.71299,121.054063 1488.44507,115.306291 1491.3427,107.269584 C1515.74373,112.915625 1530.99438,128.989039 1546.95673,145.723701 C1565.41002,165.103355 1584.37166,184.991662 1617.82142,190.892029 C1619.44307,200.81075 1628.13594,208.440535 1638.50638,208.440535 C1649.03441,208.440535 1657.77303,200.607289 1659.25235,190.485107 C1700.17492,182.041478 1726.96523,149.182537 1752.94217,117.290035 C1779.37155,84.838016 1806.62446,51.4195572 1849.0721,43.3828502 C1851.91889,51.5721529 1849.73296,23.1893523 1848.15706,33.1589382 Z" id="Fill-1-Copy" stroke="#001B3A" stroke-width="4" fill="#006FE8" transform="translate(1398.953693, 155.507919) scale(-1, 1) rotate(2.000000) translate(-1398.953693, -155.507919) "></path>
                        </g>
                    </g>
                </g>
            </g>
        </g>
    </g>
</svg>