<?xml version="1.0" encoding="UTF-8"?>
<svg width="44px" height="44px" viewBox="0 0 44 44" version="1.1" xmlns="http://www.w3.org/2000/svg" xmlns:xlink="http://www.w3.org/1999/xlink">
    <!-- Generator: Sketch 53.2 (72643) - https://sketchapp.com -->
    <title>Group 12</title>
    <desc>Created with Sketch.</desc>
    <defs>
        <polygon id="path-1" points="0.000325925926 8.14814815e-05 44 8.14814815e-05 44 44 0.000325925926 44"></polygon>
    </defs>
    <g id="RenProject" stroke="none" stroke-width="1" fill="none" fill-rule="evenodd">
        <g id="home" transform="translate(-258.000000, -2249.000000)">
            <g id="Group-12" transform="translate(258.000000, 2249.000000)">
                <g id="Group-3">
                    <mask id="mask-2" fill="white">
                        <use xlink:href="#path-1"></use>
                    </mask>
                    <g id="Clip-2"></g>
                    <path d="M29.3336593,44.0000815 L14.6669926,44.0000815 C6.56691852,44.0000815 0.000325925926,37.4334889 0.000325925926,29.3334148 L0.000325925926,14.6667481 C0.000325925926,6.56667407 6.56691852,8.14814815e-05 14.6669926,8.14814815e-05 L29.3336593,8.14814815e-05 C37.4329185,8.14814815e-05 44.0003259,6.56667407 44.0003259,14.6667481 L44.0003259,29.3334148 C44.0003259,37.4334889 37.4329185,44.0000815 29.3336593,44.0000815" id="Fill-1" fill="#006FE8" mask="url(#mask-2)"></path>
                </g>
                <path d="M16.4175407,30.3940593 C16.3450222,30.3166519 16.2236148,30.311763 16.1453926,30.3842815 L16.1356148,30.3940593 C15.9979111,30.5456148 12.7329481,34.2106519 12.7329481,36.1075407 C12.8185037,38.0647259 14.4750222,39.5810963 16.4330222,39.4955407 C18.2688,39.4140593 19.7395407,37.9441333 19.8210222,36.1075407 C19.8210222,34.2106519 16.5552444,30.5456148 16.4175407,30.3940593" id="Fill-4" fill="#FFFFFF"></path>
                <path d="M27.8297556,31.0680741 C27.7767926,31.0094074 27.6847185,31.0053333 27.6260519,31.0591111 C27.6227926,31.0615556 27.6195333,31.0648148 27.6170889,31.0680741 C27.5070889,31.1919259 24.9624222,34.0388889 24.9624222,35.5161481 C24.9624222,37.034963 26.1944222,38.2661481 27.7124222,38.2661481 C29.2320519,38.2661481 30.4624222,37.034963 30.4624222,35.5161481 C30.4836074,34.0388889 27.9405704,31.1919259 27.8297556,31.0680741" id="Fill-6" fill="#82B8F2"></path>
                <path d="M40.3233111,4.9772963 L33.2197556,4.9772963 C29.0495333,4.9772963 25.6574593,8.37018519 25.6574593,12.5395926 L25.6574593,27.304037 C25.6566444,27.3170741 25.6501259,27.3292963 25.6501259,27.3415185 C25.6501259,27.9493704 26.5741259,28.4423333 27.7124222,28.4423333 C28.8523481,28.4423333 29.7755333,27.9493704 29.7755333,27.3415185 L29.7820519,27.3415185 L29.7820519,12.5395926 C29.7820519,10.6443333 31.3244963,9.10188889 33.2197556,9.10188889 L42.9005704,9.10188889 C42.2756074,7.579 41.3956074,6.19218519 40.3233111,4.9772963" id="Fill-8" fill="#0053AE"></path>
                <path d="M10.7799185,11.8522963 L0.276140741,11.8522963 C0.0993259259,12.7640741 0.000733333333,13.7027407 0.000733333333,14.6666667 L0.000733333333,15.9768889 L10.7799185,15.9768889 C12.6751778,15.9768889 14.2176222,17.5193333 14.2176222,19.4145926 L14.2176222,27.3411111 L14.2176222,27.3419259 C14.2176222,27.9497778 15.1416222,28.4419259 16.2799185,28.4419259 C17.4190296,28.4419259 18.3422148,27.9497778 18.3422148,27.3419259 L18.3422148,19.4145926 C18.3422148,15.2451852 14.9501407,11.8522963 10.7799185,11.8522963" id="Fill-10" fill="#0053AE"></path>
            </g>
        </g>
    </g>
</svg>