<?xml version="1.0" encoding="UTF-8"?>
<svg width="13px" height="16px" viewBox="0 0 13 16" version="1.1" xmlns="http://www.w3.org/2000/svg" xmlns:xlink="http://www.w3.org/1999/xlink">
    <!-- Generator: Sketch 53.2 (72643) - https://sketchapp.com -->
    <title>Group 11</title>
    <desc>Created with Sketch.</desc>
    <defs>
        <polygon id="path-1" points="0 0.292173913 11.0042892 0.292173913 11.0042892 13.9686609 0 13.9686609"></polygon>
        <polygon id="path-3" points="0.29517027 0.222956522 11.2994595 0.222956522 11.2994595 13.9130435 0.29517027 13.9130435"></polygon>
    </defs>
    <g id="RenProject" stroke="none" stroke-width="1" fill="none" fill-rule="evenodd">
        <g id="RenVM" transform="translate(-1154.000000, -1845.000000)">
            <g id="Group-12" transform="translate(1033.000000, 1563.000000)">
                <g id="Group-8" transform="translate(85.000000, 201.000000)">
                    <g id="Group-16">
                        <g id="Group-7">
                            <g id="Group-30">
                                <g id="Group-2" transform="translate(0.000000, 63.000000)">
                                    <g id="Group-40">
                                        <g id="Group-10">
                                            <g id="Group-4" transform="translate(36.000000, 0.000000)">
                                                <g id="Group-11" transform="translate(0.000000, 18.000000)">
                                                    <g id="Group-3" transform="translate(0.000000, 0.055652)">
                                                        <mask id="mask-2" fill="white">
                                                            <use xlink:href="#path-1"></use>
                                                        </mask>
                                                        <g id="Clip-2"></g>
                                                        <path d="M0.702667568,0.29213913 L10.3015865,0.29213913 C10.6898297,0.29213913 11.0042892,0.603791304 11.0042892,0.987791304 L11.0042892,13.2730087 C11.0042892,13.6573565 10.6898297,13.9686609 10.3015865,13.9686609 L0.702667568,13.9686609 C0.314775676,13.9686609 -3.51351351e-05,13.6573565 -3.51351351e-05,13.2730087 L-3.51351351e-05,0.987791304 C-3.51351351e-05,0.603791304 0.314775676,0.29213913 0.702667568,0.29213913" id="Fill-1" fill="#006FE8" mask="url(#mask-2)"></path>
                                                    </g>
                                                    <g id="Group-6" transform="translate(1.405405, 1.794783)">
                                                        <mask id="mask-4" fill="white">
                                                            <use xlink:href="#path-3"></use>
                                                        </mask>
                                                        <g id="Clip-5"></g>
                                                        <path d="M10.5967919,13.9130435 L0.997872973,13.9130435 C0.609981081,13.9130435 0.29517027,13.6013913 0.29517027,13.2173913 L0.29517027,12.9252174 L9.42327838,12.9252174 C9.90849459,12.9252174 10.3016568,12.536 10.3016568,12.0556522 L10.3016568,0.222956522 L10.6052243,0.226434783 C10.9899541,0.231304348 11.2994946,0.541217391 11.2994946,0.922086957 L11.2994946,13.2173913 C11.2994946,13.6013913 10.9846838,13.9130435 10.5967919,13.9130435" id="Fill-4" fill="#006FE8" mask="url(#mask-4)"></path>
                                                    </g>
                                                    <path d="M6.58435946,2.43474783 L2.04841351,2.43474783 C1.75714324,2.43474783 1.52138649,2.66813913 1.52138649,2.95648696 C1.52138649,3.24483478 1.75714324,3.47822609 2.04841351,3.47822609 L6.58435946,3.47822609 C6.87562973,3.47822609 7.11138649,3.24483478 7.11138649,2.95648696 C7.11138649,2.66813913 6.87562973,2.43474783 6.58435946,2.43474783" id="Fill-7" fill="#FFFFFF"></path>
                                                    <path d="M6.58435946,4.40688696 L2.04841351,4.40688696 C1.75714324,4.40688696 1.52138649,4.64027826 1.52138649,4.92862609 C1.52138649,5.21697391 1.75714324,5.45036522 2.04841351,5.45036522 L6.58435946,5.45036522 C6.87562973,5.45036522 7.11138649,5.21697391 7.11138649,4.92862609 C7.11138649,4.64027826 6.87562973,4.40688696 6.58435946,4.40688696" id="Fill-9" fill="#FFFFFF"></path>
                                                </g>
                                            </g>
                                        </g>
                                    </g>
                                </g>
                            </g>
                        </g>
                    </g>
                </g>
            </g>
        </g>
    </g>
</svg>