<?xml version="1.0" encoding="UTF-8"?>
<svg width="54px" height="54px" viewBox="0 0 54 54" version="1.1" xmlns="http://www.w3.org/2000/svg" xmlns:xlink="http://www.w3.org/1999/xlink">
    <!-- Generator: Sketch 53.2 (72643) - https://sketchapp.com -->
    <title>Group 24</title>
    <desc>Created with Sketch.</desc>
    <defs>
        <polygon id="path-1" points="0.0004 0.0001 54 0.0001 54 54 0.0004 54"></polygon>
    </defs>
    <g id="RenProject" stroke="none" stroke-width="1" fill="none" fill-rule="evenodd">
        <g id="RenVM" transform="translate(-257.000000, -1194.000000)">
            <g id="Group-24" transform="translate(257.000000, 1194.000000)">
                <g id="Group-3">
                    <mask id="mask-2" fill="white">
                        <use xlink:href="#path-1"></use>
                    </mask>
                    <g id="Clip-2"></g>
                    <path d="M36.0004,54.0001 L18.0004,54.0001 C8.0594,54.0001 0.0004,45.9411 0.0004,36.0001 L0.0004,18.0001 C0.0004,8.0591 8.0594,0.0001 18.0004,0.0001 L36.0004,0.0001 C45.9404,0.0001 54.0004,8.0591 54.0004,18.0001 L54.0004,36.0001 C54.0004,45.9411 45.9404,54.0001 36.0004,54.0001" id="Fill-1" fill="#006FE8" mask="url(#mask-2)"></path>
                </g>
                <path d="M21.0668,39.1847 C21.0668,35.9077 23.7228,33.2507 27.0008,33.2507 C30.2768,33.2507 32.9328,35.9077 32.9328,39.1847 C32.9328,42.4617 30.2768,45.1177 27.0008,45.1177 C23.7228,45.1177 21.0668,42.4617 21.0668,39.1847" id="Fill-4" fill="#0053AE"></path>
                <path d="M21.0668,14.8155 C21.0668,11.5385 23.7228,8.8825 27.0008,8.8825 C30.2768,8.8825 32.9328,11.5385 32.9328,14.8155 C32.9328,18.0925 30.2768,20.7485 27.0008,20.7485 C23.7228,20.7485 21.0668,18.0925 21.0668,14.8155" id="Fill-6" fill="#0053AE"></path>
                <path d="M35.2592,14.8155 C35.2592,11.5385 37.9152,8.8825 41.1932,8.8825 C44.4702,8.8825 47.1262,11.5385 47.1262,14.8155 C47.1262,18.0925 44.4702,20.7485 41.1932,20.7485 C37.9152,20.7485 35.2592,18.0925 35.2592,14.8155" id="Fill-8" fill="#0053AE"></path>
                <path d="M6.8735,14.8155 C6.8735,11.5385 9.5305,8.8825 12.8075,8.8825 C16.0845,8.8825 18.7405,11.5385 18.7405,14.8155 C18.7405,18.0925 16.0845,20.7485 12.8075,20.7485 C9.5305,20.7485 6.8735,18.0925 6.8735,14.8155" id="Fill-10" fill="#0053AE"></path>
                <polyline id="Stroke-12" stroke="#4495EB" stroke-width="2" points="12.8071 14.8155 27.0001 39.1845 41.1931 14.8155"></polyline>
                <path d="M27.0004,14.8155 L27.0004,39.1845" id="Stroke-14" stroke="#4495EB" stroke-width="2"></path>
                <path d="M37.5346,14.8155 C37.5346,12.7955 39.1726,11.1575 41.1926,11.1575 C43.2136,11.1575 44.8506,12.7955 44.8506,14.8155 C44.8506,16.8355 43.2136,18.4735 41.1926,18.4735 C39.1726,18.4735 37.5346,16.8355 37.5346,14.8155" id="Fill-16" fill="#FFFFFF"></path>
                <path d="M23.3422,14.8155 C23.3422,12.7955 24.9802,11.1575 27.0002,11.1575 C29.0202,11.1575 30.6572,12.7955 30.6572,14.8155 C30.6572,16.8355 29.0202,18.4735 27.0002,18.4735 C24.9802,18.4735 23.3422,16.8355 23.3422,14.8155" id="Fill-18" fill="#FFFFFF"></path>
                <path d="M9.1498,14.8155 C9.1498,12.7955 10.7868,11.1575 12.8068,11.1575 C14.8278,11.1575 16.4648,12.7955 16.4648,14.8155 C16.4648,16.8355 14.8278,18.4735 12.8068,18.4735 C10.7868,18.4735 9.1498,16.8355 9.1498,14.8155" id="Fill-20" fill="#FFFFFF"></path>
                <path d="M23.3422,39.1847 C23.3422,37.1637 24.9802,35.5267 27.0002,35.5267 C29.0202,35.5267 30.6572,37.1637 30.6572,39.1847 C30.6572,41.2047 29.0202,42.8427 27.0002,42.8427 C24.9802,42.8427 23.3422,41.2047 23.3422,39.1847" id="Fill-22" fill="#FFFFFF"></path>
            </g>
        </g>
    </g>
</svg>