<?xml version="1.0" encoding="UTF-8"?>
<svg width="64px" height="64px" viewBox="0 0 64 64" version="1.1" xmlns="http://www.w3.org/2000/svg" xmlns:xlink="http://www.w3.org/1999/xlink">
    <!-- Generator: Sketch 53.2 (72643) - https://sketchapp.com -->
    <title>Group 14</title>
    <desc>Created with Sketch.</desc>
    <defs>
        <polygon id="path-1" points="0 0.000118518519 64 0.000118518519 64 64 0 64"></polygon>
    </defs>
    <g id="RenProject" stroke="none" stroke-width="1" fill="none" fill-rule="evenodd">
        <g id="home" transform="translate(-1272.000000, -1476.000000)">
            <g id="Group-14" transform="translate(1272.000000, 1476.000000)">
                <g id="Group-10">
                    <g id="Group-3">
                        <mask id="mask-2" fill="white">
                            <use xlink:href="#path-1"></use>
                        </mask>
                        <g id="Clip-2"></g>
                        <path d="M42.6666667,64.0001185 L21.3333333,64.0001185 C9.55140741,64.0001185 0,54.4487111 0,42.6667852 L0,21.3334519 C0,9.55152593 9.55140741,0.000118518519 21.3333333,0.000118518519 L42.6666667,0.000118518519 C54.4485926,0.000118518519 64,9.55152593 64,21.3334519 L64,42.6667852 C64,54.4487111 54.4485926,64.0001185 42.6666667,64.0001185" id="Fill-1" fill="#006FE8" mask="url(#mask-2)"></path>
                    </g>
                    <path d="M49.9018088,16.7612137 C48.3669251,16.7612137 46.74677,16.4591029 45.1511628,16 L46.5865633,35.4828496 L41.3824289,43.7849604 L22,47.4973615 C22.8591731,48.4168865 23.75323,49.2440633 24.6459948,49.969657 C28.9043928,53.4340369 33.1782946,54.8852243 33.1782946,54.8852243 L33.5167959,55 L33.8630491,54.8852243 C33.8630491,54.8852243 38.1382429,53.4340369 42.3953488,49.969657 C46.6524548,46.505277 51,40.8918206 51,32.7348285 L51,16.7612137 L49.9018088,16.7612137 Z" id="Fill-4" fill="#0053AE"></path>
                    <path d="M32.4980597,42.9577032 C26.4571091,42.9577032 21.5609639,38.0412119 21.5609639,31.9751578 C21.5609639,25.9091037 26.4571091,20.9926123 32.4980597,20.9926123 C38.5390102,20.9926123 43.4351554,25.9091037 43.4351554,31.9751578 C43.4351554,38.0399129 38.5390102,42.9577032 32.4980597,42.9577032 L32.4980597,42.9577032 Z M48.9004694,16.3501974 C45.3729164,16.3501974 41.3887349,14.8382302 38.3242784,13.2937894 C35.3167387,11.7779254 33.315593,10.3335031 33.2379791,10.2776486 C33.0749898,10.1321672 32.8731936,10.0386435 32.6571682,10.0100668 L32.6403518,10.0100668 C32.6080127,10.004871 32.5756736,10.0022731 32.5420409,10.0009742 L32.5252245,10.0009742 C32.4902983,9.99967526 32.4566656,9.99967526 32.4204457,10.0009742 C32.3842259,10.004871 32.3467125,10.0100668 32.3091991,10.0178604 C32.0983479,10.050334 31.9030196,10.1425588 31.743911,10.2854423 C31.7387367,10.291937 31.7322689,10.2971327 31.7270947,10.3023285 C31.6236094,10.3763681 29.6612707,11.7896159 26.6731345,13.2950884 C23.608678,14.8382302 19.6180286,16.3501974 16.0904757,16.3501974 L15,16.3501974 L15,32.0777741 C15,40.1091258 19.3515541,45.6361194 23.6138522,49.0471383 C27.8774439,52.4581571 32.1565584,53.8869921 32.1565584,53.8869921 L32.4967661,54 L32.8434416,53.8869921 C32.8434416,53.8869921 37.1212625,52.4581571 41.3848542,49.0471383 C45.6484459,45.6361194 50,40.1091258 50,32.0777741 L50,16.3501974 L48.9004694,16.3501974 Z" id="Fill-6" fill="#82B8F2"></path>
                    <path d="M38.3601014,26.000431 C37.9426328,26.0121244 37.54667,26.1901235 37.254442,26.4954506 L30.9051231,33.0255514 L27.7551322,29.7890848 C27.1377846,29.1368543 26.1219442,29.1225624 25.4856207,29.7566032 C24.8505623,30.3919433 24.8366467,31.4352523 25.4539943,32.0887821 C25.4666449,32.1004755 25.4767653,32.1121688 25.4894159,32.1238622 L29.7703673,36.5205716 C30.3953053,37.1598095 31.4086156,37.1598095 32.0348186,36.5205716 L39.5201583,28.8237316 C40.1514215,28.185793 40.161542,27.142484 39.5403992,26.492852 C39.2291953,26.168036 38.8041363,25.9900369 38.3601014,26.000431" id="Fill-8" fill="#FFFFFF"></path>
                </g>
            </g>
        </g>
    </g>
</svg>