<?xml version="1.0" encoding="UTF-8"?>
<svg width="54px" height="54px" viewBox="0 0 54 54" version="1.1" xmlns="http://www.w3.org/2000/svg" xmlns:xlink="http://www.w3.org/1999/xlink">
    <!-- Generator: Sketch 53.2 (72643) - https://sketchapp.com -->
    <title>Group 14</title>
    <desc>Created with Sketch.</desc>
    <defs>
        <polygon id="path-1" points="0 0 53.9998 0 53.9998 54 0 54"></polygon>
    </defs>
    <g id="RenProject" stroke="none" stroke-width="1" fill="none" fill-rule="evenodd">
        <g id="RenVM" transform="translate(-257.000000, -904.000000)">
            <g id="Group-14" transform="translate(257.000000, 904.000000)">
                <g id="Group-3">
                    <mask id="mask-2" fill="white">
                        <use xlink:href="#path-1"></use>
                    </mask>
                    <g id="Clip-2"></g>
                    <path d="M35.9998,54 L17.9998,54 C8.0588,54 -0.0002,45.941 -0.0002,36 L-0.0002,18 C-0.0002,8.059 8.0588,0 17.9998,0 L35.9998,0 C45.9408,0 53.9998,8.059 53.9998,18 L53.9998,36 C53.9998,45.941 45.9408,54 35.9998,54" id="Fill-1" fill="#006FE8" mask="url(#mask-2)"></path>
                </g>
                <path d="M32.7743,32.6963 C31.2843,34.1523 29.2483,35.0523 27.0003,35.0523 C24.7523,35.0523 22.7163,34.1523 21.2263,32.6963 C19.6903,34.1973 18.7333,36.2893 18.7333,38.6063 C18.7333,43.1713 22.4343,46.8723 27.0003,46.8723 C31.5653,46.8723 35.2663,43.1713 35.2663,38.6063 C35.2663,36.2893 34.3103,34.1973 32.7743,32.6963" id="Fill-4" fill="#4495EB"></path>
                <path d="M26.9998,35.0527 C22.4348,35.0527 18.7338,31.3517 18.7338,26.7867 C18.7338,22.2207 22.4348,18.5197 26.9998,18.5197 C31.5648,18.5197 35.2668,22.2207 35.2668,26.7867 C35.2668,31.3517 31.5648,35.0527 26.9998,35.0527" id="Fill-6" fill="#82B8F2"></path>
                <path d="M35.1971,25.7285 C35.2381,26.0615 35.2661,26.3995 35.2661,26.7435 C35.2661,31.3095 31.5651,35.0105 27.0001,35.0105 C22.4341,35.0105 18.7341,31.3095 18.7341,26.7435 C18.7341,26.3995 18.7621,26.0615 18.8031,25.7285 L18.3581,25.7285 C18.2711,26.2255 18.2191,26.7355 18.2191,27.2575 C18.2191,32.1065 22.1511,36.0385 27.0001,36.0385 C31.8491,36.0385 35.7801,32.1065 35.7801,27.2575 C35.7801,26.7355 35.7291,26.2255 35.6421,25.7285 L35.1971,25.7285 Z" id="Fill-8" fill="#006FE8"></path>
                <path d="M35.1971,14.373 C35.2381,14.706 35.2661,15.043 35.2661,15.388 C35.2661,19.954 31.5651,23.654 27.0001,23.654 C22.4341,23.654 18.7341,19.954 18.7341,15.388 C18.7341,15.043 18.7621,14.706 18.8031,14.373 L18.3581,14.373 C18.2711,14.87 18.2191,15.38 18.2191,15.902 C18.2191,20.751 22.1511,24.682 27.0001,24.682 C31.8491,24.682 35.7801,20.751 35.7801,15.902 C35.7801,15.38 35.7291,14.87 35.6421,14.373 L35.1971,14.373 Z" id="Fill-10" fill="#0053AE"></path>
                <path d="M26.9998,23.6602 C22.4348,23.6602 18.7338,19.9592 18.7338,15.3942 C18.7338,10.8282 22.4348,7.1272 26.9998,7.1272 C31.5648,7.1272 35.2668,10.8282 35.2668,15.3942 C35.2668,19.9592 31.5648,23.6602 26.9998,23.6602" id="Fill-12" fill="#FFFFFF"></path>
            </g>
        </g>
    </g>
</svg>