<?xml version="1.0" encoding="UTF-8"?>
<svg width="44px" height="44px" viewBox="0 0 44 44" version="1.1" xmlns="http://www.w3.org/2000/svg" xmlns:xlink="http://www.w3.org/1999/xlink">
    <!-- Generator: Sketch 53.2 (72643) - https://sketchapp.com -->
    <title>Group 10</title>
    <desc>Created with Sketch.</desc>
    <defs>
        <polygon id="path-1" points="0 8.14814815e-05 43.999837 8.14814815e-05 43.999837 44 0 44"></polygon>
    </defs>
    <g id="RenProject" stroke="none" stroke-width="1" fill="none" fill-rule="evenodd">
        <g id="home" transform="translate(-258.000000, -2103.000000)">
            <g id="Group-10" transform="translate(258.000000, 2103.000000)">
                <g id="Group-3">
                    <mask id="mask-2" fill="white">
                        <use xlink:href="#path-1"></use>
                    </mask>
                    <g id="Clip-2"></g>
                    <path d="M29.3331704,44.0000815 L14.6665037,44.0000815 C6.56724444,44.0000815 -0.000162962963,37.4334889 -0.000162962963,29.3334148 L-0.000162962963,14.6667481 C-0.000162962963,6.56667407 6.56724444,8.14814815e-05 14.6665037,8.14814815e-05 L29.3331704,8.14814815e-05 C37.4332444,8.14814815e-05 43.999837,6.56667407 43.999837,14.6667481 L43.999837,29.3334148 C43.999837,37.4334889 37.4332444,44.0000815 29.3331704,44.0000815" id="Fill-1" fill="#006FE8" mask="url(#mask-2)"></path>
                </g>
                <path d="M24.6344593,21.595037 C25.8713481,20.3573333 26.6389037,18.6299259 26.6389037,16.7314074 C26.6389037,12.9351852 23.5670519,9.86414815 19.7708296,9.86414815 L16.614237,9.86414815 L15.6763852,9.86414815 C13.7778667,9.86414815 12.0716444,10.6317037 10.8135704,11.8685926 C10.5145333,12.1676296 10.2374963,12.487037 10.0028296,12.8284444 C9.23527407,13.9382222 8.78712593,15.2818519 8.78712593,16.711037 C8.78712593,19.0348889 9.93927407,21.1037037 11.7090519,22.3414074 C11.3252741,23.3224444 10.7492,24.2187407 10.0663852,24.9854815 C9.8749037,25.1997778 10.0240148,25.5403704 10.3010519,25.5403704 C12.434237,25.5403704 14.3971259,24.8151852 15.9534222,23.5782963 L19.7496444,23.5782963 C21.6913481,23.5994815 23.3967556,22.8319259 24.6344593,21.595037" id="Fill-4" fill="#82B8F2"></path>
                <path d="M35.2127111,24.7302 C35.2127111,24.2388667 35.1491556,23.749163 35.0636,23.2578296 C34.7441926,21.8082741 33.9758222,20.5070148 32.8880444,19.5683481 C31.6723407,18.5017556 30.0940444,17.8621259 28.366637,17.8621259 L28.0252296,17.8621259 C27.7913778,19.6539037 26.958637,21.2957556 25.6793778,22.5970148 C24.0798963,24.1541259 22.0110815,25.0284222 19.7923407,25.0284222 L17.3821185,25.0284222 C17.4676741,27.2259778 18.5978222,29.1660519 20.3040444,30.3605704 C21.4130074,31.1501259 22.778637,31.5982741 24.2501926,31.5982741 L27.5347111,31.5982741 C28.8359704,33.1122 30.7336741,34.0720519 32.8668593,34.1356074 C32.1416741,33.1977556 31.6299704,32.0879778 31.4164889,30.8722741 C32.0773037,30.5316815 32.6957481,30.1047185 33.2082667,29.5930148 C34.4451556,28.3349407 35.2127111,26.6279037 35.2127111,24.7302" id="Fill-6" fill="#FFFFFF"></path>
                <path d="M16.288963,20.4165704 C15.8742222,20.9079037 15.136,20.959237 14.6577037,20.5298296 L12.1831111,18.3086444 C11.8482222,18.0079778 11.8205185,17.4930148 12.1211852,17.1581259 C12.4218519,16.823237 12.9368148,16.7963481 13.2717037,17.0962 L15.369037,18.979237 L20.7337778,12.6236815 C21.0246667,12.2814593 21.5355556,12.2350148 21.8826667,12.5259037 C22.2265185,12.8167926 22.2697037,13.3309407 21.9788148,13.6756074 L16.288963,20.4165704 Z" id="Fill-8" fill="#0053AE"></path>
            </g>
        </g>
    </g>
</svg>