<?xml version="1.0" encoding="utf-8"?>
<!-- Generator: Adobe Illustrator 21.0.2, SVG Export Plug-In . SVG Version: 6.00 Build 0)  -->
<svg version="1.1" id="Layer_1" xmlns="http://www.w3.org/2000/svg" xmlns:xlink="http://www.w3.org/1999/xlink" x="0px" y="0px"
	 viewBox="0 0 430 227" style="enable-background:new 0 0 430 227;" xml:space="preserve">
<style type="text/css">
	.st0{fill:#E1E1E1;}
	.st1{opacity:0.4;}
	.st2{filter:url(#Adobe_OpacityMaskFilter);}
	.st3{fill:#FFFFFF;}
	.st4{mask:url(#mask-2);}
	.st5{opacity:0.2;fill:url(#Rectangle-path-Copy_2_);enable-background:new    ;}
	.st6{fill:url(#Shape_24_);}
	.st7{fill:#006FE8;}
	.st8{fill:#0048F6;}
	.st9{fill:#0075F5;}
	.st10{fill:#FAF2F8;}
	.st11{fill:#003269;}
	.st12{opacity:0.2;fill:url(#Rectangle-path-Copy_3_);enable-background:new    ;}
	.st13{fill:url(#Shape_25_);}
	.st14{fill:#E1E1E1;stroke:#E1E1E1;stroke-width:1.929;}
	.st15{fill:url(#SVGID_1_);}
</style>
<g>
	<path class="st0" d="M23.7,0c2.1,7,6.8,13,13.3,16.7l99,57.4c19.2,11.1,42.9,11.2,62.1,0.2l99-56.6C304,13.8,308.8,7.4,310.8,0
		H23.7z"/>
	<g id="renproject.io">
		<g id="About" transform="translate(-929.000000, -96.000000)">
			<g id="Group-16" transform="translate(0.000000, 96.000000)">
				<g id="illustration-renex" transform="translate(912.000000, -309.000000)">
					<g id="Group-18-Copy" transform="translate(0.000000, 313.276522)" class="st1">
						<g id="Rectangle-9">
						</g>
						<defs>
							<filter id="Adobe_OpacityMaskFilter" filterUnits="userSpaceOnUse" x="17.8" y="6.4" width="484" height="240.3">
								<feColorMatrix  type="matrix" values="1 0 0 0 0  0 1 0 0 0  0 0 1 0 0  0 0 0 1 0"/>
							</filter>
						</defs>
						<mask maskUnits="userSpaceOnUse" x="17.8" y="6.4" width="484" height="240.3" id="mask-2">
							<g class="st2">
								<rect id="path-1" y="0" class="st3" width="149.9" height="304.5"/>
							</g>
						</mask>
						<g id="Asset-9_x40_large" class="st4">
							<g transform="translate(17.848383, 6.418271)">
								<path id="Shape" class="st0" d="M274.9,240.3c-2.1,0-4.3-0.5-6.2-1.5l-88.2-51.1c-3.4-1.7-7.5-1.7-10.9,0l-28.8,16.7
									c-3.8,2-8.4,2-12.2,0l-58.7-34.1c-1.6-0.7-2.6-2.2-2.7-4c0.1-1.7,1.1-3.2,2.7-3.9l28.5-16.5c1-0.6,1.7-1.7,1.7-2.9
									s-0.6-2.3-1.7-2.9l-96-55.2C0.9,84.1,0,82.5,0,80.8c0-1.7,0.9-3.2,2.3-4.1L134,0l0.7,1.2L3,78c-1,0.6-1.7,1.7-1.7,2.9
									S2,83.3,3,83.9L99,139c1.5,0.8,2.4,2.4,2.4,4.1s-0.9,3.2-2.4,4.1l-28.5,16.4c-1.1,0.5-1.9,1.5-2,2.7
									c0.1,1.2,0.9,2.3,2.1,2.8l58.7,34.1c3.4,1.7,7.5,1.7,10.9,0l28.8-16.7c3.8-2,8.4-2,12.2,0l88.2,51.1c3.4,1.7,7.5,1.7,10.9,0
									l97.9-56.8c3.8-2,8.4-2,12.2,0l29.3,17c3.4,1.7,7.5,1.7,10.9,0l52.7-30.5l0.7,1.2l-52.7,30.6c-3.8,2-8.4,2-12.2,0l-29.3-17
									c-3.4-1.7-7.5-1.7-10.9,0L281,238.9C279.1,239.9,277,240.4,274.9,240.3z"/>
								<path id="Shape_1_" class="st0" d="M68.5,121.4c-3.3,1.7-7.3,1.7-10.6,0c-2.9-1.7-3-4.4,0-6c3.3-1.7,7.3-1.7,10.6,0
									C71.4,117,71.4,119.7,68.5,121.4z"/>
								
									<rect id="Rectangle-path" x="60.7" y="109.8" transform="matrix(0.8637 -0.5041 0.5041 0.8637 -45.2064 53.9374)" class="st0" width="32.8" height="1.4"/>
							</g>
						</g>
					</g>
					<g id="darknode-copy" transform="translate(109.898123, 487.800000)">
						
							<linearGradient id="Rectangle-path-Copy_2_" gradientUnits="userSpaceOnUse" x1="-175.8663" y1="367.7095" x2="-175.8663" y2="368.6544" gradientTransform="matrix(-55.8499 0 0 24.2927 -9794.1865 -8907.582)">
							<stop  offset="0" style="stop-color:#DCDCDC"/>
							<stop  offset="1" style="stop-color:#6E6E6E;stop-opacity:0"/>
						</linearGradient>
						<rect id="Rectangle-path-Copy" x="0" y="25.5" class="st5" width="55.8" height="24.3"/>
						<g id="illustration-darknode">
							<path id="Shape_2_" class="st0" d="M0.2,21.4v6.3C0.5,29.5,1.5,31,3,31.9l18.8,10.8c3.6,2.1,8.1,2.1,11.7,0L52.2,32
								c1.6-0.9,2.6-2.5,2.8-4.2v-6.4H0.2z"/>
							
								<linearGradient id="Shape_24_" gradientUnits="userSpaceOnUse" x1="-172.9032" y1="345.5552" x2="-172.9032" y2="346.6626" gradientTransform="matrix(54.8512 0 0 -32.3084 9511.6172 11203.5068)">
								<stop  offset="0" style="stop-color:#FAFAFA"/>
								<stop  offset="1" style="stop-color:#FAFAFA"/>
							</linearGradient>
							<path id="Shape_3_" class="st6" d="M24.1,37.1L1.8,24.4c-1-0.6-1.6-1.6-1.6-2.7s0.6-2.2,1.6-2.7L22.2,7.2
								c3.4-1.9,7.6-1.9,11,0l20.3,11.6c1,0.6,1.7,1.7,1.7,2.9c0,1.2-0.6,2.3-1.7,2.9L31.6,37.1C29.3,38.4,26.4,38.4,24.1,37.1z"/>
							<ellipse id="Oval" class="st0" cx="27.7" cy="21.4" rx="13.6" ry="6.6"/>
							<polygon id="Shape_4_" class="st7" points="27.6,22.5 17.4,16.7 17.4,13.1 27.6,18.9 							"/>
							<polygon id="Shape_5_" class="st8" points="37.9,16.7 27.6,22.5 27.6,18.9 37.9,13.1 							"/>
							<polygon id="Shape_6_" class="st9" points="37.9,13.1 27.6,18.9 17.4,13.1 27.6,7.2 							"/>
							<polygon id="Shape_7_" class="st10" points="37.9,9.5 27.6,15.4 17.4,9.5 27.6,3.6 							"/>
							<polygon id="Shape_8_" class="st7" points="27.6,15.4 17.4,9.5 17.4,5.9 27.6,11.8 							"/>
							<polygon id="Shape_9_" class="st8" points="37.9,9.5 27.6,15.4 27.6,11.8 37.9,5.9 							"/>
							<polygon id="Shape_10_" class="st9" points="37.9,6 27.6,11.8 17.4,5.7 27.7,0 							"/>
							<rect id="Rectangle-path_1_" x="27.6" y="15.3" class="st7" width="1" height="3.7"/>
							<polygon id="Shape_11_" class="st8" points="33.4,6.1 27.5,9.6 21.5,6.1 27.5,2.7 							"/>
							<polygon id="Shape_12_" class="st11" points="27.5,9.6 27.5,2.7 21.5,6.1 							"/>
						</g>
					</g>
					<g id="darknode-copy-2" transform="translate(86.477212, 388.800000)">
						
							<linearGradient id="Rectangle-path-Copy_3_" gradientUnits="userSpaceOnUse" x1="-152.4454" y1="466.7095" x2="-152.4454" y2="467.6544" gradientTransform="matrix(-55.8499 0 0 24.2927 -8486.1318 -11312.5576)">
							<stop  offset="0" style="stop-color:#DCDCDC"/>
							<stop  offset="1" style="stop-color:#6E6E6E;stop-opacity:0"/>
						</linearGradient>
						<rect id="Rectangle-path-Copy_1_" x="0" y="25.5" class="st12" width="55.8" height="24.3"/>
						<g id="illustration-darknode_1_">
							<path id="Shape_13_" class="st0" d="M0.2,21.4v6.3C0.5,29.5,1.5,31,3,31.9l18.8,10.8c3.6,2.1,8.1,2.1,11.7,0L52.2,32
								c1.6-0.9,2.6-2.5,2.8-4.2v-6.4H0.2z"/>
							
								<linearGradient id="Shape_25_" gradientUnits="userSpaceOnUse" x1="-149.4823" y1="444.5552" x2="-149.4823" y2="445.6626" gradientTransform="matrix(54.8512 0 0 -32.3084 8226.9521 14402.043)">
								<stop  offset="0" style="stop-color:#FAFAFA"/>
								<stop  offset="1" style="stop-color:#FAFAFA"/>
							</linearGradient>
							<path id="Shape_14_" class="st13" d="M24.1,37.1L1.8,24.4c-1-0.6-1.6-1.6-1.6-2.7s0.6-2.2,1.6-2.7L22.2,7.2
								c3.4-1.9,7.6-1.9,11,0l20.3,11.6c1,0.6,1.7,1.7,1.7,2.9c0,1.2-0.6,2.3-1.7,2.9L31.6,37.1C29.3,38.4,26.4,38.4,24.1,37.1z"/>
							<ellipse id="Oval_1_" class="st0" cx="27.7" cy="21.4" rx="13.6" ry="6.6"/>
							<polygon id="Shape_15_" class="st7" points="27.6,22.5 17.4,16.7 17.4,13.1 27.6,18.9 							"/>
							<polygon id="Shape_16_" class="st8" points="37.9,16.7 27.6,22.5 27.6,18.9 37.9,13.1 							"/>
							<polygon id="Shape_17_" class="st9" points="37.9,13.1 27.6,18.9 17.4,13.1 27.6,7.2 							"/>
							<polygon id="Shape_18_" class="st10" points="37.9,9.5 27.6,15.4 17.4,9.5 27.6,3.6 							"/>
							<polygon id="Shape_19_" class="st7" points="27.6,15.4 17.4,9.5 17.4,5.9 27.6,11.8 							"/>
							<polygon id="Shape_20_" class="st8" points="37.9,9.5 27.6,15.4 27.6,11.8 37.9,5.9 							"/>
							<polygon id="Shape_21_" class="st9" points="37.9,6 27.6,11.8 17.4,5.7 27.7,0 							"/>
							<rect id="Rectangle-path_2_" x="27.6" y="15.3" class="st7" width="1" height="3.7"/>
							<polygon id="Shape_22_" class="st8" points="33.4,6.1 27.5,9.6 21.5,6.1 27.5,2.7 							"/>
							<polygon id="Shape_23_" class="st11" points="27.5,9.6 27.5,2.7 21.5,6.1 							"/>
						</g>
					</g>
					
						<rect id="Rectangle-path-Copy-6" x="343.4" y="307" transform="matrix(0.5 -0.866 0.866 0.5 -159.5889 490.101)" class="st14" width="2.5" height="152.5"/>
					
						<rect id="Rectangle-path-Copy-13" x="336.1" y="312.7" transform="matrix(0.5 -0.866 0.866 0.5 -168.1492 486.6202)" class="st14" width="2.5" height="152.5"/>
					<path id="Shape-Copy-4" class="st0" d="M436.6,442.2c-15.9,8-34.6,8-50.5,0c-14-8-14-21,0-28.9c15.9-8,34.6-8,50.5,0
						C450.4,421.3,450.5,434.2,436.6,442.2z"/>
				</g>
			</g>
		</g>
	</g>
	<linearGradient id="SVGID_1_" gradientUnits="userSpaceOnUse" x1="168.1257" y1="-1.635" x2="168.1257" y2="53.6434">
		<stop  offset="0" style="stop-color:#FAFAFA"/>
		<stop  offset="1" style="stop-color:#FAFAFA"/>
	</linearGradient>
	<path class="st15" d="M70.7,0l77.4,44.5c12.4,7.1,27.7,7.1,40.1,0L265.6,0H70.7z"/>
</g>
<title>illustration-renex</title>
<desc>Created with Sketch.</desc>
</svg>
