<svg xmlns="http://www.w3.org/2000/svg" viewBox="0 0 419.87 294.06"><defs><style>.cls-1{fill:#939598;}.cls-2{fill:#808285;}.cls-10,.cls-11,.cls-3,.cls-4{fill:#e1e1e1;}.cls-10,.cls-11,.cls-3{stroke:#e1e1e1;stroke-miterlimit:10;}.cls-3{stroke-width:0.82px;}.cls-5{fill:#006fe8;}.cls-6{fill:#f5f5f5;}.cls-7{fill:#0075f5;}.cls-8{fill:#003269;}.cls-9{fill:#0048f6;}.cls-10{stroke-width:3px;}</style></defs><title>Asset 22</title><g id="Layer_2" data-name="Layer 2"><g id="Layer_1-2" data-name="Layer 1"><path class="cls-1" d="M229.92,250.53,1.79,117.73a3.58,3.58,0,0,1,0-6.2l172-98.93a11.08,11.08,0,0,1,11.08,0L418.09,148.34a3.58,3.58,0,0,1,0,6.2l-167,96A21.18,21.18,0,0,1,229.92,250.53Z"/><polygon class="cls-2" points="0 118.42 0 114.48 2.13 115.71 1.88 119.35 0 118.42"/><path class="cls-2" d="M251.38,291.11l159.3-91.65a18.33,18.33,0,0,0,9.19-15.89V153.33L251.09,250.56a21.2,21.2,0,0,1-21.21,0L0,116.65v30.28a18.33,18.33,0,0,0,9.14,15.86L229.2,291.07A22.18,22.18,0,0,0,251.38,291.11Z"/><path class="cls-3" d="M313.79,113.22a2.81,2.81,0,0,1-1.38-.34,1.07,1.07,0,0,1-.62-.9,1.06,1.06,0,0,1,.62-.89,3,3,0,0,1,2.74,0,1.07,1.07,0,0,1,.62.9,1.06,1.06,0,0,1-.62.89A2.78,2.78,0,0,1,313.79,113.22Zm0-2.1a2.42,2.42,0,0,0-1.18.28.73.73,0,0,0-.44.58.74.74,0,0,0,.45.59h0a2.64,2.64,0,0,0,2.38,0,.73.73,0,0,0,.44-.58.74.74,0,0,0-.45-.59A2.46,2.46,0,0,0,313.77,111.12Z"/><path class="cls-3" d="M256.72,131.95a3.36,3.36,0,0,1-1.65-.39l-23.59-13.62a3.23,3.23,0,0,0-2.91,0l-7.7,4.45a3.62,3.62,0,0,1-3.27,0l-15.69-9.06a1.26,1.26,0,0,1-.74-1.05,1.25,1.25,0,0,1,.73-1l7.62-4.4a.9.9,0,0,0,0-1.55L183.86,90.58a1.25,1.25,0,0,1,0-2.17l66-38.23.18.31L184,88.72a.9.9,0,0,0,0,1.55L209.7,105a1.25,1.25,0,0,1,0,2.17l-7.62,4.4a.91.91,0,0,0-.55.73.93.93,0,0,0,.56.74l15.69,9.06a3.23,3.23,0,0,0,2.91,0l7.7-4.45a3.62,3.62,0,0,1,3.27,0l23.59,13.62a3.23,3.23,0,0,0,2.91,0l26.18-15.11a3.62,3.62,0,0,1,3.27,0l7.85,4.53a3.23,3.23,0,0,0,2.91,0l14.08-8.13.18.31L298.56,121a3.62,3.62,0,0,1-3.27,0l-7.85-4.53a3.23,3.23,0,0,0-2.91,0l-26.18,15.11A3.32,3.32,0,0,1,256.72,131.95Z"/><path class="cls-3" d="M201.39,100.33a3.07,3.07,0,0,1-2.78,0,.85.85,0,0,1,0-1.6,3.07,3.07,0,0,1,2.78,0A.85.85,0,0,1,201.39,100.33Z"/><rect class="cls-3" x="164.29" y="157.3" width="23.58" height="0.36" transform="translate(-55.25 109.63) rotate(-30.12)"/><path class="cls-3" d="M290.38,205.35a2.81,2.81,0,0,1,1.38.34,1.07,1.07,0,0,1,.62.9,1.06,1.06,0,0,1-.62.89h0a3,3,0,0,1-2.74,0,1.08,1.08,0,0,1-.62-.9,1.06,1.06,0,0,1,.62-.89A2.78,2.78,0,0,1,290.38,205.35Zm1.21,1.82a.73.73,0,0,0,.44-.58.74.74,0,0,0-.45-.59,2.64,2.64,0,0,0-2.38,0,.73.73,0,0,0-.44.58.74.74,0,0,0,.45.59,2.64,2.64,0,0,0,2.38,0Z"/><path class="cls-3" d="M131.69,171.45a2.81,2.81,0,0,1,1.38.34,1.07,1.07,0,0,1,.62.9,1.06,1.06,0,0,1-.62.89h0a3,3,0,0,1-2.74,0,1.08,1.08,0,0,1-.62-.9,1.06,1.06,0,0,1,.62-.89A2.78,2.78,0,0,1,131.69,171.45Zm1.21,1.82a.73.73,0,0,0,.44-.58.74.74,0,0,0-.45-.59,2.64,2.64,0,0,0-2.38,0,.73.73,0,0,0-.44.58.74.74,0,0,0,.45.59,2.64,2.64,0,0,0,2.38,0Z"/><path class="cls-4" d="M127.74,177a.07.07,0,0,0,0-.06l-3.49-2a.22.22,0,0,0-.22,0l-3.48,2a.07.07,0,0,0,0,.06h0v.23a.37.37,0,0,0,.18.32l3.22,1.87a.45.45,0,0,0,.45,0l3.22-1.85a.37.37,0,0,0,.19-.32V177Z"/><path class="cls-4" d="M124.33,179.38l3.22-1.85a.37.37,0,0,0,.19-.32V177l-3.42,2a.43.43,0,0,1-.43,0l-3.42-2v.19a.37.37,0,0,0,.18.32l3.22,1.87A.45.45,0,0,0,124.33,179.38Z"/><polyline class="cls-4" points="127.74 177.02 127.74 176.98 127.7 177.05"/><polygon class="cls-4" points="120.47 177.04 120.47 176.96 120.52 176.99 120.51 177.06 120.47 177.04"/><path class="cls-4" d="M123.9,179l-3.39-2a.07.07,0,0,1,0-.13l3.48-2a.22.22,0,0,1,.22,0l3.49,2a.07.07,0,0,1,0,.13L124.33,179A.43.43,0,0,1,123.9,179Z"/><path class="cls-4" d="M169.6,162.9a.07.07,0,0,0,0-.06l-3.49-2a.22.22,0,0,0-.22,0l-3.48,2a.07.07,0,0,0,0,.06h0v.23a.37.37,0,0,0,.18.32l3.22,1.87a.45.45,0,0,0,.45,0l3.22-1.85a.37.37,0,0,0,.19-.32v-.23Z"/><path class="cls-4" d="M166.2,165.31l3.22-1.85a.37.37,0,0,0,.19-.32v-.19l-3.42,2a.43.43,0,0,1-.43,0l-3.42-2v.19a.37.37,0,0,0,.18.32l3.22,1.87A.45.45,0,0,0,166.2,165.31Z"/><polyline class="cls-4" points="169.6 162.94 169.6 162.9 169.57 162.97"/><polygon class="cls-4" points="162.34 162.97 162.34 162.89 162.38 162.91 162.38 162.98 162.34 162.97"/><path class="cls-4" d="M165.76,164.91l-3.39-2a.07.07,0,0,1,0-.13l3.48-2a.22.22,0,0,1,.22,0l3.49,2a.07.07,0,0,1,0,.13l-3.38,1.94A.43.43,0,0,1,165.76,164.91Z"/><path class="cls-4" d="M131.7,109.2a.23.23,0,0,0-.11-.19l-11.11-6.43a.71.71,0,0,0-.71,0l-11.08,6.37a.23.23,0,0,0-.12.2h0v.73a1.18,1.18,0,0,0,.59,1l10.27,6a1.43,1.43,0,0,0,1.43,0l10.26-5.9a1.18,1.18,0,0,0,.59-1v-.73Z"/><path class="cls-4" d="M120.85,116.85l10.26-5.9a1.18,1.18,0,0,0,.59-1v-.59l-10.88,6.26a1.37,1.37,0,0,1-1.37,0l-10.89-6.31v.6a1.18,1.18,0,0,0,.59,1l10.27,6A1.43,1.43,0,0,0,120.85,116.85Z"/><polyline class="cls-4" points="131.71 109.33 131.71 109.2 131.59 109.41"/><polygon class="cls-4" points="108.57 109.4 108.57 109.15 108.71 109.23 108.69 109.46 108.57 109.4"/><path class="cls-4" d="M119.47,115.59l-10.79-6.25a.23.23,0,0,1,0-.4l11.08-6.37a.71.71,0,0,1,.71,0L131.59,109a.23.23,0,0,1,0,.4l-10.76,6.19A1.36,1.36,0,0,1,119.47,115.59Z"/><path class="cls-4" d="M202.73,148.32a.23.23,0,0,0-.11-.19l-11.11-6.43a.71.71,0,0,0-.71,0l-11.08,6.37a.23.23,0,0,0-.12.2h0V149a1.18,1.18,0,0,0,.59,1l10.27,6a1.43,1.43,0,0,0,1.43,0l10.26-5.9a1.18,1.18,0,0,0,.59-1v-.73Z"/><path class="cls-4" d="M191.88,156l10.26-5.9a1.18,1.18,0,0,0,.59-1v-.59l-10.88,6.26a1.37,1.37,0,0,1-1.37,0L179.6,148.4v.6a1.18,1.18,0,0,0,.59,1l10.27,6A1.43,1.43,0,0,0,191.88,156Z"/><polyline class="cls-4" points="202.73 148.46 202.73 148.32 202.62 148.53"/><polygon class="cls-4" points="179.6 148.53 179.6 148.27 179.73 148.35 179.72 148.59 179.6 148.53"/><path class="cls-4" d="M190.5,154.72l-10.79-6.25a.23.23,0,0,1,0-.4l11.08-6.37a.71.71,0,0,1,.71,0l11.11,6.43a.23.23,0,0,1,0,.4l-10.76,6.19A1.36,1.36,0,0,1,190.5,154.72Z"/><path class="cls-4" d="M303.88,190.15c-5.8-3.35-15.18-3.35-20.95,0s-5.74,8.78.07,12.13,15.18,3.35,20.95,0,5.74-8.78-.07-12.13"/><path class="cls-4" d="M281.5,83.81c-11-6.37-28.87-6.37-39.83,0s-10.9,16.7.13,23.07,28.87,6.37,39.83,0,10.9-16.7-.13-23.07"/><path class="cls-5" d="M307,160.34l-3.32-2-.22-.14h0A1.93,1.93,0,0,0,302,158a22,22,0,0,1-4,.83,16.53,16.53,0,0,1-4.79-.13,2,2,0,0,0-1.94.8,54.42,54.42,0,0,1-4.92,6.05,44.59,44.59,0,0,1-6,5.36,2,2,0,0,0-.8,1.58v9c0,4.5,1.48,7.89,4,9.64h0q.25.17.52.32l2.93,1.82,0-.89.64.05,3.4.15a2,2,0,0,0,1.59-.7l3.75-4.49c5-6,8.11-13.78,8.11-20.3v-5.71Z"/><path class="cls-6" d="M299.81,189.47,296.06,194a2,2,0,0,1-1.59.7l-3.4-.15c-5-.22-8.11-4.42-8.11-10.94v-9a2,2,0,0,1,.8-1.58,44.59,44.59,0,0,0,6-5.36,54.42,54.42,0,0,0,4.92-6.05,2,2,0,0,1,1.94-.8,16.53,16.53,0,0,0,4.79.13,22,22,0,0,0,4-.83,2,2,0,0,1,2.53,1.88v7.19C307.91,175.69,304.8,183.49,299.81,189.47Z"/><path class="cls-5" d="M251,93.49,260,88.26a4,4,0,0,0,1.79-3.11V74.7l2.84-4.91-3.36-1.94A1.26,1.26,0,0,0,260,68L246,76a4,4,0,0,0-1.79,3.11V95.3a1.26,1.26,0,0,0,.53,1.16l3.36,1.94Z"/><path class="cls-5" d="M248.12,98.4l-3.36-1.94a1.26,1.26,0,0,1-.53-1.16V79.15a3.65,3.65,0,0,1,.53-1.77l3.42,2Z"/><path class="cls-6" d="M263.38,90.2l-14,8.07c-1,.57-1.79.1-1.79-1V81.09A4,4,0,0,1,249.39,78l14-8.07c1-.57,1.79-.1,1.79,1V87.1A4,4,0,0,1,263.38,90.2Z"/><path class="cls-7" d="M258.93,80.37a5.63,5.63,0,0,1-2.55,4.42c-1.41.81-2.55.15-2.55-1.47a5.63,5.63,0,0,1,2.55-4.42C257.79,78.08,258.93,78.74,258.93,80.37Z"/><polygon class="cls-7" points="258.25 88.22 254.52 90.38 255.57 83.77 257.14 82.86 258.25 88.22"/><path class="cls-5" d="M258.34,80.71a4.34,4.34,0,0,1-2,3.4c-1.08.63-2,.12-2-1.13a4.34,4.34,0,0,1,2-3.4C257.47,78.95,258.34,79.45,258.34,80.71Z"/><polygon class="cls-5" points="257.31 87.9 255.46 88.96 255.94 83.42 256.82 82.91 257.31 87.9"/><path class="cls-8" d="M257.9,81a3.36,3.36,0,0,1-1.52,2.63c-.84.48-1.52.09-1.52-.88a3.36,3.36,0,0,1,1.52-2.63C257.22,79.6,257.9,80,257.9,81Z"/><path class="cls-9" d="M249.19,76.76l2-1.17v-2.5a4.85,4.85,0,0,1,2.19-3.79l2.53-1.46c.35-.2.72-.43,1-.28s.24.58.24,1v2.5l1,.55,2-1.17V67a2.28,2.28,0,0,0-.79-1.93h0l-1.18-.68h0a2.24,2.24,0,0,0-2.12.26l-4.69,2.71a6.94,6.94,0,0,0-3.13,5.42V76.2Z"/><path class="cls-9" d="M283.32,93.49a4.12,4.12,0,0,0-1-1.44,6.57,6.57,0,0,0-1.19-.87,13.07,13.07,0,0,0-11.84,0A5,5,0,0,0,267,93.49a2.87,2.87,0,0,0-.15,1.72,3.59,3.59,0,0,0,.93,1.68l-1.77,1-2.9,1.67-1.18.68-2.9,1.68L255.42,104l-.71.41-1.14.66a.48.48,0,0,0,0,.9l1.84,1.06a1.73,1.73,0,0,0,1.56,0l3.54-2,1.58.91a1.2,1.2,0,0,0,.45.14,1.42,1.42,0,0,0,.87-.14L265,105a.49.49,0,0,0,.27-.34v-.1a.5.5,0,0,0-.27-.33l-1.26-.73-.26-.15-.06,0,1.18-.68.11.06.21.12.35.2.9.52a1.49,1.49,0,0,0,1.34,0l1.56-.9a.41.41,0,0,0,0-.78l-1.25-.72-.32-.19,1.82-1.05,1.87-1.08a13.76,13.76,0,0,0,8.74-.28h0l.19-.07a8.26,8.26,0,0,0,1-.48c1.64-.94,2.45-2.18,2.45-3.42A3,3,0,0,0,283.32,93.49Zm-5.07,2.89a6.82,6.82,0,0,1-6.17,0l-.21-.13c-1.11-.74-1.35-1.76-.72-2.63l.1-.13a3.06,3.06,0,0,1,.83-.67,6.82,6.82,0,0,1,6.17,0,3.06,3.06,0,0,1,.83.67C279.88,94.43,279.6,95.59,278.25,96.38Z"/><path class="cls-5" d="M256.19,105v2.22a1.59,1.59,0,0,1-.78-.19L253.57,106a.55.55,0,0,1-.32-.45v-2.22a.54.54,0,0,0,.32.45l1.84,1.06A1.59,1.59,0,0,0,256.19,105Z"/><path class="cls-9" d="M269.36,100.06v2.26a.49.49,0,0,1-.27.34l-1.58.91a1.42,1.42,0,0,1-.87.14v-2.2l.93-.49,1.23-.66Z"/><path class="cls-5" d="M266.87,101.29l0,2.42a1.49,1.49,0,0,1-.68-.16l-1.58-.91v-2.22Z"/><path class="cls-9" d="M265.27,102.42v2.26a.49.49,0,0,1-.27.34l-1.58.91a1.42,1.42,0,0,1-.87.14v-2.2l.93-.49,1.23-.66Z"/><path class="cls-5" d="M262.8,103.66l0,2.42a1.49,1.49,0,0,1-.68-.16l-1.58-.91V102.8Z"/><path class="cls-5" d="M268.39,94.32l-.6.35-.93.54a1.22,1.22,0,0,1-.07-.32c-.07-.55,0-2.52,0-2.52a2.92,2.92,0,0,1,.18-1A22.93,22.93,0,0,0,268.39,94.32Z"/><path class="cls-5" d="M271.19,96.63v2.22a13.55,13.55,0,0,0,8.74-.28V96.35A13.15,13.15,0,0,1,271.19,96.63Z"/><path class="cls-9" d="M283.54,92.38V94.6c0,1.24-.82,2.48-2.45,3.42a8.26,8.26,0,0,1-1,.48l-.19.08V95.21L282.28,92l.85-1.15A3,3,0,0,1,283.54,92.38Z"/><path class="cls-7" d="M283.13,90.89a5.3,5.3,0,0,0-2-1.93,13.08,13.08,0,0,0-11.84,0A4.86,4.86,0,0,0,267,91.38a2.92,2.92,0,0,0-.18,1,3,3,0,0,0,.22,1.11,3.88,3.88,0,0,0,.78,1.18,6.16,6.16,0,0,0,1.45,1.13,9.59,9.59,0,0,0,2,.84,13.72,13.72,0,0,0,8.74-.28,8.9,8.9,0,0,0,1.16-.55,5,5,0,0,0,2.23-2.31,3,3,0,0,0,.22-1.11A3,3,0,0,0,283.13,90.89Zm-4.05,2.6a3.06,3.06,0,0,1-.83.67,6.84,6.84,0,0,1-6.06.06l-.15-.09a3.08,3.08,0,0,1-.78-.64c-.8-.94-.52-2.11.83-2.89a6.81,6.81,0,0,1,6.17,0C279.6,91.38,279.88,92.55,279.08,93.49Z"/><path class="cls-7" d="M253.57,103.78l1.84,1.06a1.73,1.73,0,0,0,1.56,0l16.81-9.7-3.4-2-16.81,9.7A.48.48,0,0,0,253.57,103.78Z"/><path class="cls-7" d="M257.16,100.86l4.93,2.85a1.46,1.46,0,0,0,1.32,0l1.58-.91a.4.4,0,0,0,0-.76l-4.93-2.85Z"/><path class="cls-7" d="M261.25,98.5l4.92,2.84a1.49,1.49,0,0,0,1.35,0l1.56-.9a.41.41,0,0,0,0-.78l-4.92-2.84Z"/><path class="cls-2" d="M190.48,22c-5.8-3.35-15.18-3.35-20.95,0s-5.74,8.78.07,12.13,15.18,3.35,20.95,0,5.74-8.78-.07-12.13"/><line class="cls-10" x1="177.81" y1="28.02" x2="177.81" y2="2.13"/><line class="cls-10" x1="181.65" y1="28.02" x2="181.65" y2="2.13"/><path class="cls-2" d="M169.6,25.29c5.8,3.35,15.18,3.35,20.95,0l-2.15,4.59H175.81Z"/><rect class="cls-5" x="176.94" width="1.42" height="2.13"/><rect class="cls-5" x="180.94" width="1.42" height="2.13"/><path class="cls-2" d="M250.49,232.21c-5.8-3.35-15.18-3.35-20.95,0s-5.74,8.78.07,12.13,15.18,3.35,20.95,0,5.74-8.78-.07-12.13"/><line class="cls-10" x1="237.83" y1="238.28" x2="237.83" y2="212.38"/><line class="cls-10" x1="241.66" y1="238.28" x2="241.66" y2="212.38"/><path class="cls-2" d="M229.61,235.54c5.8,3.35,15.18,3.35,20.95,0l-2.15,4.59H235.83Z"/><rect class="cls-5" x="236.95" y="210.25" width="1.42" height="2.13"/><rect class="cls-5" x="240.95" y="210.25" width="1.42" height="2.13"/><path class="cls-2" d="M38.77,108.09c-5.8-3.35-15.18-3.35-20.95,0s-5.74,8.78.07,12.13,15.18,3.35,20.95,0,5.74-8.78-.07-12.13"/><line class="cls-10" x1="26.11" y1="114.16" x2="26.11" y2="88.26"/><line class="cls-10" x1="29.94" y1="114.16" x2="29.94" y2="88.26"/><path class="cls-2" d="M17.89,111.42c5.8,3.35,15.18,3.35,20.95,0L36.69,116H24.11Z"/><rect class="cls-5" x="25.23" y="86.14" width="1.42" height="2.13"/><rect class="cls-5" x="29.23" y="86.14" width="1.42" height="2.13"/><path class="cls-2" d="M399.15,145.19c-5.8-3.35-15.18-3.35-20.95,0s-5.74,8.78.07,12.13,15.18,3.35,20.95,0,5.74-8.78-.07-12.13"/><line class="cls-10" x1="386.48" y1="151.26" x2="386.48" y2="125.36"/><line class="cls-10" x1="390.31" y1="151.26" x2="390.31" y2="125.36"/><path class="cls-2" d="M378.26,148.52c5.8,3.35,15.18,3.35,20.95,0l-2.15,4.59H384.48Z"/><rect class="cls-5" x="385.6" y="123.24" width="1.42" height="2.13"/><rect class="cls-5" x="389.6" y="123.24" width="1.42" height="2.13"/><path class="cls-2" d="M419.87,153.37v-2.11a3.66,3.66,0,0,1-1.8,3.31"/><path class="cls-3" d="M102.27,98.62,93.85,93.8a.9.9,0,0,1,0-1.55l7.62-4.4a1.25,1.25,0,0,0,.73-1,1.26,1.26,0,0,0-.74-1.05L85.77,76.69a3.62,3.62,0,0,0-3.27,0l-7.7,4.45a3.23,3.23,0,0,1-2.91,0l-8.6-5-.36.21,8.78,5.07a3.62,3.62,0,0,0,3.27,0L82.67,77a3.23,3.23,0,0,1,2.91,0l15.69,9.06a.93.93,0,0,1,.56.74.91.91,0,0,1-.55.73l-7.62,4.4a1.25,1.25,0,0,0,0,2.17l8.2,4.69.11-.08A2.28,2.28,0,0,1,102.27,98.62Z"/><path class="cls-3" d="M119.51,108.48,105,100.17a1.56,1.56,0,0,1-.23.16l-.13,0,14.69,8.41a.9.9,0,0,1,0,1.55l-66,38.23.18.31,66-38.23a1.25,1.25,0,0,0,0-2.17Z"/><path class="cls-3" d="M102,100.33a3.08,3.08,0,0,0,2.65.05l-2.77-1.58C101.22,99.25,101.26,99.91,102,100.33Z"/><path class="cls-3" d="M104.76,98.73a3.08,3.08,0,0,0-2.49-.12l2.73,1.56C105.52,99.73,105.44,99.12,104.76,98.73Z"/><path class="cls-3" d="M105,100.17l-2.73-1.56a2.28,2.28,0,0,0-.29.11l-.11.08,2.77,1.58.13,0A1.56,1.56,0,0,0,105,100.17Z"/><path class="cls-3" d="M373,180.34l-10.4-6a.93.93,0,0,1-.56-.74.91.91,0,0,1,.55-.73l7.62-4.4a1.25,1.25,0,0,0,0-2.17L344.54,151.6a.9.9,0,0,1,0-1.55l38.34-22.2-.36-.21-38.17,22.09a1.25,1.25,0,0,0,0,2.17L370,166.59a.9.9,0,0,1,0,1.55l-7.62,4.4a1.25,1.25,0,0,0-.73,1,1.26,1.26,0,0,0,.74,1.05l10.22,5.9Z"/><path class="cls-3" d="M273.71,218.11l6.07,3.51a.93.93,0,0,1,.56.74.91.91,0,0,1-.55.73l-4,2.3a1.25,1.25,0,0,0-.73,1,1.26,1.26,0,0,0,.73,1.05l7.66,4.42.36-.21L276,227.18a.93.93,0,0,1-.56-.74.91.91,0,0,1,.55-.73l4-2.3a1.25,1.25,0,0,0,.73-1,1.26,1.26,0,0,0-.74-1.05l-6.07-3.51a.93.93,0,0,1-.56-.74.91.91,0,0,1,.55-.73l15.43-8.91-.18-.31L273.7,216a1.25,1.25,0,0,0-.73,1A1.26,1.26,0,0,0,273.71,218.11Z"/><path class="cls-3" d="M167.62,191.07,142,176.39a.9.9,0,0,1,0-1.55l7.62-4.4a1.25,1.25,0,0,0,.73-1,1.26,1.26,0,0,0-.74-1.05l-15.69-9.06a3.62,3.62,0,0,0-3.27,0l-7.7,4.45a3.23,3.23,0,0,1-2.91,0L96.41,150.1a3.36,3.36,0,0,0-1.65-.39,3.32,3.32,0,0,0-1.63.39L75.22,160.44l.36.21L93.31,150.4a3.23,3.23,0,0,1,2.91,0L119.81,164a3.62,3.62,0,0,0,3.27,0l7.7-4.45a3.23,3.23,0,0,1,2.91,0l15.69,9.06a.93.93,0,0,1,.56.74.91.91,0,0,1-.55.73l-7.62,4.4a1.25,1.25,0,0,0,0,2.17l25.66,14.68a.9.9,0,0,1,0,1.55L149.3,203.44l.36.21,18-10.4a1.25,1.25,0,0,0,0-2.17Z"/><polygon class="cls-3" points="114.4 183.28 130.43 173.99 130.25 173.68 114.04 183.07 114.4 183.28"/><line class="cls-11" x1="53.46" y1="148.28" x2="53.46" y2="188.92"/><line class="cls-11" x1="75.22" y1="160.79" x2="75.22" y2="201.43"/><line class="cls-11" x1="114.04" y1="183.33" x2="114.04" y2="223.97"/><line class="cls-11" x1="149.3" y1="203.65" x2="149.3" y2="244.28"/><line class="cls-11" x1="283.54" y1="231.91" x2="283.54" y2="272.54"/><line class="cls-11" x1="372.8" y1="180.54" x2="372.8" y2="221.18"/></g></g></svg>