<svg xmlns="http://www.w3.org/2000/svg" xmlns:xlink="http://www.w3.org/1999/xlink" viewBox="0 0 636.67 87.71"><defs><style>.cls-1{fill:url(#linear-gradient);}.cls-2{fill:url(#linear-gradient-2);}.cls-3{fill:url(#linear-gradient-3);}.cls-4{fill:url(#linear-gradient-4);}.cls-5{fill:url(#linear-gradient-5);}.cls-6{fill:url(#linear-gradient-6);}.cls-7{fill:url(#linear-gradient-7);}.cls-8{fill:url(#linear-gradient-8);}.cls-9{fill:url(#linear-gradient-9);}.cls-10{fill:url(#linear-gradient-10);}.cls-11{fill:url(#linear-gradient-11);}.cls-12{fill:url(#linear-gradient-12);}.cls-13{fill:url(#linear-gradient-13);}.cls-14{fill:url(#linear-gradient-14);}.cls-15{fill:url(#linear-gradient-15);}.cls-16{fill:url(#linear-gradient-16);}.cls-17{fill:url(#linear-gradient-17);}.cls-18{fill:url(#linear-gradient-18);}.cls-19{fill:url(#linear-gradient-19);}.cls-20{fill:url(#linear-gradient-20);}.cls-21{fill:url(#linear-gradient-21);}.cls-22{fill:url(#linear-gradient-22);}.cls-23{fill:url(#linear-gradient-23);}.cls-24{fill:url(#linear-gradient-24);}.cls-25{fill:url(#linear-gradient-25);}.cls-26{fill:url(#linear-gradient-26);}.cls-27{fill:url(#linear-gradient-27);}.cls-28{fill:url(#linear-gradient-28);}.cls-29{fill:url(#linear-gradient-29);}</style><linearGradient id="linear-gradient" y1="11.71" x2="43.21" y2="11.71" gradientUnits="userSpaceOnUse"><stop offset="0" stop-color="#001c3a"/><stop offset="0.57" stop-color="#001e3d"/><stop offset="0.69" stop-color="#001f3f"/><stop offset="1" stop-color="#002042"/></linearGradient><linearGradient id="linear-gradient-2" y1="22.32" x2="55.47" y2="22.32" xlink:href="#linear-gradient"/><linearGradient id="linear-gradient-3" y1="27.6" x2="61.57" y2="27.6" xlink:href="#linear-gradient"/><linearGradient id="linear-gradient-4" y1="32.89" x2="67.67" y2="32.89" xlink:href="#linear-gradient"/><linearGradient id="linear-gradient-5" y1="38.18" x2="73.76" y2="38.18" xlink:href="#linear-gradient"/><linearGradient id="linear-gradient-6" y1="43.47" x2="77.72" y2="43.47" xlink:href="#linear-gradient"/><linearGradient id="linear-gradient-7" x1="3.96" y1="48.53" x2="77.72" y2="48.53" xlink:href="#linear-gradient"/><linearGradient id="linear-gradient-8" x1="10.06" y1="53.85" x2="77.72" y2="53.85" xlink:href="#linear-gradient"/><linearGradient id="linear-gradient-9" x1="16.15" y1="59.1" x2="77.72" y2="59.1" xlink:href="#linear-gradient"/><linearGradient id="linear-gradient-10" x1="22.25" y1="64.39" x2="77.72" y2="64.39" xlink:href="#linear-gradient"/><linearGradient id="linear-gradient-11" x1="28.35" y1="69.71" x2="77.72" y2="69.71" xlink:href="#linear-gradient"/><linearGradient id="linear-gradient-12" x1="34.51" y1="75" x2="77.72" y2="75" xlink:href="#linear-gradient"/><linearGradient id="linear-gradient-13" y1="17" x2="49.37" y2="17" xlink:href="#linear-gradient"/><linearGradient id="linear-gradient-14" x1="123.5" y1="43.81" x2="149.9" y2="43.81" xlink:href="#linear-gradient"/><linearGradient id="linear-gradient-15" x1="156.22" y1="43.81" x2="179.31" y2="43.81" xlink:href="#linear-gradient"/><linearGradient id="linear-gradient-16" x1="186.74" y1="43.81" x2="210.83" y2="43.81" xlink:href="#linear-gradient"/><linearGradient id="linear-gradient-17" x1="219.06" y1="43.76" x2="244.26" y2="43.76" xlink:href="#linear-gradient"/><linearGradient id="linear-gradient-18" x1="253.8" y1="43.81" x2="278.09" y2="43.81" xlink:href="#linear-gradient"/><linearGradient id="linear-gradient-19" x1="286.82" y1="43.81" x2="308.71" y2="43.81" xlink:href="#linear-gradient"/><linearGradient id="linear-gradient-20" x1="314.53" y1="43.81" x2="319.65" y2="43.81" xlink:href="#linear-gradient"/><linearGradient id="linear-gradient-21" x1="328.79" y1="43.81" x2="352.98" y2="43.81" xlink:href="#linear-gradient"/><linearGradient id="linear-gradient-22" x1="380.89" y1="43.81" x2="405.08" y2="43.81" xlink:href="#linear-gradient"/><linearGradient id="linear-gradient-23" x1="412.41" y1="43.81" x2="438.81" y2="43.81" xlink:href="#linear-gradient"/><linearGradient id="linear-gradient-24" x1="444.63" y1="43.86" x2="472.14" y2="43.86" xlink:href="#linear-gradient"/><linearGradient id="linear-gradient-25" x1="478.16" y1="43.81" x2="503.96" y2="43.81" xlink:href="#linear-gradient"/><linearGradient id="linear-gradient-26" x1="510.08" y1="43.86" x2="537.59" y2="43.86" xlink:href="#linear-gradient"/><linearGradient id="linear-gradient-27" x1="546.12" y1="43.81" x2="570.41" y2="43.81" xlink:href="#linear-gradient"/><linearGradient id="linear-gradient-28" x1="578.34" y1="43.86" x2="605.85" y2="43.86" xlink:href="#linear-gradient"/><linearGradient id="linear-gradient-29" x1="614.78" y1="43.81" x2="636.67" y2="43.81" xlink:href="#linear-gradient"/></defs><title>Asset 1@alt</title><g id="Layer_2" data-name="Layer 2"><g id="Layer_1-2" data-name="Layer 1"><polygon class="cls-1" points="12.07 18.49 18.49 14.79 19.4 16.28 43.21 2.53 41.46 1.49 39.7 0.52 38.86 0 0 22.45 0 23.42 11.16 17 12.07 18.49"/><polygon class="cls-2" points="12.07 32.63 30.75 21.86 31.59 23.36 55.47 9.6 53.72 8.56 51.97 7.59 51.12 7.07 0 36.52 0 37.56 11.16 31.14 12.07 32.63"/><polygon class="cls-3" points="12.07 39.7 36.85 25.37 37.69 26.86 61.57 13.11 59.82 12.13 58.06 11.09 57.22 10.57 0 43.6 0 44.63 11.16 38.15 12.07 39.7"/><polygon class="cls-4" points="12.07 46.71 43.14 28.8 43.99 30.3 67.67 16.61 65.91 15.63 64.16 14.6 63.32 14.14 0 50.67 0 51.64 11.16 45.22 12.07 46.71"/><polygon class="cls-5" points="12.07 53.78 49.24 32.31 50.09 33.87 73.77 20.18 72.01 19.14 70.33 18.16 69.42 17.65 0 57.74 0 58.71 11.16 52.29 12.07 53.78"/><polygon class="cls-6" points="76.42 21.67 75.52 21.15 0 64.81 0 65.78 11.16 59.36 12.07 60.85 49.24 39.38 50.09 40.87 77.72 24.98 77.72 22.97 77.72 22.45 76.42 21.67"/><polygon class="cls-7" points="4.8 70.07 11.03 66.5 11.94 67.99 49.05 46.52 49.95 48.07 77.72 31.98 77.72 29.97 77.72 27.96 77.72 26.99 3.96 69.55 4.8 70.07"/><polyline class="cls-8" points="49.05 53.59 49.95 55.15 77.72 39.06 77.72 37.04 77.72 35.03 77.72 34.06 10.06 73.12 10.9 73.64 17.26 69.94 18.16 71.43"/><polygon class="cls-9" points="17 77.14 23.42 73.44 24.26 75 49.05 60.66 49.95 62.15 77.72 46.13 77.72 44.12 77.72 42.1 77.72 41.07 16.15 76.62 17 77.14"/><polygon class="cls-10" points="23.16 80.64 29.52 77.01 30.36 78.5 49.05 67.73 49.95 69.22 77.72 53.2 77.72 51.19 77.72 49.18 77.72 48.14 22.25 80.19 23.16 80.64"/><polygon class="cls-11" points="28.35 83.69 29.26 84.21 35.62 80.51 36.46 82.07 49.05 74.8 49.95 76.3 77.72 60.27 77.72 58.26 77.72 56.18 77.72 55.21 28.35 83.69"/><polygon class="cls-12" points="35.36 87.71 41.72 84.08 42.62 85.57 49.05 81.81 49.95 83.37 77.72 67.34 77.72 65.27 77.72 63.26 77.72 62.28 34.51 87.26 35.36 87.71"/><polygon class="cls-13" points="49.37 6.03 47.62 5.06 47.62 5.06 45.87 4.02 44.96 3.5 0 29.52 0 30.49 11.16 24.07 12.07 25.56 24.65 18.3 25.5 19.79 49.37 6.03"/><path class="cls-14" d="M123.5,54.45V33.17h19.17a5.78,5.78,0,0,1,3.81,1,3.73,3.73,0,0,1,1.2,3.11v5a3.73,3.73,0,0,1-1.2,3.11,6.2,6.2,0,0,1-3.81,1h-2.91l10.14,8h-7.43l-8.93-8h-4.92v8Zm17-17.57H128.62V42.8h11.85a2.66,2.66,0,0,0,1.81-.4,1.73,1.73,0,0,0,.5-1.31V38.69a1.58,1.58,0,0,0-.5-1.31C142,37,141.37,36.88,140.46,36.88Z"/><path class="cls-15" d="M156.22,54.45V33.17H179v3.71H161.44V41.5h10.24v3.71H161.44v5.22h17.87v4Z"/><path class="cls-16" d="M186.74,54.45V33.17h19.07a5.6,5.6,0,0,1,3.81,1,3.73,3.73,0,0,1,1.2,3.11V42a3.61,3.61,0,0,1-1.2,3.11,6.2,6.2,0,0,1-3.81,1H191.76v8.33Zm16.86-17.57H191.76V42.5h11.85a2.66,2.66,0,0,0,1.81-.4,1.73,1.73,0,0,0,.5-1.31V38.59a1.58,1.58,0,0,0-.5-1.31A2.66,2.66,0,0,0,203.61,36.88Z"/><path class="cls-17" d="M224.28,33.17V50.43H239V33.17h5.22V49.33q0,2.86-1.2,3.92c-.8.7-2.21,1.1-4.42,1.1H224.59c-2.11,0-3.61-.3-4.42-1.1s-1.1-2-1.1-4V33.17Z"/><path class="cls-18" d="M253.8,54.45V33.17h19.07c1.81,0,3.11.3,3.81,1a3.73,3.73,0,0,1,1.2,3.11v2.51a3.26,3.26,0,0,1-.9,2.41,4.87,4.87,0,0,1-2.71,1.2,4.45,4.45,0,0,1,2.81,1.41,3.63,3.63,0,0,1,1,2.71v2.71a3.38,3.38,0,0,1-1.61,3.11,9.23,9.23,0,0,1-4.92,1H253.8Zm16.66-17.77H258.82v5h11.64a3.63,3.63,0,0,0,1.81-.3,1.37,1.37,0,0,0,.5-1.2v-2a1.5,1.5,0,0,0-.5-1.2C272,36.68,271.37,36.68,270.46,36.68Zm0,8.53H258.82v5.42h11.64a3.34,3.34,0,0,0,2-.4,1.73,1.73,0,0,0,.5-1.51V47.12a2.08,2.08,0,0,0-.5-1.51A3.14,3.14,0,0,0,270.46,45.21Z"/><path class="cls-19" d="M286.82,54.45V33.17H292V50.43h16.66v4Z"/><path class="cls-20" d="M314.53,54.45V33.17h5.12V54.45Z"/><path class="cls-21" d="M347.76,37.08h-14V50.33h14V45.81l5.22,1.1v2.51c0,1.91-.4,3.21-1.1,3.92s-2.21,1.1-4.42,1.1H334.21c-2.11,0-3.61-.3-4.32-1.1s-1.1-2-1.1-4V38.18c0-1.91.4-3.21,1.1-3.92s2.21-1.1,4.42-1.1h13.05c2.21,0,3.71.3,4.42,1.1s1.1,2,1.1,3.92v2.11l-5.22.8v-4Z"/><path class="cls-22" d="M380.89,54.45V33.17h19.17a5.6,5.6,0,0,1,3.81,1,3.73,3.73,0,0,1,1.2,3.11V42a3.61,3.61,0,0,1-1.2,3.11,6.2,6.2,0,0,1-3.81,1H386v8.33Zm17-17.57H386V42.5h11.85a2.66,2.66,0,0,0,1.81-.4,1.73,1.73,0,0,0,.5-1.31V38.59a1.58,1.58,0,0,0-.5-1.31A2.66,2.66,0,0,0,397.85,36.88Z"/><path class="cls-23" d="M412.41,54.45V33.17h19.17a5.78,5.78,0,0,1,3.81,1,3.73,3.73,0,0,1,1.2,3.11v5a3.73,3.73,0,0,1-1.2,3.11,6.2,6.2,0,0,1-3.81,1h-2.91l10.14,8h-7.43l-8.93-8h-4.92v8Zm17-17.57H417.53V42.8h11.85a2.66,2.66,0,0,0,1.81-.4,1.73,1.73,0,0,0,.5-1.31V38.69a1.58,1.58,0,0,0-.5-1.31C430.88,37,430.28,36.88,429.37,36.88Z"/><path class="cls-24" d="M444.63,38.18c0-1.91.4-3.21,1.1-3.92s2.21-1.1,4.42-1.1h16.46c2.21,0,3.61.3,4.42,1.1s1.1,2,1.1,3.92V49.43c0,1.91-.4,3.31-1.1,4s-2.21,1.1-4.42,1.1H450.15c-2.21,0-3.61-.3-4.42-1.1s-1.1-2-1.1-4V38.18Zm5.12,12.15h17.17V37.08H449.75Z"/><path class="cls-25" d="M493.62,37V54.45H488.4V37H478.16V33.17H504V37Z"/><path class="cls-26" d="M510.08,38.18c0-1.91.4-3.21,1.1-3.92s2.21-1.1,4.42-1.1h16.46c2.21,0,3.61.3,4.42,1.1s1.1,2,1.1,3.92V49.43c0,1.91-.4,3.31-1.1,4s-2.21,1.1-4.42,1.1H515.6c-2.21,0-3.61-.3-4.42-1.1s-1.1-2-1.1-4Zm5.22,12.15h17.17V37.08H515.3Z"/><path class="cls-27" d="M565.09,37.08h-14V50.33h14V45.81l5.22,1.1v2.51c0,1.91-.4,3.21-1.1,3.92s-2.21,1.1-4.42,1.1H551.54c-2.11,0-3.61-.3-4.32-1.1s-1.1-2-1.1-4V38.18c0-1.91.4-3.21,1.1-3.92s2.21-1.1,4.42-1.1h13.25c2.21,0,3.71.3,4.42,1.1s1.1,2,1.1,3.92v2.11l-5.22.8v-4Z"/><path class="cls-28" d="M578.34,38.18c0-1.91.4-3.21,1.1-3.92s2.21-1.1,4.42-1.1h16.46c2.21,0,3.61.3,4.42,1.1s1.1,2,1.1,3.92V49.43c0,1.91-.4,3.31-1.1,4s-2.21,1.1-4.42,1.1H583.86c-2.21,0-3.61-.3-4.42-1.1s-1.1-2-1.1-4Zm5.22,12.15h17.17V37.08H583.56Z"/><path class="cls-29" d="M614.78,54.45V33.17H620V50.43h16.66v4Z"/></g></g></svg>