<?xml version="1.0" encoding="UTF-8"?>
<svg width="932px" height="711px" viewBox="0 0 932 711" version="1.1" xmlns="http://www.w3.org/2000/svg" xmlns:xlink="http://www.w3.org/1999/xlink">
    <!-- Generator: Sketch 50.2 (55047) - http://www.bohemiancoding.com/sketch -->
    <title>Group</title>
    <desc>Created with Sketch.</desc>
    <defs>
        <polygon id="path-1" points="0.405823294 0.0905170041 11.4852126 0.0905170041 11.4852126 11.1611322 0.405823294 11.1611322"></polygon>
        <polygon id="path-3" points="0.268325941 0.687766774 115.665055 0.687766774 115.665055 118.474542 0.268325941 118.474542"></polygon>
    </defs>
    <g id="Page-1" stroke="none" stroke-width="1" fill="none" fill-rule="evenodd">
        <g id="Group">
            <path d="M645,118 L500,211" id="Stroke-1" stroke="#231F20"></path>
            <g id="Group-48">
                <path d="M641.671009,113.171628 C644.247453,111.524703 647.674733,112.27916 649.321153,114.853515 C650.969414,117.42787 650.216186,120.85237 647.6379,122.497455 C645.061455,124.144379 641.634176,123.391762 639.987756,120.817407 C638.339495,118.241212 639.094564,114.818553 641.671009,113.171628" id="Fill-2" fill="#231F20"></path>
                <path d="M780.753902,209.975844 L635.399327,302.831122" id="Stroke-4" stroke="#231F20"></path>
                <path d="M777.536385,205.461614 C780.11283,203.814689 783.540109,204.569147 785.186529,207.143502 C786.83479,209.717857 786.081562,213.140516 783.503276,214.787441 C780.926831,216.434366 777.499552,215.681749 775.853132,213.105554 C774.204871,210.531198 774.95994,207.108539 777.536385,205.461614" id="Fill-6" fill="#231F20"></path>
                <polygon id="Fill-8" fill="#006FE8" points="345.052979 394.694196 344.017982 393.078553 435.61897 334.672527 436.653968 336.288169"></polygon>
                <polygon id="Fill-10" fill="#006FE8" points="468.77518 307.144593 467.782539 305.593355 556.645019 248.826893 557.637659 250.37813"></polygon>
                <path d="M926.286194,307.259601 L790.458388,394.031378 C784.67566,397.724537 777.250195,397.636211 771.555866,393.808721 L376.122251,127.858885 C370.621292,124.160205 370.718899,116.041509 376.302731,112.473479 L509.830338,27.1738141" id="Stroke-12" stroke="#231F20"></path>
                <g id="Group-16" transform="translate(920.108568, 301.782872)">
                    <mask id="mask-2" fill="white">
                        <use xlink:href="#path-1"></use>
                    </mask>
                    <g id="Clip-15"></g>
                    <path d="M2.96195047,0.96268361 C5.53839516,-0.684241208 8.96567434,0.0702159712 10.6120943,2.64457108 C12.2603559,5.21892618 11.507128,8.64158558 8.92884168,10.2885104 C6.35239699,11.9354352 2.92511781,11.1828182 1.27869783,8.60662293 C-0.369563783,6.03226782 0.385505783,2.60960843 2.96195047,0.96268361" id="Fill-14" fill="#231F20" mask="url(#mask-2)"></path>
                </g>
                <path d="M512.58229,31.9854108 C515.158735,30.3384859 515.913804,26.9158265 514.265543,24.3414714 C512.617281,21.7652762 509.190002,21.0126592 506.613557,22.659584 C504.037112,24.3046687 503.282043,27.7291682 504.932146,30.3035233 C506.578566,32.8778784 510.005845,33.6323356 512.58229,31.9854108" id="Fill-17" fill="#231F20"></path>
                <path d="M286.305989,545.133693 L431.658722,452.278416" id="Stroke-19" stroke="#231F20"></path>
                <path d="M289.523506,549.647739 C286.947061,551.294664 283.519782,550.540207 281.873362,547.965852 C280.225101,545.391497 280.978329,541.966997 283.556615,540.321913 C286.13306,538.674988 289.560339,539.427605 291.206759,542.0038 C292.85502,544.578155 292.099951,548.000815 289.523506,549.647739" id="Fill-21" fill="#231F20"></path>
                <path d="M147.683504,452.317979 L293.036237,359.464542" id="Stroke-23" stroke="#231F20"></path>
                <path d="M150.901021,456.832025 C148.324576,458.48079 144.897297,457.724493 143.250877,455.151978 C141.600774,452.575783 142.355844,449.153123 144.932288,447.506198 C147.508733,445.859273 150.936012,446.611891 152.584274,449.188086 C154.232535,451.762441 153.477466,455.1851 150.901021,456.832025" id="Fill-25" fill="#231F20"></path>
                <path d="M6.06854935,356.910244 L138.728747,272.164461 C146.435982,267.242088 156.331076,267.358017 163.918605,272.460724 L556.232493,536.312801 C561.733451,540.009641 561.637686,548.130176 556.052013,551.696367 L422.524406,636.996031" id="Stroke-27" stroke="#231F20"></path>
                <path d="M9.28588236,361.42429 C6.70943767,363.071215 3.28215849,362.318598 1.63573851,359.742403 C-0.012523105,357.168048 0.740704828,353.745388 3.31899115,352.098464 C5.89543584,350.451539 9.32271502,351.205996 10.969135,353.780351 C12.6173966,356.354706 11.862327,359.777365 9.28588236,361.42429" id="Fill-29" fill="#231F20"></path>
                <path d="M419.774111,632.184435 C417.197667,633.83136 416.442597,637.254019 418.090859,639.828374 C419.737279,642.404569 423.164558,643.157186 425.741002,641.510262 C428.319289,639.865177 429.072517,636.440677 427.424255,633.866322 C425.777835,631.291967 422.350556,630.53751 419.774111,632.184435" id="Fill-31" fill="#231F20"></path>
                <polygon id="Fill-33" fill="#006FE8" points="449.749084 323.593599 455.273983 296.144239 485.815626 315.465703"></polygon>
                <polygon id="Fill-35" fill="#006FE8" points="449.749084 323.401305 444.224185 350.850665 413.684383 331.529201"></polygon>
                <polygon id="Fill-37" fill="#006FE8" points="27.3874781 536.231283 117.117367 593.759563 117.117367 559.698581 27.3874781 502.170301"></polygon>
                <polygon id="Fill-39" fill="#006FE8" points="274.671656 637.016641 390.068385 710.999448 390.068385 667.194928 274.671656 593.212121"></polygon>
                <g id="Group-43" transform="translate(580.114423, 0.000000)">
                    <mask id="mask-4" fill="white">
                        <use xlink:href="#path-3"></use>
                    </mask>
                    <g id="Clip-42"></g>
                    <polygon id="Fill-41" fill="#006FE8" mask="url(#mask-4)" points="0.268325941 44.4917346 115.665055 118.474542 115.665055 74.6700217 0.268325941 0.687214732"></polygon>
                </g>
                <polygon id="Fill-44" fill="#001C3A" points="60.0514193 365.940177 186.109363 446.757262 186.109363 398.908115 60.0514193 318.08919"></polygon>
                <polygon id="Fill-46" fill="#001C3A" points="686.165233 301.605405 812.223176 382.42433 812.223176 334.573343 686.165233 253.754418"></polygon>
            </g>
        </g>
    </g>
</svg>