<?xml version="1.0" encoding="UTF-8"?>
<svg width="22px" height="11px" viewBox="0 0 22 11" version="1.1" xmlns="http://www.w3.org/2000/svg" xmlns:xlink="http://www.w3.org/1999/xlink">
    <!-- Generator: Sketch 50.2 (55047) - http://www.bohemiancoding.com/sketch -->
    <title>Group</title>
    <desc>Created with Sketch.</desc>
    <defs></defs>
    <g id="Page-1" stroke="none" stroke-width="1" fill="none" fill-rule="evenodd">
        <g id="Group">
            <polygon id="Fill-1" fill="#DE2910" points="0 11 22 11 22 0 0 0"></polygon>
            <polygon id="Fill-2" fill="#FFDE00" points="5.49907959 4.96120204 4.33173265 4.06324286 3.14193673 4.93875306 3.59091633 3.54691633 2.44579388 2.71630408 3.86030408 2.71630408 4.33173265 1.36936531 4.73581429 2.71630408 6.14987551 2.71630408 5.00520204 3.59181429"></polygon>
            <polygon id="Fill-3" fill="#FFDE00" points="7.1378102 0.897914286 7.5867898 1.07750612 7.90107551 0.718322449 7.85617755 1.18975102 8.30515714 1.36934286 7.83372857 1.50403673 7.78883061 1.99791429 7.54189184 1.57138367 7.07046327 1.68362857 7.38474898 1.3244449"></polygon>
            <polygon id="Fill-4" fill="#FFDE00" points="7.85622245 6.15106531 7.83354898 6.64494286 7.58683469 6.21841224 7.11540612 6.35310612 7.40724286 5.97147347 7.1378551 5.56739184 7.58683469 5.72453469 7.87867143 5.36535102 7.85622245 5.83677959 8.30520204 5.99392245"></polygon>
            <polygon id="Fill-5" fill="#FFDE00" points="8.68687959 2.06530612 9.02361429 2.40204082 9.44992041 2.2 9.22543061 2.60408163 9.56216531 2.94081633 9.09096122 2.87346939 8.86647143 3.3 8.79912449 2.82857143 8.30524694 2.73877551 8.75422653 2.53673469"></polygon>
            <polygon id="Fill-6" fill="#FFDE00" points="9.36034898 5.20816327 8.97871633 4.91632653 8.57463469 5.20816327 8.73155306 4.73673469 8.3501449 4.46734694 8.82157347 4.46734694 8.97871633 4.01836735 9.11318571 4.46734694 9.58483878 4.46734694 9.20320612 4.75918367"></polygon>
        </g>
    </g>
</svg>