<?xml version="1.0" encoding="UTF-8"?>
<svg width="38px" height="50px" viewBox="0 0 38 50" version="1.1" xmlns="http://www.w3.org/2000/svg" xmlns:xlink="http://www.w3.org/1999/xlink">
    <!-- Generator: Sketch 50.2 (55047) - http://www.bohemiancoding.com/sketch -->
    <title>Groupicon-whitepaper</title>
    <desc>Created with Sketch.</desc>
    <defs></defs>
    <g id="Page-1" stroke="none" stroke-width="1" fill="none" fill-rule="evenodd">
        <g id="1.-Home" transform="translate(-983.000000, -1069.000000)">
            <g id="Group" transform="translate(984.000000, 1069.000000)">
                <g id="Group-35-Copy">
                    <g id="Group-34">
                        <path d="M30.1456817,44.119405 L0.641587632,44.119405 C0.287397393,44.119405 0,43.76808 0,43.335105 L0,2.09093 C0,1.65738 0.287397393,1.30663 0.641587632,1.30663 L30.1456817,1.30663 C30.5003423,1.30663 30.7872693,1.65738 30.7872693,2.09093 L30.7872693,43.335105 C30.7872693,43.76808 30.5003423,44.119405 30.1456817,44.119405 Z" id="Stroke-3" stroke="#58585B" stroke-width="1.5"></path>
                        <g id="Group-36" transform="translate(19.698113, 0.000000)" fill="#58585B">
                            <path d="M0.159274421,12.5843925 L3.89062826,15.2564175 L6.90441405,12.5843925 L6.90441405,1.1269425 C4.65584282,-0.3755325 2.40784565,-0.3755325 0.159274421,1.1269425 L0.159274421,12.5843925 Z" id="Fill-1"></path>
                            <polyline id="Fill-5" points="0.0188056082 1 0.0188056082 12.7060932 3.83113521 15.436105 6.9103245 12.7060932 6.9103245 1"></polyline>
                        </g>
                    </g>
                </g>
                <g id="Group-35" transform="translate(3.000000, 3.000000)">
                    <g id="Group-34">
                        <path d="M30.1456817,44.119405 L0.641587632,44.119405 C0.287397393,44.119405 0,43.76808 0,43.335105 L0,2.09093 C0,1.65738 0.287397393,1.30663 0.641587632,1.30663 L30.1456817,1.30663 C30.5003423,1.30663 30.7872693,1.65738 30.7872693,2.09093 L30.7872693,43.335105 C30.7872693,43.76808 30.5003423,44.119405 30.1456817,44.119405 Z" id="Stroke-3" stroke="#58585B" stroke-width="1.5" fill="#FFFFFF"></path>
                        <g id="Group-36" transform="translate(19.698113, 0.000000)" fill="#58585B">
                            <path d="M0.159274421,1.1269425 L0.159274421,12.5843925 L3.89062826,15.2564175 L6.90441405,12.5843925 L6.90441405,1.1269425 C4.65584282,-0.3755325 2.40784565,-0.3755325 0.159274421,1.1269425" id="Fill-1"></path>
                            <polyline id="Fill-5" points="0.0919952407 1.30663 0.0919952407 12.76408 3.82334908 15.436105 6.83713487 12.76408 6.83713487 1.30663"></polyline>
                        </g>
                        <path d="M13.5315948,44.119405 C13.5315948,44.96638 12.8461738,45.652355 12.0005916,45.652355 C11.1550094,45.652355 10.4695884,44.96638 10.4695884,44.119405 C10.4695884,43.271855 11.1550094,42.58588 12.0005916,42.58588 C12.8461738,42.58588 13.5315948,43.271855 13.5315948,44.119405" id="Fill-7" stroke="#FFFFFF" stroke-width="1.43" fill="#58585B"></path>
                        <path d="M30.7874415,24.2459675 C29.9418593,24.2459675 29.2564383,23.5599925 29.2564383,22.7130175 C29.2564383,21.8660425 29.9418593,21.1794925 30.7874415,21.1794925 C31.6330237,21.1794925 32.3184447,21.8660425 32.3184447,22.7130175 C32.3184447,23.5599925 31.6330237,24.2459675 30.7874415,24.2459675 Z" id="Fill-11" stroke="#FFFFFF" stroke-width="1.43" fill="#58585B"></path>
                    </g>
                </g>
            </g>
        </g>
    </g>
</svg>