<?xml version="1.0" encoding="UTF-8"?>
<svg width="16px" height="14px" viewBox="0 0 16 14" version="1.1" xmlns="http://www.w3.org/2000/svg" xmlns:xlink="http://www.w3.org/1999/xlink">
    <!-- Generator: Sketch 50.2 (55047) - http://www.bohemiancoding.com/sketch -->
    <title>twitter_logo</title>
    <desc>Created with Sketch.</desc>
    <defs></defs>
    <g id="Page-1" stroke="none" stroke-width="1" fill="none" fill-rule="evenodd">
        <g id="1.1.-About" transform="translate(-162.000000, -1501.000000)" fill="#006FE8">
            <g id="social_logos-copy-4" transform="translate(140.000000, 1501.000000)">
                <path d="M34.486491,4.9462 L34.486491,5.20604 C34.486491,5.91416 34.3451574,6.61052 34.0627948,7.29512 C33.7801275,7.97972 33.3777532,8.60524 32.8556716,9.17196 C32.3332855,9.7384 31.6570773,10.19872 30.8270468,10.55264 C29.9964072,10.90684 29.0847445,11.08408 28.0920585,11.08408 C26.841987,11.08408 25.6948698,10.77692 24.6507067,10.16344 C24.821891,10.17912 25.001604,10.18696 25.1901504,10.18696 C26.2343134,10.18696 27.1676026,9.89604 27.9891043,9.31364 C27.4926091,9.29796 27.0518553,9.15628 26.666843,8.8886 C26.2815261,8.6212 26.0204854,8.28296 25.8834161,7.87332 C26.0204854,7.90496 26.15725,7.92064 26.2943193,7.92064 C26.4999231,7.92064 26.696389,7.88928 26.8849354,7.82628 C26.3713826,7.73164 25.943422,7.4956 25.6010535,7.11816 C25.2583804,6.74016 25.0875007,6.30756 25.0875007,5.81952 L25.0875007,5.796 C25.4125071,5.95364 25.7551802,6.04016 26.1146063,6.05584 C25.4469267,5.6308 25.113087,5.05652 25.113087,4.33244 C25.113087,3.95472 25.2157366,3.60892 25.4213405,3.29392 C25.9863704,3.92336 26.666843,4.42708 27.4627584,4.80452 C28.2589784,5.18224 29.1191641,5.39476 30.0439246,5.44208 C30.0092004,5.28472 29.9924475,5.12708 29.9924475,4.96972 C29.9924475,4.40328 30.2105398,3.91944 30.6473338,3.51792 C31.0838232,3.11668 31.6101691,2.91592 32.2266761,2.91592 C32.8769935,2.91592 33.4246613,3.12844 33.8702886,3.5532 C34.3838414,3.45884 34.86267,3.29392 35.3082973,3.0576 C35.1368084,3.54564 34.8029687,3.92336 34.306778,4.19076 C34.7688537,4.14372 35.2053431,4.04152 35.6162462,3.88388 C35.3082973,4.29324 34.9315092,4.64744 34.486491,4.9462 M36.5297366,0 L23.7372164,0 C23.0640541,0 22.5185185,0.50148 22.5185185,1.12028 L22.5185185,12.87972 C22.5185185,13.49852 23.0640541,14 23.7372164,14 L36.5297366,14 C37.2028988,14 37.7484344,13.49852 37.7484344,12.87972 L37.7484344,1.12028 C37.7484344,0.50148 37.2028988,0 36.5297366,0" id="twitter_logo"></path>
            </g>
        </g>
    </g>
</svg>