<?xml version="1.0" encoding="UTF-8"?>
<svg width="297px" height="14px" viewBox="0 0 297 14" version="1.1" xmlns="http://www.w3.org/2000/svg" xmlns:xlink="http://www.w3.org/1999/xlink">
    <!-- Generator: Sketch 51.2 (57519) - http://www.bohemiancoding.com/sketch -->
    <title>wordmark</title>
    <desc>Created with Sketch.</desc>
    <defs>
        <polygon id="path-1" points="4.80582526e-05 0.142013072 15.2556597 0.142013072 15.2556597 12.6293542 4.80582526e-05 12.6293542"></polygon>
        <polygon id="path-3" points="0.0197519417 0.142013072 13.9407859 0.142013072 13.9407859 12.6293542 0.0197519417 12.6293542"></polygon>
        <polygon id="path-5" points="0 13.0344087 296.526146 13.0344087 296.526146 0.487968627 0 0.487968627"></polygon>
    </defs>
    <g id="Page-1" stroke="none" stroke-width="1" fill="none" fill-rule="evenodd">
        <g id="1.-Home" transform="translate(-139.000000, -243.000000)">
            <g id="wordmark" transform="translate(139.000000, 243.000000)">
                <g id="Group-3" transform="translate(0.000000, 0.345956)">
                    <mask id="mask-2" fill="white">
                        <use xlink:href="#path-1"></use>
                    </mask>
                    <g id="Clip-2"></g>
                    <path d="M9.80297039,2.32145011 L2.95851408,2.32145011 L2.95851408,5.79662222 L9.80297039,5.79662222 C10.324883,5.79662222 10.6733053,5.73806013 10.8472762,5.56139782 C11.0212471,5.38424749 11.1370675,5.14902309 11.1370675,4.79521046 L11.1370675,3.38191198 C11.1370675,3.02809935 11.0212471,2.73382484 10.8472762,2.61621264 C10.6733053,2.38050022 10.324883,2.32145011 9.80297039,2.32145011 Z M4.80582526e-05,12.6293542 L4.80582526e-05,0.14196427 L11.078917,0.14196427 C12.0650723,0.14196427 12.8191063,0.31862658 13.283349,0.731001307 C13.7475917,1.08481394 13.9792325,1.73241307 13.9792325,2.55667451 L13.9792325,5.50234771 C13.9792325,6.32709717 13.7475917,6.9746963 13.283349,7.32850893 C12.8191063,7.68134553 12.1232228,7.91754597 11.078917,7.91754597 L9.39687816,7.91754597 L15.2556597,12.6293542 L10.9630966,12.6293542 L5.80067913,7.91754597 L2.95851408,7.91754597 L2.95851408,12.6293542 L4.80582526e-05,12.6293542 Z" id="Fill-1" fill="#FFFFFF" mask="url(#mask-2)"></path>
                </g>
                <polygon id="Fill-4" fill="#FFFFFF" points="18.9101053 12.9753586 18.9101053 0.487968627 32.0771053 0.487968627 32.0771053 2.66745447 21.9262413 2.66745447 21.9262413 5.37692723 27.8426927 5.37692723 27.8426927 7.55641307 21.9262413 7.55641307 21.9262413 10.6192105 32.2515568 10.6192105 32.2515568 12.9753586"></polygon>
                <g id="Group-8" transform="translate(36.524272, 0.345956)">
                    <mask id="mask-4" fill="white">
                        <use xlink:href="#path-3"></use>
                    </mask>
                    <g id="Clip-7"></g>
                    <path d="M9.76452379,2.32145011 L2.92006748,2.32145011 L2.92006748,5.61995991 L9.76452379,5.61995991 C10.2864364,5.61995991 10.6348587,5.56139782 10.8088296,5.38424749 C10.9823199,5.20758519 11.0986209,4.97236078 11.0986209,4.61854815 L11.0986209,3.32286187 C11.0986209,2.96953725 10.9823199,2.67526275 10.8088296,2.55667451 C10.6348587,2.38050022 10.2864364,2.32145011 9.76452379,2.32145011 Z M0.0197519417,12.6293542 L0.0197519417,0.14196427 L11.0404704,0.14196427 C12.0847762,0.14196427 12.7806597,0.31862658 13.2449024,0.731001307 C13.7086646,1.08481394 13.9407859,1.73241307 13.9407859,2.55667451 L13.9407859,5.32519739 C13.9407859,6.20899695 13.7086646,6.79803399 13.2449024,7.15135861 C12.7806597,7.50468322 12.0847762,7.74039564 11.0404704,7.74039564 L2.92006748,7.74039564 L2.92006748,12.6293542 L0.0197519417,12.6293542 Z" id="Fill-6" fill="#FFFFFF" mask="url(#mask-4)"></path>
                </g>
                <path d="M58.2380956,0.488017429 L58.2380956,10.6192593 L66.7645908,10.6192593 L66.7645908,0.488017429 L69.7812073,0.488017429 L69.7812073,9.97166013 C69.7812073,11.0906841 69.5490859,11.8563834 69.0848432,12.2687582 C68.6206005,12.6806449 67.8088966,12.9168453 66.53295,12.9168453 L58.4115859,12.9168453 C57.1937898,12.9168453 56.3239354,12.739695 55.8596927,12.2687582 C55.39545,11.8563834 55.2219597,11.0906841 55.2219597,9.91261002 L55.2219597,0.488017429 L58.2380956,0.488017429 Z" id="Fill-9" fill="#FFFFFF"></path>
                <path d="M84.9207583,7.55616906 L78.1921223,7.55616906 L78.1921223,10.7375547 L84.9207583,10.7375547 C85.5008214,10.7375547 85.8487631,10.6780166 86.0808845,10.5013542 C86.3125252,10.3246919 86.3711563,10.0304174 86.3711563,9.6180427 L86.3711563,8.67568105 C86.3711563,8.26330632 86.2543748,7.96903181 86.0808845,7.79188148 C85.9069136,7.61521917 85.5008214,7.55616906 84.9207583,7.55616906 Z M84.9207583,2.54959826 L78.1921223,2.54959826 L78.1921223,5.49478344 L84.9207583,5.49478344 C85.4426709,5.49478344 85.7910932,5.43573333 85.9645835,5.31812113 C86.1385544,5.20050893 86.2543748,4.9643085 86.2543748,4.6114719 L86.2543748,3.43339782 C86.2543748,3.07958519 86.1385544,2.90292288 85.9645835,2.72674858 C85.7910932,2.54959826 85.4426709,2.54959826 84.9207583,2.54959826 Z M75.2918068,12.9751146 L75.2918068,0.488212636 L86.3125252,0.488212636 C87.3568311,0.488212636 88.110865,0.664874946 88.5169573,1.07724967 C88.9807194,1.43057429 89.2133214,2.07817342 89.2133214,2.90292288 L89.2133214,4.37527146 C89.2133214,4.9643085 89.0388699,5.43573333 88.6909282,5.78954597 C88.3429864,6.14287059 87.8210738,6.37858301 87.1247097,6.49619521 C87.8210738,6.61380741 88.3429864,6.84951983 88.7490786,7.32094466 C89.1551709,7.73283137 89.3291417,8.26330632 89.3291417,8.91090545 L89.3291417,10.5013542 C89.3291417,11.3265917 89.0388699,11.9156288 88.4006563,12.3275155 C87.7629233,12.7398902 86.8344379,12.9165525 85.5584913,12.9165525 L75.2918068,12.9165525 L75.2918068,12.9751146 Z" id="Fill-11" fill="#FFFFFF"></path>
                <polygon id="Fill-13" fill="#FFFFFF" points="94.3756427 12.9753586 94.3756427 0.487968627 97.3917786 0.487968627 97.3917786 10.6192105 107.02073 10.6192105 107.02073 12.9753586"></polygon>
                <mask id="mask-6" fill="white">
                    <use xlink:href="#path-5"></use>
                </mask>
                <g id="Clip-16"></g>
                <polygon id="Fill-15" fill="#FFFFFF" mask="url(#mask-6)" points="110.385 12.9753586 113.343466 12.9753586 113.343466 0.487968627 110.385 0.487968627"></polygon>
                <path d="M129.585377,2.78511547 L121.522644,2.78511547 L121.522644,10.5606972 L129.585377,10.5606972 L129.585377,7.90978649 L132.601513,8.55787364 L132.601513,10.0307102 C132.601513,11.1497342 132.369392,11.9154336 131.9633,12.3278083 C131.499057,12.739695 130.687353,12.9754074 129.411406,12.9754074 L121.754285,12.9754074 C120.536489,12.9754074 119.666154,12.7992331 119.260542,12.3278083 C118.7963,11.9154336 118.622329,11.1497342 118.622329,9.97166013 L118.622329,3.43320261 C118.622329,2.31369063 118.853969,1.5484793 119.260542,1.13610458 C119.723824,0.72324183 120.536489,0.488017429 121.812435,0.488017429 L129.353256,0.488017429 C130.629202,0.488017429 131.499057,0.664679739 131.905149,1.13610458 C132.369392,1.5484793 132.543363,2.31369063 132.543363,3.43320261 L132.543363,4.66983878 L129.527227,5.14126362 L129.527227,2.78511547 L129.585377,2.78511547 Z" id="Fill-17" fill="#FFFFFF" mask="url(#mask-6)"></path>
                <path d="M158.530142,2.66740566 L151.685685,2.66740566 L151.685685,5.96591547 L158.530142,5.96591547 C159.052054,5.96591547 159.400477,5.90735338 159.574448,5.73020305 C159.747938,5.55354074 159.864239,5.31831634 159.864239,4.9645037 L159.864239,3.66881743 C159.864239,3.31549281 159.747938,3.0212183 159.574448,2.90263007 C159.400477,2.72645577 159.052054,2.66740566 158.530142,2.66740566 Z M148.727219,12.9753098 L148.727219,0.487919826 L159.806088,0.487919826 C160.850394,0.487919826 161.546278,0.664582135 162.01052,1.07695686 C162.474283,1.4307695 162.706404,2.07836863 162.706404,2.90263007 L162.706404,5.67115294 C162.706404,6.55495251 162.474283,7.14398954 162.01052,7.49731416 C161.546278,7.85063878 160.850394,8.0863512 159.806088,8.0863512 L151.685685,8.0863512 L151.685685,12.9753098 L148.727219,12.9753098 Z" id="Fill-18" fill="#FFFFFF" mask="url(#mask-6)"></path>
                <path d="M176.743931,2.66740566 L169.899475,2.66740566 L169.899475,6.14257778 L176.743931,6.14257778 C177.265844,6.14257778 177.614266,6.08401569 177.788237,5.90735338 C177.962208,5.73020305 178.078028,5.49497865 178.078028,5.14116601 L178.078028,3.72786754 C178.078028,3.3740549 177.962208,3.07978039 177.788237,2.96216819 C177.614266,2.72645577 177.265844,2.66740566 176.743931,2.66740566 Z M166.941009,12.9753098 L166.941009,0.487919826 L178.019878,0.487919826 C179.006033,0.487919826 179.760067,0.664582135 180.22431,1.07695686 C180.688552,1.4307695 180.920193,2.07836863 180.920193,2.90263007 L180.920193,5.84830327 C180.920193,6.67305272 180.688552,7.32065185 180.22431,7.67446449 C179.760067,8.02730109 179.064183,8.26350153 178.019878,8.26350153 L176.337839,8.26350153 L182.19662,12.9753098 L177.904057,12.9753098 L172.74164,8.26350153 L169.899475,8.26350153 L169.899475,12.9753098 L166.941009,12.9753098 Z" id="Fill-19" fill="#FFFFFF" mask="url(#mask-6)"></path>
                <path d="M188.519068,10.5606484 L198.438291,10.5606484 L198.438291,2.78506667 L188.519068,2.78506667 L188.519068,10.5606484 Z M185.561083,3.43315381 C185.561083,2.31364183 185.792723,1.5484305 186.198816,1.13605577 C186.604908,0.723681046 187.474762,0.487968627 188.751189,0.487968627 L198.26384,0.487968627 C199.540267,0.487968627 200.352451,0.664630937 200.816214,1.13605577 C201.222786,1.5484305 201.454427,2.31364183 201.454427,3.43315381 L201.454427,10.0306614 C201.454427,11.1496854 201.222306,11.9739468 200.816214,12.3863216 C200.352451,12.7991843 199.540267,13.0344087 198.26384,13.0344087 L188.751189,13.0344087 C187.474762,13.0344087 186.663058,12.8577464 186.198816,12.3863216 C185.792723,11.9739468 185.561083,11.2082475 185.561083,10.0306614 L185.561083,3.43315381 Z" id="Fill-20" fill="#FFFFFF" mask="url(#mask-6)"></path>
                <polygon id="Fill-21" fill="#FFFFFF" mask="url(#mask-6)" points="213.867537 2.72650458 213.867537 12.9753586 210.851401 12.9753586 210.851401 2.72650458 204.93495 2.72650458 204.93495 0.487968627 219.84262 0.487968627 219.84262 2.72650458"></polygon>
                <path d="M226.397141,10.5606484 L236.316364,10.5606484 L236.316364,2.78506667 L226.397141,2.78506667 L226.397141,10.5606484 Z M223.380524,3.43315381 C223.380524,2.31364183 223.613126,1.5484305 224.018738,1.13605577 C224.42483,0.723681046 225.295165,0.487968627 226.571112,0.487968627 L236.084243,0.487968627 C237.360189,0.487968627 238.172374,0.664630937 238.636136,1.13605577 C239.042228,1.5484305 239.273869,2.31364183 239.273869,3.43315381 L239.273869,10.0306614 C239.273869,11.1496854 239.042228,11.9739468 238.636136,12.3863216 C238.172374,12.7991843 237.360189,13.0344087 236.084243,13.0344087 L226.571112,13.0344087 C225.295165,13.0344087 224.4825,12.8577464 224.018738,12.3863216 C223.612646,11.9739468 223.380524,11.2082475 223.380524,10.0306614 L223.380524,3.43315381 Z" id="Fill-22" fill="#FFFFFF" mask="url(#mask-6)"></path>
                <path d="M255.168031,2.78511547 L247.105298,2.78511547 L247.105298,10.5606972 L255.168031,10.5606972 L255.168031,7.90978649 L258.184167,8.55787364 L258.184167,10.0307102 C258.184167,11.1497342 257.952045,11.9154336 257.545953,12.3278083 C257.08171,12.739695 256.270006,12.9754074 254.99406,12.9754074 L247.336938,12.9754074 C246.119142,12.9754074 245.248807,12.7992331 244.843196,12.3278083 C244.378953,11.9154336 244.204982,11.1497342 244.204982,9.97166013 L244.204982,3.43320261 C244.204982,2.31369063 244.437103,1.5484793 244.843196,1.13610458 C245.306477,0.72324183 246.119142,0.488017429 247.395089,0.488017429 L255.05221,0.488017429 C256.328157,0.488017429 257.198492,0.664679739 257.604103,1.13610458 C258.068346,1.5484793 258.241836,2.31369063 258.241836,3.43320261 L258.241836,4.66983878 L255.2257,5.14126362 L255.2257,2.78511547 L255.168031,2.78511547 Z" id="Fill-23" fill="#FFFFFF" mask="url(#mask-6)"></path>
                <path d="M265.840951,10.5606484 L275.760175,10.5606484 L275.760175,2.78506667 L265.840951,2.78506667 L265.840951,10.5606484 Z M262.824335,3.43315381 C262.824335,2.31364183 263.056937,1.5484305 263.463029,1.13605577 C263.868641,0.723681046 264.738976,0.487968627 266.014922,0.487968627 L275.528053,0.487968627 C276.804,0.487968627 277.616184,0.664630937 278.080427,1.13605577 C278.486039,1.5484305 278.718641,2.31364183 278.718641,3.43315381 L278.718641,10.0306614 C278.718641,11.1496854 278.486039,11.9739468 278.080427,12.3863216 C277.616184,12.7991843 276.804,13.0344087 275.528053,13.0344087 L266.014922,13.0344087 C264.738976,13.0344087 263.926791,12.8577464 263.463029,12.3863216 C263.056937,11.9739468 262.824335,11.2082475 262.824335,10.0306614 L262.824335,3.43315381 Z" id="Fill-24" fill="#FFFFFF" mask="url(#mask-6)"></path>
                <polygon id="Fill-25" fill="#FFFFFF" mask="url(#mask-6)" points="283.880962 12.9753586 283.880962 0.487968627 286.897098 0.487968627 286.897098 10.6192105 296.52605 10.6192105 296.52605 12.9753586"></polygon>
            </g>
        </g>
    </g>
</svg>