<?xml version="1.0" encoding="UTF-8"?>
<svg width="12px" height="17px" viewBox="0 0 12 17" version="1.1" xmlns="http://www.w3.org/2000/svg" xmlns:xlink="http://www.w3.org/1999/xlink">
    <!-- Generator: Sketch 53.2 (72643) - https://sketchapp.com -->
    <title>icon-litepaper</title>
    <desc>Created with Sketch.</desc>
    <defs>
        <path d="M2,2 L4.23522828,0.201796381 L10.5,0.5 L11.5,1.14500571 C11.496341,6.18761487 11.496341,9.51679201 11.5,11.1325371 C11.5072799,14.3471476 11.8061236,15.967038 11.03328,16 C9,16.08672 5.46217765,16.8889922 3,16.5 C1.35854823,16.2406719 0.525214901,15.7406719 0.5,15 L0.000137142857,5 L2,2 Z" id="path-1"></path>
    </defs>
    <g id="RenProject" stroke="none" stroke-width="1" fill="none" fill-rule="evenodd">
        <g id="home-copy" transform="translate(-310.000000, -608.000000)">
            <g id="Group-24" transform="translate(140.000000, 599.000000)">
                <g id="icon-litepaper" transform="translate(170.000000, 9.000000)">
                    <mask id="mask-2" fill="white">
                        <use xlink:href="#path-1"></use>
                    </mask>
                    <use id="Clip-7" fill="#006FE8" xlink:href="#path-1"></use>
                    <path d="M11.03328,15.0581486 C11.03328,15.3290057 10.9266514,15.58992 10.7315657,15.7850057 C10.5395657,15.9773486 10.2789943,16.08672 10.0047086,16.08672 L9.52230857,16.08672 L2.25922286,16.08672 L1.71442286,16.08672 C1.44013714,16.08672 1.17956571,15.9773486 0.987565714,15.7850057 C0.792137143,15.58992 0.685851429,15.3290057 0.685851429,15.0581486 L0.685851429,4.67986286 L2.53728,4.67986286 C2.99328,4.67986286 3.42870857,4.49814857 3.75099429,4.17586286 C4.07328,3.85734857 4.25156571,3.41814857 4.25156571,2.96557714 L4.25156571,0.68592 L10.0047086,0.68592 C10.2789943,0.68592 10.5395657,0.795291429 10.7349943,0.987291429 C10.9266514,1.17963429 11.03328,1.44363429 11.03328,1.71449143 L11.03328,15.0581486 Z M3.56585143,1.14500571 L3.56585143,2.96557714 C3.56585143,3.23677714 3.45956571,3.50077714 3.26413714,3.69277714 C3.07213714,3.88477714 2.81156571,3.99414857 2.53728,3.99414857 L0.809965714,3.99414857 L3.56585143,1.14500571 Z M11.2184229,0.503862857 C10.8961371,0.181577143 10.4607086,0.000205714286 10.0047086,0.000205714286 L4.05956571,0.000205714286 L3.71670857,0.000205714286 L3.71670857,0.00329142857 L3.47636571,0.250491429 L0.240137143,3.60020571 L0.000137142857,3.84363429 L0.000137142857,3.99414857 L0.000137142857,4.18649143 L0.000137142857,4.67986286 L0.000137142857,15.0581486 C0.000137142857,15.51072 0.178422857,15.9464914 0.500708571,16.2684343 C0.822994286,16.5910629 1.25842286,16.7724343 1.71442286,16.7724343 L9.52230857,16.7724343 L10.0047086,16.7724343 C10.4607086,16.7724343 10.8961371,16.5910629 11.2184229,16.2684343 C11.5403657,15.9464914 11.7189943,15.51072 11.7189943,15.0581486 L11.7189943,1.71449143 C11.7189943,1.26157714 11.5403657,0.826148571 11.2184229,0.503862857 L11.2184229,0.503862857 Z" id="Fill-6" fill="#FFFFFF" mask="url(#mask-2)"></path>
                    <polygon id="Fill-1" fill="#FFFFFF" mask="url(#mask-2)" points="8.94497143 2.89707429 9.28782857 2.89707429 9.28782857 3.58278857 8.94497143 3.58278857 5.40017143 3.58278857 5.05731429 3.58278857 5.05731429 2.89707429 5.40017143 2.89707429"></polygon>
                    <polygon id="Fill-2" fill="#FFFFFF" mask="url(#mask-2)" points="8.94497143 5.64682286 9.28782857 5.64682286 9.28782857 6.33253714 8.94497143 6.33253714 2.53731429 6.33253714 2.19445714 6.33253714 2.19445714 5.64682286 2.53731429 5.64682286"></polygon>
                    <polygon id="Fill-3" fill="#FFFFFF" mask="url(#mask-2)" points="8.94497143 8.38968 9.28782857 8.38968 9.28782857 9.07539429 8.94497143 9.07539429 2.53731429 9.07539429 2.19445714 9.07539429 2.19445714 8.38968 2.53731429 8.38968"></polygon>
                    <polygon id="Fill-4" fill="#FFFFFF" mask="url(#mask-2)" points="8.94497143 11.1325371 9.28782857 11.1325371 9.28782857 11.8182514 8.94497143 11.8182514 2.53731429 11.8182514 2.19445714 11.8182514 2.19445714 11.1325371 2.53731429 11.1325371"></polygon>
                    <polygon id="Fill-5" fill="#FFFFFF" mask="url(#mask-2)" points="8.26296 13.8755314 8.60581714 13.8755314 8.60581714 14.5612457 8.26296 14.5612457 2.53724571 14.5612457 2.19438857 14.5612457 2.19438857 13.8755314 2.53724571 13.8755314"></polygon>
                </g>
            </g>
        </g>
    </g>
</svg>