<?xml version="1.0" encoding="UTF-8"?>
<svg width="54px" height="54px" viewBox="0 0 54 54" version="1.1" xmlns="http://www.w3.org/2000/svg" xmlns:xlink="http://www.w3.org/1999/xlink">
    <!-- Generator: Sketch 53.2 (72643) - https://sketchapp.com -->
    <title>Group 24</title>
    <desc>Created with Sketch.</desc>
    <defs>
        <polygon id="path-1" points="0 0.0002 53.9996 0.0002 53.9996 54 0 54"></polygon>
    </defs>
    <g id="RenProject" stroke="none" stroke-width="1" fill="none" fill-rule="evenodd">
        <g id="RenVM" transform="translate(-868.000000, -1196.000000)">
            <g id="Group-24" transform="translate(868.000000, 1196.000000)">
                <g id="Group-3">
                    <mask id="mask-2" fill="white">
                        <use xlink:href="#path-1"></use>
                    </mask>
                    <g id="Clip-2"></g>
                    <path d="M35.9996,54.0002 L17.9996,54.0002 C8.0596,54.0002 -0.0004,45.9402 -0.0004,36.0002 L-0.0004,18.0002 C-0.0004,8.0592 8.0596,0.0002 17.9996,0.0002 L35.9996,0.0002 C45.9406,0.0002 53.9996,8.0592 53.9996,18.0002 L53.9996,36.0002 C53.9996,45.9402 45.9406,54.0002 35.9996,54.0002" id="Fill-1" fill="#006FE8" mask="url(#mask-2)"></path>
                </g>
                <path d="M44.2076,27.0002 C44.2076,36.5032 36.5036,44.2082 26.9996,44.2082 C17.4966,44.2082 9.7926,36.5032 9.7926,27.0002 C9.7926,17.4962 17.4966,9.7922 26.9996,9.7922 C36.5036,9.7922 44.2076,17.4962 44.2076,27.0002 Z" id="Stroke-4" stroke="#4495EB" stroke-width="2"></path>
                <path d="M46.4254,27.0002 C46.4254,28.2252 45.4324,29.2172 44.2074,29.2172 C42.9834,29.2172 41.9904,28.2252 41.9904,27.0002 C41.9904,25.7752 42.9834,24.7822 44.2074,24.7822 C45.4324,24.7822 46.4254,25.7752 46.4254,27.0002" id="Fill-6" fill="#FFFFFF"></path>
                <path d="M12.0093,27.0002 C12.0093,28.2252 11.0173,29.2172 9.7923,29.2172 C8.5683,29.2172 7.5743,28.2252 7.5743,27.0002 C7.5743,25.7752 8.5683,24.7822 9.7923,24.7822 C11.0173,24.7822 12.0093,25.7752 12.0093,27.0002" id="Fill-8" fill="#FFFFFF"></path>
                <path d="M26.9996,46.425 C25.7746,46.425 24.7826,45.433 24.7826,44.208 C24.7826,42.983 25.7746,41.99 26.9996,41.99 C28.2256,41.99 29.2176,42.983 29.2176,44.208 C29.2176,45.433 28.2256,46.425 26.9996,46.425" id="Fill-10" fill="#FFFFFF"></path>
                <path d="M26.9996,12.01 C25.7746,12.01 24.7826,11.017 24.7826,9.792 C24.7826,8.568 25.7746,7.574 26.9996,7.574 C28.2256,7.574 29.2176,8.568 29.2176,9.792 C29.2176,11.017 28.2256,12.01 26.9996,12.01" id="Fill-12" fill="#FFFFFF"></path>
                <path d="M40.7359,40.7356 C39.8699,41.6016 38.4649,41.6016 37.5999,40.7356 C36.7339,39.8696 36.7339,38.4656 37.5999,37.5996 C38.4649,36.7336 39.8699,36.7336 40.7359,37.5996 C41.6019,38.4656 41.6019,39.8696 40.7359,40.7356" id="Fill-14" fill="#FFFFFF"></path>
                <path d="M16.4,16.4006 C15.535,17.2656 14.13,17.2656 13.264,16.4006 C12.398,15.5346 12.398,14.1296 13.264,13.2636 C14.13,12.3986 15.535,12.3986 16.4,13.2636 C17.266,14.1296 17.266,15.5346 16.4,16.4006" id="Fill-16" fill="#FFFFFF"></path>
                <path d="M13.2642,40.7356 C12.3982,39.8696 12.3982,38.4656 13.2642,37.5996 C14.1302,36.7336 15.5352,36.7336 16.4002,37.5996 C17.2662,38.4656 17.2662,39.8696 16.4002,40.7356 C15.5352,41.6016 14.1302,41.6016 13.2642,40.7356" id="Fill-18" fill="#FFFFFF"></path>
                <path d="M37.6002,16.4006 C36.7342,15.5346 36.7342,14.1296 37.6002,13.2636 C38.4652,12.3986 39.8702,12.3986 40.7362,13.2636 C41.6022,14.1296 41.6022,15.5346 40.7362,16.4006 C39.8702,17.2656 38.4652,17.2656 37.6002,16.4006" id="Fill-20" fill="#FFFFFF"></path>
                <polygon id="Fill-22" fill="#0053AE" points="24.9615 15.178 32.5795 15.178 28.7705 23.604 32.5795 23.604 21.6955 38.822 25.2425 27 21.6955 27"></polygon>
            </g>
        </g>
    </g>
</svg>