<?xml version="1.0" encoding="UTF-8"?>
<svg width="37px" height="43px" viewBox="0 0 37 43" version="1.1" xmlns="http://www.w3.org/2000/svg" xmlns:xlink="http://www.w3.org/1999/xlink">
    <!-- Generator: Sketch 51.2 (57519) - http://www.bohemiancoding.com/sketch -->
    <title>icon-blockorder</title>
    <desc>Created with Sketch.</desc>
    <defs>
        <polygon id="path-1" points="0.38199697 0.476015584 7.66068182 0.476015584 7.66068182 30.9618987 0.38199697 30.9618987"></polygon>
        <polygon id="path-3" points="0.0933969697 0.16474026 23.2638061 0.16474026 23.2638061 13.0981351 0.0933969697 13.0981351"></polygon>
    </defs>
    <g id="renproject.io" stroke="none" stroke-width="1" fill="none" fill-rule="evenodd">
        <g id="home" transform="translate(-1142.000000, -2984.000000)">
            <g id="section:renex" transform="translate(0.000000, 1930.000000)">
                <g id="renex-featurettes" transform="translate(140.000000, 1052.000000)">
                    <g id="Group-19" transform="translate(1002.000000, 0.000000)">
                        <g id="icon-blockorder" transform="translate(0.000000, 2.000000)">
                            <path d="M3.17532879,36.939513 L1.64487424,36.939513 C0.73725303,36.939513 5.60606061e-05,36.2018117 5.60606061e-05,35.2949026 L5.60606061e-05,8.0987987 C5.60606061e-05,7.19133117 0.73725303,6.45362987 1.64487424,6.45362987 L7.54749545,6.45362987 L7.54749545,7.59675974 L1.64487424,7.59675974 C1.37073788,7.59675974 1.14761667,7.82181169 1.14761667,8.0987987 L1.14761667,35.2949026 C1.14761667,35.5713312 1.37073788,35.7963831 1.64487424,35.7963831 L3.17532879,35.7963831 L3.17532879,36.939513 Z" id="Fill-1" fill="#FFFFFF"></path>
                            <polygon id="Fill-3" fill="#FFFFFF" points="2.61578788 38.4572455 6.12630303 36.3334922 2.53562121 34.3487909"></polygon>
                            <g id="Group-7" transform="translate(29.151515, 5.978173)">
                                <mask id="mask-2" fill="white">
                                    <use xlink:href="#path-1"></use>
                                </mask>
                                <g id="Clip-6"></g>
                                <path d="M6.01608788,30.9618987 L0.38199697,30.9618987 L0.38199697,29.8187688 L6.01608788,29.8187688 C6.28966364,29.8187688 6.51334545,29.5937169 6.51334545,29.3167299 L6.51334545,2.12062597 C6.51334545,1.8441974 6.28966364,1.61914545 6.01608788,1.61914545 L4.48507273,1.61914545 L4.48507273,0.476015584 L6.01608788,0.476015584 C6.92314848,0.476015584 7.66090606,1.21371688 7.66090606,2.12062597 L7.66090606,29.3167299 C7.66090606,30.2241974 6.92314848,30.9618987 6.01608788,30.9618987" id="Fill-5" fill="#FFFFFF" mask="url(#mask-2)"></path>
                            </g>
                            <polygon id="Fill-8" fill="#FFFFFF" points="34.2363803 4.97035325 30.6855015 7.02541818 34.2363803 9.07992468"></polygon>
                            <path d="M28.3462045,30.4727039 L8.46543182,30.4727039 C7.87455303,30.4727039 7.39467424,30.9535221 7.39467424,31.546587 L7.39467424,41.1903143 C7.39467424,41.7833792 7.87455303,42.263639 8.46543182,42.263639 L28.3462045,42.263639 C28.9376439,42.263639 29.4175227,41.7833792 29.4175227,41.1903143 L29.4175227,31.546587 C29.4175227,30.9535221 28.9376439,30.4727039 28.3462045,30.4727039" id="Fill-10" fill="#FFFFFF"></path>
                            <path d="M28.3462045,30.4727039 L8.46543182,30.4727039 C7.87455303,30.4727039 7.39467424,30.9535221 7.39467424,31.546587 L7.39467424,41.1903143 C7.39467424,41.7833792 7.87455303,42.263639 8.46543182,42.263639 L28.3462045,42.263639 C28.9376439,42.263639 29.4175227,41.7833792 29.4175227,41.1903143 L29.4175227,31.546587 C29.4175227,30.9535221 28.9376439,30.4727039 28.3462045,30.4727039" id="Fill-12" fill="#FFFFFF"></path>
                            <path d="M8.46548788,31.044213 C8.19191212,31.044213 7.9682303,31.2692649 7.9682303,31.5462519 L7.9682303,41.1905377 C7.9682303,41.4669662 8.19191212,41.6920182 8.46548788,41.6920182 L28.3462606,41.6920182 C28.620397,41.6920182 28.8440788,41.4669662 28.8440788,41.1905377 L28.8440788,31.5462519 C28.8440788,31.2692649 28.620397,31.044213 28.3462606,31.044213 L8.46548788,31.044213 Z M28.3462606,42.8351481 L8.46548788,42.8351481 C7.55842727,42.8351481 6.8206697,42.0974468 6.8206697,41.1905377 L6.8206697,31.5462519 C6.8206697,30.6387844 7.55842727,29.9010831 8.46548788,29.9010831 L28.3462606,29.9010831 C29.2533212,29.9010831 29.9910788,30.6387844 29.9910788,31.5462519 L29.9910788,41.1905377 C29.9910788,42.0974468 29.2533212,42.8351481 28.3462606,42.8351481 Z" id="Fill-14" fill="#FFFFFF"></path>
                            <path d="M28.3462045,28.2362013 L8.46543182,28.2362013 C7.51912879,28.2362013 6.74885606,27.4661104 6.74885606,26.5195519 L6.74885606,16.8747078 C6.74885606,15.9281494 7.51912879,15.1580584 8.46543182,15.1580584 L28.3462045,15.1580584 C29.2930682,15.1580584 30.0633409,15.9281494 30.0633409,16.8747078 L30.0633409,26.5195519 C30.0633409,27.4661104 29.2930682,28.2362013 28.3462045,28.2362013" id="Fill-16" fill="#FFFFFF"></path>
                            <path d="M8.46548788,16.4451545 C8.23115455,16.4451545 8.04054848,16.6378169 8.04054848,16.8751545 L8.04054848,26.5194403 C8.04054848,26.7567779 8.23115455,26.9494403 8.46548788,26.9494403 L28.3462606,26.9494403 C28.5811545,26.9494403 28.7717606,26.7567779 28.7717606,26.5194403 L28.7717606,16.8751545 C28.7717606,16.6378169 28.5811545,16.4451545 28.3462606,16.4451545 L8.46548788,16.4451545 Z" id="Fill-18" fill="#FFFFFF"></path>
                            <path d="M28.3462045,1.13000649 L8.46543182,1.13000649 C7.87455303,1.13000649 7.39467424,1.60970779 7.39467424,2.20333117 L7.39467424,11.8470584 C7.39467424,12.4406818 7.87455303,12.9203831 8.46543182,12.9203831 L28.3462045,12.9203831 C28.9376439,12.9203831 29.4175227,12.4406818 29.4175227,11.8470584 L29.4175227,2.20333117 C29.4175227,1.60970779 28.9376439,1.13000649 28.3462045,1.13000649" id="Fill-20" fill="#FFFFFF"></path>
                            <path d="M28.3462045,1.13000649 L8.46543182,1.13000649 C7.87455303,1.13000649 7.39467424,1.60970779 7.39467424,2.20333117 L7.39467424,11.8470584 C7.39467424,12.4406818 7.87455303,12.9203831 8.46543182,12.9203831 L28.3462045,12.9203831 C28.9376439,12.9203831 29.4175227,12.4406818 29.4175227,11.8470584 L29.4175227,2.20333117 C29.4175227,1.60970779 28.9376439,1.13000649 28.3462045,1.13000649" id="Fill-22" fill="#FFFFFF"></path>
                            <g id="Group-26" transform="translate(6.727273, 0.393757)">
                                <mask id="mask-4" fill="white">
                                    <use xlink:href="#path-3"></use>
                                </mask>
                                <g id="Clip-25"></g>
                                <path d="M1.73821515,1.30775844 C1.46463939,1.30775844 1.24095758,1.53281039 1.24095758,1.80923896 L1.24095758,11.4535247 C1.24095758,11.7299532 1.46463939,11.9550052 1.73821515,11.9550052 L21.6189879,11.9550052 C21.8931242,11.9550052 22.1168061,11.7299532 22.1168061,11.4535247 L22.1168061,1.80923896 C22.1168061,1.53281039 21.8931242,1.30775844 21.6189879,1.30775844 L1.73821515,1.30775844 Z M21.6189879,13.0981351 L1.73821515,13.0981351 C0.831154545,13.0981351 0.0933969697,12.3604338 0.0933969697,11.4535247 L0.0933969697,1.80923896 C0.0933969697,0.90232987 0.831154545,0.164628571 1.73821515,0.164628571 L21.6189879,0.164628571 C22.5260485,0.164628571 23.2638061,0.90232987 23.2638061,1.80923896 L23.2638061,11.4535247 C23.2638061,12.3604338 22.5260485,13.0981351 21.6189879,13.0981351 Z" id="Fill-24" fill="#FFFFFF" mask="url(#mask-4)"></path>
                            </g>
                        </g>
                    </g>
                </g>
            </g>
        </g>
    </g>
</svg>