<?xml version="1.0" encoding="UTF-8"?>
<svg width="25px" height="22px" viewBox="0 0 25 22" version="1.1" xmlns="http://www.w3.org/2000/svg" xmlns:xlink="http://www.w3.org/1999/xlink">
    <!-- Generator: Sketch 53.2 (72643) - https://sketchapp.com -->
    <title>Fill 4</title>
    <desc>Created with Sketch.</desc>
    <g id="RenProject" stroke="none" stroke-width="1" fill="none" fill-rule="evenodd">
        <g id="Progress-Overview" transform="translate(-394.000000, -3103.000000)" fill="#FFFFFF">
            <path d="M416.192934,3119.46312 C417.925099,3117.72613 419,3115.30189 419,3112.63751 C419,3107.30989 414.698115,3103 409.381807,3103 L404.961249,3103 L403.647862,3103 C400.989137,3103 398.599708,3104.07719 396.837875,3105.81304 C396.419097,3106.2327 396.031129,3106.68096 395.702497,3107.16009 C394.627596,3108.71755 394,3110.6032 394,3112.60892 C394,3115.87021 395.613492,3118.77358 398.091926,3120.51058 C397.554475,3121.88736 396.747729,3123.14523 395.791501,3124.22127 C395.523347,3124.52201 395.732165,3125 396.120133,3125 C399.10749,3125 401.85636,3123.98228 404.03583,3122.24643 L409.352138,3122.24643 C412.071341,3122.27616 414.459628,3121.19897 416.192934,3119.46312" id="Fill-4"></path>
        </g>
    </g>
</svg>