<?xml version="1.0" encoding="UTF-8"?>
<svg width="38px" height="45px" viewBox="0 0 38 45" version="1.1" xmlns="http://www.w3.org/2000/svg" xmlns:xlink="http://www.w3.org/1999/xlink">
    <!-- Generator: Sketch 51.2 (57519) - http://www.bohemiancoding.com/sketch -->
    <title>icon-swaps</title>
    <desc>Created with Sketch.</desc>
    <defs>
        <polygon id="path-1" points="0 0.436725 20.9950551 0.436725 20.9950551 36.6246 0 36.6246"></polygon>
        <polygon id="path-3" points="0.459855072 0.20143125 16.4633623 0.20143125 16.4633623 44.4375 0.459855072 44.4375"></polygon>
    </defs>
    <g id="renproject.io" stroke="none" stroke-width="1" fill="none" fill-rule="evenodd">
        <g id="home" transform="translate(-650.000000, -2984.000000)">
            <g id="section:renex" transform="translate(0.000000, 1930.000000)">
                <g id="renex-featurettes" transform="translate(140.000000, 1052.000000)">
                    <g id="Group-16" transform="translate(510.000000, 0.000000)">
                        <g id="icon-swaps" transform="translate(0.000000, 2.000000)">
                            <g id="Group-3" transform="translate(0.000000, 5.423400)">
                                <mask id="mask-2" fill="white">
                                    <use xlink:href="#path-1"></use>
                                </mask>
                                <g id="Clip-2"></g>
                                <path d="M18.8879826,36.6246 C14.6044464,36.6246 10.4778667,35.147475 7.08705507,32.3659125 C3.14331594,29.1304125 0.666707246,24.5167875 0.11377971,19.374975 C-0.710104348,11.7019125 2.98856232,4.2690375 9.53667826,0.436725 L10.0763884,1.3991625 C3.90276522,5.0115375 0.416127536,12.0202875 1.19264928,19.2540375 C1.71418551,24.1011 4.04925797,28.4509125 7.7672,31.50135 C11.485142,34.5517875 16.1475768,35.9366625 20.8755478,35.403975 L20.9950551,36.5059125 C20.2901275,36.5857875 19.5874029,36.6246 18.8879826,36.6246" id="Fill-1" fill="#FFFFFF" mask="url(#mask-2)"></path>
                            </g>
                            <polygon id="Fill-4" fill="#FFFFFF" points="10.2221652 8.8462125 12.8551797 4.920525 8.21642609 4.5487125"></polygon>
                            <path d="M28.3142957,39.5002687 L27.7745855,38.5378312 C33.9482087,34.9254562 37.4353971,27.9172687 36.6577739,20.6835187 C36.1367884,15.8364562 33.8022667,11.4866437 30.0843246,8.43620625 C26.3663826,5.38633125 21.7072522,4.00033125 16.9748754,4.53301875 L16.8553681,3.43108125 C21.8790783,2.86239375 26.8201797,4.33558125 30.7639188,7.57164375 C34.707658,10.8077062 37.1842667,15.4207687 37.7366435,20.5625812 C38.5610783,28.2350812 34.8629623,35.6685187 28.3142957,39.5002687" id="Fill-6" fill="#FFFFFF"></path>
                            <polygon id="Fill-8" fill="#FFFFFF" points="27.6291391 36.5141812 24.9955739 40.4398687 29.6348783 40.8122437"></polygon>
                            <g id="Group-12" transform="translate(10.463768, 0.360900)">
                                <mask id="mask-4" fill="white">
                                    <use xlink:href="#path-3"></use>
                                </mask>
                                <g id="Clip-11"></g>
                                <path d="M8.46188406,1.31011875 C5.12173913,1.31011875 1.54478261,9.75211875 1.54478261,22.3194937 C1.54478261,34.8863062 5.12173913,43.3288687 8.46188406,43.3288687 C11.8014783,43.3288687 15.3784348,34.8863062 15.3784348,22.3194937 C15.3784348,9.75211875 11.8014783,1.31011875 8.46188406,1.31011875 M8.46188406,44.4375563 C3.45249275,44.4375563 0.459855072,33.1920563 0.459855072,22.3194937 C0.459855072,11.4469312 3.45249275,0.20143125 8.46188406,0.20143125 C13.4707246,0.20143125 16.4633623,11.4469312 16.4633623,22.3194937 C16.4633623,33.1920563 13.4707246,44.4375563 8.46188406,44.4375563" id="Fill-10" fill="#FFFFFF" mask="url(#mask-4)"></path>
                            </g>
                            <path d="M15.0818696,28.5649875 C22.3778696,33.557175 29.9652029,36.3623625 33.9518986,35.5568625 C34.912913,35.361675 35.5991159,34.9583625 35.9912319,34.358175 C37.8488261,31.5158625 32.9793188,23.7803625 22.7694348,16.7958 C15.475087,11.8047375 7.88995652,8.9911125 3.8994058,9.803925 C2.93784058,9.9991125 2.25163768,10.402425 1.85897101,11.00205 C0.00302898551,13.8443625 4.87308696,21.5798625 15.0818696,28.56555 L15.0818696,28.5649875 Z M32.5084493,36.79605 C28.0437246,36.79605 21.1078986,34.022925 14.4771739,29.486925 L14.4771739,29.4863625 C4.40221739,22.5923625 -1.5367971,14.2032375 0.956333333,10.3872375 C1.51421739,9.5328 2.43337681,8.9708625 3.68847826,8.7166125 C7.94062319,7.850925 15.8545362,10.7292375 23.3741304,15.874425 C33.4496377,22.7678625 39.3886522,31.1569875 36.8938696,34.97355 C36.3365362,35.827425 35.4179275,36.3893625 34.1633768,36.6436125 C33.6605652,36.7459875 33.1065362,36.79605 32.5084493,36.79605 Z" id="Fill-13" fill="#FFFFFF"></path>
                            <path d="M32.4463826,9.6663375 C28.2283826,9.6663375 21.5420348,12.374775 15.0825855,16.7954625 C4.87215072,23.7805875 0.00209275362,31.5160875 1.85913623,34.3578375 C2.2518029,34.9585875 2.9380058,35.3619 3.89957101,35.556525 C7.88902029,36.36315 15.4741507,33.5574 22.7696,28.5652125 L22.7696,28.565775 C32.9783826,21.58065 37.8484406,13.8445875 35.9913971,11.002275 C35.5998319,10.40265 34.9130783,9.9993375 33.951513,9.80415 C33.4949623,9.7113375 32.9904986,9.6663375 32.4463826,9.6663375 M5.34302029,36.7957125 C4.74438261,36.7957125 4.19035362,36.7462125 3.68754203,36.6444 C2.43354203,36.3895875 1.51438261,35.82765 0.956498551,34.9732125 C-1.53773333,31.1572125 4.40183188,22.7680875 14.4778899,15.8740875 C21.9963826,10.730025 29.9080928,7.8517125 34.1629913,8.7168375 C35.4180928,8.9710875 36.3367014,9.533025 36.8945855,10.3869 C39.3877159,14.2034625 33.4481507,22.5925875 23.3737449,29.486025 L23.3737449,29.4865875 C16.7430203,34.02315 9.80774493,36.7957125 5.34302029,36.7957125" id="Fill-15" fill="#FFFFFF"></path>
                            <path d="M18.9256522,22.0462875 C18.5853043,22.0462875 18.3077391,22.3309125 18.3077391,22.680225 C18.3077391,23.0295375 18.5853043,23.3141625 18.9256522,23.3141625 C19.2665507,23.3141625 19.5441159,23.0295375 19.5441159,22.680225 C19.5441159,22.3309125 19.2665507,22.0462875 18.9256522,22.0462875 M18.9256522,24.42285 C17.9866667,24.42285 17.2222609,23.640975 17.2222609,22.680225 C17.2222609,21.719475 17.9866667,20.9376 18.9256522,20.9376 C19.8651884,20.9376 20.6295942,21.719475 20.6295942,22.680225 C20.6295942,23.640975 19.8651884,24.42285 18.9256522,24.42285" id="Fill-17" fill="#FFFFFF"></path>
                        </g>
                    </g>
                </g>
            </g>
        </g>
    </g>
</svg>