<?xml version="1.0" encoding="UTF-8"?>
<svg width="21px" height="11px" viewBox="0 0 21 11" version="1.1" xmlns="http://www.w3.org/2000/svg" xmlns:xlink="http://www.w3.org/1999/xlink">
    <!-- Generator: Sketch 50.2 (55047) - http://www.bohemiancoding.com/sketch -->
    <title>flag-korean copy</title>
    <desc>Created with Sketch.</desc>
    <defs></defs>
    <g id="Page-1" stroke="none" stroke-width="1" fill="none" fill-rule="evenodd">
        <g id="flag-korean-copy">
            <polygon id="Fill-1" fill="#FFFFFF" points="0 10.5 21 10.5 21 0 0 0"></polygon>
            <polygon id="Fill-2" fill="#000000" points="15.7811357 3.19716429 15.4014214 3.45045 14.7502071 2.45552143 15.1301357 2.20223571"></polygon>
            <polygon id="Fill-3" fill="#000000" points="14.3523 1.02668571 15.0035143 2.02161429 14.6238 2.27468571 13.9725857 1.27997143"></polygon>
            <polygon id="Fill-4" fill="#000000" points="13.8278786 1.38850714 15.2567357 3.55879286 14.8770214 3.81207857 13.44795 1.64179286"></polygon>
            <polygon id="Fill-5" fill="#000000" points="14.3343 6.32627143 14.7140143 6.57955714 14.0628 7.57405714 13.6830857 7.32098571"></polygon>
            <polygon id="Fill-6" fill="#000000" points="13.6650643 3.17895 14.0447786 2.92566429 14.6959929 3.92059286 14.3160643 4.15587857"></polygon>
            <polygon id="Fill-7" fill="#000000" points="14.8769143 6.66987857 15.2566286 6.92316429 14.6054143 7.91787857 14.2257 7.66459286"></polygon>
            <polygon id="Fill-8" fill="#000000" points="13.26705 1.73211429 13.9182643 2.72704286 13.53855 2.98011429 12.8873357 1.9854"></polygon>
            <polygon id="Fill-9" fill="#000000" points="7.85905714 1.98531429 6.4302 4.15581429 6.05048571 3.90252857 7.47934286 1.73202857"></polygon>
            <polygon id="Fill-10" fill="#000000" points="7.31644286 1.64170714 5.88758571 3.81199286 5.50787143 3.55870714 6.93672857 1.38842143"></polygon>
            <polygon id="Fill-11" fill="#000000" points="6.53882143 7.66450714 6.15889286 7.91800714 5.50767857 6.92307857 5.88760714 6.66979286"></polygon>
            <polygon id="Fill-12" fill="#000000" points="6.39400714 1.02668571 6.77372143 1.27997143 5.34486429 3.45047143 4.96515 3.19718571"></polygon>
            <polygon id="Fill-13" fill="#000000" points="6.39400714 9.45518571 4.96515 7.28468571 5.34486429 7.0314 6.77372143 9.2019"></polygon>
            <polygon id="Fill-14" fill="#000000" points="6.93662143 9.09357857 6.28540714 8.09865 6.66533571 7.84557857 7.31633571 8.84029286"></polygon>
            <polygon id="Fill-15" fill="#000000" points="7.47925714 8.74975714 6.0504 6.57947143 6.43011429 6.32618571 7.85897143 8.49647143"></polygon>
            <polygon id="Fill-16" fill="#000000" points="12.88725 8.49655714 13.5384643 7.50184286 13.9183929 7.75512857 13.2669643 8.73184286"></polygon>
            <polygon id="Fill-17" fill="#000000" points="13.4298643 8.84037857 14.0810786 7.84545 14.4610071 8.09873571 13.8095786 9.09366429"></polygon>
            <polygon id="Fill-18" fill="#000000" points="14.3523 9.45518571 13.9725857 9.2019 14.6238 8.20718571 15.0035143 8.46025714"></polygon>
            <polygon id="Fill-19" fill="#000000" points="15.1301357 8.27955 14.7504214 8.02626429 15.4014214 7.03155 15.7811357 7.28462143"></polygon>
            <g id="Group-24" transform="translate(7.714286, 2.571429)">
                <path d="M0.170507143,2.02403571 C0.210792857,1.78703571 0.310221429,1.57210714 0.42765,1.36575 C0.977935714,0.397178571 2.05900714,-0.117107143 3.16600714,0.0590357143 C4.23486429,0.228964286 5.10400714,1.06167857 5.32729286,2.13525 C5.42865,2.62253571 5.39350714,3.10275 5.22636429,3.57267857 C5.21886429,3.59410714 5.20579286,3.61382143 5.19507857,3.63439286 C5.19486429,3.60782143 5.19357857,3.58125 5.19400714,3.55446429 C5.20536429,3.02282143 4.99236429,2.60496429 4.55072143,2.31010714 C4.16157857,2.05017857 3.74757857,1.98696429 3.31086429,2.18732143 C3.01665,2.32232143 2.79679286,2.54325 2.60972143,2.80146429 C2.00693571,3.63267857 0.900792857,3.56989286 0.356078571,2.67696429 C0.23415,2.47682143 0.194507143,2.25225 0.170507143,2.02403571" id="Fill-20" fill="#CD1127"></path>
                <path d="M0.170507143,2.02403571 C0.194507143,2.25225 0.23415,2.47682143 0.356078571,2.67696429 C0.900792857,3.56989286 2.00693571,3.63267857 2.60972143,2.80146429 C2.79679286,2.54325 3.01665,2.32232143 3.31086429,2.18732143 C3.74757857,1.98696429 4.16157857,2.05017857 4.55072143,2.31010714 C4.99236429,2.60496429 5.20536429,3.02282143 5.19400714,3.55446429 C5.19357857,3.58125 5.19486429,3.60782143 5.19507857,3.63439286 C5.05215,4.03017857 4.81857857,4.36789286 4.50272143,4.64110714 C3.72872143,5.30989286 2.83986429,5.50553571 1.87472143,5.17489286 C0.902078571,4.84146429 0.321364286,4.13325 0.122935714,3.12396429 C0.0507214286,2.75689286 0.0659357143,2.38682143 0.170507143,2.02403571" id="Fill-22" fill="#003E87"></path>
            </g>
        </g>
    </g>
</svg>