<?xml version="1.0" encoding="UTF-8"?>
<svg width="52px" height="47px" viewBox="0 0 52 47" version="1.1" xmlns="http://www.w3.org/2000/svg" xmlns:xlink="http://www.w3.org/1999/xlink">
    <!-- Generator: Sketch 50.2 (55047) - http://www.bohemiancoding.com/sketch -->
    <title>api</title>
    <desc>Created with Sketch.</desc>
    <defs></defs>
    <g id="Page-1" stroke="none" stroke-width="1" fill="none" fill-rule="evenodd" opacity="0.580301339">
        <g id="api" transform="translate(1.000000, 1.000000)">
            <path d="M34.8123267,22.4348967 C34.8123267,27.8368533 30.3801485,32.216038 24.9128218,32.216038 C19.445495,32.216038 15.0133168,27.8368533 15.0133168,22.4348967 C15.0133168,17.0329402 19.445495,12.6537554 24.9128218,12.6537554 C30.3801485,12.6537554 34.8123267,17.0329402 34.8123267,22.4348967 Z" id="Stroke-1" stroke="#58585B" stroke-width="1.5"></path>
            <path d="M41.6589109,22.4348967 C41.6589109,31.5728315 34.1613861,38.980712 24.9128713,38.980712 C15.6643564,38.980712 8.16683168,31.5728315 8.16683168,22.4348967 C8.16683168,13.2964728 15.6643564,5.88908152 24.9128713,5.88908152 C34.1613861,5.88908152 41.6589109,13.2964728 41.6589109,22.4348967 Z" id="Stroke-3" stroke="#58585B" stroke-width="1.5"></path>
            <path d="M28.3786139,4.00700543 C26.0662376,3.58292935 23.7182178,3.59417935 21.4523762,4.01189674 C21.19,4.05983152 20.9211881,3.98108152 20.7330693,3.79325543 L17.4132673,0.47988587 C17.1563366,0.223581522 16.7563366,0.170266304 16.440495,0.350755435 L9.79247525,4.14249457 C9.47613861,4.3229837 9.32316832,4.69129891 9.41920792,5.03955978 L10.6637624,9.53369022 C10.7335644,9.78754891 10.6692079,10.0565707 10.4959406,10.256625 C8.9860396,12.0047772 7.80732673,14.0224402 7.03059406,16.1863533 C6.94148515,16.4348315 6.73851485,16.6251033 6.48059406,16.6921141 L1.91970297,17.8753207 C1.56623762,17.966788 1.32019802,18.2822772 1.32019802,18.6427663 L1.32019802,26.2267337 C1.32019802,26.587712 1.56673267,26.9032011 1.91970297,26.9946685 L6.4850495,28.1783641 C6.7439604,28.245375 6.94693069,28.4356467 7.0360396,28.6846141 C7.80287129,30.8314076 8.96623762,32.8461359 10.4939604,34.6123859 C10.6677228,34.8124402 10.7330693,35.0819511 10.6627723,35.3362989 L9.41920792,39.828962 C9.32316832,40.1772228 9.47613861,40.545538 9.79247525,40.7260272 L16.440495,44.5182554 C16.7563366,44.6987446 17.1563366,44.6459185 17.4137624,44.3896141 L20.7305941,41.0782011 C20.9182178,40.8908641 21.1875248,40.8126033 21.4494059,40.860538 C23.7607921,41.2846141 26.1088119,41.272875 28.3731683,40.856625 C28.6355446,40.8086902 28.9043564,40.8874402 29.0914851,41.0747772 L32.4122772,44.3896141 C32.669703,44.6459185 33.0692079,44.6987446 33.3855446,44.5182554 L40.0330693,40.7260272 C40.349901,40.545538 40.5028713,40.1772228 40.4068317,39.828962 L39.1622772,35.3348315 C39.0919802,35.0809728 39.1568317,34.8119511 39.330099,34.6114076 C40.839505,32.8627663 42.0162376,30.8475489 42.7949505,28.6816793 C42.8845545,28.4332011 43.0875248,28.2434185 43.3449505,28.1768967 L47.9058416,26.9946685 C48.2593069,26.9032011 48.5058416,26.5872228 48.5058416,26.2267337 L48.5058416,18.6427663 C48.5058416,18.2822772 48.2593069,17.966788 47.9063366,17.8753207 L43.3414851,16.691625 C43.0830693,16.6246141 42.879604,16.4338533 42.790495,16.1848859 C42.0231683,14.0380924 40.859802,12.0218967 39.3310891,10.2561359 C39.1573267,10.0560815 39.0919802,9.78608152 39.1622772,9.53222283 L40.4058416,5.04004891 C40.5018812,4.69227717 40.3489109,4.32347283 40.0320792,4.14347283 L33.3850495,0.351733696 C33.0692079,0.171244565 32.669703,0.224559783 32.4122772,0.48086413 L29.0969307,3.78934239 C28.9093069,3.97667935 28.640495,4.05542935 28.3786139,4.00700543 Z" id="Stroke-5" stroke="#58585B" stroke-width="1.5"></path>
            <path d="M2.64039604,22.3966957 C2.64039604,23.1171848 2.04930693,23.7012065 1.32009901,23.7012065 C0.590891089,23.7012065 -0.000198019802,23.1171848 -0.000198019802,22.3966957 C-0.000198019802,21.6762065 0.590891089,21.0921848 1.32009901,21.0921848 C2.04930693,21.0921848 2.64039604,21.6762065 2.64039604,22.3966957" id="Fill-7" fill="#58585B"></path>
            <path d="M2.64039604,22.3966957 C2.64039604,23.1171848 2.04930693,23.7012065 1.32009901,23.7012065 C0.590891089,23.7012065 -0.000198019802,23.1171848 -0.000198019802,22.3966957 C-0.000198019802,21.6762065 0.590891089,21.0921848 1.32009901,21.0921848 C2.04930693,21.0921848 2.64039604,21.6762065 2.64039604,22.3966957 Z" id="Stroke-9" stroke="#FFFFFF" stroke-width="0.98"></path>
            <path d="M49.8257921,22.3966957 C49.8257921,23.1171848 49.235198,23.7012065 48.5059901,23.7012065 C47.7767822,23.7012065 47.1856931,23.1171848 47.1856931,22.3966957 C47.1856931,21.6762065 47.7767822,21.0921848 48.5059901,21.0921848 C49.235198,21.0921848 49.8257921,21.6762065 49.8257921,22.3966957" id="Fill-11" fill="#58585B"></path>
            <path d="M49.8257921,22.3966957 C49.8257921,23.1171848 49.235198,23.7012065 48.5059901,23.7012065 C47.7767822,23.7012065 47.1856931,23.1171848 47.1856931,22.3966957 C47.1856931,21.6762065 47.7767822,21.0921848 48.5059901,21.0921848 C49.235198,21.0921848 49.8257921,21.6762065 49.8257921,22.3966957 Z" id="Stroke-13" stroke="#FFFFFF" stroke-width="0.98"></path>
            <path d="M38.0340594,2.2912337 C38.0340594,3.01172283 37.4434653,3.59574457 36.7137624,3.59574457 C35.9845545,3.59574457 35.3939604,3.01172283 35.3939604,2.2912337 C35.3939604,1.57074457 35.9845545,0.987211957 36.7137624,0.987211957 C37.4434653,0.987211957 38.0340594,1.57074457 38.0340594,2.2912337" id="Fill-15" fill="#58585B"></path>
            <path d="M38.0340594,2.2912337 C38.0340594,3.01172283 37.4434653,3.59574457 36.7137624,3.59574457 C35.9845545,3.59574457 35.3939604,3.01172283 35.3939604,2.2912337 C35.3939604,1.57074457 35.9845545,0.987211957 36.7137624,0.987211957 C37.4434653,0.987211957 38.0340594,1.57074457 38.0340594,2.2912337 Z" id="Stroke-17" stroke="#FFFFFF" stroke-width="0.98"></path>
            <path d="M14.7667327,2.2912337 C14.7667327,3.01172283 14.1761386,3.59574457 13.4464356,3.59574457 C12.7172277,3.59574457 12.1266337,3.01172283 12.1266337,2.2912337 C12.1266337,1.57074457 12.7172277,0.987211957 13.4464356,0.987211957 C14.1761386,0.987211957 14.7667327,1.57074457 14.7667327,2.2912337" id="Fill-19" fill="#58585B"></path>
            <path d="M14.7667327,2.2912337 C14.7667327,3.01172283 14.1761386,3.59574457 13.4464356,3.59574457 C12.7172277,3.59574457 12.1266337,3.01172283 12.1266337,2.2912337 C12.1266337,1.57074457 12.7172277,0.987211957 13.4464356,0.987211957 C14.1761386,0.987211957 14.7667327,1.57074457 14.7667327,2.2912337 Z" id="Stroke-21" stroke="#FFFFFF" stroke-width="0.98"></path>
            <path d="M13.9322772,42.5752337 C13.9322772,43.296212 13.3416832,43.8797446 12.6124752,43.8797446 C11.8832673,43.8797446 11.2921782,43.296212 11.2921782,42.5752337 C11.2921782,41.8547446 11.8832673,41.271212 12.6124752,41.271212 C13.3416832,41.271212 13.9322772,41.8547446 13.9322772,42.5752337" id="Fill-23" fill="#58585B"></path>
            <path d="M13.9322772,42.5752337 C13.9322772,43.296212 13.3416832,43.8797446 12.6124752,43.8797446 C11.8832673,43.8797446 11.2921782,43.296212 11.2921782,42.5752337 C11.2921782,41.8547446 11.8832673,41.271212 12.6124752,41.271212 C13.3416832,41.271212 13.9322772,41.8547446 13.9322772,42.5752337 Z" id="Stroke-25" stroke="#FFFFFF" stroke-width="0.98"></path>
            <path d="M38.0340594,42.5752337 C38.0340594,43.296212 37.4434653,43.8797446 36.7137624,43.8797446 C35.9845545,43.8797446 35.3939604,43.296212 35.3939604,42.5752337 C35.3939604,41.8547446 35.9845545,41.271212 36.7137624,41.271212 C37.4434653,41.271212 38.0340594,41.8547446 38.0340594,42.5752337" id="Fill-27" fill="#58585B"></path>
            <path d="M38.0340594,42.5752337 C38.0340594,43.296212 37.4434653,43.8797446 36.7137624,43.8797446 C35.9845545,43.8797446 35.3939604,43.296212 35.3939604,42.5752337 C35.3939604,41.8547446 35.9845545,41.271212 36.7137624,41.271212 C37.4434653,41.271212 38.0340594,41.8547446 38.0340594,42.5752337 Z" id="Stroke-29" stroke="#FFFFFF" stroke-width="0.98"></path>
        </g>
    </g>
</svg>