<?xml version="1.0" encoding="UTF-8"?>
<svg width="38px" height="42px" viewBox="0 0 38 42" version="1.1" xmlns="http://www.w3.org/2000/svg" xmlns:xlink="http://www.w3.org/1999/xlink">
    <!-- Generator: Sketch 51.2 (57519) - http://www.bohemiancoding.com/sketch -->
    <title>icon-orderbook</title>
    <desc>Created with Sketch.</desc>
    <defs>
        <polygon id="path-1" points="0 41.6409877 37.7776716 41.6409877 37.7776716 0.49856642 0 0.49856642"></polygon>
    </defs>
    <g id="renproject.io" stroke="none" stroke-width="1" fill="none" fill-rule="evenodd">
        <g id="home" transform="translate(-140.000000, -2984.000000)">
            <g id="section:renex" transform="translate(0.000000, 1930.000000)">
                <g id="renex-featurettes" transform="translate(140.000000, 1052.000000)">
                    <g id="Group-15-Copy">
                        <g id="icon-orderbook" transform="translate(0.000000, 2.000000)">
                            <polygon id="Fill-1" fill="#FFFFFF" points="0 26.3972912 4.64791045 26.3972912 4.64791045 24.1154777 0 24.1154777"></polygon>
                            <g id="Group-13" transform="translate(0.000000, 0.063868)">
                                <path d="M36.6431731,0.498960321 L14.3031433,0.498960321 C13.676994,0.498960321 13.1688149,1.0031539 13.1688149,1.62439242 L13.1688149,17.8908253 L19.7343075,17.8908253 L19.7343075,17.6679897 C19.7343075,17.3207939 20.0178896,17.0399986 20.3678299,17.0399986 L28.4924567,17.0399986 C28.8418299,17.0399986 29.1254119,17.3207939 29.1254119,17.6679897 L29.1254119,25.7288971 C29.1254119,26.0755302 28.8418299,26.3568882 28.4924567,26.3568882 L20.3678299,26.3568882 C20.0178896,26.3568882 19.7343075,26.0755302 19.7343075,25.7288971 L19.7343075,25.5060616 L13.1688149,25.5060616 L13.1688149,40.5153867 C13.1688149,41.137188 13.676994,41.6408188 14.3031433,41.6408188 L36.6431731,41.6408188 C37.2698896,41.6408188 37.7775015,41.137188 37.7775015,40.5153867 L37.7775015,1.62439242 C37.7775015,1.0031539 37.2698896,0.498960321 36.6431731,0.498960321" id="Fill-2" fill="#FFFFFF"></path>
                                <mask id="mask-2" fill="white">
                                    <use xlink:href="#path-1"></use>
                                </mask>
                                <g id="Clip-5"></g>
                                <polygon id="Fill-4" fill="#FFFFFF" mask="url(#mask-2)" points="13.1689851 24.8782393 19.7339104 24.8782393 19.7339104 18.5189852 13.1689851 18.5189852"></polygon>
                                <path d="M24.1306806,24.7380667 C23.5039642,24.6778561 22.9362328,24.4347627 22.4751284,24.0583057 L23.5448,22.9964605 C23.7183522,23.1135055 23.9168597,23.1962247 24.1306806,23.2367403 L24.1306806,24.7380667 Z M21.3657552,21.9953887 L22.8795164,21.9953887 C22.9203522,22.2069699 23.0031582,22.4044832 23.1211284,22.5766743 L22.0514567,23.6379568 C21.6714567,23.1804687 21.427009,22.6166272 21.3657552,21.9953887 Z M22.0514567,19.7580297 L23.1211284,20.8198748 C23.0031582,20.992066 22.9203522,21.1890166 22.8795164,21.4011605 L21.3657552,21.4011605 C21.427009,20.7793593 21.6714567,20.2160805 22.0514567,19.7580297 Z M24.1306806,18.6579198 L24.1306806,20.1598089 C23.9168597,20.2008872 23.7183522,20.282481 23.5448,20.399526 L22.4751284,19.3382435 C22.9362328,18.9612237 23.5039642,18.7192558 24.1306806,18.6579198 Z M25.479397,21.6982746 C25.479397,22.2733704 25.0097851,22.7392993 24.4295761,22.7392993 C23.8499343,22.7392993 23.3803224,22.2733704 23.3803224,21.6982746 C23.3803224,21.1231788 23.8499343,20.6566872 24.4295761,20.6566872 C25.0097851,20.6566872 25.479397,21.1231788 25.479397,21.6982746 Z M24.729606,18.6579198 C25.3563224,18.7192558 25.9240537,18.9617864 26.3851582,19.3382435 L25.3154866,20.399526 C25.1413672,20.282481 24.9434269,20.2008872 24.729606,20.1598089 L24.729606,18.6579198 Z M27.4939642,21.4011605 L25.9807701,21.4011605 C25.9393672,21.1890166 25.8571284,20.992066 25.738591,20.8198748 L26.8082627,19.7585924 C27.1882627,20.2160805 27.4321433,20.7793593 27.4939642,21.4011605 Z M26.8082627,23.6379568 L25.738591,22.5766743 C25.8571284,22.4044832 25.9393672,22.2069699 25.9807701,21.9953887 L27.4939642,21.9953887 C27.4321433,22.6166272 27.1882627,23.179906 26.8082627,23.6379568 Z M24.729606,24.7380667 L24.729606,23.2367403 C24.9434269,23.1962247 25.1413672,23.1135055 25.3154866,22.9964605 L26.3851582,24.057743 C25.9240537,24.4347627 25.3563224,24.6772934 24.729606,24.7380667 Z M28.1229493,21.6982746 C28.1229493,19.6775613 26.4662627,18.0338677 24.4295761,18.0338677 C22.3934567,18.0338677 20.7367701,19.6775613 20.7367701,21.6982746 C20.7367701,23.7184252 22.3934567,25.3621188 24.4295761,25.3621188 C26.4662627,25.3621188 28.1229493,23.7184252 28.1229493,21.6982746 Z" id="Fill-6" fill="#FFFFFF" mask="url(#mask-2)"></path>
                                <path d="M5.32839403,27.0081758 L2.00764776,27.0081758 L2.00764776,38.1859674 C2.00764776,38.705917 2.43358806,39.1285168 2.9570806,39.1285168 L12.3453493,39.1285168 L12.3453493,38.5005257 L12.3453493,36.7504787 L12.3453493,36.1224876 L12.3453493,25.5062866 L5.32839403,25.5062866 L5.32839403,27.0081758 Z" id="Fill-7" fill="#FFFFFF" mask="url(#mask-2)"></path>
                                <polygon id="Fill-8" fill="#FFFFFF" mask="url(#mask-2)" points="0 26.333423 4.64734328 26.333423 4.64734328 24.0510467 0 24.0510467"></polygon>
                                <path d="M9.81755522,1.68156437 L4.86904776,1.68156437 C4.43176418,1.68156437 4.07558507,2.03551277 4.07558507,2.46936684 L4.07558507,9.87808635 L7.34358507,8.32048832 L10.6110179,9.87808635 L10.6110179,2.46936684 C10.6110179,2.03551277 10.2548388,1.68156437 9.81755522,1.68156437" id="Fill-9" fill="#FFFFFF" mask="url(#mask-2)"></path>
                                <path d="M11.2919552,3.01137494 L11.2919552,10.9518611 L7.34335821,9.07013864 L3.39476119,10.9518611 L3.39476119,3.01137494 L2.95747761,3.01137494 C2.43341791,3.01137494 2.00747761,3.43397469 2.00747761,3.95392432 L2.00747761,16.3882609 L5.32822388,16.3882609 L5.32822388,17.8907127 L12.3451791,17.8907127 L12.3451791,17.89015 L12.3451791,15.2605779 L12.3451791,14.6320241 L12.3451791,12.747488 L12.3451791,12.1194969 L12.3451791,10.2349609 L12.3451791,9.60696975 L12.3451791,7.7224337 L12.3451791,7.09444259 L12.3451791,3.63936605 L12.3451791,3.01137494 L11.2919552,3.01137494 Z" id="Fill-10" fill="#FFFFFF" mask="url(#mask-2)"></path>
                                <polygon id="Fill-11" fill="#FFFFFF" mask="url(#mask-2)" points="5.32839403 20.0203679 2.00764776 20.0203679 2.00764776 23.3764064 5.32839403 23.3764064 5.32839403 24.8782955 12.3453493 24.8782955 12.3453493 18.5190415 5.32839403 18.5190415"></polygon>
                                <polygon id="Fill-12" fill="#FFFFFF" mask="url(#mask-2)" points="0.000567164179 19.3456151 4.64791045 19.3456151 4.64791045 17.0632388 0.000567164179 17.0632388"></polygon>
                            </g>
                        </g>
                    </g>
                </g>
            </g>
        </g>
    </g>
</svg>