<?xml version="1.0" encoding="UTF-8"?>
<svg width="38px" height="50px" viewBox="0 0 38 50" version="1.1" xmlns="http://www.w3.org/2000/svg" xmlns:xlink="http://www.w3.org/1999/xlink">
    <!-- Generator: Sketch 50.2 (55047) - http://www.bohemiancoding.com/sketch -->
    <title>Group</title>
    <desc>Created with Sketch.</desc>
    <defs></defs>
    <g id="Page-1" stroke="none" stroke-width="1" fill="none" fill-rule="evenodd">
        <g id="1.-Home" transform="translate(-1485.000000, -555.000000)">
            <g id="Group" transform="translate(1486.000000, 555.000000)">
                <path d="M30.1456817,44.119405 L0.641587632,44.119405 C0.287397393,44.119405 0,43.76808 0,43.335105 L0,2.09093 C0,1.65738 0.287397393,1.30663 0.641587632,1.30663 L30.1456817,1.30663 C30.5003423,1.30663 30.7872693,1.65738 30.7872693,2.09093 L30.7872693,43.335105 C30.7872693,43.76808 30.5003423,44.119405 30.1456817,44.119405 Z" id="Stroke-3" stroke="#006FE8" stroke-width="1.5"></path>
                <path d="M19.8573876,12.5843925 L23.5887415,15.2564175 L26.6025273,12.5843925 L26.6025273,1.1269425 C24.353956,-0.3755325 22.1059589,-0.3755325 19.8573876,1.1269425 L19.8573876,12.5843925 Z" id="Fill-1" fill="#006FE8"></path>
                <polyline id="Fill-5" fill="#006FE8" points="19.7169188 1 19.7169188 12.7060932 23.5292484 15.436105 26.6084377 12.7060932 26.6084377 1"></polyline>
                <path d="M33.1456817,47.119405 L3.64158763,47.119405 C3.28739739,47.119405 3,46.76808 3,46.335105 L3,5.09093 C3,4.65738 3.28739739,4.30663 3.64158763,4.30663 L33.1456817,4.30663 C33.5003423,4.30663 33.7872693,4.65738 33.7872693,5.09093 L33.7872693,46.335105 C33.7872693,46.76808 33.5003423,47.119405 33.1456817,47.119405 Z" id="Stroke-3" stroke="#006FE8" stroke-width="1.5" fill="#F2F2F2"></path>
                <path d="M22.8573876,4.1269425 L22.8573876,15.5843925 L26.5887415,18.2564175 L29.6025273,15.5843925 L29.6025273,4.1269425 C27.353956,2.6244675 25.1059589,2.6244675 22.8573876,4.1269425" id="Fill-1" fill="#006FE8"></path>
                <polyline id="Fill-5" fill="#006FE8" points="22.7901084 4.30663 22.7901084 15.76408 26.5214623 18.436105 29.5352481 15.76408 29.5352481 4.30663"></polyline>
                <path d="M16.5315948,47.119405 C16.5315948,47.96638 15.8461738,48.652355 15.0005916,48.652355 C14.1550094,48.652355 13.4695884,47.96638 13.4695884,47.119405 C13.4695884,46.271855 14.1550094,45.58588 15.0005916,45.58588 C15.8461738,45.58588 16.5315948,46.271855 16.5315948,47.119405" id="Fill-7" stroke="#F2F2F2" stroke-width="1.43" fill="#006FE8"></path>
                <path d="M33.7874415,27.2459675 C32.9418593,27.2459675 32.2564383,26.5599925 32.2564383,25.7130175 C32.2564383,24.8660425 32.9418593,24.1794925 33.7874415,24.1794925 C34.6330237,24.1794925 35.3184447,24.8660425 35.3184447,25.7130175 C35.3184447,26.5599925 34.6330237,27.2459675 33.7874415,27.2459675 Z" id="Fill-11" stroke="#F2F2F2" stroke-width="1.43" fill="#006FE8"></path>
            </g>
        </g>
    </g>
</svg>