<?xml version="1.0" encoding="UTF-8"?>
<svg width="69px" height="74px" viewBox="0 0 69 74" version="1.1" xmlns="http://www.w3.org/2000/svg" xmlns:xlink="http://www.w3.org/1999/xlink">
    <!-- Generator: Sketch 51.2 (57519) - http://www.bohemiancoding.com/sketch -->
    <title>large orders</title>
    <desc>Created with Sketch.</desc>
    <defs></defs>
    <g id="Page-1" stroke="none" stroke-width="1" fill="none" fill-rule="evenodd">
        <g id="1.-Home-Copy-3" transform="translate(-1179.000000, -1386.000000)">
            <g id="large-orders" transform="translate(1179.000000, 1386.000000)">
                <path d="M67.5557,18.5764 L52.8907,10.4284 L35.0227,0.5014 C34.6837,0.3134 34.2727,0.3134 33.9337,0.5014 L16.0657,10.4284 L1.4007,18.5764 L1.4007,20.6584 L34.4787,20.6584 L67.5557,20.6584 L67.5557,18.5764 Z" id="Fill-1" fill="#F5F5F5"></path>
                <path d="M34.3311,17.9905 C31.0521,17.9905 28.3821,15.3225 28.3821,12.0415 C28.3821,8.7615 31.0521,6.0925 34.3311,6.0925 C37.6101,6.0925 40.2801,8.7615 40.2801,12.0415 C40.2801,15.3225 37.6101,17.9905 34.3311,17.9905" id="Fill-3" fill="#006FE8"></path>
                <path d="M34.3311,7.2268 C31.6761,7.2268 29.5171,9.3868 29.5171,12.0418 C29.5171,14.6968 31.6761,16.8558 34.3311,16.8558 C36.9861,16.8558 39.1451,14.6968 39.1451,12.0418 C39.1451,9.3868 36.9861,7.2268 34.3311,7.2268" id="Fill-5" fill="#F5F5F5"></path>
                <path d="M9.219,58.5938 L18.913,58.5938 L18.913,24.8798 L9.219,24.8798 L9.219,58.5938 Z M8.219,59.5938 L19.913,59.5938 L19.913,23.8798 L8.219,23.8798 L8.219,59.5938 Z" id="Fill-7" fill="#006FE8"></path>
                <path d="M29.588,58.5938 L39.283,58.5938 L39.283,24.8798 L29.588,24.8798 L29.588,58.5938 Z M28.588,59.5938 L40.283,59.5938 L40.283,23.8798 L28.588,23.8798 L28.588,59.5938 Z" id="Fill-9" fill="#006FE8"></path>
                <path d="M49.957,58.5938 L59.652,58.5938 L59.652,24.8798 L49.957,24.8798 L49.957,58.5938 Z M48.957,59.5938 L60.652,59.5938 L60.652,23.8798 L48.957,23.8798 L48.957,59.5938 Z" id="Fill-10" fill="#006FE8"></path>
                <path d="M68.4561,70.3162 L68.4561,72.9992 L0.5001,72.9992 L0.5001,70.3162 C0.5001,69.7532 0.9561,69.2962 1.5191,69.2962 L67.4361,69.2962 C68.0001,69.2962 68.4561,69.7532 68.4561,70.3162" id="Fill-11" fill="#F5F5F5"></path>
                <path d="M1,72.4988 L67.956,72.4988 L67.956,70.3158 C67.956,70.0298 67.723,69.7958 67.437,69.7958 L1.52,69.7958 C1.233,69.7958 1,70.0298 1,70.3158 L1,72.4988 Z M68.956,73.4988 L0,73.4988 L0,70.3158 C0,69.4778 0.682,68.7958 1.52,68.7958 L67.437,68.7958 C68.274,68.7958 68.956,69.4778 68.956,70.3158 L68.956,73.4988 Z" id="Fill-12" fill="#58585B"></path>
                <path d="M61.8564,60.114 L61.8564,65.517 L47.7524,65.517 L47.7524,60.114 C47.7524,59.551 48.2104,59.094 48.7734,59.094 L60.8364,59.094 C61.3994,59.094 61.8564,59.551 61.8564,60.114" id="Fill-13" fill="#F5F5F5"></path>
                <path d="M48.2529,65.0174 L61.3569,65.0174 L61.3569,60.1144 C61.3569,59.8274 61.1229,59.5944 60.8369,59.5944 L48.7739,59.5944 C48.4859,59.5944 48.2529,59.8274 48.2529,60.1144 L48.2529,65.0174 Z M62.3569,66.0174 L47.2529,66.0174 L47.2529,60.1144 C47.2529,59.2754 47.9349,58.5944 48.7739,58.5944 L60.8369,58.5944 C61.6749,58.5944 62.3569,59.2754 62.3569,60.1144 L62.3569,66.0174 Z" id="Fill-14" fill="#58585B"></path>
                <path d="M41.3828,60.114 L41.3828,65.517 L27.2798,65.517 L27.2798,60.114 C27.2798,59.551 27.7368,59.094 28.2998,59.094 L40.3628,59.094 C40.9268,59.094 41.3828,59.551 41.3828,60.114" id="Fill-15" fill="#F5F5F5"></path>
                <path d="M27.7803,65.0174 L40.8833,65.0174 L40.8833,60.1144 C40.8833,59.8274 40.6493,59.5944 40.3633,59.5944 L28.3003,59.5944 C28.0133,59.5944 27.7803,59.8274 27.7803,60.1144 L27.7803,65.0174 Z M41.8833,66.0174 L26.7803,66.0174 L26.7803,60.1144 C26.7803,59.2754 27.4623,58.5944 28.3003,58.5944 L40.3633,58.5944 C41.2013,58.5944 41.8833,59.2754 41.8833,60.1144 L41.8833,66.0174 Z" id="Fill-16" fill="#58585B"></path>
                <path d="M20.6543,60.114 L20.6543,65.517 L6.5503,65.517 L6.5503,60.114 C6.5503,59.551 7.0083,59.094 7.5703,59.094 L19.6333,59.094 C20.1973,59.094 20.6543,59.551 20.6543,60.114" id="Fill-17" fill="#F5F5F5"></path>
                <path d="M7.0508,65.0174 L20.1548,65.0174 L20.1548,60.1144 C20.1548,59.8274 19.9208,59.5944 19.6338,59.5944 L7.5708,59.5944 C7.2838,59.5944 7.0508,59.8274 7.0508,60.1144 L7.0508,65.0174 Z M21.1548,66.0174 L6.0508,66.0174 L6.0508,60.1144 C6.0508,59.2754 6.7328,58.5944 7.5708,58.5944 L19.6338,58.5944 C20.4728,58.5944 21.1548,59.2754 21.1548,60.1144 L21.1548,66.0174 Z" id="Fill-18" fill="#58585B"></path>
                <path d="M61.8564,20.6585 L61.8564,23.3605 C61.8564,23.9235 61.3994,24.3805 60.8364,24.3805 L48.7734,24.3805 C48.2104,24.3805 47.7524,23.9235 47.7524,23.3605 L47.7524,20.6585 L61.8564,20.6585 Z" id="Fill-19" fill="#F5F5F5"></path>
                <path d="M48.2529,21.1585 L48.2529,23.3605 C48.2529,23.6465 48.4859,23.8805 48.7739,23.8805 L60.8369,23.8805 C61.1229,23.8805 61.3569,23.6465 61.3569,23.3605 L61.3569,21.1585 L48.2529,21.1585 Z M60.8369,24.8805 L48.7739,24.8805 C47.9349,24.8805 47.2529,24.1985 47.2529,23.3605 L47.2529,20.1585 L62.3569,20.1585 L62.3569,23.3605 C62.3569,24.1985 61.6749,24.8805 60.8369,24.8805 Z" id="Fill-20" fill="#58585B"></path>
                <path d="M41.3828,20.6585 L41.3828,23.3605 C41.3828,23.9235 40.9268,24.3805 40.3628,24.3805 L28.2998,24.3805 C27.7368,24.3805 27.2798,23.9235 27.2798,23.3605 L27.2798,20.6585 L41.3828,20.6585 Z" id="Fill-21" fill="#F5F5F5"></path>
                <path d="M27.7803,21.1585 L27.7803,23.3605 C27.7803,23.6465 28.0133,23.8805 28.3003,23.8805 L40.3633,23.8805 C40.6493,23.8805 40.8833,23.6465 40.8833,23.3605 L40.8833,21.1585 L27.7803,21.1585 Z M40.3633,24.8805 L28.3003,24.8805 C27.4623,24.8805 26.7803,24.1985 26.7803,23.3605 L26.7803,20.1585 L41.8833,20.1585 L41.8833,23.3605 C41.8833,24.1985 41.2013,24.8805 40.3633,24.8805 Z" id="Fill-22" fill="#58585B"></path>
                <path d="M20.6543,20.6585 L20.6543,23.3605 C20.6543,23.9235 20.1973,24.3805 19.6333,24.3805 L7.5703,24.3805 C7.0083,24.3805 6.5503,23.9235 6.5503,23.3605 L6.5503,20.6585 L20.6543,20.6585 Z" id="Fill-23" fill="#F5F5F5"></path>
                <path d="M7.0508,21.1585 L7.0508,23.3605 C7.0508,23.6465 7.2838,23.8805 7.5708,23.8805 L19.6338,23.8805 C19.9208,23.8805 20.1548,23.6465 20.1548,23.3605 L20.1548,21.1585 L7.0508,21.1585 Z M19.6338,24.8805 L7.5708,24.8805 C6.7328,24.8805 6.0508,24.1985 6.0508,23.3605 L6.0508,20.1585 L21.1548,20.1585 L21.1548,23.3605 C21.1548,24.1985 20.4728,24.8805 19.6338,24.8805 Z" id="Fill-24" fill="#58585B"></path>
                <path d="M2.1299,20.158 L66.8259,20.158 L66.8259,19.253 C66.8259,19.026 66.7029,18.817 66.5039,18.706 L34.7759,1.078 C34.5909,0.977 34.3639,0.978 34.1809,1.078 L2.4519,18.707 C2.2529,18.817 2.1299,19.026 2.1299,19.253 L2.1299,20.158 Z M67.8259,21.158 L1.1299,21.158 L1.1299,19.253 C1.1299,18.663 1.4499,18.119 1.9669,17.833 L33.6939,0.204 C34.1859,-0.068 34.7689,-0.069 35.2619,0.204 L66.9899,17.832 C67.5059,18.119 67.8259,18.663 67.8259,19.253 L67.8259,21.158 Z" id="Fill-25" fill="#58585B"></path>
                <path d="M64.5801,66.5755 L64.5801,69.2585 L4.3751,69.2585 L4.3751,66.5755 C4.3751,66.0125 4.8321,65.5555 5.3951,65.5555 L63.5601,65.5555 C64.1241,65.5555 64.5801,66.0125 64.5801,66.5755" id="Fill-26" fill="#FFFFFF"></path>
                <path d="M4.875,68.7581 L64.08,68.7581 L64.08,66.5751 C64.08,66.2891 63.847,66.0551 63.561,66.0551 L5.396,66.0551 C5.108,66.0551 4.875,66.2891 4.875,66.5751 L4.875,68.7581 Z M65.08,69.7581 L3.875,69.7581 L3.875,66.5751 C3.875,65.7371 4.557,65.0551 5.396,65.0551 L63.561,65.0551 C64.398,65.0551 65.08,65.7371 65.08,66.5751 L65.08,69.7581 Z" id="Fill-27" fill="#58585B"></path>
            </g>
        </g>
    </g>
</svg>