<?xml version="1.0" encoding="UTF-8"?>
<svg width="70px" height="79px" viewBox="0 0 70 79" version="1.1" xmlns="http://www.w3.org/2000/svg" xmlns:xlink="http://www.w3.org/1999/xlink">
    <!-- Generator: Sketch 51.2 (57519) - http://www.bohemiancoding.com/sketch -->
    <title>atomic swaps</title>
    <desc>Created with Sketch.</desc>
    <defs></defs>
    <g id="Page-1" stroke="none" stroke-width="1" fill="none" fill-rule="evenodd">
        <g id="1.-Home-Copy-3" transform="translate(-651.000000, -1381.000000)">
            <g id="atomic-swaps" transform="translate(651.000000, 1381.000000)">
                <path d="M14.4541,65.3738 C7.4981,59.7968 3.1311,51.8458 2.1561,42.9838 C0.7041,29.7958 7.0991,17.1968 18.4831,10.5398 L19.8201,13.4508 L24.1451,7.3498 L16.6981,6.6538 L18.0631,9.6258 C6.2841,16.4698 -0.3359,29.4768 1.1621,43.0938 C2.1661,52.2208 6.6641,60.4108 13.8281,66.1538 C19.9871,71.0928 27.4831,73.7148 35.2661,73.7148 C36.5341,73.7148 37.8111,73.6448 39.0911,73.5038 L38.9811,72.5098 C30.1191,73.4868 21.4091,70.9508 14.4541,65.3738" id="Fill-20" fill="#006FE8"></path>
                <path d="M69.502,35.574 C68.498,26.447 63.999,18.257 56.835,12.513 C49.671,6.77 40.699,4.159 31.572,5.164 L31.682,6.158 C40.551,5.184 49.254,7.718 56.21,13.294 C63.165,18.87 67.533,26.822 68.508,35.683 C69.958,48.872 63.565,61.47 52.181,68.128 L50.843,65.216 L46.519,71.318 L53.965,72.013 L52.601,69.042 C64.379,62.198 71,49.191 69.502,35.574" id="Fill-21" fill="#006FE8"></path>
                <path d="M67.1982,60.6404 C64.6932,64.3864 57.0292,64.0574 47.4002,60.4994 C48.3312,56.4084 48.9942,51.7884 49.3282,46.8084 C52.1842,44.6024 54.8242,42.3254 57.1922,40.0324 C59.4822,42.3044 61.4962,44.5844 63.1612,46.8154 C67.6132,52.7794 69.0852,57.8194 67.1982,60.6404 M35.3322,77.6674 C30.8232,77.6674 26.8372,71.1124 24.4422,61.1274 C27.8872,59.8084 31.5552,58.0904 35.3322,56.0024 C39.1082,58.0904 42.7752,59.8084 46.2192,61.1274 C43.8272,71.1124 39.8402,77.6674 35.3322,77.6674 M3.4652,60.6404 C1.5782,57.8194 3.0502,52.7804 7.5032,46.8154 C9.1682,44.5844 11.1812,42.3044 13.4712,40.0324 C15.8402,42.3254 18.4792,44.6014 21.3352,46.8074 C21.6692,51.7874 22.3322,56.4074 23.2622,60.4994 C13.6332,64.0584 5.9692,64.3874 3.4652,60.6404 M3.4652,18.0274 C5.9692,14.2804 13.6332,14.6094 23.2622,18.1674 C22.3322,22.2604 21.6692,26.8794 21.3352,31.8604 C18.4792,34.0654 15.8402,36.3424 13.4712,38.6344 C11.1812,36.3624 9.1682,34.0834 7.5032,31.8524 C3.0502,25.8874 1.5782,20.8484 3.4652,18.0274 M35.3322,1.0004 C39.8392,1.0004 43.8252,7.5544 46.2192,17.5364 C42.7752,18.8554 39.1062,20.5734 35.3322,22.6604 C31.5562,20.5734 27.8872,18.8554 24.4442,17.5364 C26.8382,7.5544 30.8242,1.0004 35.3322,1.0004 M49.4122,33.1954 C51.9652,35.2024 54.3352,37.2614 56.4772,39.3334 C54.3352,41.4054 51.9652,43.4654 49.4122,45.4724 C49.5212,43.4754 49.5782,41.4264 49.5782,39.3334 C49.5782,37.2404 49.5212,35.1914 49.4122,33.1954 M36.3742,23.2404 C39.8582,21.3454 43.2532,19.7654 46.4492,18.5314 C47.2942,22.3014 47.9172,26.5254 48.2622,31.0484 C46.6502,29.8354 44.9782,28.6454 43.2512,27.4914 C40.9422,25.9474 38.6412,24.5284 36.3742,23.2404 M22.3992,31.0494 C22.7462,26.5244 23.3682,22.3004 24.2152,18.5284 C27.4132,19.7644 30.8092,21.3414 34.2962,23.2374 C32.0262,24.5264 29.7232,25.9464 27.4132,27.4914 C25.6852,28.6454 24.0122,29.8364 22.3992,31.0494 M21.2512,45.4714 C18.6982,43.4644 16.3282,41.4054 14.1862,39.3334 C16.3282,37.2624 18.6982,35.2024 21.2512,33.1964 C21.1412,35.1924 21.0852,37.2414 21.0852,39.3334 C21.0852,41.4264 21.1412,43.4754 21.2512,45.4714 M34.2972,55.4294 C30.8092,57.3254 27.4132,58.9034 24.2152,60.1394 C23.3682,56.3674 22.7462,52.1424 22.3992,47.6184 C24.0122,48.8314 25.6852,50.0214 27.4132,51.1774 C29.7242,52.7224 32.0272,54.1404 34.2972,55.4294 M48.2622,47.6194 C47.9172,52.1434 47.2942,56.3674 46.4482,60.1394 C43.2502,58.9034 39.8532,57.3254 36.3662,55.4294 C38.6362,54.1404 40.9392,52.7224 43.2512,51.1774 C44.9782,50.0214 46.6502,48.8324 48.2622,47.6194 M42.6942,50.3464 C40.2272,51.9944 37.7612,53.4974 35.3312,54.8564 C32.9012,53.4974 30.4362,51.9944 27.9692,50.3464 C26.0072,49.0334 24.1172,47.6764 22.3072,46.2914 C22.1642,44.0334 22.0852,41.7104 22.0852,39.3334 C22.0852,36.9574 22.1642,34.6344 22.3072,32.3764 C24.1172,30.9914 26.0072,29.6344 27.9692,28.3224 C30.4362,26.6724 32.9022,25.1704 35.3332,23.8114 C37.7622,25.1704 40.2272,26.6734 42.6942,28.3224 C44.6572,29.6334 46.5462,30.9914 48.3552,32.3754 C48.4992,34.6334 48.5782,36.9564 48.5782,39.3334 C48.5782,41.7104 48.4992,44.0334 48.3552,46.2914 C46.5462,47.6764 44.6572,49.0344 42.6942,50.3464 M60.2932,15.3524 C63.5622,15.3524 65.9852,16.2124 67.1982,18.0274 C69.0852,20.8484 67.6132,25.8884 63.1612,31.8524 C61.4962,34.0834 59.4822,36.3624 57.1922,38.6344 C54.8242,36.3424 52.1842,34.0654 49.3282,31.8594 C48.9942,26.8804 48.3312,22.2624 47.4012,18.1704 C52.3652,16.3364 56.8112,15.3524 60.2932,15.3524 M57.9072,39.3334 C60.2292,37.0294 62.2722,34.7164 63.9632,32.4514 C68.7532,26.0334 70.1972,20.7134 68.0302,17.4714 C65.2572,13.3234 57.2552,13.4834 47.1722,17.1744 C44.6362,6.7404 40.3212,0.0004 35.3322,0.0004 C30.3422,0.0004 26.0282,6.7404 23.4912,17.1744 C13.4092,13.4834 5.4082,13.3234 2.6332,17.4714 C0.4662,20.7134 1.9102,26.0334 6.7012,32.4514 C8.3912,34.7164 10.4342,37.0294 12.7572,39.3334 C10.4342,41.6384 8.3912,43.9514 6.7012,46.2164 C1.9102,52.6344 0.4662,57.9544 2.6332,61.1964 C4.0322,63.2884 6.7602,64.2844 10.4152,64.2844 C14.0052,64.2844 18.4952,63.3144 23.4902,61.4864 C26.0262,71.9244 30.3412,78.6674 35.3322,78.6674 C40.3222,78.6674 44.6372,71.9244 47.1732,61.4864 C52.1692,63.3144 56.6572,64.2844 60.2472,64.2844 C63.9022,64.2844 66.6312,63.2874 68.0302,61.1964 C70.1972,57.9544 68.7532,52.6344 63.9632,46.2164 C62.2722,43.9514 60.2292,41.6384 57.9072,39.3334" id="Fill-22" fill="#58585B"></path>
                <path d="M35.332,45.1673 C32.116,45.1673 29.499,42.5503 29.499,39.3343 C29.499,36.1173 32.116,33.5003 35.332,33.5003 C38.548,33.5003 41.165,36.1173 41.165,39.3343 C41.165,42.5503 38.548,45.1673 35.332,45.1673" id="Fill-23" fill="#006FE8"></path>
                <path d="M35.332,34.4578 C32.643,34.4578 30.456,36.6448 30.456,39.3338 C30.456,42.0228 32.643,44.2098 35.332,44.2098 C38.021,44.2098 40.208,42.0228 40.208,39.3338 C40.208,36.6448 38.021,34.4578 35.332,34.4578" id="Fill-24" fill="#F5F5F5"></path>
            </g>
        </g>
    </g>
</svg>