<?xml version="1.0" encoding="UTF-8"?>
<svg width="54px" height="54px" viewBox="0 0 54 54" version="1.1" xmlns="http://www.w3.org/2000/svg" xmlns:xlink="http://www.w3.org/1999/xlink">
    <!-- Generator: Sketch 53.2 (72643) - https://sketchapp.com -->
    <title>Group 20 Copy</title>
    <desc>Created with Sketch.</desc>
    <defs>
        <polygon id="path-1" points="0.0004 0 54 0 54 53.9996 0.0004 53.9996"></polygon>
    </defs>
    <g id="RenProject" stroke="none" stroke-width="1" fill="none" fill-rule="evenodd">
        <g id="RenVM" transform="translate(-868.000000, -1194.000000)">
            <g id="Group-20-Copy" transform="translate(868.000000, 1194.000000)">
                <rect id="Rectangle-Copy-2" fill="#006FE8" fill-rule="nonzero" x="0" y="0" width="54" height="54" rx="18"></rect>
                <g id="Group-14">
                    <g id="Group-3">
                        <mask id="mask-2" fill="white">
                            <use xlink:href="#path-1"></use>
                        </mask>
                        <g id="Clip-2"></g>
                        <path d="M36.0004,53.9996 L18.0004,53.9996 C8.0594,53.9996 0.0004,45.9406 0.0004,35.9996 L0.0004,17.9996 C0.0004,8.0586 8.0594,-0.0004 18.0004,-0.0004 L36.0004,-0.0004 C45.9404,-0.0004 54.0004,8.0586 54.0004,17.9996 L54.0004,35.9996 C54.0004,45.9406 45.9404,53.9996 36.0004,53.9996" id="Fill-1" fill="#006FE8" mask="url(#mask-2)"></path>
                    </g>
                    <path d="M7.5317,39.3746 C7.5767,39.3526 7.5577,39.3106 7.5597,39.2776 C7.5897,38.6866 7.6317,38.0966 7.7047,37.5086 C7.8287,36.4996 8.0287,35.5056 8.3077,34.5276 C9.0357,31.9836 10.2297,29.6796 11.8907,27.6216 C13.5507,25.5646 15.5387,23.8976 17.8657,22.6416 C19.5667,21.7246 21.3667,21.0826 23.2607,20.7096 C23.9857,20.5676 24.7167,20.4696 25.4527,20.4116 C26.0977,20.3606 26.7447,20.3386 27.3917,20.3526 C29.6297,20.3996 31.7957,20.8156 33.8947,21.5906 C34.1127,21.6716 34.2097,21.7686 34.2307,22.0106 C34.2967,22.7646 34.3357,23.5196 34.3197,24.2766 C34.3177,24.3986 34.2527,24.3266 34.2157,24.3096 C33.5247,23.9906 32.8157,23.7176 32.0897,23.4956 C31.0777,23.1856 30.0467,22.9686 28.9947,22.8456 C28.3407,22.7696 27.6837,22.7276 27.0267,22.7286 C24.2887,22.7346 21.6987,23.3576 19.2637,24.6136 C17.7767,25.3816 16.4297,26.3506 15.2267,27.5156 C13.2017,29.4746 11.7367,31.7896 10.8307,34.4576 C10.4837,35.4796 10.2407,36.5276 10.0957,37.5986 C10.0297,38.0906 9.9837,38.5846 9.9557,39.0816 C9.9507,39.1556 9.9967,39.1666 10.0407,39.1876 C10.6767,39.5096 11.3307,39.7906 12.0027,40.0306 C13.1137,40.4266 14.2557,40.7026 15.4237,40.8616 C16.3197,40.9836 17.2197,41.0376 18.1247,41.0146 C20.1357,40.9636 22.0847,40.5846 23.9637,39.8586 C24.0227,39.8346 24.0737,39.8186 24.1357,39.8666 C24.4967,40.1456 24.8717,40.4066 25.2547,40.6566 C25.6337,40.9046 26.0207,41.1386 26.4167,41.3616 C26.4117,41.4056 26.3707,41.4056 26.3447,41.4186 C24.7657,42.1866 23.1157,42.7376 21.3897,43.0656 C20.4377,43.2466 19.4777,43.3596 18.5087,43.3976 C18.3897,43.4016 18.2677,43.3956 18.1527,43.4346 L17.3407,43.4346 C17.3167,43.4106 17.2857,43.4176 17.2577,43.4166 C17.0127,43.4006 16.7687,43.3866 16.5247,43.3726 C15.7237,43.3296 14.9307,43.2276 14.1447,43.0776 C11.9607,42.6626 9.9077,41.8946 7.9827,40.7816 C7.8357,40.6956 7.6937,40.5976 7.5317,40.5376 L7.5317,39.3746 Z" id="Fill-4" fill="#82B8F2"></path>
                    <path d="M16.8139,22.4659 C16.8369,22.2069 16.8559,21.9459 16.8859,21.6859 C16.9979,20.7119 17.1729,19.7499 17.4269,18.8029 C18.1619,16.0569 19.4239,13.5799 21.2299,11.3829 C22.7739,9.5029 24.6099,7.9689 26.7209,6.7629 C26.8469,6.6909 26.9739,6.5659 27.1009,6.5659 C27.2239,6.5649 27.3469,6.6939 27.4699,6.7639 C29.1739,7.7379 30.7059,8.9329 32.0449,10.3669 C34.1279,12.5969 35.6069,15.1759 36.4959,18.0939 C36.8319,19.1969 37.0659,20.3209 37.2039,21.4659 C37.3079,22.3349 37.3609,23.2059 37.3469,24.0799 C37.3039,26.7809 36.7399,29.3679 35.6289,31.8319 C34.5469,34.2319 33.0399,36.3269 31.1219,38.1279 C30.8009,38.4279 30.4699,38.7159 30.1299,38.9939 C30.0899,39.0279 30.0589,39.0409 30.0049,39.0189 C29.2379,38.7009 28.4989,38.3279 27.7849,37.9039 C27.6979,37.8519 27.7309,37.8289 27.7889,37.7879 C28.6379,37.1799 29.4259,36.4999 30.1479,35.7449 C32.1999,33.5999 33.6199,31.0979 34.3899,28.2309 C34.6709,27.1839 34.8469,26.1189 34.9219,25.0369 C35.0109,23.7559 34.9649,22.4809 34.7669,21.2119 C34.2509,17.9029 32.9059,14.9749 30.7099,12.4429 C29.6839,11.2579 28.5059,10.2449 27.1969,9.3849 C27.1239,9.3369 27.0719,9.3309 26.9949,9.3829 C24.0059,11.3599 21.8279,14.0049 20.4489,17.3089 C19.9419,18.5239 19.5849,19.7819 19.3769,21.0819 C19.3639,21.1699 19.3369,21.2279 19.2429,21.2669 C18.4279,21.6039 17.6429,22.0019 16.8819,22.4479 C16.8649,22.4589 16.8479,22.4779 16.8139,22.4659" id="Fill-6" fill="#82B8F2"></path>
                    <path d="M19.2182,25.3605 C19.3082,26.3365 19.4782,27.2875 19.7322,28.2235 C20.3762,30.6025 21.4792,32.7465 23.0462,34.6485 C24.6362,36.5765 26.5632,38.0765 28.8132,39.1615 C30.3222,39.8895 31.9072,40.3835 33.5632,40.6515 C34.6562,40.8275 35.7562,40.9005 36.8622,40.8615 C39.0972,40.7825 41.2382,40.2885 43.2772,39.3665 C43.5162,39.2575 43.7512,39.1395 43.9892,39.0255 C44.0312,39.0045 44.0642,38.9855 44.0602,38.9215 C44.0192,38.2935 43.9532,37.6695 43.8522,37.0485 C43.6732,35.9455 43.3912,34.8705 43.0012,33.8245 C42.1982,31.6675 41.0102,29.7485 39.4312,28.0715 C38.9512,27.5625 38.4422,27.0855 37.9032,26.6415 C37.8362,26.5865 37.8152,26.5395 37.8262,26.4495 C37.8952,25.9425 37.9482,25.4335 37.9692,24.9225 C37.9852,24.5355 37.9982,24.1495 38.0142,23.7435 C38.1852,23.8645 38.3502,23.9775 38.5102,24.0955 C41.1212,26.0185 43.1362,28.4375 44.5422,31.3605 C45.3502,33.0385 45.8992,34.8005 46.1982,36.6395 C46.3262,37.4225 46.4082,38.2105 46.4442,39.0035 C46.4632,39.4345 46.4552,39.8655 46.4682,40.2975 C46.4692,40.3565 46.4472,40.3875 46.3982,40.4175 C44.6082,41.4815 42.7132,42.2875 40.6822,42.7645 C39.8142,42.9685 38.9362,43.1135 38.0472,43.1965 C37.2852,43.2685 36.5222,43.2975 35.7582,43.2775 C33.9402,43.2285 32.1622,42.9315 30.4262,42.3875 C27.9712,41.6195 25.7522,40.4165 23.7782,38.7685 C21.8842,37.1875 20.3522,35.3085 19.1632,33.1485 C18.1552,31.3125 17.4662,29.3615 17.0832,27.3025 C17.0582,27.1665 17.0372,27.0285 17.0122,26.8925 C17.0012,26.8325 17.0172,26.7925 17.0682,26.7535 C17.7372,26.2405 18.4392,25.7795 19.1772,25.3745 C19.1862,25.3695 19.1972,25.3675 19.2182,25.3605" id="Fill-8" fill="#82B8F2"></path>
                    <path d="M27.4457,27.5738 C26.3467,27.5728 25.4527,28.4608 25.4497,29.5548 C25.4477,30.6478 26.3437,31.5478 27.4357,31.5478 C28.5327,31.5488 29.4297,30.6578 29.4317,29.5648 C29.4347,28.4708 28.5417,27.5748 27.4457,27.5738 M27.4397,33.9328 C24.9407,33.9148 23.0537,31.8788 23.0707,29.5278 C23.0887,27.1298 25.0557,25.1798 27.4697,25.1888 C29.8757,25.1968 31.8207,27.1718 31.8087,29.5968 C31.7987,31.9258 29.9107,33.9158 27.4397,33.9328" id="Fill-10" fill="#0053AE"></path>
                    <path d="M27.0873,27.2159 C25.9883,27.2149 25.0943,28.1029 25.0923,29.1969 C25.0893,30.2899 25.9853,31.1889 27.0783,31.1899 C28.1753,31.1909 29.0713,30.2989 29.0743,29.2069 C29.0763,28.1119 28.1833,27.2169 27.0873,27.2159 M27.0813,33.5739 C24.5833,33.5559 22.6953,31.5209 22.7123,29.1699 C22.7303,26.7709 24.6973,24.8219 27.1113,24.8299 C29.5173,24.8389 31.4623,26.8139 31.4503,29.2389 C31.4403,31.5679 29.5523,33.5579 27.0813,33.5739" id="Fill-12" fill="#FFFFFF"></path>
                </g>
            </g>
        </g>
    </g>
</svg>