<svg width="12" height="17" viewBox="0 0 12 17" fill="none" xmlns="http://www.w3.org/2000/svg">
<path fill-rule="evenodd" clip-rule="evenodd" d="M8.94527 2.89697H9.28813V3.58269H8.94527H5.40047H5.05762V2.89697H5.40047H8.94527Z" fill="#006FE8"/>
<path fill-rule="evenodd" clip-rule="evenodd" d="M8.94485 5.64673H9.28771V6.33244H8.94485H2.53719H2.19434V5.64673H2.53719H8.94485Z" fill="#006FE8"/>
<path fill-rule="evenodd" clip-rule="evenodd" d="M8.94485 8.38965H9.28771V9.07536H8.94485H2.53719H2.19434V8.38965H2.53719H8.94485Z" fill="#006FE8"/>
<path fill-rule="evenodd" clip-rule="evenodd" d="M8.94485 11.1326H9.28771V11.8183H8.94485H2.53719H2.19434V11.1326H2.53719H8.94485Z" fill="#006FE8"/>
<path fill-rule="evenodd" clip-rule="evenodd" d="M8.26291 13.8755H8.60576V14.5612H8.26291H2.53719H2.19434V13.8755H2.53719H8.26291Z" fill="#006FE8"/>
<mask id="mask0" mask-type="alpha" maskUnits="userSpaceOnUse" x="0" y="0" width="12" height="17">
<path fill-rule="evenodd" clip-rule="evenodd" d="M0 0.000244141H11.7187V16.7725H0V0.000244141Z" fill="white"/>
</mask>
<g mask="url(#mask0)">
<path fill-rule="evenodd" clip-rule="evenodd" d="M11.0331 15.0582C11.0331 15.329 10.9265 15.59 10.7314 15.785C10.5394 15.9774 10.2789 16.0868 10.0046 16.0868H9.52217H2.25909H1.71429C1.44 16.0868 1.17943 15.9774 0.987429 15.785C0.792 15.59 0.685714 15.329 0.685714 15.0582V4.6799H2.53714C2.99314 4.6799 3.42857 4.49819 3.75086 4.1759C4.07314 3.85739 4.25143 3.41819 4.25143 2.96562V0.685958H10.0046C10.2789 0.685958 10.5394 0.79533 10.7349 0.98733C10.9265 1.17967 11.0331 1.44367 11.0331 1.71453V15.0582ZM3.56571 1.14504V2.96562C3.56571 3.23682 3.45943 3.50082 3.264 3.69282C3.072 3.88482 2.81143 3.99419 2.53714 3.99419H0.809829L3.56571 1.14504ZM11.2183 0.503901C10.896 0.181616 10.4606 0.000244141 10.0046 0.000244141H4.05943H3.71657V0.00332985L3.47623 0.25053L0.24 3.60024L0 3.84367V3.99419V4.18653V4.6799V15.0582C0 15.5108 0.178286 15.9465 0.500571 16.2685C0.822857 16.5911 1.25829 16.7725 1.71429 16.7725H9.52217H10.0046C10.4606 16.7725 10.896 16.5911 11.2183 16.2685C11.5402 15.9465 11.7189 15.5108 11.7189 15.0582V1.71453C11.7189 1.26162 11.5402 0.826187 11.2183 0.503901Z" fill="#006FE8"/>
</g>
</svg>
