<?xml version="1.0" encoding="utf-8"?>
<!-- Generator: Adobe Illustrator 21.0.2, SVG Export Plug-In . SVG Version: 6.00 Build 0)  -->
<svg version="1.1" id="Layer_1" xmlns="http://www.w3.org/2000/svg" xmlns:xlink="http://www.w3.org/1999/xlink" x="0px" y="0px"
	 viewBox="0 0 247.1 167.5" style="enable-background:new 0 0 247.1 167.5;" xml:space="preserve">
<style type="text/css">
	.st0{fill:none;stroke:url(#SVGID_1_);stroke-miterlimit:10;}
	.st1{fill:#E1E1E1;}
	.st2{fill:none;}
	.st3{fill:url(#SVGID_2_);}
	.st4{fill:#006FE8;}
	.st5{fill:#F5F5F5;}
	.st6{fill:#0048F6;}
	.st7{fill:#FFFFFF;}
	.st8{fill:#006FE8;stroke:#DCDCDC;stroke-width:0.3;stroke-linecap:round;stroke-miterlimit:10;stroke-dasharray:0.5,1;}
	.st9{fill:#F5F5F5;stroke:#DCDCDC;stroke-width:0.3;stroke-linecap:round;stroke-miterlimit:10;stroke-dasharray:0.5,1;}
	.st10{fill:#E1E1E1;stroke:#DCDCDC;stroke-width:0.3;stroke-linecap:round;stroke-miterlimit:10;stroke-dasharray:0.5,1;}
	.st11{fill:url(#SVGID_3_);}
	.st12{fill:url(#SVGID_4_);}
	.st13{fill:url(#SVGID_5_);}
	.st14{fill:url(#SVGID_6_);}
	.st15{fill:url(#SVGID_7_);}
</style>
<title>Asset 19</title>
<g id="Layer_2">
	<g id="Layer_1-2">
		
			<linearGradient id="SVGID_1_" gradientUnits="userSpaceOnUse" x1="52.23" y1="-102.505" x2="53.23" y2="-102.505" gradientTransform="matrix(1 0 0 -1 0 26)">
			<stop  offset="0" style="stop-color:#FAFAFA"/>
			<stop  offset="1" style="stop-color:#FAFAFA"/>
		</linearGradient>
		<line class="st0" x1="52.7" y1="118.5" x2="52.7" y2="138.5"/>
		<path class="st1" d="M78.6,164.5l159.3-91.6c5.7-3.3,9.2-9.3,9.2-15.9v-9.2L78.1,145c-6.6,3.8-14.6,3.8-21.2,0L0,112v9.2
			c0,6.5,3.5,12.6,9.1,15.9l47.3,27.4C63.3,168.5,71.7,168.5,78.6,164.5z"/>
		<polyline class="st1" points="247.1,47.8 247.1,45.7 245.3,49 		"/>
		<polygon class="st1" points="0,113.9 0,109.9 2.1,111.1 1.9,114.8 		"/>
		<path class="st2" d="M57.1,145L1.8,113c-1.7-1-2.3-3.2-1.3-4.9c0.3-0.5,0.8-1,1.3-1.3l172-98.9c3.4-2,7.7-2,11.1,0l60.4,34.8
			c1.7,1,2.3,3.2,1.3,4.9c-0.3,0.5-0.8,1-1.3,1.3l-167,96C71.7,148.7,63.7,148.8,57.1,145z"/>
		<line class="st2" x1="9.1" y1="137.1" x2="56.4" y2="164.5"/>
		<path class="st2" d="M57.1,158.6L1.8,126.7c-1.7-1-2.3-3.2-1.3-4.9c0.3-0.5,0.8-1,1.3-1.3l172-98.9"/>
		
			<linearGradient id="SVGID_2_" gradientUnits="userSpaceOnUse" x1="4.783132e-05" y1="-51.1194" x2="247.0499" y2="-51.1194" gradientTransform="matrix(1 0 0 -1 0 26)">
			<stop  offset="0" style="stop-color:#FAFAFA"/>
			<stop  offset="1" style="stop-color:#FAFAFA"/>
		</linearGradient>
		<path class="st3" d="M57.1,145L1.8,113c-1.7-1-2.3-3.2-1.3-4.9c0.3-0.5,0.8-1,1.3-1.3l172-98.9c3.4-2,7.7-2,11.1,0l60.4,34.8
			c1.7,1,2.3,3.2,1.3,4.9c-0.3,0.5-0.8,1-1.3,1.3l-167,96C71.7,148.7,63.7,148.8,57.1,145z"/>
		<path class="st4" d="M78.5,90.5c-5.6,3.2-14.8,3.2-20.4,0s-5.6-8.5,0-11.8s14.8-3.2,20.4,0S84.2,87.2,78.5,90.5z"/>
		<path class="st4" d="M76.2,88.7c-4.8,2.4-10.5,2.4-15.2,0c-4.2-2.4-4.2-6.4,0-8.8c4.8-2.4,10.5-2.4,15.2,0
			C80.4,82.4,80.4,86.3,76.2,88.7z"/>
		<path class="st4" d="M98.2,123.2c-16.5,9.5-43.1,9.5-59.6,0s-16.5-24.9,0-34.4s43.1-9.5,59.6,0S114.6,113.7,98.2,123.2z"/>
		<path class="st1" d="M98.2,121.4c-16.5,9.5-43.1,9.5-59.6,0s-16.5-24.9,0-34.4s43.1-9.5,59.6,0S114.6,111.9,98.2,121.4z"/>
		<path class="st5" d="M27.8,86.1v15.3l0,0c0,6,3.9,12,11.9,16.6c15.8,9.1,41.6,9.1,57.4,0c7.9-4.5,11.8-10.5,11.9-16.4l0,0V86.1
			H27.8z"/>
		<path class="st1" d="M97.1,101.8c-15.8,9.1-41.5,9.1-57.4,0s-15.8-24,0-33.1s41.5-9.1,57.4,0S112.9,92.6,97.1,101.8z"/>
		<path class="st4" d="M68.3,104.6c-9.6,0-19.2-2.1-26.6-6.4c-7.1-4.1-11-9.6-11-15.4s3.9-11.3,11-15.4c14.7-8.5,38.5-8.5,53.2,0
			c7.1,4.1,11,9.6,11,15.4s-3.9,11.3-11,15.4l-0.1-0.1l0.1,0.1C87.6,102.5,77.9,104.6,68.3,104.6z"/>
		<path class="st4" d="M68.3,61.3c-9.6,0-19.2,2.1-26.5,6.3c-7,4.1-10.9,9.5-10.9,15.2S34.8,94,41.9,98.1c14.6,8.4,38.3,8.4,52.9,0
			c7-4.1,10.9-9.5,10.9-15.2s-3.9-11.1-10.9-15.2C87.5,63.4,77.9,61.3,68.3,61.3z"/>
		<path class="st6" d="M98.3,104.9c0,0.2,0.2,0.3,0.3,0.2c0.2-0.1,0.3-0.4,0.3-0.6c0-0.2-0.2-0.3-0.3-0.2
			C98.5,104.5,98.3,104.7,98.3,104.9z"/>
		<path class="st6" d="M95.6,106.5c0,0.2,0.2,0.3,0.3,0.2c0.2-0.1,0.3-0.4,0.3-0.6c0-0.2-0.2-0.3-0.3-0.2
			C95.8,106,95.6,106.2,95.6,106.5z"/>
		<path class="st6" d="M98.3,107.9c0,0.2,0.2,0.3,0.3,0.2c0.2-0.1,0.3-0.4,0.3-0.6c0-0.2-0.2-0.3-0.3-0.2
			C98.5,107.4,98.3,107.6,98.3,107.9z"/>
		<path class="st6" d="M95.6,109.4c0,0.2,0.2,0.3,0.3,0.2c0.2-0.1,0.3-0.4,0.3-0.6c0-0.2-0.2-0.3-0.3-0.2
			C95.8,109,95.6,109.2,95.6,109.4z"/>
		<path class="st7" d="M90.2,117.9L90.2,117.9c0.4-0.2,0.5-0.5,0.5-0.9v-9.3c0-0.4-0.2-0.5-0.5-0.4h-0.1c-0.3,0.2-0.5,0.5-0.5,0.9
			v9.3C89.7,117.9,89.9,118,90.2,117.9z"/>
		<path class="st6" d="M90.2,117.9L90.2,117.9c0.4-0.2,0.5-0.5,0.5-0.9v-2.8c0-0.4-0.2-0.5-0.5-0.4h-0.1c-0.3,0.2-0.5,0.5-0.5,0.9
			v2.8C89.7,117.9,89.9,118,90.2,117.9z"/>
		<path class="st8" d="M169.1,42.5c-5.6,3.2-14.8,3.2-20.4,0s-5.6-8.5,0-11.8s14.8-3.2,20.4,0S174.7,39.3,169.1,42.5z"/>
		<path class="st8" d="M166.8,40.8c-4.8,2.4-10.5,2.4-15.2,0c-4.2-2.4-4.2-6.4,0-8.8c4.8-2.4,10.5-2.4,15.2,0
			C171,34.4,171,38.3,166.8,40.8z"/>
		<path class="st9" d="M188.7,75.3c-16.5,9.5-43.1,9.5-59.6,0s-16.5-24.9,0-34.4s43.1-9.5,59.6,0S205.2,65.8,188.7,75.3z"/>
		<path class="st10" d="M188.7,73.5c-16.5,9.5-43.1,9.5-59.6,0s-16.5-24.9,0-34.4s43.1-9.5,59.6,0S205.2,64,188.7,73.5z"/>
		<path class="st5" d="M118.3,38.2v15.3l0,0c0,6,3.9,12,11.9,16.6c15.9,9.1,41.6,9.1,57.4,0c7.9-4.6,11.8-10.5,11.9-16.4l0,0V38.2
			H118.3z"/>
		<path class="st10" d="M187.6,53.8c-15.8,9.1-41.5,9.1-57.4,0s-15.8-24,0-33.1s41.5-9.1,57.4,0S203.4,44.7,187.6,53.8z"/>
		<path class="st5" d="M158.9,56.7c-9.6,0-19.2-2.1-26.6-6.4c-7.1-4.1-11-9.6-11-15.4s3.9-11.3,11-15.4c14.7-8.5,38.5-8.5,53.2,0
			c7.1,4.1,11,9.6,11,15.4s-3.9,11.3-11,15.4l-0.1-0.1l0.1,0.1C178.1,54.6,168.5,56.7,158.9,56.7z"/>
		
			<linearGradient id="SVGID_3_" gradientUnits="userSpaceOnUse" x1="188.87" y1="-30.795" x2="189.57" y2="-30.795" gradientTransform="matrix(1 0 0 -1 0 26)">
			<stop  offset="0" style="stop-color:#FAFAFA"/>
			<stop  offset="1" style="stop-color:#FAFAFA"/>
		</linearGradient>
		<path class="st11" d="M188.9,57c0,0.2,0.2,0.3,0.4,0.2c0.2-0.1,0.3-0.4,0.4-0.6c0-0.2-0.2-0.3-0.4-0.2
			C189,56.5,188.9,56.8,188.9,57z"/>
		
			<linearGradient id="SVGID_4_" gradientUnits="userSpaceOnUse" x1="186.16" y1="-32.345" x2="186.87" y2="-32.345" gradientTransform="matrix(1 0 0 -1 0 26)">
			<stop  offset="0" style="stop-color:#FAFAFA"/>
			<stop  offset="1" style="stop-color:#FAFAFA"/>
		</linearGradient>
		<path class="st12" d="M186.2,58.6c0,0.2,0.2,0.3,0.4,0.2c0.2-0.1,0.3-0.4,0.4-0.6c0-0.2-0.2-0.3-0.4-0.2
			C186.3,58.1,186.2,58.3,186.2,58.6z"/>
		
			<linearGradient id="SVGID_5_" gradientUnits="userSpaceOnUse" x1="188.87" y1="-33.735" x2="189.57" y2="-33.735" gradientTransform="matrix(1 0 0 -1 0 26)">
			<stop  offset="0" style="stop-color:#FAFAFA"/>
			<stop  offset="1" style="stop-color:#FAFAFA"/>
		</linearGradient>
		<path class="st13" d="M188.9,59.9c0,0.2,0.2,0.3,0.4,0.2c0.2-0.1,0.3-0.4,0.4-0.6c0-0.2-0.2-0.3-0.4-0.2
			C189,59.5,188.9,59.7,188.9,59.9z"/>
		
			<linearGradient id="SVGID_6_" gradientUnits="userSpaceOnUse" x1="186.16" y1="-35.295" x2="186.87" y2="-35.295" gradientTransform="matrix(1 0 0 -1 0 26)">
			<stop  offset="0" style="stop-color:#FAFAFA"/>
			<stop  offset="1" style="stop-color:#FAFAFA"/>
		</linearGradient>
		<path class="st14" d="M186.2,61.5c0,0.2,0.2,0.3,0.4,0.2c0.2-0.1,0.3-0.4,0.4-0.6c0-0.2-0.2-0.3-0.4-0.2
			C186.3,61,186.2,61.3,186.2,61.5z"/>
		
			<linearGradient id="SVGID_7_" gradientUnits="userSpaceOnUse" x1="180.29" y1="-38.655" x2="181.3" y2="-38.655" gradientTransform="matrix(1 0 0 -1 0 26)">
			<stop  offset="0" style="stop-color:#FAFAFA"/>
			<stop  offset="1" style="stop-color:#FAFAFA"/>
		</linearGradient>
		<path class="st15" d="M180.8,69.9L180.8,69.9c0.4-0.2,0.5-0.5,0.5-0.9v-9.3c0-0.4-0.2-0.5-0.5-0.4h-0.1c-0.3,0.2-0.5,0.5-0.5,0.9
			v9.3C180.3,69.9,180.5,70.1,180.8,69.9z"/>
		<path class="st5" d="M180.8,69.9L180.8,69.9c0.4-0.2,0.5-0.5,0.5-0.9v-2.8c0-0.4-0.2-0.5-0.5-0.4h-0.1c-0.3,0.2-0.5,0.5-0.5,0.9
			v2.8C180.3,69.9,180.5,70.1,180.8,69.9z"/>
	</g>
</g>
</svg>
