<svg xmlns="http://www.w3.org/2000/svg" xmlns:xlink="http://www.w3.org/1999/xlink" viewBox="0 0 247.09 161.03"><defs><style>.cls-1,.cls-9{fill:#e1e1e1;}.cls-2{fill:none;}.cls-3{fill:url(#linear-gradient);}.cls-4{fill:url(#linear-gradient-2);}.cls-5{fill:#a7a9ac;}.cls-6{fill:#006fe8;}.cls-7{fill:#0048f6;}.cls-8{fill:#f5f5f5;}.cls-9{stroke:#e1e1e1;stroke-miterlimit:10;stroke-width:0.82px;}</style><linearGradient id="linear-gradient" y1="93.92" x2="247.09" y2="93.92" gradientUnits="userSpaceOnUse"><stop offset="0.05" stop-color="#00377a"/><stop offset="1" stop-color="#0085e2"/></linearGradient><linearGradient id="linear-gradient-2" y1="70.69" x2="247.09" y2="70.69" gradientUnits="userSpaceOnUse"><stop offset="0.05" stop-color="#005dcd"/><stop offset="1" stop-color="#17a1ff"/></linearGradient></defs><title>Asset 20</title><g id="Layer_2" data-name="Layer 2"><g id="Layer_1-2" data-name="Layer 1"><path class="cls-1" d="M78.59,158.07l159.3-91.65a18.33,18.33,0,0,0,9.19-15.89V41.33l-169,97.21a21.2,21.2,0,0,1-21.21,0L0,105.53v9.25a18.33,18.33,0,0,0,9.14,15.86L56.41,158A22.18,22.18,0,0,0,78.59,158.07Z"/><polyline class="cls-1" points="247.09 41.33 247.09 39.22 245.29 42.53"/><polygon class="cls-1" points="0 107.42 0 103.48 2.13 104.71 1.88 108.34 0 107.42"/><path class="cls-2" d="M57.13,138.52,1.79,106.61a3.58,3.58,0,0,1,0-6.2l172-98.93a11.08,11.08,0,0,1,11.08,0L245.3,36.33a3.58,3.58,0,0,1,0,6.2l-167,96A21.18,21.18,0,0,1,57.13,138.52Z"/><line class="cls-1" x1="9.14" y1="130.64" x2="56.41" y2="158.03"/><path class="cls-2" d="M57.13,152.19,1.79,120.28a3.58,3.58,0,0,1,0-6.2l172-98.93"/><path class="cls-3" d="M247.09,39.22v9.37l-1.8,1.18-167,96a21.18,21.18,0,0,1-21.17,0L1.79,113.85,0,112.74v-9.26"/><path class="cls-4" d="M57.13,138.52,1.79,106.61a3.58,3.58,0,0,1,0-6.2l172-98.93a11.08,11.08,0,0,1,11.08,0L245.3,36.33a3.58,3.58,0,0,1,0,6.2l-167,96A21.18,21.18,0,0,1,57.13,138.52Z"/><path class="cls-1" d="M102.15,95.56a.55.55,0,0,0-.28-.45L77.69,81.38a1.73,1.73,0,0,0-1.73,0L49.1,96.82a.55.55,0,0,0-.28.48h0v1.76a2.86,2.86,0,0,0,1.43,2.48l22.14,12.57a3.46,3.46,0,0,0,3.46,0l24.87-14.31a2.86,2.86,0,0,0,1.43-2.48V95.56Z"/><path class="cls-5" d="M75.85,114.11l24.87-14.31a2.86,2.86,0,0,0,1.43-2.48V95.89L75.78,111.06a3.31,3.31,0,0,1-3.31,0L48.82,97.62v1.44a2.86,2.86,0,0,0,1.43,2.48l22.14,12.57A3.46,3.46,0,0,0,75.85,114.11Z"/><polyline class="cls-1" points="102.16 95.89 102.16 95.56 101.88 96.08"/><polygon class="cls-1" points="48.82 97.91 48.82 97.3 49.15 97.49 49.12 98.06 48.82 97.91"/><path class="cls-1" d="M72.5,111.06,49.1,97.78a.56.56,0,0,1,0-1L76,81.37a1.73,1.73,0,0,1,1.73,0l24.19,13.73a.56.56,0,0,1,0,1l-26.07,15A3.31,3.31,0,0,1,72.5,111.06Z"/><path class="cls-1" d="M203.59,37.12a.55.55,0,0,0-.28-.45L179.12,22.93a1.73,1.73,0,0,0-1.73,0L150.53,38.37a.55.55,0,0,0-.28.48h0v1.76a2.86,2.86,0,0,0,1.43,2.48l22.14,12.57a3.46,3.46,0,0,0,3.46,0l24.87-14.31a2.86,2.86,0,0,0,1.43-2.48V37.11Z"/><path class="cls-5" d="M177.29,55.67l24.87-14.31a2.86,2.86,0,0,0,1.43-2.48V37.44L177.21,52.62a3.31,3.31,0,0,1-3.31,0L150.25,39.17v1.44a2.86,2.86,0,0,0,1.43,2.48l22.14,12.57A3.46,3.46,0,0,0,177.29,55.67Z"/><polyline class="cls-1" points="203.59 37.44 203.59 37.11 203.31 37.63"/><polygon class="cls-1" points="150.25 39.47 150.25 38.85 150.59 39.04 150.55 39.61 150.25 39.47"/><path class="cls-1" d="M173.94,52.61l-23.4-13.28a.56.56,0,0,1,0-1l26.85-15.44a1.73,1.73,0,0,1,1.73,0l24.19,13.73a.56.56,0,0,1,0,1l-26.07,15A3.31,3.31,0,0,1,173.94,52.61Z"/><path class="cls-6" d="M72.1,76.35,83.45,69.8c1.16-.67,2.11-.13,2.11,1.21v.63l1.38.12-1.38,1.71v.63a4.68,4.68,0,0,1-2.11,3.65L72.1,84.3C70.94,85,70,84.43,70,83.09V80A4.68,4.68,0,0,1,72.1,76.35Z"/><path class="cls-7" d="M73.72,77.22l11.35-6.55c1.16-.67,2.11-.13,2.11,1.21v.63l1.38.12-1.38,1.71V75a4.68,4.68,0,0,1-2.11,3.65L73.72,85.17c-1.16.67-2.11.13-2.11-1.21V80.87A4.68,4.68,0,0,1,73.72,77.22Z"/><path class="cls-8" d="M77.2,77.89,84,73.94a.41.41,0,0,0,.17-.33h0c0-.13-.08-.19-.17-.13L77.2,77.43a.41.41,0,0,0-.17.33h0C77,77.89,77.11,77.94,77.2,77.89Z"/><path class="cls-8" d="M75.24,79l1.18-.68a.44.44,0,0,0,.2-.35h0c0-.13-.09-.18-.2-.11l-1.18.68a.44.44,0,0,0-.2.35h0C75,79,75.13,79.09,75.24,79Z"/><path class="cls-8" d="M82,76.19l-6.84,3.95a.41.41,0,0,0-.17.33h0c0,.13.08.19.17.13L82,76.65a.41.41,0,0,0,.17-.33h0C82.22,76.19,82.14,76.13,82,76.19Z"/><path class="cls-8" d="M84,75.05l-1.18.68a.44.44,0,0,0-.2.35h0c0,.13.09.18.2.11L84,75.51a.44.44,0,0,0,.2-.35h0C84.21,75,84.12,75,84,75.05Z"/><path class="cls-8" d="M77.2,81,84,77a.41.41,0,0,0,.17-.33h0c0-.13-.08-.19-.17-.13L77.2,80.54a.41.41,0,0,0-.17.33h0C77,81,77.11,81.05,77.2,81Z"/><path class="cls-8" d="M75.24,82.13l1.18-.68a.44.44,0,0,0,.2-.35h0c0-.13-.09-.18-.2-.11l-1.18.68A.44.44,0,0,0,75,82h0C75,82.14,75.13,82.19,75.24,82.13Z"/><path class="cls-7" d="M67.1,94.18v-.63a4.68,4.68,0,0,1,2.11-3.65l11.35-6.55c1.16-.67,2.11-.13,2.11,1.21v3.09a4.68,4.68,0,0,1-2.11,3.65L69.21,97.85c-1.16.67-2.11.13-2.11-1.21V96l-1.38-.12Z"/><path class="cls-8" d="M72.45,90.68l6.84-3.95a.41.41,0,0,0,.17-.33h0c0-.13-.08-.19-.17-.13l-6.84,3.95a.41.41,0,0,0-.17.33h0C72.28,90.68,72.36,90.74,72.45,90.68Z"/><path class="cls-8" d="M70.49,91.82l1.18-.68a.44.44,0,0,0,.2-.35h0c0-.13-.09-.18-.2-.11l-1.18.68a.44.44,0,0,0-.2.35h0C70.29,91.83,70.38,91.88,70.49,91.82Z"/><path class="cls-8" d="M77.29,89l-6.84,3.95a.41.41,0,0,0-.17.33h0c0,.13.08.19.17.13l6.84-3.95a.41.41,0,0,0,.17-.33h0C77.47,89,77.39,88.93,77.29,89Z"/><path class="cls-8" d="M79.26,87.85l-1.18.68a.44.44,0,0,0-.2.35h0c0,.13.09.18.2.11l1.18-.68a.44.44,0,0,0,.2-.35h0C79.46,87.83,79.37,87.78,79.26,87.85Z"/><path class="cls-8" d="M72.45,93.79l6.84-3.95a.41.41,0,0,0,.17-.33h0c0-.13-.08-.19-.17-.13l-6.84,3.95a.41.41,0,0,0-.17.33h0C72.28,93.79,72.36,93.84,72.45,93.79Z"/><path class="cls-8" d="M70.49,94.93l1.18-.68a.44.44,0,0,0,.2-.35h0c0-.13-.09-.18-.2-.11l-1.18.68a.44.44,0,0,0-.2.35h0C70.29,94.94,70.38,95,70.49,94.93Z"/><path class="cls-6" d="M174.73,20.24,185.55,14c1.11-.64,2-.12,2,1.15v.6l1.32.11-1.32,1.64v.6a4.46,4.46,0,0,1-2,3.48l-10.83,6.25c-1.11.64-2,.12-2-1.15v-3A4.46,4.46,0,0,1,174.73,20.24Z"/><path class="cls-7" d="M176.27,21.07l10.83-6.25c1.11-.64,2-.12,2,1.15v.6l1.32.11-1.32,1.64v.6a4.46,4.46,0,0,1-2,3.48l-10.83,6.25c-1.11.64-2,.12-2-1.15v-3A4.46,4.46,0,0,1,176.27,21.07Z"/><path class="cls-8" d="M179.59,21.71l6.52-3.77a.39.39,0,0,0,.16-.31h0c0-.12-.07-.18-.16-.12l-6.52,3.77a.39.39,0,0,0-.16.31h0C179.43,21.7,179.5,21.76,179.59,21.71Z"/><path class="cls-8" d="M177.71,22.79l1.13-.65a.42.42,0,0,0,.19-.33h0c0-.12-.09-.17-.19-.11l-1.13.65a.42.42,0,0,0-.19.33h0C177.52,22.8,177.61,22.85,177.71,22.79Z"/><path class="cls-8" d="M184.21,20.08l-6.52,3.77a.39.39,0,0,0-.16.31h0c0,.12.07.18.16.12l6.52-3.77a.39.39,0,0,0,.16-.31h0C184.38,20.08,184.3,20,184.21,20.08Z"/><path class="cls-8" d="M186.09,19l-1.13.65a.42.42,0,0,0-.19.33h0c0,.12.09.17.19.11l1.13-.65a.42.42,0,0,0,.19-.33h0C186.28,19,186.19,18.94,186.09,19Z"/><path class="cls-8" d="M179.59,24.67l6.52-3.77a.39.39,0,0,0,.16-.31h0c0-.12-.07-.18-.16-.12l-6.52,3.77a.39.39,0,0,0-.16.31h0C179.43,24.67,179.5,24.72,179.59,24.67Z"/><path class="cls-8" d="M177.71,25.75l1.13-.65a.42.42,0,0,0,.19-.33h0c0-.12-.09-.17-.19-.11l-1.13.65a.42.42,0,0,0-.19.33h0C177.52,25.76,177.61,25.81,177.71,25.75Z"/><path class="cls-7" d="M170,37.25v-.6a4.46,4.46,0,0,1,2-3.48l10.83-6.25c1.11-.64,2-.12,2,1.15v3a4.46,4.46,0,0,1-2,3.48L172,40.75c-1.11.64-2,.12-2-1.15V39l-1.32-.11Z"/><path class="cls-8" d="M175.06,33.91l6.52-3.77a.39.39,0,0,0,.16-.31h0c0-.12-.07-.18-.16-.12l-6.52,3.77a.39.39,0,0,0-.16.31h0C174.9,33.91,175,34,175.06,33.91Z"/><path class="cls-8" d="M173.18,35l1.13-.65a.42.42,0,0,0,.19-.33h0c0-.12-.09-.17-.19-.11l-1.13.65a.42.42,0,0,0-.19.33h0C173,35,173.08,35.06,173.18,35Z"/><path class="cls-8" d="M179.68,32.29l-6.52,3.77a.39.39,0,0,0-.16.31h0c0,.12.07.18.16.12l6.52-3.77a.39.39,0,0,0,.16-.31h0C179.84,32.29,179.77,32.24,179.68,32.29Z"/><path class="cls-8" d="M181.56,31.21l-1.13.65a.42.42,0,0,0-.19.33h0c0,.12.09.17.19.11l1.13-.65a.42.42,0,0,0,.19-.33h0C181.75,31.19,181.66,31.15,181.56,31.21Z"/><path class="cls-8" d="M175.06,36.88l6.52-3.77a.39.39,0,0,0,.16-.31h0c0-.12-.07-.18-.16-.12l-6.52,3.77a.39.39,0,0,0-.16.31h0C174.9,36.87,175,36.93,175.06,36.88Z"/><path class="cls-8" d="M173.18,38l1.13-.65a.42.42,0,0,0,.19-.33h0c0-.12-.09-.17-.19-.11l-1.13.65a.42.42,0,0,0-.19.33h0C173,38,173.08,38,173.18,38Z"/><line class="cls-9" x1="166.8" y1="43.7" x2="86.34" y2="90.24"/></g></g></svg>