<?xml version="1.0" encoding="UTF-8"?>
<svg width="88px" height="88px" viewBox="0 0 88 88" version="1.1" xmlns="http://www.w3.org/2000/svg" xmlns:xlink="http://www.w3.org/1999/xlink">
    <!-- Generator: Sketch 53.2 (72643) - https://sketchapp.com -->
    <title>Group 19</title>
    <desc>Created with Sketch.</desc>
    <defs>
        <circle id="path-1" cx="44" cy="44" r="42.9"></circle>
    </defs>
    <g id="RenProject" stroke="none" stroke-width="1" fill="none" fill-rule="evenodd">
        <g id="home" transform="translate(-1151.000000, -3529.000000)">
            <g id="Group-19" transform="translate(1151.000000, 3529.000000)">
                <mask id="mask-2" fill="white">
                    <use xlink:href="#path-1"></use>
                </mask>
                <use id="Oval" stroke="#006FE8" stroke-width="2.1" xlink:href="#path-1"></use>
                <path d="M88,44.1204785 C88,38.0194885 86.7201649,32.2092077 84.4188282,26.932544 C86.4381674,24.0713027 87.5454515,20.6803463 87.5454515,17.1518397 C87.5454515,7.69501258 79.7678405,0 70.2104898,0 C66.3877466,0 62.7631906,1.23600164 59.7667201,3.48850976 C54.868245,1.62036206 49.5556477,0.587271498 44.000493,0.587271498 C38.4887226,0.587271498 33.2155654,1.60377798 28.3506146,3.44265966 C25.3768221,1.24770805 21.7976224,0.0448745663 18.0369976,0.0448745663 C8.47866083,0.0448745663 0.701049872,7.73988715 0.701049872,17.1967142 C0.701049872,20.6237653 1.75114567,23.9347279 3.66794026,26.7452415 C1.31335925,32.0716574 0,37.9453479 0,44.1204785 C0,50.2370769 1.28772311,56.0619908 3.59990588,61.3493853 C1.72748154,64.1403882 0.701049872,67.4181826 0.701049872,70.8042613 C0.701049872,80.2610884 8.47767482,87.956101 18.0369976,87.956101 C21.6950778,87.956101 25.1973692,86.8069219 28.1317214,84.7114747 C33.0587906,86.6030352 38.4068841,87.6536854 44.000493,87.6536854 C49.6384721,87.6536854 55.0269919,86.5874267 59.9846273,84.6666002 C62.9426436,86.8196038 66.4932492,88 70.2104898,88 C79.7678405,88 87.5454515,80.305963 87.5454515,70.8491359 C87.5454515,67.3616016 86.4618315,64.0018624 84.4848906,61.1611072 C86.7467871,55.9244405 88,50.1639119 88,44.1204785 Z M6.74822127,50.2800004 L23.1247857,50.2800004 C25.2220193,57.2209252 30.7584399,62.6975734 37.7738686,64.7715587 L37.7738686,80.9751793 C21.9258031,78.3626991 9.38972986,65.9607348 6.74822127,50.2800004 Z M37.7738686,7.26382653 L37.7738686,23.465496 C30.7584399,25.5394814 25.2210333,31.0180806 23.1247857,37.9590054 L6.74822127,37.9590054 C9.38972986,22.2792466 21.9258031,9.87630672 37.7738686,7.26382653 Z M81.2517787,37.9599809 L64.8752143,37.9599809 C62.7789667,31.0190562 57.2425461,25.542408 50.2271174,23.4664716 L50.2271174,7.26382653 C66.0751829,9.87630672 78.6112561,22.2792466 81.2517787,37.9599809 Z M44.000493,59.520259 C35.4173156,59.520259 28.434425,52.6115268 28.434425,44.1195029 C28.434425,35.627479 35.4173156,28.7187469 44.000493,28.7187469 C52.5836704,28.7187469 59.566561,35.627479 59.566561,44.1195029 C59.566561,52.6115268 52.5836704,59.520259 44.000493,59.520259 Z M50.2261314,64.7725343 C57.2415601,62.6985489 62.7779807,57.2219007 64.8742283,50.280976 L81.2498067,50.280976 C78.6092841,65.9607348 66.0732109,78.3626991 50.2251454,80.9751793 L50.2251454,64.7725343 L50.2261314,64.7725343 Z M70.2104898,4.90010753 C77.0385775,4.90010753 82.5937321,10.3952908 82.5937321,17.1508641 C82.5937321,18.723425 82.2732804,20.2540379 81.6925232,21.6841709 C77.686383,15.1207778 71.9793835,9.68607758 65.180876,5.97514605 C66.7466526,5.28446795 68.44554,4.90010753 70.2104898,4.90010753 Z M5.65375522,17.1957387 C5.65375522,10.4401654 11.2089099,4.9449821 18.0360116,4.9449821 C19.727997,4.9449821 21.36378,5.30105202 22.8802564,5.9419779 C16.1320351,9.60998592 10.4575738,14.9763987 6.4465036,21.457847 C5.93673879,20.1047812 5.65375522,18.6678196 5.65375522,17.1957387 Z M18.0360116,83.0559934 C11.2089099,83.0559934 5.65375522,77.5598346 5.65375522,70.8032858 C5.65375522,69.3877859 5.91504667,68.001552 6.38931529,66.6914098 C10.3530572,73.1338366 15.9654002,78.47391 22.634741,82.1575266 C21.185313,82.7360183 19.6333404,83.0559934 18.0360116,83.0559934 Z M82.5937321,70.8481603 C82.5937321,77.6027581 77.0385775,83.0998925 70.2104898,83.0998925 C68.5401965,83.0998925 66.9241336,82.7526023 65.4234333,82.125334 C72.1470044,78.3987939 77.7889276,72.9836044 81.7506975,66.4553305 C82.2920145,67.8454665 82.5937321,69.3282783 82.5937321,70.8481603 Z" id="Shape" fill="#006FE8" fill-rule="nonzero" mask="url(#mask-2)"></path>
            </g>
        </g>
    </g>
</svg>