<?xml version="1.0" encoding="UTF-8"?>
<svg width="80px" height="80px" viewBox="0 0 80 80" version="1.1" xmlns="http://www.w3.org/2000/svg" xmlns:xlink="http://www.w3.org/1999/xlink">
    <!-- Generator: Sketch 53.2 (72643) - https://sketchapp.com -->
    <title>Combined Shape</title>
    <desc>Created with Sketch.</desc>
    <g id="RenProject" stroke="none" stroke-width="1" fill="none" fill-rule="evenodd">
        <g id="home" transform="translate(-445.000000, -3533.000000)" stroke="#006FE8" stroke-width="5.4">
            <g id="Group-27" transform="translate(140.000000, 3450.000000)">
                <g id="Group-26">
                    <path d="M333.7,90.2 L333.7,111.7 L312.2,111.7 C309.714719,111.7 307.7,113.714719 307.7,116.2 L307.7,129.8 C307.7,132.285281 309.714719,134.3 312.2,134.3 L333.7,134.3 L333.7,155.8 C333.7,158.285281 335.714719,160.3 338.2,160.3 L351.8,160.3 C354.285281,160.3 356.3,158.285281 356.3,155.8 L356.3,134.3 L377.8,134.3 C380.285281,134.3 382.3,132.285281 382.3,129.8 L382.3,116.2 C382.3,113.714719 380.285281,111.7 377.8,111.7 L356.3,111.7 L356.3,90.2 C356.3,87.7147186 354.285281,85.7 351.8,85.7 L338.2,85.7 C335.714719,85.7 333.7,87.7147186 333.7,90.2 Z" id="Combined-Shape"></path>
                </g>
            </g>
        </g>
    </g>
</svg>