<?xml version="1.0" encoding="UTF-8"?>
<svg width="16px" height="14px" viewBox="0 0 16 14" version="1.1" xmlns="http://www.w3.org/2000/svg" xmlns:xlink="http://www.w3.org/1999/xlink">
    <!-- Generator: Sketch 50.2 (55047) - http://www.bohemiancoding.com/sketch -->
    <title>github_logo</title>
    <desc>Created with Sketch.</desc>
    <defs></defs>
    <g id="Page-1" stroke="none" stroke-width="1" fill="none" fill-rule="evenodd">
        <g id="1.1.-About" transform="translate(-140.000000, -1501.000000)" fill="#006FE8">
            <g id="social_logos-copy-4" transform="translate(140.000000, 1501.000000)">
                <path d="M14.011218,0 L1.21869787,0 C0.545535588,0 0,0.50148 0,1.12028 L0,12.87972 C0,13.49852 0.545535588,14 1.21869787,14 L5.44560873,14 C5.50348241,13.98684 5.55374113,13.96584 5.59303432,13.93252 C5.68502301,13.8544 5.73040816,13.75724 5.73040816,13.64076 C5.73040816,13.62144 5.72858057,13.44672 5.72553459,13.11632 C5.72157481,12.7862 5.71974722,12.49808 5.71974722,12.25168 L5.47698236,12.29088 C5.32194181,12.31692 5.12638969,12.32784 4.8906306,12.32448 C4.6545669,12.3214 4.40936525,12.299 4.15624405,12.25616 C3.90220905,12.21444 3.66644996,12.11756 3.44805296,11.96524 C3.22965597,11.8132 3.07492002,11.61412 2.98323593,11.368 L2.87723571,11.14428 C2.8071781,10.99532 2.69630431,10.83068 2.54461435,10.64896 C2.39292439,10.4678 2.23971143,10.34432 2.08528009,10.27992 L2.0109581,10.23148 C1.96161317,10.199 1.91622802,10.1598 1.87358425,10.11444 C1.83124509,10.06964 1.79956686,10.02428 1.77854958,9.97892 C1.7575323,9.93356 1.7745898,9.89632 1.83124509,9.86692 C1.88759578,9.83724 1.99024541,9.82352 2.137671,9.82352 L2.34906223,9.85264 C2.48978665,9.87812 2.66462609,9.95624 2.87236214,10.0856 C3.08009819,10.21524 3.25097785,10.38352 3.38469651,10.59072 C3.54674282,10.85588 3.74199034,11.05832 3.97104827,11.19776 C4.20041081,11.33692 4.43099173,11.40636 4.66340025,11.40636 C4.89580877,11.40636 5.09653906,11.39012 5.26589572,11.35792 C5.43494779,11.32544 5.59303432,11.277 5.7413737,11.2126 C5.80473015,10.77804 5.97743739,10.44456 6.25888624,10.21188 C5.85712106,10.17268 5.49617205,10.11444 5.17573462,10.0366 C4.85529719,9.95904 4.52419882,9.83248 4.1827441,9.6572 C3.84068019,9.48276 3.55709916,9.26576 3.33139181,9.00704 C3.10659825,8.74804 2.92109787,8.40756 2.77732746,7.987 C2.63294786,7.5656 2.56075806,7.08008 2.56075806,6.52988 C2.56075806,5.74616 2.83885632,5.0792 3.39535745,4.52844 C3.13462129,3.93904 3.15929376,3.27908 3.46967944,2.54716 C3.67345572,2.48836 3.97683564,2.5326 4.37829622,2.67792 C4.78006141,2.8238 5.07369419,2.94868 5.26041295,3.05172 C5.44743632,3.1556 5.5969941,3.24352 5.70969547,3.31464 C6.36519105,3.14608 7.04170392,3.06208 7.73892947,3.06208 C8.43615502,3.06208 9.11236329,3.14608 9.76816346,3.31464 L10.169624,3.08084 C10.4437625,2.92544 10.7681597,2.78348 11.1419019,2.65384 C11.5150348,2.52448 11.8004434,2.48892 11.9981278,2.54716 C12.3146054,3.27908 12.3432376,3.93904 12.0821969,4.529 C12.6390026,5.0792 12.9171009,5.74616 12.9171009,6.52988 C12.9171009,7.08008 12.8449111,7.56728 12.7005315,7.99176 C12.5561519,8.41624 12.3697377,8.75616 12.1406798,9.0118 C11.9113172,9.268 11.6262132,9.48276 11.2844539,9.65804 C10.9429992,9.83248 10.6115962,9.95904 10.2914634,10.0366 C9.97072135,10.11444 9.60977234,10.17268 9.20800716,10.21188 C9.57443893,10.50336 9.75750252,10.96256 9.75750252,11.59088 L9.75750252,13.64076 C9.75750252,13.75724 9.80166928,13.8544 9.88969819,13.93196 C9.92777298,13.96556 9.97742251,13.98684 10.0349916,14 L14.011218,14 C14.6843803,14 15.2299159,13.49852 15.2299159,12.87972 L15.2299159,1.12028 C15.2299159,0.50148 14.6843803,0 14.011218,0" id="github_logo"></path>
            </g>
        </g>
    </g>
</svg>