<?xml version="1.0" encoding="UTF-8"?>
<svg width="70px" height="75px" viewBox="0 0 70 75" version="1.1" xmlns="http://www.w3.org/2000/svg" xmlns:xlink="http://www.w3.org/1999/xlink">
    <!-- Generator: Sketch 50.2 (55047) - http://www.bohemiancoding.com/sketch -->
    <title>Grouprp-icon-</title>
    <desc>Created with Sketch.</desc>
    <defs></defs>
    <g id="Page-1" stroke="none" stroke-width="1" fill="none" fill-rule="evenodd">
        <g id="1.-Home" transform="translate(-1179.000000, -1384.000000)">
            <g id="featurettes" transform="translate(140.000000, 1382.000000)">
                <g id="Group-41" transform="translate(1037.000000, 2.000000)">
                    <g id="Group" transform="translate(3.000000, 0.000000)">
                        <path d="M67.0564,19.0752 L52.3904,10.9272 L34.5224,1.0002 C34.1844,0.8122 33.7724,0.8122 33.4344,1.0002 L15.5664,10.9272 L0.9004,19.0752 L0.9004,21.1572 L33.9784,21.1572 L67.0564,21.1572 L67.0564,19.0752 Z" id="Fill-1" fill="#F5F5F5"></path>
                        <path d="M33.8318,18.4892 C30.5528,18.4892 27.8828,15.8212 27.8828,12.5402 C27.8828,9.2602 30.5528,6.5912 33.8318,6.5912 C37.1108,6.5912 39.7808,9.2602 39.7808,12.5402 C39.7808,15.8212 37.1108,18.4892 33.8318,18.4892" id="Fill-3" fill="#006FE8"></path>
                        <path d="M33.8318,8.455 C31.5788,8.455 29.7468,10.287 29.7468,12.54 C29.7468,14.793 31.5788,16.625 33.8318,16.625 C36.0848,16.625 37.9168,14.793 37.9168,12.54 C37.9168,10.287 36.0848,8.455 33.8318,8.455" id="Fill-5" fill="#F5F5F5"></path>
                        <polygon id="Stroke-7" stroke="#006FE8" stroke-width="2" points="8.219 59.5924 18.914 59.5924 18.914 24.8784 8.219 24.8784"></polygon>
                        <polygon id="Stroke-9" stroke="#006FE8" stroke-width="2" points="28.589 59.5924 39.283 59.5924 39.283 24.8784 28.589 24.8784"></polygon>
                        <polygon id="Stroke-10" stroke="#006FE8" stroke-width="2" points="48.958 59.5924 59.652 59.5924 59.652 24.8784 48.958 24.8784"></polygon>
                        <path d="M67.9559,70.8144 L67.9559,73.4974 L-9.99999993e-05,73.4974 L-9.99999993e-05,70.8144 C-9.99999993e-05,70.2514 0.4569,69.7944 1.0199,69.7944 L66.9359,69.7944 C67.4999,69.7944 67.9559,70.2514 67.9559,70.8144" id="Fill-11" fill="#F5F5F5"></path>
                        <path d="M67.9559,70.8144 L67.9559,73.4974 L-9.99999993e-05,73.4974 L-9.99999993e-05,70.8144 C-9.99999993e-05,70.2514 0.4569,69.7944 1.0199,69.7944 L66.9359,69.7944 C67.4999,69.7944 67.9559,70.2514 67.9559,70.8144 Z" id="Stroke-12" stroke="#58585B" stroke-width="2"></path>
                        <path d="M61.3562,60.6123 L61.3562,66.0163 L47.2532,66.0163 L47.2532,60.6123 C47.2532,60.0493 47.7102,59.5923 48.2732,59.5923 L60.3362,59.5923 C60.9002,59.5923 61.3562,60.0493 61.3562,60.6123" id="Fill-13" fill="#F5F5F5"></path>
                        <path d="M61.3562,60.6123 L61.3562,66.0163 L47.2532,66.0163 L47.2532,60.6123 C47.2532,60.0493 47.7102,59.5923 48.2732,59.5923 L60.3362,59.5923 C60.9002,59.5923 61.3562,60.0493 61.3562,60.6123 Z" id="Stroke-14" stroke="#58585B" stroke-width="2"></path>
                        <path d="M40.8836,60.6123 L40.8836,66.0163 L26.7796,66.0163 L26.7796,60.6123 C26.7796,60.0493 27.2376,59.5923 27.7996,59.5923 L39.8626,59.5923 C40.4266,59.5923 40.8836,60.0493 40.8836,60.6123" id="Fill-15" fill="#F5F5F5"></path>
                        <path d="M40.8836,60.6123 L40.8836,66.0163 L26.7796,66.0163 L26.7796,60.6123 C26.7796,60.0493 27.2376,59.5923 27.7996,59.5923 L39.8626,59.5923 C40.4266,59.5923 40.8836,60.0493 40.8836,60.6123 Z" id="Stroke-16" stroke="#58585B" stroke-width="2"></path>
                        <path d="M20.1541,60.6123 L20.1541,66.0163 L6.0511,66.0163 L6.0511,60.6123 C6.0511,60.0493 6.5081,59.5923 7.0711,59.5923 L19.1341,59.5923 C19.6981,59.5923 20.1541,60.0493 20.1541,60.6123" id="Fill-17" fill="#F5F5F5"></path>
                        <path d="M20.1541,60.6123 L20.1541,66.0163 L6.0511,66.0163 L6.0511,60.6123 C6.0511,60.0493 6.5081,59.5923 7.0711,59.5923 L19.1341,59.5923 C19.6981,59.5923 20.1541,60.0493 20.1541,60.6123 Z" id="Stroke-18" stroke="#58585B" stroke-width="2"></path>
                        <path d="M61.3562,21.1567 L61.3562,23.8587 C61.3562,24.4217 60.9002,24.8787 60.3362,24.8787 L48.2732,24.8787 C47.7102,24.8787 47.2532,24.4217 47.2532,23.8587 L47.2532,21.1567 L61.3562,21.1567 Z" id="Fill-19" fill="#F5F5F5"></path>
                        <path d="M61.3562,21.1567 L61.3562,23.8587 C61.3562,24.4217 60.9002,24.8787 60.3362,24.8787 L48.2732,24.8787 C47.7102,24.8787 47.2532,24.4217 47.2532,23.8587 L47.2532,21.1567 L61.3562,21.1567 Z" id="Stroke-20" stroke="#58585B" stroke-width="2"></path>
                        <path d="M40.8836,21.1567 L40.8836,23.8587 C40.8836,24.4217 40.4266,24.8787 39.8626,24.8787 L27.7996,24.8787 C27.2376,24.8787 26.7796,24.4217 26.7796,23.8587 L26.7796,21.1567 L40.8836,21.1567 Z" id="Fill-21" fill="#F5F5F5"></path>
                        <path d="M40.8836,21.1567 L40.8836,23.8587 C40.8836,24.4217 40.4266,24.8787 39.8626,24.8787 L27.7996,24.8787 C27.2376,24.8787 26.7796,24.4217 26.7796,23.8587 L26.7796,21.1567 L40.8836,21.1567 Z" id="Stroke-22" stroke="#58585B" stroke-width="2"></path>
                        <path d="M20.1541,21.1567 L20.1541,23.8587 C20.1541,24.4217 19.6981,24.8787 19.1341,24.8787 L7.0711,24.8787 C6.5081,24.8787 6.0511,24.4217 6.0511,23.8587 L6.0511,21.1567 L20.1541,21.1567 Z" id="Fill-23" fill="#F5F5F5"></path>
                        <path d="M20.1541,21.1567 L20.1541,23.8587 C20.1541,24.4217 19.6981,24.8787 19.1341,24.8787 L7.0711,24.8787 C6.5081,24.8787 6.0511,24.4217 6.0511,23.8587 L6.0511,21.1567 L20.1541,21.1567 Z" id="Stroke-24" stroke="#58585B" stroke-width="2"></path>
                        <path d="M66.826,19.7514 C66.826,19.3424 66.604,18.9664 66.248,18.7684 L52.263,10.9984 L34.518,1.1404 C34.182,0.9534 33.774,0.9534 33.438,1.1404 L15.694,10.9984 L1.709,18.7684 C1.351,18.9664 1.13,19.3424 1.13,19.7514 L1.13,21.1564 L33.978,21.1564 L66.826,21.1564 L66.826,19.7514 Z" id="Stroke-25" stroke="#58585B" stroke-width="2"></path>
                        <path d="M64.0809,67.0737 L64.0809,69.7567 L3.8759,69.7567 L3.8759,67.0737 C3.8759,66.5107 4.3319,66.0537 4.8949,66.0537 L63.0609,66.0537 C63.6239,66.0537 64.0809,66.5107 64.0809,67.0737" id="Fill-26" fill="#FFFFFF"></path>
                        <path d="M64.0809,67.0737 L64.0809,69.7567 L3.8759,69.7567 L3.8759,67.0737 C3.8759,66.5107 4.3319,66.0537 4.8949,66.0537 L63.0609,66.0537 C63.6239,66.0537 64.0809,66.5107 64.0809,67.0737 Z" id="Stroke-27" stroke="#58585B" stroke-width="2"></path>
                    </g>
                </g>
            </g>
        </g>
    </g>
</svg>