<svg xmlns="http://www.w3.org/2000/svg" viewBox="0 0 98.31 98.32"><defs><style>.cls-1,.cls-2{fill:#58585b;}.cls-2{stroke:#58585b;stroke-miterlimit:10;}</style></defs><title>Asset 1@alt</title><g id="Layer_2" data-name="Layer 2"><g id="Layer_1-2" data-name="Layer 1"><path class="cls-1" d="M80.89,59.82a1.65,1.65,0,0,0-.76.19c-.24.69-.51,1.38-.8,2.05a1.67,1.67,0,0,0,1.56,1.09l.15,0q.6-1.36,1.08-2.77A1.65,1.65,0,0,0,80.89,59.82Z"/><circle class="cls-1" cx="60.32" cy="65.66" r="1.67"/><circle class="cls-1" cx="80.89" cy="61.49" r="1.67"/><circle class="cls-1" cx="56.42" cy="16.33" r="1.67"/><circle class="cls-1" cx="81.82" cy="14.49" r="1.67"/><circle class="cls-1" cx="55.32" cy="49.16" r="1.67"/><path class="cls-2" d="M30.42,6.44a46.53,46.53,0,0,1,48.1,6.49,3.68,3.68,0,0,1,1.31-1.51A48.52,48.52,0,0,0,29.5,4.66,3.65,3.65,0,0,1,30.42,6.44Z"/><circle class="cls-1" cx="26.82" cy="7.16" r="1.67"/><circle class="cls-1" cx="15.32" cy="49.16" r="1.67"/><path class="cls-2" d="M15.32,45.49a3.62,3.62,0,0,1,1.19.21A32.79,32.79,0,0,1,52.77,16.53c0-.07,0-.13,0-.2a3.62,3.62,0,0,1,.47-1.75,34.77,34.77,0,0,0-38.71,31A3.64,3.64,0,0,1,15.32,45.49Z"/><path class="cls-2" d="M82,49.16a32.73,32.73,0,0,1-1.17,8.67h.08a3.62,3.62,0,0,1,1.85.52A34.8,34.8,0,0,0,60.06,16.09c0,.08,0,.16,0,.24a3.62,3.62,0,0,1-.45,1.73A32.88,32.88,0,0,1,82,49.16Z"/><path class="cls-2" d="M78.36,64.13A32.82,32.82,0,0,1,16.51,52.61a3.41,3.41,0,0,1-2,.12A34.82,34.82,0,0,0,80.12,65.07,3.66,3.66,0,0,1,78.36,64.13Z"/><path class="cls-2" d="M49.16,28.16a21,21,0,1,0,8.62,40.12,3.66,3.66,0,0,1-1-1.74,19,19,0,1,1,5.69-3.85,3.68,3.68,0,0,1,1.25,1.57,21,21,0,0,0-14.55-36.1Z"/><path class="cls-2" d="M53.3,52.21a5.17,5.17,0,1,1,0-6.11,3.64,3.64,0,0,1,2-.61,7.17,7.17,0,1,0,0,7.33A3.64,3.64,0,0,1,53.3,52.21Z"/><circle class="cls-1" cx="83.56" cy="81.82" r="1.67"/><path class="cls-2" d="M85.3,78.62A3.67,3.67,0,0,1,86.74,80,48.56,48.56,0,0,0,85,16.29a3.67,3.67,0,0,1-1.42,1.4A46.55,46.55,0,0,1,85.3,78.62Z"/><path class="cls-2" d="M80.45,83.74a46.55,46.55,0,0,1-50,8.14,3.63,3.63,0,0,1-.84,1.82,48.54,48.54,0,0,0,52.33-8.6A3.67,3.67,0,0,1,80.45,83.74Z"/><path class="cls-2" d="M24.34,88.64a46.6,46.6,0,0,1-.11-78.89,3.66,3.66,0,0,1-1-1.75,48.6,48.6,0,0,0,0,82.36A3.65,3.65,0,0,1,24.34,88.64Z"/><circle class="cls-1" cx="26.82" cy="91.32" r="1.67"/></g></g></svg>