<?xml version="1.0" encoding="UTF-8"?>
<svg width="75px" height="80px" viewBox="0 0 75 80" version="1.1" xmlns="http://www.w3.org/2000/svg" xmlns:xlink="http://www.w3.org/1999/xlink">
    <!-- Generator: Sketch 50.2 (55047) - http://www.bohemiancoding.com/sketch -->
    <title>rp-icon-Group</title>
    <desc>Created with Sketch.</desc>
    <defs></defs>
    <g id="Page-1" stroke="none" stroke-width="1" fill="none" fill-rule="evenodd">
        <g id="1.-Home" transform="translate(-140.000000, -1383.000000)">
            <g id="featurettes" transform="translate(140.000000, 1382.000000)">
                <g id="Group-39" transform="translate(0.000000, 2.000000)">
                    <g id="Group" transform="translate(2.000000, 0.000000)">
                        <path d="M24.04956,72.6117212 L5.64996,72.6117212 C4.98636,72.6117212 4.44996,72.0754788 4.44996,71.4147515 L4.44996,6.1811 C4.44996,5.52037273 4.98636,4.9841303 5.64996,4.9841303 L24.04956,4.9841303" id="Stroke-1" stroke="#58585B" stroke-width="2.4"></path>
                        <path d="M24.04956,4.98472879 L62.04996,4.98472879 C62.71356,4.98472879 63.24996,5.52097121 63.24996,6.18169848 L63.24996,71.41535 C63.24996,72.0760773 62.71356,72.6123197 62.04996,72.6123197 L24.04956,72.6123197" id="Stroke-3" stroke="#58585B" stroke-width="2.4"></path>
                        <polygon id="Stroke-5" stroke="#006FE8" stroke-width="2.4" points="30.54996 12.7650318 20.33556 12.7650318 8.89956 12.7650318 20.33556 12.7650318"></polygon>
                        <polygon id="Stroke-7" stroke="#006FE8" stroke-width="2.4" points="30.54996 17.5529106 20.33556 17.5529106 8.89956 17.5529106 20.33556 17.5529106"></polygon>
                        <polygon id="Stroke-9" stroke="#006FE8" stroke-width="2.4" points="30.54996 22.3407894 20.33556 22.3407894 8.89956 22.3407894 20.33556 22.3407894"></polygon>
                        <polygon id="Stroke-11" stroke="#006FE8" stroke-width="2.4" points="30.54996 68.0804727 20.33556 68.0804727 8.89956 68.0804727 20.33556 68.0804727"></polygon>
                        <polygon id="Stroke-13" stroke="#006FE8" stroke-width="2.4" points="30.54996 27.1286682 20.33556 27.1286682 15.34956 27.1286682 20.33556 27.1286682"></polygon>
                        <polygon id="Fill-15" fill="#F5F5F5" points="19.5906 18.494447 14.2446 15.9329318 8.8998 18.494447 8.8998 4.98425 19.5906 4.98425"></polygon>
                        <polygon id="Stroke-17" stroke="#58585B" stroke-width="2.4" points="19.5906 18.494447 14.2446 15.9329318 8.8998 18.494447 8.8998 4.98425 19.5906 4.98425"></polygon>
                        <path d="M69.84996,77.3996 L25.24956,77.3996 C24.58716,77.3996 24.04956,76.8633576 24.04956,76.2026303 L24.04956,1.39322121 C24.04956,0.732493939 24.58716,0.196251515 25.24956,0.196251515 L69.84996,0.196251515 C70.51356,0.196251515 71.04996,0.732493939 71.04996,1.39322121 L71.04996,76.2026303 C71.04996,76.8633576 70.51356,77.3996 69.84996,77.3996" id="Fill-19" fill="#F5F5F5"></path>
                        <path d="M69.84996,77.3996 L25.24956,77.3996 C24.58716,77.3996 24.04956,76.8633576 24.04956,76.2026303 L24.04956,1.39322121 C24.04956,0.732493939 24.58716,0.196251515 25.24956,0.196251515 L69.84996,0.196251515 C70.51356,0.196251515 71.04996,0.732493939 71.04996,1.39322121 L71.04996,76.2026303 C71.04996,76.8633576 70.51356,77.3996 69.84996,77.3996 Z" id="Stroke-21" stroke="#58585B" stroke-width="2.4"></path>
                        <path d="M55.73592,50.8166985 L36.96432,50.8166985 C36.15672,50.8166985 35.50152,50.163153 35.50152,49.3575924 L35.50152,30.6333955 C35.50152,29.8278348 36.15672,29.1742894 36.96432,29.1742894 L55.73592,29.1742894 C56.54352,29.1742894 57.19872,29.8278348 57.19872,30.6333955 L57.19872,49.3575924 C57.19872,50.163153 56.54352,50.8166985 55.73592,50.8166985" id="Fill-23" fill="#FFFFFF"></path>
                        <path d="M55.73592,50.8166985 L36.96432,50.8166985 C36.15672,50.8166985 35.50152,50.163153 35.50152,49.3575924 L35.50152,30.6333955 C35.50152,29.8278348 36.15672,29.1742894 36.96432,29.1742894 L55.73592,29.1742894 C56.54352,29.1742894 57.19872,29.8278348 57.19872,30.6333955 L57.19872,49.3575924 C57.19872,50.163153 56.54352,50.8166985 55.73592,50.8166985 Z" id="Stroke-25" stroke="#58585B" stroke-width="2.4"></path>
                        <path d="M8.89956,33.33735 L35.50116,33.33735" id="Stroke-27" stroke="#58585B" stroke-width="2.4"></path>
                        <path d="M8.89956,46.6536379 L35.50116,46.6536379" id="Stroke-29" stroke="#58585B" stroke-width="2.4"></path>
                        <path d="M53.14956,39.9954939 C53.14956,43.7408121 50.10516,46.7787212 46.35036,46.7787212 C42.59436,46.7787212 39.54996,43.7408121 39.54996,39.9954939 C39.54996,36.2501758 42.59436,33.2122667 46.35036,33.2122667 C50.10516,33.2122667 53.14956,36.2501758 53.14956,39.9954939 Z" id="Stroke-31" stroke="#006FE8" stroke-width="2.4"></path>
                        <path d="M46.35036,33.2128652 L46.35036,46.7781227" id="Stroke-33" stroke="#006FE8" stroke-width="2.4"></path>
                        <path d="M53.14956,39.9954939 L39.54996,39.9954939" id="Stroke-35" stroke="#006FE8" stroke-width="2.4"></path>
                        <path d="M51.15864,35.1994758 L41.54184,44.7919909" id="Stroke-37" stroke="#006FE8" stroke-width="2.4"></path>
                        <path d="M51.15864,44.7915121 L41.54184,35.198997" id="Stroke-39" stroke="#006FE8" stroke-width="2.4"></path>
                        <path d="M48.918,39.9954939 C48.918,41.4103121 47.7684,42.5570091 46.35,42.5570091 C44.9328,42.5570091 43.7832,41.4103121 43.7832,39.9954939 C43.7832,38.5806758 44.9328,37.4339788 46.35,37.4339788 C47.7684,37.4339788 48.918,38.5806758 48.918,39.9954939" id="Fill-41" fill="#FFFFFF"></path>
                        <path d="M48.918,39.9954939 C48.918,41.4103121 47.7684,42.5570091 46.35,42.5570091 C44.9328,42.5570091 43.7832,41.4103121 43.7832,39.9954939 C43.7832,38.5806758 44.9328,37.4339788 46.35,37.4339788 C47.7684,37.4339788 48.918,38.5806758 48.918,39.9954939 Z" id="Stroke-43" stroke="#006FE8" stroke-width="2.4"></path>
                        <polygon id="Fill-45" fill="#F5F5F5" points="0 35.5561727 8.8992 35.5561727 8.8992 31.1178091 0 31.1178091"></polygon>
                        <polygon id="Stroke-47" stroke="#006FE8" stroke-width="2.4" points="0 35.5561727 8.8992 35.5561727 8.8992 31.1178091 0 31.1178091"></polygon>
                        <polygon id="Fill-48" fill="#F5F5F5" points="0 48.8724606 8.8992 48.8724606 8.8992 44.434097 0 44.434097"></polygon>
                        <polygon id="Stroke-49" stroke="#006FE8" stroke-width="2.4" points="0 48.8724606 8.8992 48.8724606 8.8992 44.434097 0 44.434097"></polygon>
                    </g>
                </g>
            </g>
        </g>
    </g>
</svg>